M48
;Layer_Color=9474304
;FILE_FORMAT=4:4
METRIC,LZ
;TYPE=PLATED
T1F00S00C0.3000
T2F00S00C1.0000
T3F00S00C1.8000
T4F00S00C4.0000
%
T01
X-00885Y00115
Y001225
Y0013
Y001375
Y00145
X-00802498Y00129498
X-00768655Y0013125
X-00761147Y00131199
X-00753853
X-00746147
X-00738655
X-00731147
X-00731294Y00138801
Y00146294
X-00738801
Y00138801
X-00746294
Y00146294
X-00754
X-00761294
Y00138801
X-00754
X-00768801Y00138853
Y00146345
X-00755Y001
X-007475Y001035
X-007375Y001025
X-0072Y0010125
X-007125Y0010425
X-00705Y001
X-0068Y001065
X-0065Y0011
Y001175
Y00125
Y001325
Y001025
X-0063Y001025
X-0062Y001215
X-00595Y001025
X-0056857Y00074
X-005725Y00055
X-00565Y000475
X-005375Y00065
X-005125Y00065
X-00497501Y00047501
X-004565Y00055
Y000625
Y0007
Y000775
Y00085
X-0048Y00105
X-005125Y001025
X-00531147Y00131147
X-00538655Y00131198
X-00545949
X-00546Y00138706
X-00538706
X-00531199Y00138655
X-00531147Y00146198
X-00538655Y0014625
X-00545949
X-00553655
X-00561147
X-00568655
X-00568706Y00138706
X-00561199
X-00553706
X-00553655Y00131198
X-00561147
X-00568655
X-0049Y00135
X-0069Y001375
X-006975Y00145
X-006565Y0008375
Y0007625
Y0006875
Y0006125
X-006435
Y0006875
Y0007625
Y0008375
X-0061Y0004
X-006025Y000325
X-00594912Y00025
X-005875Y000175
X-0058Y0001
X-0069Y0004
X-006975Y000325
X-00705Y00025
X-007125Y000175
X-0072Y0001
X-0073Y000475
X-007375Y00055
X-007275Y000725
X-007625Y000625
X-007875Y0006
X-008025Y00055
X-0082Y001065
X-0045Y0011
Y001175
Y00125
Y001325
Y001025
X-004435Y00085
Y000775
Y0007
Y000625
Y00055
X-00402499Y00047501
X-003875Y00063002
X-003625Y000625
X-003375Y00055
X-0033Y000475
X-003275Y000725
X-0032Y0010125
X-003125Y0010425
X-00305Y001
X-0028Y001065
X-0025Y0011
Y001025
Y001175
Y00125
Y001325
X-0022Y001215
X-0023Y001025
X-002435Y00085
Y000775
Y0007
Y000625
X-002565
Y0007
Y000775
Y00085
X-0029Y0004
X-002975Y000325
X-00305Y00025
X-003125Y000175
X-0032Y0001
X-003375Y001025
X-003475Y001035
X-00355Y001
X-00353853Y00131199
X-00361147
X-00368655Y0013125
X-00368801Y00138853
Y00146345
X-00361294Y00146294
X-00354
Y00138801
X-00361294
X-00346294
X-00338801
Y00146294
X-00346294
X-00331294
Y00138801
X-00331147Y00131199
X-00338655
X-00346147
X-00402499Y00129498
X-0042Y001065
X-0029Y001375
X-002975Y00145
X-00168655Y0014625
X-00161147
X-00153655
X-00153706Y00138706
X-00161199
X-00168706
X-00168655Y00131198
X-00161147
X-00153655
X-00145949
X-00138655
X-00131147Y00131147
X-00131199Y00138655
X-00138706Y00138706
X-00146
X-00145949Y0014625
X-00138655
X-00131147Y00146198
X-0009Y00135
X-0008Y00105
X-001125Y001025
Y00065
X-000975Y000575
X-001375Y00065
X-00165Y00055
X-0017Y000475
X-0016857Y00074
X-00195Y001025
X-0021Y0004
X-002025Y000325
X-00195Y00025
X-001875Y000175
X-0018Y0001
X-00015Y00115
Y001225
X-00015Y0013
X-00015Y001375
Y00145
Y00195
Y002025
Y0021
Y002175
Y00225
X-00015Y00275
Y002825
Y0029
Y002975
Y00305
Y00355
Y003625
Y0037
Y003775
Y00385
Y00435
Y004425
Y0045
Y004575
Y00465
Y00515
Y005225
Y0053
Y005375
X-0009Y00535
X-0008Y00505
X-001125Y005025
Y00465
X-001375Y00465
Y004375
X-001125Y00438
X-00145Y004
X-001525Y003965
X-001625Y003975
X-0018Y0039875
X-001875Y0039575
X-00195Y0039875
X-0022Y003935
X-0025Y003925
Y004
Y00385
Y003775
Y0037
Y003325
Y00325
Y003175
Y0031
Y003025
X-0023Y003025
X-0022Y003215
X-00195Y003025
X-0016857Y00274
X-001375Y00265
X-001125Y00265
X-00112501Y00237999
X-001375Y002375
X-00145Y002
X-001525Y001965
X-001625Y001975
X-0018Y0019875
X-001875Y0019575
X-00195Y002
X-0022Y001935
X-0025Y001925
Y002
Y00185
Y001775
Y0017
X-0028Y001785
X-0027Y001975
X-00305Y001975
X-0033143Y00226
X-003625Y00235
X-003875Y00235
Y00263002
X-003625Y002625
X-00355Y003
X-003475Y003035
X-003375Y003025
X-0032Y0030125
X-003125Y0030425
X-00305Y003
X-0028Y003065
X-0029Y003375
X-002975Y00345003
X-00331294Y00346294
Y00338801
X-00338801
Y00346294
X-00346294
Y00338801
X-00354
X-00361294
Y00346294
X-00354
X-00354051Y0035375
X-00361345
X-00368853Y00353801
X-00368801Y00346345
Y00338853
X-00368655Y0033125
X-00361147Y00331199
X-00353853
X-00346147
X-00338655
X-00331147
X-00331345Y0035375
X-00338853
X-00346345
X-00346294Y00361294
X-00338801
X-00331294
X-00331345Y00368801
X-00338853
X-00346345
X-00354051
X-00361345
X-00368853Y00368853
X-00368801Y00361345
X-00361294Y00361294
X-00354
X-0041Y00365
X-0042Y00395
X-0045Y003925
Y00385
Y003775
Y0037
Y004
X-004435Y0041875
Y0042625
Y0043375
Y0044125
Y0045875
Y0046625
Y0047375
Y0048125
X-0045Y005025
Y0051
Y005175
Y00525
Y005325
X-00402499Y00529498
X-00368655Y0053125
X-00361147Y00531199
X-00353853
X-00346147
X-00338655
X-00331147
X-00331294Y00538801
X-00338801
X-00346294
X-00354
X-00361294
X-00368801Y00538853
X-00355Y005
X-003475Y005035
X-003375Y005025
X-0032Y0050125
X-003125Y0050425
X-00305Y005
X-0028Y005065
X-0025Y0051
Y005025
Y005175
Y00525
Y005325
X-0022Y005215
X-00229Y005025
X-00195Y005025
X-0016857Y00474
X-001725Y004275
X-00168853Y00368801
X-00161345
X-00153853
X-00146147
X-00138853
X-00131345Y0036875
X-00131199Y00361147
Y00353655
X-00131147Y00346198
X-00138655Y0034625
X-00145949
X-00146Y00353706
X-00138706
Y00361198
X-00146
X-00153706
X-00161199
Y00353706
X-00153706
X-00153655Y0034625
X-00161147
X-00168655
X-00168706Y00353706
Y00361198
Y00338706
X-00161199
X-00153706
X-00153655Y00331198
X-00161147
X-00168655
X-00145949
X-00138655
X-00131147Y00331147
X-00131199Y00338655
X-00138706Y00338706
X-00146
X-0009Y00335
X-0008Y00305
X-001125Y003025
X-00097501Y00370502
X-0008Y003935
X-002025Y00355
X-0021Y003625
X-0028Y003785
X-0027Y003975
X-002565Y0041875
Y0042625
Y0043375
Y0044125
X-002435
Y0043375
Y0042625
Y0041875
Y0045875
Y0046625
Y0047375
Y0048125
X-002565Y0048125
Y0047375
Y0046625
Y0045875
X-003275Y004725
X-003625Y004625
X-003875Y00463002
Y00435
X-003625Y00435
X-0033143Y00426
X-00305Y003975
X-003875Y003975
X-00402499Y00329498
X-0042Y003065
X-0045Y0031
Y003175
Y00325
Y003325
Y003025
X-004425Y0028125
Y0027375
Y0026625
Y0025875
Y0024125
Y0023375
Y0022625
Y0021875
X-0045Y002
Y001925
Y00185
Y001775
Y0017
X-0041Y00165
X-0042Y00195
X-003875Y001975
X-00368853Y00168853
X-00361345Y00168801
X-00354051
X-00354Y00161294
X-00361294
X-00368801Y00161345
X-00368853Y00153801
X-00361345Y0015375
X-00354051
X-00346345
X-00338853
X-00331345
X-00331294Y00161294
X-00338801
X-00346294
X-00346345Y00168801
X-00338853
X-00331345
X-003275Y002725
X-001725Y002275
X-00168853Y00168801
X-00161345
X-00153853
X-00146147
X-00138853
X-00131345Y0016875
X-00131199Y00161147
Y00153655
X-00138706Y00153706
X-00146
Y00161198
X-00138706
X-00153706
X-00161199
Y00153706
X-00153706
X-00168706
Y00161198
X-002025Y00154997
X-0021Y001625
X-00097501Y001705
X-0008Y001935
X-00131147Y00531147
X-00138655Y00531199
X-00145949
X-00146Y00538706
X-00138706
X-00131199Y00538655
X-00153706Y00538706
X-00161199
X-00168706
X-00168655Y00531199
X-00161147
X-00153655
X-0029Y005375
X-0042Y005065
X-0048Y00505
X-005125Y005025
Y00465
X-005375Y00465
Y004375
X-005125Y00437748
X-004565Y0044125
Y0043375
Y0042625
Y0041875
Y0045875
Y0046625
Y0047375
Y0048125
X-0049Y00535
X-00531199Y00538655
X-00538706Y00538706
X-00546
X-00545949Y00531199
X-00538655
X-00531147Y00531147
X-00553655Y00531199
X-00561147
X-00568655
X-00568706Y00538706
X-00561199
X-00553706
X-00595Y005025
X-00629Y005025
X-0065
Y0051
Y005175
Y00525
Y005325
X-0062Y005215
X-006435Y0048125
Y0047375
Y0046625
Y0045875
X-006565Y0045875
Y0046625
Y0047375
Y0048125
Y0044125
Y0043375
Y0042625
Y0041875
X-006435
Y0042625
Y0043375
Y0044125
X-0065Y004
Y003925
Y00385
Y003775
Y0037
Y003325
Y00325
Y003175
Y0031
Y003025
X-0063Y003025
X-0062Y003215
X-00595Y003025
X-0056857Y00274
X-005375Y00265
X-005125Y00265
X-00512501Y00236999
X-005375Y002375
X-00545Y002
X-005525Y001965
X-005625Y001975
X-0058Y0019875
X-005875Y0019575
X-00595Y002
X-0062Y001935
X-0065Y001925
Y00185
Y001775
Y0017
Y002
X-0067Y001975
X-0068Y001785
X-00705Y001975
X-0073143Y00226
X-007625Y00235
X-007875Y00235
X-007875Y00262002
X-007625Y002625
X-00755Y003
X-007475Y003035
X-007375Y003025
X-0072Y0030125
X-007125Y0030425
X-00705Y003
X-0068Y003065
X-0069Y003375
X-006975Y00345003
X-00731294Y00346294
Y00338801
X-00738801
Y00346294
X-00746294
Y00338801
X-00754
X-00761294
Y00346294
X-00754
X-00754051Y0035375
X-00761345
X-00768853Y00353801
X-00768801Y00346345
Y00338853
X-00768655Y0033125
X-00761147Y00331199
X-00753853
X-00746147
X-00738655
X-00731147
X-00731345Y0035375
X-00738853
X-00746345
X-00746294Y00361294
X-00738801
X-00731294
X-00731345Y00368801
X-00738853
X-00746345
X-00754051
X-00761345
X-00768853Y00368853
X-00768801Y00361345
X-00761294Y00361294
X-00754
X-0081Y00365
X-0082Y00395
X-007875Y003975
X-007875Y00435
X-007625Y00435
Y004625
X-007875Y00462002
X-00755Y005
X-007475Y005035
X-007375Y005025
X-0072Y0050125
X-007125Y0050425
X-00705Y005
X-0068Y005065
X-0069Y005375
X-00731294Y00538801
X-00738801
X-00746294
X-00754
X-00761294
X-00768801Y00538853
X-00768655Y0053125
X-00761147Y00531199
X-00753853
X-00746147
X-00738655
X-00731147
X-007275Y004725
X-0073143Y00426
X-00705Y003975
X-0067Y003975
X-0068Y003785
X-0062Y003935
X-00595Y004
X-005875Y0039575
X-0058Y0039875
X-005625Y003975
X-005525Y003965
X-00545Y004
X-00546147Y00368801
X-00538853
X-00531345Y0036875
X-00531199Y00361147
Y00353655
X-00531147Y00346198
X-00538655Y0034625
X-00545949
X-00546Y00353706
X-00538706
Y00361198
X-00546
X-00553706
X-00561199
Y00353706
X-00553706
X-00553655Y0034625
X-00561147
X-00568655
X-00568706Y00353706
Y00361198
X-00568853Y00368801
X-00561345
X-00553853
X-00553706Y00338706
X-00561199
X-00568706
X-00568655Y00331198
X-00561147
X-00553655
X-00545949
X-00538655
X-00531147Y00331147
X-00531199Y00338655
X-00538706Y00338706
X-00546
X-0049Y00335
X-0048Y00305
X-005125Y003025
X-004565Y0028125
Y0027375
Y0026625
Y0025875
X-004575Y0024125
Y0023375
Y0022625
Y0021875
X-0048Y001935
X-00497501Y00170501
X-00531345Y0016875
X-00538853Y00168801
X-00546147
X-00553853
X-00561345
X-00568853
X-00568706Y00161198
Y00153706
X-00561199
Y00161198
X-00553706
Y00153706
X-00546
X-00538706
Y00161198
X-00546
X-00531199Y00161147
Y00153655
X-006025Y00154997
X-0061Y001625
X-005725Y002275
X-006025Y00355
X-0061Y003625
X-005725Y004275
X-0056857Y00474
X-0048Y003935
X-00497501Y00370502
X-007275Y002725
X-00731345Y00168801
X-00738853
X-00746345
X-00746294Y00161294
X-00738801
X-00731294
X-00731345Y0015375
X-00738853
X-00746345
X-00754051
X-00761345
X-00768853Y00153801
X-00768801Y00161345
X-00761294Y00161294
X-00754
X-00754051Y00168801
X-00761345
X-00768853Y00168853
X-0081Y00165
X-0082Y00195
X-007875Y001975
X-0082Y003065
X-00802499Y00329498
X-0082Y005065
X-00802499Y00529498
X-00885Y0053
Y005225
Y00515
Y005375
Y00465
Y004575
Y0045
Y004425
Y00435
Y00385
Y003775
Y0037
Y003625
Y00355
X-00885Y00305
Y002975
Y0029
Y002825
Y00275
Y00225
Y002175
Y0021
Y002025
Y00195
X-00885Y00545
Y00595
Y006025
Y0061
Y006175
Y00625
X-00885Y00675
Y006825
Y0069
Y006975
Y00705
Y00755
Y007625
X-00885Y0077
X-00885Y007775
Y00785
X-00884498Y00927252
X-00876998
X-00869498
X-00861998
X-00854499Y00927001
X-00854999Y00937001
X-00862499
X-00869999
X-00877499
X-00884999
X-00847999Y00937001
X-00846998Y00927252
X-00839499Y00932001
X-00786998Y00927252
X-00776998
X-00766998
X-00756998
X-00755499Y00937001
X-00748499Y00937001
X-00762999Y00937001
X-00770499
X-00777999
X-00785499
X-00724999
X-00717499
X-00709999
X-00702499
X-00694999
X-00687999Y00937001
X-00686998Y00927252
X-00694499Y00927001
X-00701998Y00927252
X-00709498
X-00716998
X-00724498
X-00679499Y00932001
X-00626998Y00927252
X-00616998
X-00606998
X-00596998
X-00595499Y00937001
X-00588499Y00937001
X-00602999Y00937001
X-00610499
X-00617999
X-00625499
X-00565999
X-00558499
X-00550999
X-00543499
X-00535999
X-00528999Y00937001
X-00527998Y00927252
X-00535499Y00927001
X-00542998Y00927252
X-00550498
X-00557998
X-00565498
X-00520499Y00932001
X-00467998Y00927252
X-00457998
X-00458999Y00937001
X-00466499
X-004565Y0088125
Y0087375
Y0086625
Y0085875
X-004865Y00811998
X-0051Y00825
X-005175Y008325
X-00537501Y00837501
X-0057Y008275
X-005625Y007975
X-005525Y007965
X-00545Y008
X-00546147Y00768801
X-00538853
X-00531345Y0076875
X-00531199Y00761147
Y00753655
X-00531147Y00746199
X-00538655Y0074625
X-00545949
X-00546Y00753706
X-00538706
Y00761199
X-00546
X-00553706
X-00561199
Y00753706
X-00553706
X-00553655Y0074625
X-00561147
X-00568655
X-00568706Y00753706
Y00761199
X-00568853Y00768801
X-00561345
X-00553853
X-00553706Y00738706
X-00561199
X-00568706
X-00568655Y00731199
X-00561147
X-00553655
X-00545949
X-00538655
X-00531147Y00731147
X-00531199Y00738655
X-00538706Y00738706
X-00546
X-0049Y00735
X-0048Y00705
X-005125Y007025
Y00665
X-005375Y00665
Y006375
X-00512501Y00636999
X-004565Y0063375
Y0064125
Y0062625
Y0061875
Y0065875
Y0066625
Y0067375
Y0068125
X-0048Y005935
X-00497501Y00570502
X-00531345Y0056875
X-00538853Y00568801
X-00546147
X-00553853
X-00561345
X-00568853
X-00568706Y00561198
Y00553706
X-00561199
Y00561198
X-00553706
Y00553706
X-00553655Y0054625
X-00561147
X-00568655
X-00545949
X-00538655
X-00538706Y00553706
X-00546
Y00561198
X-00538706
X-00531199Y00561147
Y00553655
X-00531147Y00546199
X-00545Y006
X-005525Y005965
X-005625Y005975
X-0058Y0059875
X-005875Y0059575
X-00595Y006
X-0062Y005935
X-0065Y005925
Y006
Y00585
Y005775
Y0057
X-0068Y005785
X-0067Y005975
X-00705Y005975
X-0073143Y00626
X-007625Y00635
X-007875Y00635
X-007875Y00662002
X-007625Y006625
X-00755Y007
X-007475Y007035
X-007375Y007025
X-0072Y0070125
X-007125Y0070425
X-00705Y007
X-0068Y007065
X-0065Y0071
Y007025
Y007175
Y00725
Y007325
Y0077
Y007775
Y00785
Y007925
Y008
X-0067Y007975
X-0068Y007785
X-00705Y007975
X-0073143Y00826
X-007625Y00835
X-007965Y008255
X-007875Y007975
X-0082Y00795
X-0081Y00765
X-00802498Y00729498
X-00768655Y0073125
X-00761147Y00731199
X-00753853
X-00746147
X-00738655
X-00731147
X-00731294Y00738801
Y00746294
X-00738801
Y00738801
X-00746294
Y00746294
X-00746345Y0075375
X-00738853
X-00731345
X-00731294Y00761294
X-00738801
X-00746294
X-00746345Y00768801
X-00738853
X-00731345
X-00754051
X-00761345
X-00768853Y00768853
X-00768801Y00761345
X-00761294Y00761294
X-00754
X-00754051Y0075375
X-00761345
X-00761294Y00746294
X-00754
Y00738801
X-00761294
X-00768801Y00738853
Y00746345
X-00768853Y00753801
X-006975Y00745
X-0069Y00737499
X-0062Y007215
X-00620499Y00711
X-00595Y00702
X-0056857Y00674
X-005725Y006275
X-0061Y005625
X-006025Y00554997
X-006975Y00545001
X-00731294Y00546294
X-00738801
X-00746294
X-00746345Y0055375
X-00738853
X-00731345
X-00731294Y00561294
X-00738801
X-00746294
X-00746345Y00568801
X-00738853
X-00731345
X-00754051
X-00761345
X-00768853Y00568853
X-00768801Y00561345
X-00761294Y00561294
X-00754
X-00754051Y0055375
X-00761345
X-00761294Y00546294
X-00754
X-00768801Y00546345
X-00768853Y00553801
X-0081Y00565
X-0082Y00595
X-007875Y005975
X-007275Y006725
X-0082Y007065
X-006025Y00755
X-0061Y007625
X-0062Y007935
X-00595Y008
X-005875Y0079575
X-0058Y0079875
X-006435Y0081875
Y0082625
Y0083375
Y0084125
X-006565
Y0083375
Y0082625
Y0081875
Y0085875
Y0086625
Y0087375
Y0088125
X-006435Y0088125
Y0087375
Y0086625
Y0085875
X-004975Y00770502
X-00473999Y00787501
X-0045Y00785
Y007775
Y0077
Y007925
Y008
X-0042Y00795
X-004125Y0081
X-004225Y00825
X-004175Y008325
X-004225Y0084
X-004435Y0085875
Y0086625
Y0087375
Y0088125
X-00447998Y00927252
X-00437998
X-00436499Y00937001
X-00429499Y00937001
X-00443999Y00937001
X-00451499
X-003625Y00835
X-003525Y008175
X-0033143Y00826
X-00305Y007975
X-0027
X-0025Y008
Y007925
Y00785
Y007775
Y0077
Y007325
Y00725
Y007175
Y0071
Y007025
X-0028Y007065
X-00305Y007
X-003125Y0070425
X-0032Y0070125
X-003375Y007025
X-003475Y007035
X-00355Y007
X-00353853Y00731199
X-00361147
X-00368655Y0073125
X-00368801Y00738853
Y00746345
X-00368853Y00753801
X-00361345Y0075375
X-00354051
X-00354Y00746294
X-00361294
Y00738801
X-00354
X-00346294
X-00338801
Y00746294
X-00346294
X-00346345Y0075375
X-00338853
X-00331345
X-00331294Y00746294
Y00738801
X-00331147Y00731199
X-00338655
X-00346147
X-00346294Y00761294
X-00338801
X-00331294
X-00331345Y00768801
X-00338853
X-00346345
X-00354051
X-00361345
X-00368853Y00768853
X-00368801Y00761345
X-00361294Y00761294
X-00354
X-0041Y00765
X-00402499Y00729498
X-0042Y007065
X-0045Y0071
Y007025
Y007175
Y00725
Y007325
X-004435Y0068125
Y0067375
Y0066625
Y0065875
Y0064125
Y0063375
Y0062625
Y0061875
X-0045Y006
Y005925
Y00585
Y005775
Y0057
X-0041Y00565
X-0042Y00595
X-003875Y005975
X-003875Y00635
X-003625Y00635
Y006625
X-003875Y00663002
X-003275Y006725
X-0033143Y00626
X-00305Y005975
X-0027Y005975
X-0025Y006
Y005925
Y00585
Y005775
Y0057
X-0028Y005785
X-002975Y00545001
X-00331294Y00546294
X-00338801
X-00346294
X-00346345Y0055375
X-00338853
X-00331345
X-00331294Y00561294
X-00338801
X-00346294
X-00346345Y00568801
X-00338853
X-00331345
X-00354051
X-00361345
X-00368853Y00568853
X-00368801Y00561345
X-00361294Y00561294
X-00354
X-00354051Y0055375
X-00361345
X-00361294Y00546294
X-00354
X-00368801Y00546345
X-00368853Y00553801
X-002025Y00554997
X-0021Y005625
X-0022Y005935
X-00195Y006
X-001875Y0059575
X-0018Y0059875
X-001625Y005975
X-001525Y005965
X-00145Y006
X-00146147Y00568801
X-00138853
X-00131345Y0056875
X-00131199Y00561147
Y00553655
X-00131147Y00546199
X-00138655Y0054625
X-00145949
X-00146Y00553706
X-00138706
Y00561198
X-00146
X-00153706
X-00161199
Y00553706
X-00153706
X-00153655Y0054625
X-00161147
X-00168655
X-00168706Y00553706
Y00561198
X-00168853Y00568801
X-00161345
X-00153853
X-00097501Y00570499
X-0008Y005935
X-001125Y00637998
X-001375Y006375
Y00665
X-001125Y00665
Y007025
X-0008Y00705
X-0009Y00735
X-000975Y0077
X-00131345Y0076875
X-00138853Y00768801
X-00146147
X-00153853
X-00161345
X-00168853
X-00168706Y00761199
Y00753706
X-00161199
Y00761199
X-00153706
Y00753706
X-00153655Y0074625
X-00161147
X-00168655
X-00168706Y00738706
X-00161199
X-00153706
X-00153655Y00731199
X-00161147
X-00168655
X-00145949
X-00138655
X-00131147Y00731147
X-00131199Y00738655
X-00138706Y00738706
X-00146
X-00145949Y0074625
X-00138655
X-00138706Y00753706
X-00146
Y00761199
X-00138706
X-00131199Y00761147
Y00753655
X-00131147Y00746199
X-001275Y008025
X-0012Y007975
X-00145Y008
X-001525Y00797
X-001625Y007975
X-0018Y0079925
X-001875Y007955
X-00195Y008
X-0022Y007935
X-0021Y007625
X-002025Y00755
X-0022Y007215
X-00220499Y00711
X-00195Y00702
X-0016857Y00674
X-001725Y006275
X-0017Y008275
X-001375Y008375
X-001025Y00827998
X-0008Y007935
X-000865Y00913132
X-0010225Y009315
X-00102869Y0093925
X-00108Y00935
X-00124499Y00920179
X-001575Y0092
X-0018Y00915
X-0019
X-002
X-0021
X-0022
X-00237Y00931
X-002435Y0088125
Y0087375
Y0086625
Y0085875
X-002565Y0085875
Y0086625
Y0087375
Y0088125
Y0084125
Y0083375
Y0082625
Y0081875
X-002435
Y0082625
Y0083375
Y0084125
X-0028Y007785
X-002975Y00745
X-0029Y00737499
X-003875Y007975
X-00175Y00931
X-00015Y00785
Y007775
Y0077
Y007625
Y00755
Y00705
Y006975
Y0069
Y006825
Y00675
Y00625
Y006175
Y0061
Y006025
Y00595
X-00015Y00545
X-00034617Y009675
Y00985
X-00043499Y01002501
X-00027999Y01005001
X-00024999Y01044501
X-00009999
X-00010385Y01077501
X-00015Y01083
X-00024999Y01077501
X-00044999Y01075001
X-00052499Y01100001
X-00049999Y01115001
X-00057999
X-00039999Y01115001
X-00014999Y01120001
X-00015Y01151
X-00044999Y01189501
X-00037499Y01230001
X-0005534Y01026515
X-000585Y0101825
X-00068999Y01002501
X-00094499
X-00119499
X-001195Y01015749
X-00109999Y01015251
X-00103257Y01020509
X-00124499Y01022501
X-00132499Y01018839
X-00145999Y01014501
X-00144999Y01002501
X-001475Y009905
X-001625Y0099275
Y0098475
Y0100125
X-001925Y010025
X-002025
Y010275
X-001925Y0102775
X-00227499Y01020001
X-002275Y01005
X-0022725Y0099475
X-00259999Y0100297
X-00259999Y01017501
Y01035001
Y01050001
X-0027Y0105
X-002825Y010575
X-0028Y0106525
X-00279499Y01074499
X-00277847Y01090001
X-002795Y01108
X-0030375Y011075
X-00305Y01145
X-003125
X-0032
X-00328Y01145
X-00335Y01145
X-003425
X-0035
X-003575
X-00365
X-0036Y01155
X-003525
X-00345
X-003375
X-0033
X-00323Y01155
X-00315Y01155
X-003075
X-003
X-002925
X-00285
X-00278Y01155
X-0027Y01155
Y011625
Y0117
Y011775
Y01185
X-0027Y01192
X-0026Y01187
X-0026Y0118
Y011725
Y01165
Y011575
Y0115
X-0025175Y0115325
X-00240915Y011305
X-00234999Y01124749
X-00229999Y01115001
X-0022475Y011075
X-00242584Y01110001
X-00243Y01077
X-00252999Y01072001
X-00228079Y01075746
X-00227499Y01065001
Y01050001
X-00228079Y01035001
X-00219999Y01080001
X-00182499Y01079624
X-00182999Y01090001
X-00189999Y01110001
X-0017175Y011165
X-00172499Y01137501
X-0016475Y011325
X-001575Y01128
X-00147499Y01124501
X-00139Y0113225
X-00134999Y01165001
X-00144999
X-00140999Y01200001
X-00114999
X-00116999Y012196
X-00124999Y01220001
X-00132999
X-00148999
X-00193019Y0120802
X-00189999Y01189001
Y01170001
X-00219999Y01136664
X-00228623Y01135625
X-00283Y01145
X-0029Y01145
X-002975
X-003635Y01165
Y011725
Y0118
X-003635Y01187
X-003635Y01195
Y012025
Y0121
Y012175
Y01225
X-003635Y01232
X-0036Y0124
X-003525
X-00345
X-003375
X-0033
X-00323Y0124
X-00315Y0124
X-003075
X-003
X-002925
X-00285
X-00278Y0124
X-0027Y012375
Y01245
X-0026Y012425
Y0125
Y01235
Y012275
Y0122
X-0026Y01213
X-0027Y01215
X-0027Y01208
X-0027Y012225
Y0123
X-00283Y0125
X-0029Y0125
X-002975
X-00305
X-003125
X-0032
X-00328Y0125
X-00335Y0125
X-003425
X-0035
X-003575
X-00365
X-00275Y01262251
X-00263Y0129475
X-00236249Y01303001
X-00216499Y01247501
Y01226251
X-00177499Y01257501
Y01267501
Y01277501
X-00162499Y01295001
X-00152499
X-00142499
X-00132499
X-00122499
X-00112499Y01295001
X-00102499Y01295001
X-00088499Y01277501
Y01267501
Y01257501
X-00080499Y01189501
X-00065999
X-0006Y0115275
X-00077499Y01150001
Y01140001
X-00072499Y01132501
X-00074617Y01117751
X-00066589Y01115001
X-00074617Y01087251
X-00069999Y01080001
X-00059999Y01075501
X-00100424Y01075001
Y01085001
X-00109999Y01057501
X-00115889Y01050001
X-00148999Y01052501
X-00189Y01068
X-00132499Y01100001
X-00094999Y01154751
X-00121249Y00988751
X-0011425Y00978
X-0012425Y009655
X-00124Y0094975
X-00102869Y009595
X-0014Y009735
X-00161Y0096575
X-001575Y0095
X-00259999Y00970751
X-00429499Y00967001
Y00977001
X-00436499Y00977001
X-00443999
X-00451499
Y00987001
X-00443999
X-00436499
X-00429499
X-00437998Y00997001
X-00447998
X-00450999Y01017501
Y01025001
Y01032501
Y01040001
Y01047501
Y01055001
Y01062501
Y01070001
Y01077501
Y01085001
Y01092501
X-00440998Y01094
X-00440999Y01136001
X-00451Y01132
X-004325Y011525
X-0041025Y01153
X-00410125Y01142375
X-0041Y011325
Y011225
Y01184
X-0044625Y0117725
X-0044925Y0121025
X-00433999Y01207497
X-00429499Y00957001
Y00947001
X-00436499Y00947001
X-00443999
X-00451499
X-00458999
X-00466499
Y00977001
X-00458999
Y00987001
X-00466499
X-00467998Y00997001
X-00457998
X-00470999Y01017501
Y01025001
Y01032501
Y01040001
Y01047501
Y01055001
Y01062501
Y01070001
Y01077501
Y01085001
Y01092501
Y01100001
Y01107501
Y01115001
Y01122501
X-00475Y01144501
X-00484999
X-00499Y01133
X-005055
X-00511749Y01133001
Y01121951
X-00505499Y01122001
X-00499249Y01121949
Y01109249
X-00505499
X-00511749
Y01096501
X-00505499
X-00505249Y01090251
X-00511499
X-00500249Y01093501
X-00499999Y01086751
X-00499249Y01070553
X-00505499
X-00511749
Y01059503
X-00505499Y01059553
X-00499249Y01059501
Y01046801
X-00505499
X-00511749
Y01034053
X-00505499
X-00499249
X-00499249Y01027751
X-00505499
X-00511749
X-00532999Y01027001
X-00540499
X-00547999
X-00555499
X-00562999
X-00562999Y01034501
X-00555499
Y01046801
X-00562999
Y01059501
X-00555499
X-00546999Y01058001
Y01065501
Y01073001
X-00555499Y01072201
X-00562999
Y01084501
X-00555499
X-00557999Y01090725
X-00565499
X-00562999Y01097001
X-00555499Y01097003
X-00550499Y01090725
X-00542999
X-00535499
X-00528177
X-00527999Y01077001
Y01064501
X-00536999Y01065502
Y01073002
Y01058002
Y01050502
Y01043002
X-00546999Y01043001
Y01050501
X-00527999Y01052001
Y01039501
X-00532998Y01017001
X-00540498
X-00547998
X-00555498
X-00562998
X-00562999Y01007001
X-00555499
X-00547999
X-00540499
X-00532999
X-00533248Y00997004
X-00540748
X-00548248
X-00555748
X-00563248
X-00565999Y00987001
X-00558499
X-00550999
X-00543499
X-00535999
X-00528999
Y00977001
X-00535999Y00977001
X-00543499
X-00550999
X-00558499
X-00565999
Y00967001
Y00957001
Y00947001
X-00558499
X-00550999
X-00543499
X-00535999
X-00528999Y00947001
X-00520499Y00952001
Y00962001
Y00972001
Y00982001
X-00520498Y00992252
Y01002252
X-00525498Y00997252
X-00520499Y00942001
X-00588499Y00947001
X-00595499Y00947001
X-00602999
X-00610499
X-00617999
X-00625499
Y00977001
X-00617999
X-00610499
X-00602999
X-00595499
X-00588499Y00977001
Y00987001
X-00595499
X-00602999
X-00610499
X-00617999
X-00625499
X-00626998Y00997001
X-00616998
X-00606998
X-00596998
X-00609999Y01017501
Y01025001
Y01032501
Y01040001
Y01047501
Y01055001
Y01062501
Y01070001
Y01077501
Y01085001
Y01092501
X-00599999Y01095001
X-00629999Y01092501
Y01100001
Y01107501
Y01115001
Y01122501
X-00634Y01144501
X-00643999
X-0065825Y01133
X-006645
X-00670749Y01133001
Y01121951
X-00664499Y01122001
X-00658249Y01121949
Y01109249
X-00664499
X-00670749
Y01096501
X-00664499
X-00664249Y01090251
X-00670499
X-00659249Y01093501
X-00658999Y01086751
X-00658249Y01070553
X-00664499
X-00670749
Y01059503
X-00664499Y01059553
X-00658249Y01059501
Y01046801
X-00664499
X-00670749
Y01034053
X-00664499
X-00658249
X-00658249Y01027751
X-00664499
X-00670749
X-00691999Y01027001
X-00699499
X-00706999
X-00714499
X-00721999
X-00721999Y01034501
X-00714499
Y01046801
X-00721999
Y01059501
X-00714499
X-00705999Y01058001
Y01065501
Y01073001
X-00714499Y01072201
X-00721999
Y01084501
X-00714499
X-00716999Y01090725
X-00724499
X-00721999Y01097001
X-00714499Y01097003
X-00709499Y01090725
X-00701999
X-00694499
X-00687177
X-00686999Y01077001
Y01064501
X-00695999Y01065502
Y01073002
Y01058002
Y01050502
Y01043002
X-00705999Y01043001
Y01050501
X-00686999Y01052001
Y01039501
X-00691998Y01017001
X-00699498
X-00706998
X-00714498
X-00721998
X-00721999Y01007001
X-00714499
X-00706999
X-00699499
X-00691999
X-00692248Y00997004
X-00699748
X-00707248
X-00714748
X-00722248
X-00724999Y00987001
X-00717499
X-00709999
X-00702499
X-00694999
X-00687999
Y00977001
X-00694999Y00977001
X-00702499
X-00709999
X-00717499
X-00724999
Y00967001
Y00957001
Y00947001
X-00717499
X-00709999
X-00702499
X-00694999
X-00687999Y00947001
X-00679499Y00952001
Y00962001
Y00972001
Y00982001
X-00679498Y00992252
Y01002252
X-00684498Y00997252
X-00679499Y00942001
X-00748499Y00947001
X-00755499Y00947001
X-00762999
X-00770499
X-00777999
X-00785499
Y00977001
X-00777999
X-00770499
X-00762999
X-00755499
X-00748499Y00977001
Y00987001
X-00755499
X-00762999
X-00770499
X-00777999
X-00785499
X-00786998Y00997001
X-00776998
X-00766998
X-00756998
X-0077Y010175
Y01025
Y010325
Y0104
Y010475
Y01055
Y010625
Y0107
Y010775
Y01085
Y010925
X-0076Y01095
X-0079Y010925
Y011
Y011075
Y01115
Y011225
X-00794Y01144501
X-00803999
X-0081825Y01133
X-008245
X-00830749Y01133001
Y01121951
X-00824499Y01122001
X-00818249Y01121949
Y01109249
X-00824499
X-00830749
Y01096501
X-00824499
X-00824249Y01090251
X-00830499
X-00819249Y01093501
X-00818999Y01086751
X-00818249Y01070553
X-00824499
X-00830749
Y01059503
X-00824499Y01059553
X-00818249Y01059501
Y01046801
X-00824499
X-00830749
Y01034053
X-00824499
X-00818249
X-00818249Y01027751
X-00824499
X-00830749
X-00851999Y01027001
X-00851998Y01017001
X-00851999Y01007001
X-00852248Y00997004
X-00844498Y00997252
X-00839498Y01002252
Y00992252
X-00839499Y00982001
Y00972001
Y00962001
Y00952001
Y00942001
X-00847999Y00947001
Y00977001
Y00987001
X-00846999Y01039501
Y01052001
Y01064501
Y01077001
X-00847177Y01090725
X-00847355Y01104448
Y01116948
Y01129448
Y01141948
X-00849499Y01182356
X-00847999Y01191501
X-00840499
X-00840501Y01201501
X-00848001
X-00844199Y01209501
X-00844299Y01217001
X-0083Y01217
Y012045
Y01192
X-00836999Y01182356
X-0082175Y01225
X-0081425
X-0080675
X-0079925
X-0079075Y0121
X-0078325
X-0077575
X-0076825
X-00753Y01207748
X-00728223Y01204501
Y01197001
Y01189501
X-0072825Y011825
X-00714499Y01182356
X-00701999
X-00702999Y01191501
X-00710499
X-00710501Y01201501
X-00703001
X-00695501
X-00688001
X-00680501
X-00680499Y01191501
X-00687999
X-00695499
X-00689499Y01182356
X-00676999
X-0067Y01192
Y012045
Y01217
X-00684299Y01217001
X-00684199Y01209501
X-00696999
Y01217001
X-00709699
X-00709447Y01209501
X-00721945
X-00721947Y01217001
X-00728223Y01219501
Y01212001
X-00721999Y01157001
Y01149501
X-00709499
Y01157001
X-00696999
Y01149501
X-00695999Y01138002
Y01130502
Y01123002
Y01115502
Y01108002
X-00705999Y01108001
Y01115501
Y01123001
Y01130501
Y01138001
X-00714499Y01134749
X-00721999Y01134649
Y01121949
X-00714499
Y01109501
X-00721999Y01109249
X-00687355Y01104448
Y01116948
Y01129448
Y01141948
X-00750999Y01153501
X-00759999Y01136002
X-0077Y01132
X-0079Y01085
Y010775
Y0107
Y010625
Y01055
Y010475
Y0104
Y010325
Y01025
Y010175
X-00748499Y00967001
Y00957001
X-00588499
Y00967001
X-00629999Y01017501
Y01025001
Y01032501
Y01040001
Y01047501
Y01055001
Y01062501
Y01070001
Y01077501
Y01085001
X-0061Y01132
X-00599999Y01136002
X-00590999Y01153501
X-00563Y011555
X-00562999Y01148751
X-00550499
Y01155501
X-00537999
Y01148751
X-00536999Y01138002
Y01130502
Y01123002
Y01115502
Y01108002
X-00546999Y01108001
Y01115501
Y01123001
Y01130501
Y01138001
X-00555499Y01134749
X-00562999Y01134649
Y01121949
X-00555499
Y01109501
X-00562999Y01109249
X-00528355Y01104448
Y01116948
Y01129448
Y01141948
X-00530499Y01182356
X-00528999Y01191501
X-00521499
X-00521501Y01201501
X-00529001
X-00536501
X-00544001
X-00551501
X-00550447Y01209501
X-00550699Y01217001
X-00562947
X-00562945Y01209501
X-00569223Y01212001
Y01219501
Y01204501
Y01197001
Y01189501
X-0056925Y011825
X-00555499Y01182356
X-00542999
X-00543999Y01191501
X-00551499
X-00536499
X-00537999Y01209501
Y01217001
X-00525299
X-00525199Y01209501
X-00511Y012045
Y01192
X-00517999Y01182356
X-00511Y01217
X-0050275Y01225
X-0049525
X-0048775
X-0048025
X-0047175Y0121025
X-0046425
X-0045675
X-00592998Y01208497
X-0060825Y0121025
X-0061575
X-0062325
X-0063075
X-0063925Y01225
X-0064675
X-0065425
X-0066175
X-0060525Y0117725
X-00861999Y01182356
X-00862999Y01191501
X-00870499
X-00870501Y01201501
X-00863001
X-00855501
X-00856999Y01209501
Y01217001
X-00869699
X-00869447Y01209501
X-00881945
X-00881947Y01217001
X-00888223Y01219501
Y01212001
Y01204501
Y01197001
Y01189501
Y01182178
X-00874499Y01182356
X-00855499Y01191501
X-00856999Y01157001
Y01149501
X-00855999Y01138002
Y01130502
Y01123002
Y01115502
Y01108002
X-00865999Y01108001
Y01115501
Y01123001
Y01130501
Y01138001
X-00874499Y01134749
X-00881999Y01134649
Y01121949
X-00874499
Y01109501
X-00881999Y01109249
Y01097001
X-00874499Y01097003
X-00876999Y01090725
X-00884499
X-00881999Y01084501
X-00874499
X-00869499Y01090725
X-00861999
X-00854499
X-00855999Y01073002
Y01065502
Y01058002
Y01050502
Y01043002
X-00865999Y01043001
Y01050501
Y01058001
Y01065501
Y01073001
X-00874499Y01072201
X-00881999
Y01059501
X-00874499
Y01046801
X-00881999
Y01034501
X-00874499
X-00874499Y01027001
X-00881999
X-00881998Y01017001
X-00874498
X-00866998
X-00859498
X-00859499Y01027001
X-00866999
Y01007001
X-00859499
X-00859748Y00997004
X-00867248
X-00874748
X-00882248
X-00881999Y01007001
X-00874499
X-00877499Y00987001
X-00884999
Y00977001
X-00877499
X-00869999
X-00862499
X-00854999
Y00987001
X-00862499
X-00869999
X-00884999Y00967001
Y00957001
Y00947001
X-00877499
X-00869999
X-00862499
X-00854999
X-00869499Y01149501
Y01157001
X-00881999
Y01149501
T02
X-0035Y01295
X-00315
X-0028
T03
X-00699Y01242
X-00657
X-00615
Y01297
X-00657
X-00699
T04
X-008625Y000375
X-000375
X-0025Y0025
X-0065Y0025
X-008625Y008625
X-0065Y0065
X-0025Y0065
X-000375Y008625
X-000375Y01275
X-00544Y01275
X-008625Y01275
M30
