%FSLAX44Y44*%
%MOMM*%
G71*
G01*
G75*
G04 Layer_Color=8388736*
G04:AMPARAMS|DCode=10|XSize=1mm|YSize=0.9mm|CornerRadius=0.198mm|HoleSize=0mm|Usage=FLASHONLY|Rotation=270.000|XOffset=0mm|YOffset=0mm|HoleType=Round|Shape=RoundedRectangle|*
%AMROUNDEDRECTD10*
21,1,1.0000,0.5040,0,0,270.0*
21,1,0.6040,0.9000,0,0,270.0*
1,1,0.3960,-0.2520,-0.3020*
1,1,0.3960,-0.2520,0.3020*
1,1,0.3960,0.2520,0.3020*
1,1,0.3960,0.2520,-0.3020*
%
%ADD10ROUNDEDRECTD10*%
%ADD11C,0.6000*%
%ADD12C,1.3000*%
%ADD13R,1.3000X1.3000*%
G04:AMPARAMS|DCode=14|XSize=1.45mm|YSize=1.15mm|CornerRadius=0.2013mm|HoleSize=0mm|Usage=FLASHONLY|Rotation=90.000|XOffset=0mm|YOffset=0mm|HoleType=Round|Shape=RoundedRectangle|*
%AMROUNDEDRECTD14*
21,1,1.4500,0.7475,0,0,90.0*
21,1,1.0475,1.1500,0,0,90.0*
1,1,0.4025,0.3738,0.5238*
1,1,0.4025,0.3738,-0.5238*
1,1,0.4025,-0.3738,-0.5238*
1,1,0.4025,-0.3738,0.5238*
%
%ADD14ROUNDEDRECTD14*%
G04:AMPARAMS|DCode=15|XSize=1mm|YSize=0.9mm|CornerRadius=0.198mm|HoleSize=0mm|Usage=FLASHONLY|Rotation=180.000|XOffset=0mm|YOffset=0mm|HoleType=Round|Shape=RoundedRectangle|*
%AMROUNDEDRECTD15*
21,1,1.0000,0.5040,0,0,180.0*
21,1,0.6040,0.9000,0,0,180.0*
1,1,0.3960,-0.3020,0.2520*
1,1,0.3960,0.3020,0.2520*
1,1,0.3960,0.3020,-0.2520*
1,1,0.3960,-0.3020,-0.2520*
%
%ADD15ROUNDEDRECTD15*%
%ADD16O,0.3000X1.5000*%
%ADD17O,1.5000X0.3000*%
%ADD18C,1.0000*%
G04:AMPARAMS|DCode=19|XSize=2.7mm|YSize=1.15mm|CornerRadius=0.2013mm|HoleSize=0mm|Usage=FLASHONLY|Rotation=90.000|XOffset=0mm|YOffset=0mm|HoleType=Round|Shape=RoundedRectangle|*
%AMROUNDEDRECTD19*
21,1,2.7000,0.7475,0,0,90.0*
21,1,2.2975,1.1500,0,0,90.0*
1,1,0.4025,0.3738,1.1487*
1,1,0.4025,0.3738,-1.1487*
1,1,0.4025,-0.3738,-1.1487*
1,1,0.4025,-0.3738,1.1487*
%
%ADD19ROUNDEDRECTD19*%
G04:AMPARAMS|DCode=20|XSize=4.9mm|YSize=1.6mm|CornerRadius=0.2mm|HoleSize=0mm|Usage=FLASHONLY|Rotation=270.000|XOffset=0mm|YOffset=0mm|HoleType=Round|Shape=RoundedRectangle|*
%AMROUNDEDRECTD20*
21,1,4.9000,1.2000,0,0,270.0*
21,1,4.5000,1.6000,0,0,270.0*
1,1,0.4000,-0.6000,-2.2500*
1,1,0.4000,-0.6000,2.2500*
1,1,0.4000,0.6000,2.2500*
1,1,0.4000,0.6000,-2.2500*
%
%ADD20ROUNDEDRECTD20*%
%ADD21O,1.5500X0.6000*%
%ADD22O,0.6000X1.5500*%
G04:AMPARAMS|DCode=23|XSize=6.45mm|YSize=6mm|CornerRadius=0.21mm|HoleSize=0mm|Usage=FLASHONLY|Rotation=0.000|XOffset=0mm|YOffset=0mm|HoleType=Round|Shape=RoundedRectangle|*
%AMROUNDEDRECTD23*
21,1,6.4500,5.5800,0,0,0.0*
21,1,6.0300,6.0000,0,0,0.0*
1,1,0.4200,3.0150,-2.7900*
1,1,0.4200,-3.0150,-2.7900*
1,1,0.4200,-3.0150,2.7900*
1,1,0.4200,3.0150,2.7900*
%
%ADD23ROUNDEDRECTD23*%
G04:AMPARAMS|DCode=24|XSize=2.85mm|YSize=1mm|CornerRadius=0.2mm|HoleSize=0mm|Usage=FLASHONLY|Rotation=0.000|XOffset=0mm|YOffset=0mm|HoleType=Round|Shape=RoundedRectangle|*
%AMROUNDEDRECTD24*
21,1,2.8500,0.6000,0,0,0.0*
21,1,2.4500,1.0000,0,0,0.0*
1,1,0.4000,1.2250,-0.3000*
1,1,0.4000,-1.2250,-0.3000*
1,1,0.4000,-1.2250,0.3000*
1,1,0.4000,1.2250,0.3000*
%
%ADD24ROUNDEDRECTD24*%
G04:AMPARAMS|DCode=25|XSize=11.3mm|YSize=10.75mm|CornerRadius=0.215mm|HoleSize=0mm|Usage=FLASHONLY|Rotation=0.000|XOffset=0mm|YOffset=0mm|HoleType=Round|Shape=RoundedRectangle|*
%AMROUNDEDRECTD25*
21,1,11.3000,10.3200,0,0,0.0*
21,1,10.8700,10.7500,0,0,0.0*
1,1,0.4300,5.4350,-5.1600*
1,1,0.4300,-5.4350,-5.1600*
1,1,0.4300,-5.4350,5.1600*
1,1,0.4300,5.4350,5.1600*
%
%ADD25ROUNDEDRECTD25*%
G04:AMPARAMS|DCode=26|XSize=3.95mm|YSize=1.2mm|CornerRadius=0.198mm|HoleSize=0mm|Usage=FLASHONLY|Rotation=0.000|XOffset=0mm|YOffset=0mm|HoleType=Round|Shape=RoundedRectangle|*
%AMROUNDEDRECTD26*
21,1,3.9500,0.8040,0,0,0.0*
21,1,3.5540,1.2000,0,0,0.0*
1,1,0.3960,1.7770,-0.4020*
1,1,0.3960,-1.7770,-0.4020*
1,1,0.3960,-1.7770,0.4020*
1,1,0.3960,1.7770,0.4020*
%
%ADD26ROUNDEDRECTD26*%
G04:AMPARAMS|DCode=27|XSize=1.1mm|YSize=0.6mm|CornerRadius=0.201mm|HoleSize=0mm|Usage=FLASHONLY|Rotation=0.000|XOffset=0mm|YOffset=0mm|HoleType=Round|Shape=RoundedRectangle|*
%AMROUNDEDRECTD27*
21,1,1.1000,0.1980,0,0,0.0*
21,1,0.6980,0.6000,0,0,0.0*
1,1,0.4020,0.3490,-0.0990*
1,1,0.4020,-0.3490,-0.0990*
1,1,0.4020,-0.3490,0.0990*
1,1,0.4020,0.3490,0.0990*
%
%ADD27ROUNDEDRECTD27*%
G04:AMPARAMS|DCode=28|XSize=1.35mm|YSize=1.65mm|CornerRadius=0.27mm|HoleSize=0mm|Usage=FLASHONLY|Rotation=90.000|XOffset=0mm|YOffset=0mm|HoleType=Round|Shape=RoundedRectangle|*
%AMROUNDEDRECTD28*
21,1,1.3500,1.1100,0,0,90.0*
21,1,0.8100,1.6500,0,0,90.0*
1,1,0.5400,0.5550,0.4050*
1,1,0.5400,0.5550,-0.4050*
1,1,0.5400,-0.5550,-0.4050*
1,1,0.5400,-0.5550,0.4050*
%
%ADD28ROUNDEDRECTD28*%
G04:AMPARAMS|DCode=29|XSize=0.7mm|YSize=0.25mm|CornerRadius=0.0838mm|HoleSize=0mm|Usage=FLASHONLY|Rotation=0.000|XOffset=0mm|YOffset=0mm|HoleType=Round|Shape=RoundedRectangle|*
%AMROUNDEDRECTD29*
21,1,0.7000,0.0825,0,0,0.0*
21,1,0.5325,0.2500,0,0,0.0*
1,1,0.1675,0.2662,-0.0413*
1,1,0.1675,-0.2662,-0.0413*
1,1,0.1675,-0.2662,0.0413*
1,1,0.1675,0.2662,0.0413*
%
%ADD29ROUNDEDRECTD29*%
G04:AMPARAMS|DCode=30|XSize=1.75mm|YSize=1.05mm|CornerRadius=0.1995mm|HoleSize=0mm|Usage=FLASHONLY|Rotation=270.000|XOffset=0mm|YOffset=0mm|HoleType=Round|Shape=RoundedRectangle|*
%AMROUNDEDRECTD30*
21,1,1.7500,0.6510,0,0,270.0*
21,1,1.3510,1.0500,0,0,270.0*
1,1,0.3990,-0.3255,-0.6755*
1,1,0.3990,-0.3255,0.6755*
1,1,0.3990,0.3255,0.6755*
1,1,0.3990,0.3255,-0.6755*
%
%ADD30ROUNDEDRECTD30*%
%ADD31O,1.3500X0.5000*%
G04:AMPARAMS|DCode=32|XSize=1.05mm|YSize=0.65mm|CornerRadius=0.2015mm|HoleSize=0mm|Usage=FLASHONLY|Rotation=0.000|XOffset=0mm|YOffset=0mm|HoleType=Round|Shape=RoundedRectangle|*
%AMROUNDEDRECTD32*
21,1,1.0500,0.2470,0,0,0.0*
21,1,0.6470,0.6500,0,0,0.0*
1,1,0.4030,0.3235,-0.1235*
1,1,0.4030,-0.3235,-0.1235*
1,1,0.4030,-0.3235,0.1235*
1,1,0.4030,0.3235,0.1235*
%
%ADD32ROUNDEDRECTD32*%
%ADD33O,0.5000X1.3500*%
G04:AMPARAMS|DCode=34|XSize=6.5mm|YSize=5mm|CornerRadius=0.25mm|HoleSize=0mm|Usage=FLASHONLY|Rotation=90.000|XOffset=0mm|YOffset=0mm|HoleType=Round|Shape=RoundedRectangle|*
%AMROUNDEDRECTD34*
21,1,6.5000,4.5000,0,0,90.0*
21,1,6.0000,5.0000,0,0,90.0*
1,1,0.5000,2.2500,3.0000*
1,1,0.5000,2.2500,-3.0000*
1,1,0.5000,-2.2500,-3.0000*
1,1,0.5000,-2.2500,3.0000*
%
%ADD34ROUNDEDRECTD34*%
G04:AMPARAMS|DCode=35|XSize=3.3mm|YSize=2.5mm|CornerRadius=0.2mm|HoleSize=0mm|Usage=FLASHONLY|Rotation=270.000|XOffset=0mm|YOffset=0mm|HoleType=Round|Shape=RoundedRectangle|*
%AMROUNDEDRECTD35*
21,1,3.3000,2.1000,0,0,270.0*
21,1,2.9000,2.5000,0,0,270.0*
1,1,0.4000,-1.0500,-1.4500*
1,1,0.4000,-1.0500,1.4500*
1,1,0.4000,1.0500,1.4500*
1,1,0.4000,1.0500,-1.4500*
%
%ADD35ROUNDEDRECTD35*%
G04:AMPARAMS|DCode=36|XSize=2.5mm|YSize=1.7mm|CornerRadius=0.204mm|HoleSize=0mm|Usage=FLASHONLY|Rotation=180.000|XOffset=0mm|YOffset=0mm|HoleType=Round|Shape=RoundedRectangle|*
%AMROUNDEDRECTD36*
21,1,2.5000,1.2920,0,0,180.0*
21,1,2.0920,1.7000,0,0,180.0*
1,1,0.4080,-1.0460,0.6460*
1,1,0.4080,1.0460,0.6460*
1,1,0.4080,1.0460,-0.6460*
1,1,0.4080,-1.0460,-0.6460*
%
%ADD36ROUNDEDRECTD36*%
G04:AMPARAMS|DCode=37|XSize=1.2mm|YSize=1.2mm|CornerRadius=0.198mm|HoleSize=0mm|Usage=FLASHONLY|Rotation=90.000|XOffset=0mm|YOffset=0mm|HoleType=Round|Shape=RoundedRectangle|*
%AMROUNDEDRECTD37*
21,1,1.2000,0.8040,0,0,90.0*
21,1,0.8040,1.2000,0,0,90.0*
1,1,0.3960,0.4020,0.4020*
1,1,0.3960,0.4020,-0.4020*
1,1,0.3960,-0.4020,-0.4020*
1,1,0.3960,-0.4020,0.4020*
%
%ADD37ROUNDEDRECTD37*%
G04:AMPARAMS|DCode=38|XSize=1.2mm|YSize=1.2mm|CornerRadius=0.198mm|HoleSize=0mm|Usage=FLASHONLY|Rotation=0.000|XOffset=0mm|YOffset=0mm|HoleType=Round|Shape=RoundedRectangle|*
%AMROUNDEDRECTD38*
21,1,1.2000,0.8040,0,0,0.0*
21,1,0.8040,1.2000,0,0,0.0*
1,1,0.3960,0.4020,-0.4020*
1,1,0.3960,-0.4020,-0.4020*
1,1,0.3960,-0.4020,0.4020*
1,1,0.3960,0.4020,0.4020*
%
%ADD38ROUNDEDRECTD38*%
G04:AMPARAMS|DCode=39|XSize=1mm|YSize=0.95mm|CornerRadius=0.1995mm|HoleSize=0mm|Usage=FLASHONLY|Rotation=270.000|XOffset=0mm|YOffset=0mm|HoleType=Round|Shape=RoundedRectangle|*
%AMROUNDEDRECTD39*
21,1,1.0000,0.5510,0,0,270.0*
21,1,0.6010,0.9500,0,0,270.0*
1,1,0.3990,-0.2755,-0.3005*
1,1,0.3990,-0.2755,0.3005*
1,1,0.3990,0.2755,0.3005*
1,1,0.3990,0.2755,-0.3005*
%
%ADD39ROUNDEDRECTD39*%
G04:AMPARAMS|DCode=40|XSize=1mm|YSize=0.95mm|CornerRadius=0.1995mm|HoleSize=0mm|Usage=FLASHONLY|Rotation=180.000|XOffset=0mm|YOffset=0mm|HoleType=Round|Shape=RoundedRectangle|*
%AMROUNDEDRECTD40*
21,1,1.0000,0.5510,0,0,180.0*
21,1,0.6010,0.9500,0,0,180.0*
1,1,0.3990,-0.3005,0.2755*
1,1,0.3990,0.3005,0.2755*
1,1,0.3990,0.3005,-0.2755*
1,1,0.3990,-0.3005,-0.2755*
%
%ADD40ROUNDEDRECTD40*%
G04:AMPARAMS|DCode=41|XSize=2.7mm|YSize=1.15mm|CornerRadius=0.2013mm|HoleSize=0mm|Usage=FLASHONLY|Rotation=180.000|XOffset=0mm|YOffset=0mm|HoleType=Round|Shape=RoundedRectangle|*
%AMROUNDEDRECTD41*
21,1,2.7000,0.7475,0,0,180.0*
21,1,2.2975,1.1500,0,0,180.0*
1,1,0.4025,-1.1487,0.3738*
1,1,0.4025,1.1487,0.3738*
1,1,0.4025,1.1487,-0.3738*
1,1,0.4025,-1.1487,-0.3738*
%
%ADD41ROUNDEDRECTD41*%
G04:AMPARAMS|DCode=42|XSize=1.45mm|YSize=1.15mm|CornerRadius=0.2013mm|HoleSize=0mm|Usage=FLASHONLY|Rotation=0.000|XOffset=0mm|YOffset=0mm|HoleType=Round|Shape=RoundedRectangle|*
%AMROUNDEDRECTD42*
21,1,1.4500,0.7475,0,0,0.0*
21,1,1.0475,1.1500,0,0,0.0*
1,1,0.4025,0.5238,-0.3738*
1,1,0.4025,-0.5238,-0.3738*
1,1,0.4025,-0.5238,0.3738*
1,1,0.4025,0.5238,0.3738*
%
%ADD42ROUNDEDRECTD42*%
G04:AMPARAMS|DCode=43|XSize=1.1mm|YSize=0.8mm|CornerRadius=0.268mm|HoleSize=0mm|Usage=FLASHONLY|Rotation=0.000|XOffset=0mm|YOffset=0mm|HoleType=Round|Shape=RoundedRectangle|*
%AMROUNDEDRECTD43*
21,1,1.1000,0.2640,0,0,0.0*
21,1,0.5640,0.8000,0,0,0.0*
1,1,0.5360,0.2820,-0.1320*
1,1,0.5360,-0.2820,-0.1320*
1,1,0.5360,-0.2820,0.1320*
1,1,0.5360,0.2820,0.1320*
%
%ADD43ROUNDEDRECTD43*%
G04:AMPARAMS|DCode=44|XSize=2.3mm|YSize=0.5mm|CornerRadius=0.2mm|HoleSize=0mm|Usage=FLASHONLY|Rotation=270.000|XOffset=0mm|YOffset=0mm|HoleType=Round|Shape=RoundedRectangle|*
%AMROUNDEDRECTD44*
21,1,2.3000,0.1000,0,0,270.0*
21,1,1.9000,0.5000,0,0,270.0*
1,1,0.4000,-0.0500,-0.9500*
1,1,0.4000,-0.0500,0.9500*
1,1,0.4000,0.0500,0.9500*
1,1,0.4000,0.0500,-0.9500*
%
%ADD44ROUNDEDRECTD44*%
G04:AMPARAMS|DCode=45|XSize=2.5mm|YSize=2mm|CornerRadius=0.2mm|HoleSize=0mm|Usage=FLASHONLY|Rotation=270.000|XOffset=0mm|YOffset=0mm|HoleType=Round|Shape=RoundedRectangle|*
%AMROUNDEDRECTD45*
21,1,2.5000,1.6000,0,0,270.0*
21,1,2.1000,2.0000,0,0,270.0*
1,1,0.4000,-0.8000,-1.0500*
1,1,0.4000,-0.8000,1.0500*
1,1,0.4000,0.8000,1.0500*
1,1,0.4000,0.8000,-1.0500*
%
%ADD45ROUNDEDRECTD45*%
%ADD46O,0.2500X0.8500*%
%ADD47O,0.8500X0.2500*%
%ADD48C,0.4000*%
%ADD49C,0.6000*%
%ADD50C,0.2500*%
%ADD51C,0.5000*%
%ADD52C,0.2000*%
%ADD53C,0.3500*%
%ADD54C,0.4500*%
%ADD55C,0.3000*%
%ADD56C,0.2540*%
%ADD57C,2.0000*%
%ADD58C,0.4000*%
%ADD59C,7.0000*%
%ADD60C,2.0000*%
%ADD61C,2.5000*%
%ADD62C,0.5000*%
%ADD63C,4.5000*%
%ADD64C,0.1500*%
%ADD65C,0.1000*%
%ADD66C,0.1524*%
%ADD67C,0.0000*%
G04:AMPARAMS|DCode=68|XSize=1.15mm|YSize=1.05mm|CornerRadius=0.273mm|HoleSize=0mm|Usage=FLASHONLY|Rotation=270.000|XOffset=0mm|YOffset=0mm|HoleType=Round|Shape=RoundedRectangle|*
%AMROUNDEDRECTD68*
21,1,1.1500,0.5040,0,0,270.0*
21,1,0.6040,1.0500,0,0,270.0*
1,1,0.5460,-0.2520,-0.3020*
1,1,0.5460,-0.2520,0.3020*
1,1,0.5460,0.2520,0.3020*
1,1,0.5460,0.2520,-0.3020*
%
%ADD68ROUNDEDRECTD68*%
%ADD69C,0.8000*%
%ADD70C,1.5000*%
%ADD71R,1.5000X1.5000*%
G04:AMPARAMS|DCode=72|XSize=1.6mm|YSize=1.3mm|CornerRadius=0.2763mm|HoleSize=0mm|Usage=FLASHONLY|Rotation=90.000|XOffset=0mm|YOffset=0mm|HoleType=Round|Shape=RoundedRectangle|*
%AMROUNDEDRECTD72*
21,1,1.6000,0.7475,0,0,90.0*
21,1,1.0475,1.3000,0,0,90.0*
1,1,0.5525,0.3738,0.5238*
1,1,0.5525,0.3738,-0.5238*
1,1,0.5525,-0.3738,-0.5238*
1,1,0.5525,-0.3738,0.5238*
%
%ADD72ROUNDEDRECTD72*%
G04:AMPARAMS|DCode=73|XSize=1.15mm|YSize=1.05mm|CornerRadius=0.273mm|HoleSize=0mm|Usage=FLASHONLY|Rotation=180.000|XOffset=0mm|YOffset=0mm|HoleType=Round|Shape=RoundedRectangle|*
%AMROUNDEDRECTD73*
21,1,1.1500,0.5040,0,0,180.0*
21,1,0.6040,1.0500,0,0,180.0*
1,1,0.5460,-0.3020,0.2520*
1,1,0.5460,0.3020,0.2520*
1,1,0.5460,0.3020,-0.2520*
1,1,0.5460,-0.3020,-0.2520*
%
%ADD73ROUNDEDRECTD73*%
%ADD74O,0.4000X1.6000*%
%ADD75O,1.6000X0.4000*%
%ADD76C,2.0000*%
G04:AMPARAMS|DCode=77|XSize=2.85mm|YSize=1.3mm|CornerRadius=0.2763mm|HoleSize=0mm|Usage=FLASHONLY|Rotation=90.000|XOffset=0mm|YOffset=0mm|HoleType=Round|Shape=RoundedRectangle|*
%AMROUNDEDRECTD77*
21,1,2.8500,0.7475,0,0,90.0*
21,1,2.2975,1.3000,0,0,90.0*
1,1,0.5525,0.3738,1.1487*
1,1,0.5525,0.3738,-1.1487*
1,1,0.5525,-0.3738,-1.1487*
1,1,0.5525,-0.3738,1.1487*
%
%ADD77ROUNDEDRECTD77*%
G04:AMPARAMS|DCode=78|XSize=5.05mm|YSize=1.75mm|CornerRadius=0.275mm|HoleSize=0mm|Usage=FLASHONLY|Rotation=270.000|XOffset=0mm|YOffset=0mm|HoleType=Round|Shape=RoundedRectangle|*
%AMROUNDEDRECTD78*
21,1,5.0500,1.2000,0,0,270.0*
21,1,4.5000,1.7500,0,0,270.0*
1,1,0.5500,-0.6000,-2.2500*
1,1,0.5500,-0.6000,2.2500*
1,1,0.5500,0.6000,2.2500*
1,1,0.5500,0.6000,-2.2500*
%
%ADD78ROUNDEDRECTD78*%
%ADD79O,1.7000X0.7500*%
%ADD80O,0.7500X1.7000*%
G04:AMPARAMS|DCode=81|XSize=6.6mm|YSize=6.15mm|CornerRadius=0.285mm|HoleSize=0mm|Usage=FLASHONLY|Rotation=0.000|XOffset=0mm|YOffset=0mm|HoleType=Round|Shape=RoundedRectangle|*
%AMROUNDEDRECTD81*
21,1,6.6000,5.5800,0,0,0.0*
21,1,6.0300,6.1500,0,0,0.0*
1,1,0.5700,3.0150,-2.7900*
1,1,0.5700,-3.0150,-2.7900*
1,1,0.5700,-3.0150,2.7900*
1,1,0.5700,3.0150,2.7900*
%
%ADD81ROUNDEDRECTD81*%
G04:AMPARAMS|DCode=82|XSize=3mm|YSize=1.15mm|CornerRadius=0.275mm|HoleSize=0mm|Usage=FLASHONLY|Rotation=0.000|XOffset=0mm|YOffset=0mm|HoleType=Round|Shape=RoundedRectangle|*
%AMROUNDEDRECTD82*
21,1,3.0000,0.6000,0,0,0.0*
21,1,2.4500,1.1500,0,0,0.0*
1,1,0.5500,1.2250,-0.3000*
1,1,0.5500,-1.2250,-0.3000*
1,1,0.5500,-1.2250,0.3000*
1,1,0.5500,1.2250,0.3000*
%
%ADD82ROUNDEDRECTD82*%
G04:AMPARAMS|DCode=83|XSize=11.45mm|YSize=10.9mm|CornerRadius=0.29mm|HoleSize=0mm|Usage=FLASHONLY|Rotation=0.000|XOffset=0mm|YOffset=0mm|HoleType=Round|Shape=RoundedRectangle|*
%AMROUNDEDRECTD83*
21,1,11.4500,10.3200,0,0,0.0*
21,1,10.8700,10.9000,0,0,0.0*
1,1,0.5800,5.4350,-5.1600*
1,1,0.5800,-5.4350,-5.1600*
1,1,0.5800,-5.4350,5.1600*
1,1,0.5800,5.4350,5.1600*
%
%ADD83ROUNDEDRECTD83*%
G04:AMPARAMS|DCode=84|XSize=4.1mm|YSize=1.35mm|CornerRadius=0.273mm|HoleSize=0mm|Usage=FLASHONLY|Rotation=0.000|XOffset=0mm|YOffset=0mm|HoleType=Round|Shape=RoundedRectangle|*
%AMROUNDEDRECTD84*
21,1,4.1000,0.8040,0,0,0.0*
21,1,3.5540,1.3500,0,0,0.0*
1,1,0.5460,1.7770,-0.4020*
1,1,0.5460,-1.7770,-0.4020*
1,1,0.5460,-1.7770,0.4020*
1,1,0.5460,1.7770,0.4020*
%
%ADD84ROUNDEDRECTD84*%
G04:AMPARAMS|DCode=85|XSize=1.25mm|YSize=0.75mm|CornerRadius=0.276mm|HoleSize=0mm|Usage=FLASHONLY|Rotation=0.000|XOffset=0mm|YOffset=0mm|HoleType=Round|Shape=RoundedRectangle|*
%AMROUNDEDRECTD85*
21,1,1.2500,0.1980,0,0,0.0*
21,1,0.6980,0.7500,0,0,0.0*
1,1,0.5520,0.3490,-0.0990*
1,1,0.5520,-0.3490,-0.0990*
1,1,0.5520,-0.3490,0.0990*
1,1,0.5520,0.3490,0.0990*
%
%ADD85ROUNDEDRECTD85*%
G04:AMPARAMS|DCode=86|XSize=1.5mm|YSize=1.8mm|CornerRadius=0.345mm|HoleSize=0mm|Usage=FLASHONLY|Rotation=90.000|XOffset=0mm|YOffset=0mm|HoleType=Round|Shape=RoundedRectangle|*
%AMROUNDEDRECTD86*
21,1,1.5000,1.1100,0,0,90.0*
21,1,0.8100,1.8000,0,0,90.0*
1,1,0.6900,0.5550,0.4050*
1,1,0.6900,0.5550,-0.4050*
1,1,0.6900,-0.5550,-0.4050*
1,1,0.6900,-0.5550,0.4050*
%
%ADD86ROUNDEDRECTD86*%
G04:AMPARAMS|DCode=87|XSize=0.8mm|YSize=0.35mm|CornerRadius=0.1338mm|HoleSize=0mm|Usage=FLASHONLY|Rotation=0.000|XOffset=0mm|YOffset=0mm|HoleType=Round|Shape=RoundedRectangle|*
%AMROUNDEDRECTD87*
21,1,0.8000,0.0825,0,0,0.0*
21,1,0.5325,0.3500,0,0,0.0*
1,1,0.2675,0.2662,-0.0413*
1,1,0.2675,-0.2662,-0.0413*
1,1,0.2675,-0.2662,0.0413*
1,1,0.2675,0.2662,0.0413*
%
%ADD87ROUNDEDRECTD87*%
G04:AMPARAMS|DCode=88|XSize=1.9mm|YSize=1.2mm|CornerRadius=0.2745mm|HoleSize=0mm|Usage=FLASHONLY|Rotation=270.000|XOffset=0mm|YOffset=0mm|HoleType=Round|Shape=RoundedRectangle|*
%AMROUNDEDRECTD88*
21,1,1.9000,0.6510,0,0,270.0*
21,1,1.3510,1.2000,0,0,270.0*
1,1,0.5490,-0.3255,-0.6755*
1,1,0.5490,-0.3255,0.6755*
1,1,0.5490,0.3255,0.6755*
1,1,0.5490,0.3255,-0.6755*
%
%ADD88ROUNDEDRECTD88*%
%ADD89O,1.5000X0.6500*%
G04:AMPARAMS|DCode=90|XSize=1.2mm|YSize=0.8mm|CornerRadius=0.2765mm|HoleSize=0mm|Usage=FLASHONLY|Rotation=0.000|XOffset=0mm|YOffset=0mm|HoleType=Round|Shape=RoundedRectangle|*
%AMROUNDEDRECTD90*
21,1,1.2000,0.2470,0,0,0.0*
21,1,0.6470,0.8000,0,0,0.0*
1,1,0.5530,0.3235,-0.1235*
1,1,0.5530,-0.3235,-0.1235*
1,1,0.5530,-0.3235,0.1235*
1,1,0.5530,0.3235,0.1235*
%
%ADD90ROUNDEDRECTD90*%
%ADD91O,0.6500X1.5000*%
G04:AMPARAMS|DCode=92|XSize=6.65mm|YSize=5.15mm|CornerRadius=0.325mm|HoleSize=0mm|Usage=FLASHONLY|Rotation=90.000|XOffset=0mm|YOffset=0mm|HoleType=Round|Shape=RoundedRectangle|*
%AMROUNDEDRECTD92*
21,1,6.6500,4.5000,0,0,90.0*
21,1,6.0000,5.1500,0,0,90.0*
1,1,0.6500,2.2500,3.0000*
1,1,0.6500,2.2500,-3.0000*
1,1,0.6500,-2.2500,-3.0000*
1,1,0.6500,-2.2500,3.0000*
%
%ADD92ROUNDEDRECTD92*%
G04:AMPARAMS|DCode=93|XSize=3.45mm|YSize=2.65mm|CornerRadius=0.275mm|HoleSize=0mm|Usage=FLASHONLY|Rotation=270.000|XOffset=0mm|YOffset=0mm|HoleType=Round|Shape=RoundedRectangle|*
%AMROUNDEDRECTD93*
21,1,3.4500,2.1000,0,0,270.0*
21,1,2.9000,2.6500,0,0,270.0*
1,1,0.5500,-1.0500,-1.4500*
1,1,0.5500,-1.0500,1.4500*
1,1,0.5500,1.0500,1.4500*
1,1,0.5500,1.0500,-1.4500*
%
%ADD93ROUNDEDRECTD93*%
G04:AMPARAMS|DCode=94|XSize=2.65mm|YSize=1.85mm|CornerRadius=0.279mm|HoleSize=0mm|Usage=FLASHONLY|Rotation=180.000|XOffset=0mm|YOffset=0mm|HoleType=Round|Shape=RoundedRectangle|*
%AMROUNDEDRECTD94*
21,1,2.6500,1.2920,0,0,180.0*
21,1,2.0920,1.8500,0,0,180.0*
1,1,0.5580,-1.0460,0.6460*
1,1,0.5580,1.0460,0.6460*
1,1,0.5580,1.0460,-0.6460*
1,1,0.5580,-1.0460,-0.6460*
%
%ADD94ROUNDEDRECTD94*%
G04:AMPARAMS|DCode=95|XSize=1.35mm|YSize=1.35mm|CornerRadius=0.273mm|HoleSize=0mm|Usage=FLASHONLY|Rotation=90.000|XOffset=0mm|YOffset=0mm|HoleType=Round|Shape=RoundedRectangle|*
%AMROUNDEDRECTD95*
21,1,1.3500,0.8040,0,0,90.0*
21,1,0.8040,1.3500,0,0,90.0*
1,1,0.5460,0.4020,0.4020*
1,1,0.5460,0.4020,-0.4020*
1,1,0.5460,-0.4020,-0.4020*
1,1,0.5460,-0.4020,0.4020*
%
%ADD95ROUNDEDRECTD95*%
G04:AMPARAMS|DCode=96|XSize=1.35mm|YSize=1.35mm|CornerRadius=0.273mm|HoleSize=0mm|Usage=FLASHONLY|Rotation=0.000|XOffset=0mm|YOffset=0mm|HoleType=Round|Shape=RoundedRectangle|*
%AMROUNDEDRECTD96*
21,1,1.3500,0.8040,0,0,0.0*
21,1,0.8040,1.3500,0,0,0.0*
1,1,0.5460,0.4020,-0.4020*
1,1,0.5460,-0.4020,-0.4020*
1,1,0.5460,-0.4020,0.4020*
1,1,0.5460,0.4020,0.4020*
%
%ADD96ROUNDEDRECTD96*%
G04:AMPARAMS|DCode=97|XSize=1.15mm|YSize=1.1mm|CornerRadius=0.2745mm|HoleSize=0mm|Usage=FLASHONLY|Rotation=270.000|XOffset=0mm|YOffset=0mm|HoleType=Round|Shape=RoundedRectangle|*
%AMROUNDEDRECTD97*
21,1,1.1500,0.5510,0,0,270.0*
21,1,0.6010,1.1000,0,0,270.0*
1,1,0.5490,-0.2755,-0.3005*
1,1,0.5490,-0.2755,0.3005*
1,1,0.5490,0.2755,0.3005*
1,1,0.5490,0.2755,-0.3005*
%
%ADD97ROUNDEDRECTD97*%
G04:AMPARAMS|DCode=98|XSize=1.15mm|YSize=1.1mm|CornerRadius=0.2745mm|HoleSize=0mm|Usage=FLASHONLY|Rotation=180.000|XOffset=0mm|YOffset=0mm|HoleType=Round|Shape=RoundedRectangle|*
%AMROUNDEDRECTD98*
21,1,1.1500,0.5510,0,0,180.0*
21,1,0.6010,1.1000,0,0,180.0*
1,1,0.5490,-0.3005,0.2755*
1,1,0.5490,0.3005,0.2755*
1,1,0.5490,0.3005,-0.2755*
1,1,0.5490,-0.3005,-0.2755*
%
%ADD98ROUNDEDRECTD98*%
G04:AMPARAMS|DCode=99|XSize=2.85mm|YSize=1.3mm|CornerRadius=0.2763mm|HoleSize=0mm|Usage=FLASHONLY|Rotation=180.000|XOffset=0mm|YOffset=0mm|HoleType=Round|Shape=RoundedRectangle|*
%AMROUNDEDRECTD99*
21,1,2.8500,0.7475,0,0,180.0*
21,1,2.2975,1.3000,0,0,180.0*
1,1,0.5525,-1.1487,0.3738*
1,1,0.5525,1.1487,0.3738*
1,1,0.5525,1.1487,-0.3738*
1,1,0.5525,-1.1487,-0.3738*
%
%ADD99ROUNDEDRECTD99*%
G04:AMPARAMS|DCode=100|XSize=1.6mm|YSize=1.3mm|CornerRadius=0.2763mm|HoleSize=0mm|Usage=FLASHONLY|Rotation=0.000|XOffset=0mm|YOffset=0mm|HoleType=Round|Shape=RoundedRectangle|*
%AMROUNDEDRECTD100*
21,1,1.6000,0.7475,0,0,0.0*
21,1,1.0475,1.3000,0,0,0.0*
1,1,0.5525,0.5238,-0.3738*
1,1,0.5525,-0.5238,-0.3738*
1,1,0.5525,-0.5238,0.3738*
1,1,0.5525,0.5238,0.3738*
%
%ADD100ROUNDEDRECTD100*%
G04:AMPARAMS|DCode=101|XSize=1.25mm|YSize=0.95mm|CornerRadius=0.343mm|HoleSize=0mm|Usage=FLASHONLY|Rotation=0.000|XOffset=0mm|YOffset=0mm|HoleType=Round|Shape=RoundedRectangle|*
%AMROUNDEDRECTD101*
21,1,1.2500,0.2640,0,0,0.0*
21,1,0.5640,0.9500,0,0,0.0*
1,1,0.6860,0.2820,-0.1320*
1,1,0.6860,-0.2820,-0.1320*
1,1,0.6860,-0.2820,0.1320*
1,1,0.6860,0.2820,0.1320*
%
%ADD101ROUNDEDRECTD101*%
G04:AMPARAMS|DCode=102|XSize=2.45mm|YSize=0.65mm|CornerRadius=0.275mm|HoleSize=0mm|Usage=FLASHONLY|Rotation=270.000|XOffset=0mm|YOffset=0mm|HoleType=Round|Shape=RoundedRectangle|*
%AMROUNDEDRECTD102*
21,1,2.4500,0.1000,0,0,270.0*
21,1,1.9000,0.6500,0,0,270.0*
1,1,0.5500,-0.0500,-0.9500*
1,1,0.5500,-0.0500,0.9500*
1,1,0.5500,0.0500,0.9500*
1,1,0.5500,0.0500,-0.9500*
%
%ADD102ROUNDEDRECTD102*%
G04:AMPARAMS|DCode=103|XSize=2.65mm|YSize=2.15mm|CornerRadius=0.275mm|HoleSize=0mm|Usage=FLASHONLY|Rotation=270.000|XOffset=0mm|YOffset=0mm|HoleType=Round|Shape=RoundedRectangle|*
%AMROUNDEDRECTD103*
21,1,2.6500,1.6000,0,0,270.0*
21,1,2.1000,2.1500,0,0,270.0*
1,1,0.5500,-0.8000,-1.0500*
1,1,0.5500,-0.8000,1.0500*
1,1,0.5500,0.8000,1.0500*
1,1,0.5500,0.8000,-1.0500*
%
%ADD103ROUNDEDRECTD103*%
%ADD104O,0.4500X1.0500*%
%ADD105O,1.0500X0.4500*%
%ADD106C,7.2000*%
%ADD107C,2.2000*%
%ADD108C,2.6500*%
%ADD109C,1.0500*%
G36*
X-574750Y576750D02*
X-525870D01*
X-523250Y574130D01*
X-523211Y525250D01*
X-523366Y524470D01*
X-523808Y523808D01*
X-524470Y523366D01*
X-525250Y523211D01*
Y523250D01*
X-574750Y523211D01*
X-575530Y523366D01*
X-576192Y523808D01*
X-576634Y524470D01*
X-576789Y525250D01*
X-576750D01*
X-576789Y574750D01*
X-576634Y575530D01*
X-576192Y576192D01*
X-575530Y576634D01*
X-574750Y576789D01*
Y576750D01*
D02*
G37*
G36*
X-324470Y376634D02*
X-323808Y376192D01*
X-323366Y375530D01*
X-323211Y374750D01*
X-323250D01*
X-323211Y325250D01*
X-323366Y324470D01*
X-323808Y323808D01*
X-324470Y323366D01*
X-325250Y323211D01*
Y323250D01*
X-374130D01*
X-376750Y325870D01*
X-376789Y374750D01*
X-376634Y375530D01*
X-376192Y376192D01*
X-375530Y376634D01*
X-374750Y376789D01*
Y376750D01*
X-325250Y376789D01*
X-324470Y376634D01*
D02*
G37*
G36*
X-724470D02*
X-723808Y376192D01*
X-723366Y375530D01*
X-723211Y374750D01*
X-723250D01*
X-723211Y325250D01*
X-723366Y324470D01*
X-723808Y323808D01*
X-724470Y323366D01*
X-725250Y323211D01*
Y323250D01*
X-774130D01*
X-776750Y325870D01*
X-776789Y374750D01*
X-776634Y375530D01*
X-776192Y376192D01*
X-775530Y376634D01*
X-774750Y376789D01*
Y376750D01*
X-725250Y376789D01*
X-724470Y376634D01*
D02*
G37*
G36*
X-324470Y576634D02*
X-323808Y576192D01*
X-323366Y575530D01*
X-323211Y574750D01*
X-323250D01*
X-323211Y525250D01*
X-323366Y524470D01*
X-323808Y523808D01*
X-324470Y523366D01*
X-325250Y523211D01*
Y523250D01*
X-374130D01*
X-376750Y525870D01*
X-376789Y574750D01*
X-376634Y575530D01*
X-376192Y576192D01*
X-375530Y576634D01*
X-374750Y576789D01*
Y576750D01*
X-325250Y576789D01*
X-324470Y576634D01*
D02*
G37*
G36*
X-724470D02*
X-723808Y576192D01*
X-723366Y575530D01*
X-723211Y574750D01*
X-723250D01*
X-723211Y525250D01*
X-723366Y524470D01*
X-723808Y523808D01*
X-724470Y523366D01*
X-725250Y523211D01*
Y523250D01*
X-774130D01*
X-776750Y525870D01*
X-776789Y574750D01*
X-776634Y575530D01*
X-776192Y576192D01*
X-775530Y576634D01*
X-774750Y576789D01*
Y576750D01*
X-725250Y576789D01*
X-724470Y576634D01*
D02*
G37*
G36*
X-174750Y576750D02*
X-125870D01*
X-123250Y574130D01*
X-123211Y525250D01*
X-123366Y524470D01*
X-123808Y523808D01*
X-124470Y523366D01*
X-125250Y523211D01*
Y523250D01*
X-174750Y523211D01*
X-175530Y523366D01*
X-176192Y523808D01*
X-176634Y524470D01*
X-176789Y525250D01*
X-176750D01*
X-176789Y574750D01*
X-176634Y575530D01*
X-176192Y576192D01*
X-175530Y576634D01*
X-174750Y576789D01*
Y576750D01*
D02*
G37*
G36*
X-724470Y176634D02*
X-723808Y176192D01*
X-723366Y175530D01*
X-723211Y174750D01*
X-723250D01*
X-723211Y125250D01*
X-723366Y124470D01*
X-723808Y123808D01*
X-724470Y123366D01*
X-725250Y123211D01*
Y123250D01*
X-774130D01*
X-776750Y125870D01*
X-776789Y174750D01*
X-776634Y175530D01*
X-776192Y176192D01*
X-775530Y176634D01*
X-774750Y176789D01*
Y176750D01*
X-725250Y176789D01*
X-724470Y176634D01*
D02*
G37*
G36*
X-174750Y176750D02*
X-125870D01*
X-123250Y174130D01*
X-123211Y125250D01*
X-123366Y124470D01*
X-123808Y123808D01*
X-124470Y123366D01*
X-125250Y123211D01*
Y123250D01*
X-174750Y123211D01*
X-175530Y123366D01*
X-176192Y123808D01*
X-176634Y124470D01*
X-176789Y125250D01*
X-176750D01*
X-176789Y174750D01*
X-176634Y175530D01*
X-176192Y176192D01*
X-175530Y176634D01*
X-174750Y176789D01*
Y176750D01*
D02*
G37*
G36*
X-574750D02*
X-525870D01*
X-523250Y174130D01*
X-523211Y125250D01*
X-523366Y124470D01*
X-523808Y123808D01*
X-524470Y123366D01*
X-525250Y123211D01*
Y123250D01*
X-574750Y123211D01*
X-575530Y123366D01*
X-576192Y123808D01*
X-576634Y124470D01*
X-576789Y125250D01*
X-576750D01*
X-576789Y174750D01*
X-576634Y175530D01*
X-576192Y176192D01*
X-575530Y176634D01*
X-574750Y176789D01*
Y176750D01*
D02*
G37*
G36*
X-174750Y376750D02*
X-125870D01*
X-123250Y374130D01*
X-123211Y325250D01*
X-123366Y324470D01*
X-123808Y323808D01*
X-124470Y323366D01*
X-125250Y323211D01*
Y323250D01*
X-174750Y323211D01*
X-175530Y323366D01*
X-176192Y323808D01*
X-176634Y324470D01*
X-176789Y325250D01*
X-176750D01*
X-176789Y374750D01*
X-176634Y375530D01*
X-176192Y376192D01*
X-175530Y376634D01*
X-174750Y376789D01*
Y376750D01*
D02*
G37*
G36*
X-574750D02*
X-525870D01*
X-523250Y374130D01*
X-523211Y325250D01*
X-523366Y324470D01*
X-523808Y323808D01*
X-524470Y323366D01*
X-525250Y323211D01*
Y323250D01*
X-574750Y323211D01*
X-575530Y323366D01*
X-576192Y323808D01*
X-576634Y324470D01*
X-576789Y325250D01*
X-576750D01*
X-576789Y374750D01*
X-576634Y375530D01*
X-576192Y376192D01*
X-575530Y376634D01*
X-574750Y376789D01*
Y376750D01*
D02*
G37*
G36*
X-324470Y176634D02*
X-323808Y176192D01*
X-323366Y175530D01*
X-323211Y174750D01*
X-323250D01*
X-323211Y125250D01*
X-323366Y124470D01*
X-323808Y123808D01*
X-324470Y123366D01*
X-325250Y123211D01*
Y123250D01*
X-374130D01*
X-376750Y125870D01*
X-376789Y174750D01*
X-376634Y175530D01*
X-376192Y176192D01*
X-375530Y176634D01*
X-374750Y176789D01*
Y176750D01*
X-325250Y176789D01*
X-324470Y176634D01*
D02*
G37*
G36*
X-574750Y776750D02*
X-525870D01*
X-523250Y774130D01*
X-523211Y725250D01*
X-523366Y724470D01*
X-523808Y723808D01*
X-524470Y723366D01*
X-525250Y723211D01*
Y723250D01*
X-574750Y723211D01*
X-575530Y723366D01*
X-576192Y723808D01*
X-576634Y724470D01*
X-576789Y725250D01*
X-576750D01*
X-576789Y774750D01*
X-576634Y775530D01*
X-576192Y776192D01*
X-575530Y776634D01*
X-574750Y776789D01*
Y776750D01*
D02*
G37*
G36*
X-524500Y1094948D02*
X-553000D01*
Y1100448D01*
X-563000D01*
Y1143448D01*
X-553000D01*
Y1148948D01*
X-524500D01*
Y1094948D01*
D02*
G37*
G36*
X-683500D02*
X-712000D01*
Y1100448D01*
X-722000D01*
Y1143448D01*
X-712000D01*
Y1148948D01*
X-683500D01*
Y1094948D01*
D02*
G37*
G36*
X-843500D02*
X-872000D01*
Y1100448D01*
X-882000D01*
Y1143448D01*
X-872000D01*
Y1148948D01*
X-843500D01*
Y1094948D01*
D02*
G37*
G36*
X-516500Y1206998D02*
X-511000D01*
Y1178498D01*
X-565000D01*
Y1206998D01*
X-559500D01*
Y1216998D01*
X-516500D01*
Y1206998D01*
D02*
G37*
G36*
X-675500D02*
X-670000D01*
Y1178498D01*
X-724000D01*
Y1206998D01*
X-718500D01*
Y1216998D01*
X-675500D01*
Y1206998D01*
D02*
G37*
G36*
X-835500D02*
X-830000D01*
Y1178498D01*
X-884000D01*
Y1206998D01*
X-878500D01*
Y1216998D01*
X-835500D01*
Y1206998D01*
D02*
G37*
G36*
X-324470Y776634D02*
X-323808Y776192D01*
X-323366Y775530D01*
X-323211Y774750D01*
X-323250D01*
X-323211Y725250D01*
X-323366Y724470D01*
X-323808Y723808D01*
X-324470Y723366D01*
X-325250Y723211D01*
Y723250D01*
X-374130D01*
X-376750Y725870D01*
X-376789Y774750D01*
X-376634Y775530D01*
X-376192Y776192D01*
X-375530Y776634D01*
X-374750Y776789D01*
Y776750D01*
X-325250Y776789D01*
X-324470Y776634D01*
D02*
G37*
G36*
X-724470D02*
X-723808Y776192D01*
X-723366Y775530D01*
X-723211Y774750D01*
X-723250D01*
X-723211Y725250D01*
X-723366Y724470D01*
X-723808Y723808D01*
X-724470Y723366D01*
X-725250Y723211D01*
Y723250D01*
X-774130D01*
X-776750Y725870D01*
X-776789Y774750D01*
X-776634Y775530D01*
X-776192Y776192D01*
X-775530Y776634D01*
X-774750Y776789D01*
Y776750D01*
X-725250Y776789D01*
X-724470Y776634D01*
D02*
G37*
G36*
X-174750Y776750D02*
X-125870D01*
X-123250Y774130D01*
X-123211Y725250D01*
X-123366Y724470D01*
X-123808Y723808D01*
X-124470Y723366D01*
X-125250Y723211D01*
Y723250D01*
X-174750Y723211D01*
X-175530Y723366D01*
X-176192Y723808D01*
X-176634Y724470D01*
X-176789Y725250D01*
X-176750D01*
X-176789Y774750D01*
X-176634Y775530D01*
X-176192Y776192D01*
X-175530Y776634D01*
X-174750Y776789D01*
Y776750D01*
D02*
G37*
G36*
X-524500Y1032500D02*
X-553000D01*
Y1038000D01*
X-563000D01*
Y1081000D01*
X-553000D01*
Y1086500D01*
X-524500D01*
Y1032500D01*
D02*
G37*
G36*
X-683500D02*
X-712000D01*
Y1038000D01*
X-722000D01*
Y1081000D01*
X-712000D01*
Y1086500D01*
X-683500D01*
Y1032500D01*
D02*
G37*
G36*
X-843500D02*
X-872000D01*
Y1038000D01*
X-882000D01*
Y1081000D01*
X-872000D01*
Y1086500D01*
X-843500D01*
Y1032500D01*
D02*
G37*
D11*
X-150000Y750000D02*
D03*
Y550000D02*
D03*
Y350000D02*
D03*
Y150000D02*
D03*
X-350000D02*
D03*
Y350000D02*
D03*
Y550000D02*
D03*
Y750000D02*
D03*
X-550000D02*
D03*
Y550000D02*
D03*
Y350000D02*
D03*
Y150000D02*
D03*
X-750000D02*
D03*
Y350000D02*
D03*
Y550000D02*
D03*
Y750000D02*
D03*
D68*
X-237000Y987500D02*
D03*
X-253000D02*
D03*
X-188000Y965750D02*
D03*
X-204000D02*
D03*
X-253000Y1035000D02*
D03*
X-237000D02*
D03*
X-12000Y995000D02*
D03*
X-28000D02*
D03*
X-87000Y977000D02*
D03*
X-71000D02*
D03*
X-96500Y1168500D02*
D03*
X-112500D02*
D03*
X-147750Y935000D02*
D03*
X-131750D02*
D03*
X-131500Y920250D02*
D03*
X-147500D02*
D03*
X-131500Y950000D02*
D03*
X-147500D02*
D03*
X-253000Y970750D02*
D03*
X-237000D02*
D03*
X-253000Y1050000D02*
D03*
X-237000D02*
D03*
X-253000Y1065000D02*
D03*
X-237000D02*
D03*
X-253000Y1017500D02*
D03*
X-237000D02*
D03*
X-39000Y1037000D02*
D03*
X-55000D02*
D03*
X-147500Y982500D02*
D03*
X-131500D02*
D03*
X-86500Y921500D02*
D03*
X-102500D02*
D03*
X-192000Y905000D02*
D03*
X-208000D02*
D03*
X-152000Y892500D02*
D03*
X-168000D02*
D03*
X-237000Y1002468D02*
D03*
X-253000D02*
D03*
D69*
X-759999Y1123002D02*
D03*
X-599999D02*
D03*
X-460499Y1047001D02*
D03*
Y1079501D02*
D03*
Y1112001D02*
D03*
X-619498Y1047001D02*
D03*
Y1079501D02*
D03*
Y1112001D02*
D03*
X-775000Y807500D02*
D03*
X-770000Y797500D02*
D03*
X-533000Y650000D02*
D03*
X-517000D02*
D03*
X-783000Y650000D02*
D03*
X-767000D02*
D03*
X-533000Y450000D02*
D03*
X-517000D02*
D03*
X-783000Y450000D02*
D03*
X-767000D02*
D03*
X-533000Y250000D02*
D03*
X-517000D02*
D03*
X-767000Y250000D02*
D03*
X-783000D02*
D03*
X-800000Y747500D02*
D03*
Y147500D02*
D03*
Y347500D02*
D03*
X-797500Y547500D02*
D03*
X-500000Y152500D02*
D03*
Y352500D02*
D03*
Y552500D02*
D03*
Y752500D02*
D03*
X-133000Y650000D02*
D03*
X-117000D02*
D03*
X-383000Y650000D02*
D03*
X-367000D02*
D03*
X-133000Y450000D02*
D03*
X-117000D02*
D03*
X-383000Y450000D02*
D03*
X-367000D02*
D03*
X-133000Y250000D02*
D03*
X-117000D02*
D03*
X-367000Y250000D02*
D03*
X-383000D02*
D03*
X-37500Y1275000D02*
D03*
X-400000Y747500D02*
D03*
Y147500D02*
D03*
Y347500D02*
D03*
X-397500Y547500D02*
D03*
X-100000Y152500D02*
D03*
Y352500D02*
D03*
Y552500D02*
D03*
Y752500D02*
D03*
X-863349Y1161999D02*
D03*
X-779499Y1112001D02*
D03*
Y1079501D02*
D03*
Y1047001D02*
D03*
X-759999Y1123001D02*
D03*
X-773999Y1153501D02*
D03*
X-798999Y1144501D02*
D03*
X-791999Y1166501D02*
D03*
X-778999Y1187501D02*
D03*
X-810999D02*
D03*
X-752999Y1179501D02*
D03*
X-826999Y1115599D02*
D03*
Y1053151D02*
D03*
X-666999D02*
D03*
Y1115599D02*
D03*
X-592999Y1179501D02*
D03*
X-650999Y1187501D02*
D03*
X-618999D02*
D03*
X-631999Y1166501D02*
D03*
X-638999Y1144501D02*
D03*
X-613999Y1153501D02*
D03*
X-599999Y1123001D02*
D03*
X-619499Y1047001D02*
D03*
Y1079501D02*
D03*
Y1112001D02*
D03*
X-703349Y1161999D02*
D03*
X-507999Y1053151D02*
D03*
Y1115599D02*
D03*
X-433999Y1179501D02*
D03*
X-491999Y1187501D02*
D03*
X-459999D02*
D03*
X-472999Y1166501D02*
D03*
X-479999Y1144501D02*
D03*
X-454999Y1153501D02*
D03*
X-440999Y1123001D02*
D03*
X-460499Y1047001D02*
D03*
Y1079501D02*
D03*
Y1112001D02*
D03*
X-544349Y1161999D02*
D03*
X-168853Y768801D02*
D03*
X-168706Y761199D02*
D03*
Y753706D02*
D03*
X-168655Y746250D02*
D03*
X-168706Y738706D02*
D03*
X-168655Y731199D02*
D03*
X-161345Y768801D02*
D03*
X-161199Y761199D02*
D03*
Y753706D02*
D03*
X-161147Y746250D02*
D03*
X-161199Y738706D02*
D03*
X-161147Y731199D02*
D03*
X-153853Y768801D02*
D03*
X-153706Y761199D02*
D03*
Y753706D02*
D03*
X-153655Y746250D02*
D03*
X-153706Y738706D02*
D03*
X-153655Y731199D02*
D03*
X-146147Y768801D02*
D03*
X-146000Y761199D02*
D03*
Y753706D02*
D03*
X-145949Y746250D02*
D03*
X-146000Y738706D02*
D03*
X-145949Y731199D02*
D03*
X-138853Y768801D02*
D03*
X-138706Y761199D02*
D03*
Y753706D02*
D03*
X-138655Y746250D02*
D03*
X-138706Y738706D02*
D03*
X-138655Y731199D02*
D03*
X-131147Y731147D02*
D03*
X-131199Y738655D02*
D03*
X-131147Y746199D02*
D03*
X-131199Y753655D02*
D03*
Y761147D02*
D03*
X-131345Y768750D02*
D03*
X-168853Y568801D02*
D03*
X-168706Y561198D02*
D03*
Y553706D02*
D03*
X-168655Y546250D02*
D03*
X-168706Y538706D02*
D03*
X-168655Y531199D02*
D03*
X-161345Y568801D02*
D03*
X-161199Y561198D02*
D03*
Y553706D02*
D03*
X-161147Y546250D02*
D03*
X-161199Y538706D02*
D03*
X-161147Y531199D02*
D03*
X-153853Y568801D02*
D03*
X-153706Y561198D02*
D03*
Y553706D02*
D03*
X-153655Y546250D02*
D03*
X-153706Y538706D02*
D03*
X-153655Y531199D02*
D03*
X-146147Y568801D02*
D03*
X-146000Y561198D02*
D03*
Y553706D02*
D03*
X-145949Y546250D02*
D03*
X-146000Y538706D02*
D03*
X-145949Y531199D02*
D03*
X-138853Y568801D02*
D03*
X-138706Y561198D02*
D03*
Y553706D02*
D03*
X-138655Y546250D02*
D03*
X-138706Y538706D02*
D03*
X-138655Y531199D02*
D03*
X-131147Y531147D02*
D03*
X-131199Y538655D02*
D03*
X-131147Y546199D02*
D03*
X-131199Y553655D02*
D03*
Y561147D02*
D03*
X-131345Y568750D02*
D03*
X-168853Y368801D02*
D03*
X-168706Y361198D02*
D03*
Y353706D02*
D03*
X-168655Y346250D02*
D03*
X-168706Y338706D02*
D03*
X-168655Y331198D02*
D03*
X-161345Y368801D02*
D03*
X-161199Y361198D02*
D03*
Y353706D02*
D03*
X-161147Y346250D02*
D03*
X-161199Y338706D02*
D03*
X-161147Y331198D02*
D03*
X-153853Y368801D02*
D03*
X-153706Y361198D02*
D03*
Y353706D02*
D03*
X-153655Y346250D02*
D03*
X-153706Y338706D02*
D03*
X-153655Y331198D02*
D03*
X-146147Y368801D02*
D03*
X-146000Y361198D02*
D03*
Y353706D02*
D03*
X-145949Y346250D02*
D03*
X-146000Y338706D02*
D03*
X-145949Y331198D02*
D03*
X-138853Y368801D02*
D03*
X-138706Y361198D02*
D03*
Y353706D02*
D03*
X-138655Y346250D02*
D03*
X-138706Y338706D02*
D03*
X-138655Y331198D02*
D03*
X-131147Y331147D02*
D03*
X-131199Y338655D02*
D03*
X-131147Y346198D02*
D03*
X-131199Y353655D02*
D03*
Y361147D02*
D03*
X-131345Y368750D02*
D03*
X-168853Y168801D02*
D03*
X-168706Y161198D02*
D03*
Y153706D02*
D03*
X-168655Y146250D02*
D03*
X-168706Y138706D02*
D03*
X-168655Y131198D02*
D03*
X-161345Y168801D02*
D03*
X-161199Y161198D02*
D03*
Y153706D02*
D03*
X-161147Y146250D02*
D03*
X-161199Y138706D02*
D03*
X-161147Y131198D02*
D03*
X-153853Y168801D02*
D03*
X-153706Y161198D02*
D03*
Y153706D02*
D03*
X-153655Y146250D02*
D03*
X-153706Y138706D02*
D03*
X-153655Y131198D02*
D03*
X-146147Y168801D02*
D03*
X-146000Y161198D02*
D03*
Y153706D02*
D03*
X-145949Y146250D02*
D03*
X-146000Y138706D02*
D03*
X-145949Y131198D02*
D03*
X-138853Y168801D02*
D03*
X-138706Y161198D02*
D03*
Y153706D02*
D03*
X-138655Y146250D02*
D03*
X-138706Y138706D02*
D03*
X-138655Y131198D02*
D03*
X-131147Y131147D02*
D03*
X-131199Y138655D02*
D03*
X-131147Y146198D02*
D03*
X-131199Y153655D02*
D03*
Y161147D02*
D03*
X-131345Y168750D02*
D03*
X-331147Y131199D02*
D03*
X-331294Y138801D02*
D03*
Y146294D02*
D03*
X-331345Y153750D02*
D03*
X-331294Y161294D02*
D03*
X-331345Y168801D02*
D03*
X-338655Y131199D02*
D03*
X-338801Y138801D02*
D03*
Y146294D02*
D03*
X-338853Y153750D02*
D03*
X-338801Y161294D02*
D03*
X-338853Y168801D02*
D03*
X-346147Y131199D02*
D03*
X-346294Y138801D02*
D03*
Y146294D02*
D03*
X-346345Y153750D02*
D03*
X-346294Y161294D02*
D03*
X-346345Y168801D02*
D03*
X-353853Y131199D02*
D03*
X-354000Y138801D02*
D03*
Y146294D02*
D03*
X-354051Y153750D02*
D03*
X-354000Y161294D02*
D03*
X-354051Y168801D02*
D03*
X-361147Y131199D02*
D03*
X-361294Y138801D02*
D03*
Y146294D02*
D03*
X-361345Y153750D02*
D03*
X-361294Y161294D02*
D03*
X-361345Y168801D02*
D03*
X-368853Y168853D02*
D03*
X-368801Y161345D02*
D03*
X-368853Y153801D02*
D03*
X-368801Y146345D02*
D03*
Y138853D02*
D03*
X-368655Y131250D02*
D03*
X-331147Y331199D02*
D03*
X-331294Y338801D02*
D03*
Y346294D02*
D03*
X-331345Y353750D02*
D03*
X-331294Y361294D02*
D03*
X-331345Y368801D02*
D03*
X-338655Y331199D02*
D03*
X-338801Y338801D02*
D03*
Y346294D02*
D03*
X-338853Y353750D02*
D03*
X-338801Y361294D02*
D03*
X-338853Y368801D02*
D03*
X-346147Y331199D02*
D03*
X-346294Y338801D02*
D03*
Y346294D02*
D03*
X-346345Y353750D02*
D03*
X-346294Y361294D02*
D03*
X-346345Y368801D02*
D03*
X-353853Y331199D02*
D03*
X-354000Y338801D02*
D03*
Y346294D02*
D03*
X-354051Y353750D02*
D03*
X-354000Y361294D02*
D03*
X-354051Y368801D02*
D03*
X-361147Y331199D02*
D03*
X-361294Y338801D02*
D03*
Y346294D02*
D03*
X-361345Y353750D02*
D03*
X-361294Y361294D02*
D03*
X-361345Y368801D02*
D03*
X-368853Y368853D02*
D03*
X-368801Y361345D02*
D03*
X-368853Y353801D02*
D03*
X-368801Y346345D02*
D03*
Y338853D02*
D03*
X-368655Y331250D02*
D03*
X-331147Y531199D02*
D03*
X-331294Y538801D02*
D03*
Y546294D02*
D03*
X-331345Y553750D02*
D03*
X-331294Y561294D02*
D03*
X-331345Y568801D02*
D03*
X-338655Y531199D02*
D03*
X-338801Y538801D02*
D03*
Y546294D02*
D03*
X-338853Y553750D02*
D03*
X-338801Y561294D02*
D03*
X-338853Y568801D02*
D03*
X-346147Y531199D02*
D03*
X-346294Y538801D02*
D03*
Y546294D02*
D03*
X-346345Y553750D02*
D03*
X-346294Y561294D02*
D03*
X-346345Y568801D02*
D03*
X-353853Y531199D02*
D03*
X-354000Y538801D02*
D03*
Y546294D02*
D03*
X-354051Y553750D02*
D03*
X-354000Y561294D02*
D03*
X-354051Y568801D02*
D03*
X-361147Y531199D02*
D03*
X-361294Y538801D02*
D03*
Y546294D02*
D03*
X-361345Y553750D02*
D03*
X-361294Y561294D02*
D03*
X-361345Y568801D02*
D03*
X-368853Y568853D02*
D03*
X-368801Y561345D02*
D03*
X-368853Y553801D02*
D03*
X-368801Y546345D02*
D03*
Y538853D02*
D03*
X-368655Y531250D02*
D03*
X-331147Y731199D02*
D03*
X-331294Y738801D02*
D03*
Y746294D02*
D03*
X-331345Y753750D02*
D03*
X-331294Y761294D02*
D03*
X-331345Y768801D02*
D03*
X-338655Y731199D02*
D03*
X-338801Y738801D02*
D03*
Y746294D02*
D03*
X-338853Y753750D02*
D03*
X-338801Y761294D02*
D03*
X-338853Y768801D02*
D03*
X-346147Y731199D02*
D03*
X-346294Y738801D02*
D03*
Y746294D02*
D03*
X-346345Y753750D02*
D03*
X-346294Y761294D02*
D03*
X-346345Y768801D02*
D03*
X-353853Y731199D02*
D03*
X-354000Y738801D02*
D03*
Y746294D02*
D03*
X-354051Y753750D02*
D03*
X-354000Y761294D02*
D03*
X-354051Y768801D02*
D03*
X-361147Y731199D02*
D03*
X-361294Y738801D02*
D03*
Y746294D02*
D03*
X-361345Y753750D02*
D03*
X-361294Y761294D02*
D03*
X-361345Y768801D02*
D03*
X-368853Y768853D02*
D03*
X-368801Y761345D02*
D03*
X-368853Y753801D02*
D03*
X-368801Y746345D02*
D03*
Y738853D02*
D03*
X-368655Y731250D02*
D03*
X-568853Y768801D02*
D03*
X-568706Y761199D02*
D03*
Y753706D02*
D03*
X-568655Y746250D02*
D03*
X-568706Y738706D02*
D03*
X-568655Y731199D02*
D03*
X-561345Y768801D02*
D03*
X-561199Y761199D02*
D03*
Y753706D02*
D03*
X-561147Y746250D02*
D03*
X-561199Y738706D02*
D03*
X-561147Y731199D02*
D03*
X-553853Y768801D02*
D03*
X-553706Y761199D02*
D03*
Y753706D02*
D03*
X-553655Y746250D02*
D03*
X-553706Y738706D02*
D03*
X-553655Y731199D02*
D03*
X-546147Y768801D02*
D03*
X-546000Y761199D02*
D03*
Y753706D02*
D03*
X-545949Y746250D02*
D03*
X-546000Y738706D02*
D03*
X-545949Y731199D02*
D03*
X-538853Y768801D02*
D03*
X-538706Y761199D02*
D03*
Y753706D02*
D03*
X-538655Y746250D02*
D03*
X-538706Y738706D02*
D03*
X-538655Y731199D02*
D03*
X-531147Y731147D02*
D03*
X-531199Y738655D02*
D03*
X-531147Y746199D02*
D03*
X-531199Y753655D02*
D03*
Y761147D02*
D03*
X-531345Y768750D02*
D03*
X-568853Y568801D02*
D03*
X-568706Y561198D02*
D03*
Y553706D02*
D03*
X-568655Y546250D02*
D03*
X-568706Y538706D02*
D03*
X-568655Y531199D02*
D03*
X-561345Y568801D02*
D03*
X-561199Y561198D02*
D03*
Y553706D02*
D03*
X-561147Y546250D02*
D03*
X-561199Y538706D02*
D03*
X-561147Y531199D02*
D03*
X-553853Y568801D02*
D03*
X-553706Y561198D02*
D03*
Y553706D02*
D03*
X-553655Y546250D02*
D03*
X-553706Y538706D02*
D03*
X-553655Y531199D02*
D03*
X-546147Y568801D02*
D03*
X-546000Y561198D02*
D03*
Y553706D02*
D03*
X-545949Y546250D02*
D03*
X-546000Y538706D02*
D03*
X-545949Y531199D02*
D03*
X-538853Y568801D02*
D03*
X-538706Y561198D02*
D03*
Y553706D02*
D03*
X-538655Y546250D02*
D03*
X-538706Y538706D02*
D03*
X-538655Y531199D02*
D03*
X-531147Y531147D02*
D03*
X-531199Y538655D02*
D03*
X-531147Y546199D02*
D03*
X-531199Y553655D02*
D03*
Y561147D02*
D03*
X-531345Y568750D02*
D03*
X-568853Y368801D02*
D03*
X-568706Y361198D02*
D03*
Y353706D02*
D03*
X-568655Y346250D02*
D03*
X-568706Y338706D02*
D03*
X-568655Y331198D02*
D03*
X-561345Y368801D02*
D03*
X-561199Y361198D02*
D03*
Y353706D02*
D03*
X-561147Y346250D02*
D03*
X-561199Y338706D02*
D03*
X-561147Y331198D02*
D03*
X-553853Y368801D02*
D03*
X-553706Y361198D02*
D03*
Y353706D02*
D03*
X-553655Y346250D02*
D03*
X-553706Y338706D02*
D03*
X-553655Y331198D02*
D03*
X-546147Y368801D02*
D03*
X-546000Y361198D02*
D03*
Y353706D02*
D03*
X-545949Y346250D02*
D03*
X-546000Y338706D02*
D03*
X-545949Y331198D02*
D03*
X-538853Y368801D02*
D03*
X-538706Y361198D02*
D03*
Y353706D02*
D03*
X-538655Y346250D02*
D03*
X-538706Y338706D02*
D03*
X-538655Y331198D02*
D03*
X-531147Y331147D02*
D03*
X-531199Y338655D02*
D03*
X-531147Y346198D02*
D03*
X-531199Y353655D02*
D03*
Y361147D02*
D03*
X-531345Y368750D02*
D03*
X-568853Y168801D02*
D03*
X-568706Y161198D02*
D03*
Y153706D02*
D03*
X-568655Y146250D02*
D03*
X-568706Y138706D02*
D03*
X-568655Y131198D02*
D03*
X-561345Y168801D02*
D03*
X-561199Y161198D02*
D03*
Y153706D02*
D03*
X-561147Y146250D02*
D03*
X-561199Y138706D02*
D03*
X-561147Y131198D02*
D03*
X-553853Y168801D02*
D03*
X-553706Y161198D02*
D03*
Y153706D02*
D03*
X-553655Y146250D02*
D03*
X-553706Y138706D02*
D03*
X-553655Y131198D02*
D03*
X-546147Y168801D02*
D03*
X-546000Y161198D02*
D03*
Y153706D02*
D03*
X-545949Y146250D02*
D03*
X-546000Y138706D02*
D03*
X-545949Y131198D02*
D03*
X-538853Y168801D02*
D03*
X-538706Y161198D02*
D03*
Y153706D02*
D03*
X-538655Y146250D02*
D03*
X-538706Y138706D02*
D03*
X-538655Y131198D02*
D03*
X-531147Y131147D02*
D03*
X-531199Y138655D02*
D03*
X-531147Y146198D02*
D03*
X-531199Y153655D02*
D03*
Y161147D02*
D03*
X-531345Y168750D02*
D03*
X-731147Y131199D02*
D03*
X-731294Y138801D02*
D03*
Y146294D02*
D03*
X-731345Y153750D02*
D03*
X-731294Y161294D02*
D03*
X-731345Y168801D02*
D03*
X-738655Y131199D02*
D03*
X-738801Y138801D02*
D03*
Y146294D02*
D03*
X-738853Y153750D02*
D03*
X-738801Y161294D02*
D03*
X-738853Y168801D02*
D03*
X-746147Y131199D02*
D03*
X-746294Y138801D02*
D03*
Y146294D02*
D03*
X-746345Y153750D02*
D03*
X-746294Y161294D02*
D03*
X-746345Y168801D02*
D03*
X-753853Y131199D02*
D03*
X-754000Y138801D02*
D03*
Y146294D02*
D03*
X-754051Y153750D02*
D03*
X-754000Y161294D02*
D03*
X-754051Y168801D02*
D03*
X-761147Y131199D02*
D03*
X-761294Y138801D02*
D03*
Y146294D02*
D03*
X-761345Y153750D02*
D03*
X-761294Y161294D02*
D03*
X-761345Y168801D02*
D03*
X-768853Y168853D02*
D03*
X-768801Y161345D02*
D03*
X-768853Y153801D02*
D03*
X-768801Y146345D02*
D03*
Y138853D02*
D03*
X-768655Y131250D02*
D03*
X-731147Y331199D02*
D03*
X-731294Y338801D02*
D03*
Y346294D02*
D03*
X-731345Y353750D02*
D03*
X-731294Y361294D02*
D03*
X-731345Y368801D02*
D03*
X-738655Y331199D02*
D03*
X-738801Y338801D02*
D03*
Y346294D02*
D03*
X-738853Y353750D02*
D03*
X-738801Y361294D02*
D03*
X-738853Y368801D02*
D03*
X-746147Y331199D02*
D03*
X-746294Y338801D02*
D03*
Y346294D02*
D03*
X-746345Y353750D02*
D03*
X-746294Y361294D02*
D03*
X-746345Y368801D02*
D03*
X-753853Y331199D02*
D03*
X-754000Y338801D02*
D03*
Y346294D02*
D03*
X-754051Y353750D02*
D03*
X-754000Y361294D02*
D03*
X-754051Y368801D02*
D03*
X-761147Y331199D02*
D03*
X-761294Y338801D02*
D03*
Y346294D02*
D03*
X-761345Y353750D02*
D03*
X-761294Y361294D02*
D03*
X-761345Y368801D02*
D03*
X-768853Y368853D02*
D03*
X-768801Y361345D02*
D03*
X-768853Y353801D02*
D03*
X-768801Y346345D02*
D03*
Y338853D02*
D03*
X-768655Y331250D02*
D03*
X-731147Y531199D02*
D03*
X-731294Y538801D02*
D03*
Y546294D02*
D03*
X-731345Y553750D02*
D03*
X-731294Y561294D02*
D03*
X-731345Y568801D02*
D03*
X-738655Y531199D02*
D03*
X-738801Y538801D02*
D03*
Y546294D02*
D03*
X-738853Y553750D02*
D03*
X-738801Y561294D02*
D03*
X-738853Y568801D02*
D03*
X-746147Y531199D02*
D03*
X-746294Y538801D02*
D03*
Y546294D02*
D03*
X-746345Y553750D02*
D03*
X-746294Y561294D02*
D03*
X-746345Y568801D02*
D03*
X-753853Y531199D02*
D03*
X-754000Y538801D02*
D03*
Y546294D02*
D03*
X-754051Y553750D02*
D03*
X-754000Y561294D02*
D03*
X-754051Y568801D02*
D03*
X-761147Y531199D02*
D03*
X-761294Y538801D02*
D03*
Y546294D02*
D03*
X-761345Y553750D02*
D03*
X-761294Y561294D02*
D03*
X-761345Y568801D02*
D03*
X-768853Y568853D02*
D03*
X-768801Y561345D02*
D03*
X-768853Y553801D02*
D03*
X-768801Y546345D02*
D03*
Y538853D02*
D03*
X-768655Y531250D02*
D03*
X-731147Y731199D02*
D03*
X-731294Y738801D02*
D03*
Y746294D02*
D03*
X-731345Y753750D02*
D03*
X-731294Y761294D02*
D03*
X-731345Y768801D02*
D03*
X-738655Y731199D02*
D03*
X-738801Y738801D02*
D03*
Y746294D02*
D03*
X-738853Y753750D02*
D03*
X-738801Y761294D02*
D03*
X-738853Y768801D02*
D03*
X-746147Y731199D02*
D03*
X-746294Y738801D02*
D03*
Y746294D02*
D03*
X-746345Y753750D02*
D03*
X-746294Y761294D02*
D03*
X-746345Y768801D02*
D03*
X-753853Y731199D02*
D03*
X-754000Y738801D02*
D03*
Y746294D02*
D03*
X-754051Y753750D02*
D03*
X-754000Y761294D02*
D03*
X-754051Y768801D02*
D03*
X-761147Y731199D02*
D03*
X-761294Y738801D02*
D03*
Y746294D02*
D03*
X-761345Y753750D02*
D03*
X-761294Y761294D02*
D03*
X-761345Y768801D02*
D03*
X-768853Y768853D02*
D03*
X-768801Y761345D02*
D03*
X-768853Y753801D02*
D03*
X-768801Y746345D02*
D03*
Y738853D02*
D03*
X-768655Y731250D02*
D03*
D70*
X-43499Y1002501D02*
D03*
X-68999D02*
D03*
X-94499D02*
D03*
X-119499D02*
D03*
D71*
X-144999D02*
D03*
D72*
X-32000Y1094000D02*
D03*
X-14000D02*
D03*
X-90500Y939250D02*
D03*
X-72500D02*
D03*
Y959500D02*
D03*
X-90500D02*
D03*
X-48499Y1230001D02*
D03*
X-66499D02*
D03*
X-391750Y1197250D02*
D03*
X-409750D02*
D03*
X-491001Y1166499D02*
D03*
X-473001D02*
D03*
X-650001D02*
D03*
X-632001D02*
D03*
X-810001D02*
D03*
X-792001D02*
D03*
D73*
X-90750Y1184500D02*
D03*
Y1200500D02*
D03*
X-71500Y905750D02*
D03*
Y921750D02*
D03*
X-117000Y935500D02*
D03*
Y919500D02*
D03*
X-117250Y949500D02*
D03*
Y965500D02*
D03*
X-54750Y1052000D02*
D03*
Y1068000D02*
D03*
X-235000Y1103000D02*
D03*
Y1087000D02*
D03*
X-70000Y1019500D02*
D03*
Y1035500D02*
D03*
X-10000D02*
D03*
Y1019500D02*
D03*
X-25000Y1035500D02*
D03*
Y1019500D02*
D03*
X-90000Y763500D02*
D03*
Y747500D02*
D03*
Y563500D02*
D03*
Y547500D02*
D03*
Y363500D02*
D03*
Y347500D02*
D03*
Y163500D02*
D03*
Y147500D02*
D03*
X-410000Y136500D02*
D03*
Y152500D02*
D03*
Y336500D02*
D03*
Y352500D02*
D03*
Y536500D02*
D03*
Y552500D02*
D03*
Y736500D02*
D03*
Y752500D02*
D03*
X-490000Y763500D02*
D03*
Y747500D02*
D03*
Y563500D02*
D03*
Y547500D02*
D03*
Y365500D02*
D03*
Y349500D02*
D03*
Y163500D02*
D03*
Y147500D02*
D03*
X-810000Y136500D02*
D03*
Y152500D02*
D03*
Y336500D02*
D03*
Y352500D02*
D03*
Y536500D02*
D03*
Y552500D02*
D03*
Y736500D02*
D03*
Y752500D02*
D03*
X-251000Y1130500D02*
D03*
Y1114500D02*
D03*
X-218500Y970750D02*
D03*
Y986750D02*
D03*
D74*
X-182500Y1035001D02*
D03*
X-177500D02*
D03*
X-172500D02*
D03*
X-167500D02*
D03*
X-162500D02*
D03*
X-157500D02*
D03*
X-152500D02*
D03*
X-147500D02*
D03*
X-142500D02*
D03*
X-137500D02*
D03*
X-132500D02*
D03*
X-127500D02*
D03*
X-122500D02*
D03*
X-117500D02*
D03*
X-112500D02*
D03*
X-107500D02*
D03*
Y1150001D02*
D03*
X-112500D02*
D03*
X-117500D02*
D03*
X-122500D02*
D03*
X-127500D02*
D03*
X-132500D02*
D03*
X-137500D02*
D03*
X-142500D02*
D03*
X-147500D02*
D03*
X-152500D02*
D03*
X-157500D02*
D03*
X-162500D02*
D03*
X-167500D02*
D03*
X-172500D02*
D03*
X-177500D02*
D03*
X-182500D02*
D03*
D75*
X-87500Y1055001D02*
D03*
Y1060001D02*
D03*
Y1065001D02*
D03*
Y1070001D02*
D03*
Y1075001D02*
D03*
Y1080001D02*
D03*
Y1085001D02*
D03*
Y1090001D02*
D03*
Y1095001D02*
D03*
Y1100001D02*
D03*
Y1105001D02*
D03*
Y1110001D02*
D03*
Y1115001D02*
D03*
Y1120001D02*
D03*
Y1125001D02*
D03*
Y1130001D02*
D03*
X-202500D02*
D03*
Y1125001D02*
D03*
Y1120001D02*
D03*
Y1115001D02*
D03*
Y1110001D02*
D03*
Y1105001D02*
D03*
Y1100001D02*
D03*
Y1095001D02*
D03*
Y1090001D02*
D03*
Y1085001D02*
D03*
Y1080001D02*
D03*
Y1075001D02*
D03*
Y1070001D02*
D03*
Y1065001D02*
D03*
Y1060001D02*
D03*
Y1055001D02*
D03*
D76*
X-87500Y1035001D02*
D03*
X-202500Y1150001D02*
D03*
D77*
X-12500Y1135500D02*
D03*
X-42500D02*
D03*
X-490500Y1112000D02*
D03*
X-460500D02*
D03*
X-649500D02*
D03*
X-619500D02*
D03*
X-809500D02*
D03*
X-779500D02*
D03*
X-490500Y1047000D02*
D03*
X-460500D02*
D03*
X-649500D02*
D03*
X-619500D02*
D03*
X-809500D02*
D03*
X-779500D02*
D03*
X-490500Y1079500D02*
D03*
X-460500D02*
D03*
X-649500D02*
D03*
X-619500D02*
D03*
X-809500D02*
D03*
X-779500D02*
D03*
X-845000Y150000D02*
D03*
X-875000D02*
D03*
X-845000Y230000D02*
D03*
X-875000D02*
D03*
X-845000Y310000D02*
D03*
X-875000D02*
D03*
X-845000Y350000D02*
D03*
X-875000D02*
D03*
X-845000Y430000D02*
D03*
X-875000D02*
D03*
X-845000Y510000D02*
D03*
X-875000D02*
D03*
X-845000Y590000D02*
D03*
X-875000D02*
D03*
X-845000Y670000D02*
D03*
X-875000D02*
D03*
X-845000Y750000D02*
D03*
X-875000D02*
D03*
X-845000Y790000D02*
D03*
X-875000D02*
D03*
X-205000Y470000D02*
D03*
X-235000D02*
D03*
X-57500Y670000D02*
D03*
X-27500D02*
D03*
X-57500Y590000D02*
D03*
X-27500D02*
D03*
X-57500Y510000D02*
D03*
X-27500D02*
D03*
X-57500Y470000D02*
D03*
X-27500D02*
D03*
X-57500Y310000D02*
D03*
X-27500D02*
D03*
X-57500Y270000D02*
D03*
X-27500D02*
D03*
X-57500Y190000D02*
D03*
X-27500D02*
D03*
X-57500Y150000D02*
D03*
X-27500D02*
D03*
X-295000Y430000D02*
D03*
X-265000D02*
D03*
X-495000Y230000D02*
D03*
X-465000D02*
D03*
X-295000Y830000D02*
D03*
X-265000D02*
D03*
X-604999Y430000D02*
D03*
X-634999D02*
D03*
X-604999Y470000D02*
D03*
X-634999D02*
D03*
X-204999Y430000D02*
D03*
X-234999D02*
D03*
X-845000Y110000D02*
D03*
X-875000D02*
D03*
X-845000Y190000D02*
D03*
X-875000D02*
D03*
X-845000Y270000D02*
D03*
X-875000D02*
D03*
X-845000Y390000D02*
D03*
X-875000D02*
D03*
X-845000Y470000D02*
D03*
X-875000D02*
D03*
X-845000Y550000D02*
D03*
X-875000D02*
D03*
X-845000Y630000D02*
D03*
X-875000D02*
D03*
X-845000Y710000D02*
D03*
X-875000D02*
D03*
X-57500Y750000D02*
D03*
X-27500D02*
D03*
X-57500Y790000D02*
D03*
X-27500D02*
D03*
X-57500Y710000D02*
D03*
X-27500D02*
D03*
X-57500Y630000D02*
D03*
X-27500D02*
D03*
X-57500Y550000D02*
D03*
X-27500D02*
D03*
X-57500Y430000D02*
D03*
X-27500D02*
D03*
X-57500Y390000D02*
D03*
X-27500D02*
D03*
X-57500Y350000D02*
D03*
X-27500D02*
D03*
X-57500Y230000D02*
D03*
X-27500D02*
D03*
X-57500Y110000D02*
D03*
X-27500D02*
D03*
X-295000Y470000D02*
D03*
X-265000D02*
D03*
X-495000Y270000D02*
D03*
X-465000D02*
D03*
X-695000Y470000D02*
D03*
X-665000D02*
D03*
X-695000Y430000D02*
D03*
X-665000D02*
D03*
X-204999Y830000D02*
D03*
X-234999D02*
D03*
X-404999Y230000D02*
D03*
X-434999D02*
D03*
X-404999Y270000D02*
D03*
X-434999D02*
D03*
X-405000Y70000D02*
D03*
X-435000D02*
D03*
X-205000Y870000D02*
D03*
X-235000D02*
D03*
X-605000Y830000D02*
D03*
X-635000D02*
D03*
X-605000Y870000D02*
D03*
X-635000D02*
D03*
X-405000Y430000D02*
D03*
X-435000D02*
D03*
X-405000Y470000D02*
D03*
X-435000D02*
D03*
X-405000Y630000D02*
D03*
X-435000D02*
D03*
X-405000Y670000D02*
D03*
X-435000D02*
D03*
X-495000D02*
D03*
X-465000D02*
D03*
X-495000Y630000D02*
D03*
X-465000D02*
D03*
X-495000Y470000D02*
D03*
X-465000D02*
D03*
X-495000Y430000D02*
D03*
X-465000D02*
D03*
X-695000Y870000D02*
D03*
X-665000D02*
D03*
X-695000Y830000D02*
D03*
X-665000D02*
D03*
X-295000Y870000D02*
D03*
X-265000D02*
D03*
X-495000Y70000D02*
D03*
X-465000D02*
D03*
X-605000D02*
D03*
X-635000D02*
D03*
X-205000D02*
D03*
X-235000D02*
D03*
X-695000D02*
D03*
X-665000D02*
D03*
X-295000D02*
D03*
X-265000D02*
D03*
X-405000Y870000D02*
D03*
X-435000D02*
D03*
X-495000D02*
D03*
X-465000D02*
D03*
D78*
X-216499Y1283500D02*
D03*
Y1190500D02*
D03*
D79*
X-72999Y1170451D02*
D03*
Y1183151D02*
D03*
Y1195851D02*
D03*
Y1208551D02*
D03*
X-16999D02*
D03*
Y1195851D02*
D03*
Y1183151D02*
D03*
Y1170451D02*
D03*
D80*
X-53668Y975500D02*
D03*
X-40968D02*
D03*
X-28268D02*
D03*
X-15568D02*
D03*
Y919501D02*
D03*
X-28268D02*
D03*
X-40968D02*
D03*
X-53668D02*
D03*
X-380549Y1225645D02*
D03*
X-367849D02*
D03*
X-355149D02*
D03*
X-342449D02*
D03*
Y1169645D02*
D03*
X-355149D02*
D03*
X-367849D02*
D03*
X-380549D02*
D03*
D81*
X-330499Y1197645D02*
D03*
D82*
X-395499Y1174745D02*
D03*
Y1220545D02*
D03*
D83*
X-311000Y1197650D02*
D03*
D84*
X-401000Y1172250D02*
D03*
Y1223050D02*
D03*
D85*
X-32000Y1199000D02*
D03*
Y1180000D02*
D03*
X-58000D02*
D03*
Y1189500D02*
D03*
Y1199000D02*
D03*
X-132998Y1200100D02*
D03*
X-106998D02*
D03*
D86*
X-480000Y1144500D02*
D03*
X-639000D02*
D03*
X-799000Y1144502D02*
D03*
D87*
X-466000Y1151250D02*
D03*
Y1146750D02*
D03*
Y1142250D02*
D03*
X-494000D02*
D03*
Y1146750D02*
D03*
Y1151250D02*
D03*
Y1137750D02*
D03*
X-466000D02*
D03*
X-625000D02*
D03*
X-653000D02*
D03*
Y1151250D02*
D03*
Y1146750D02*
D03*
Y1142250D02*
D03*
X-625000D02*
D03*
Y1146750D02*
D03*
Y1151250D02*
D03*
X-785000Y1151252D02*
D03*
Y1146752D02*
D03*
Y1142252D02*
D03*
X-813000D02*
D03*
Y1146752D02*
D03*
Y1151252D02*
D03*
Y1137752D02*
D03*
X-785000D02*
D03*
D88*
X-475000Y1285000D02*
D03*
X-445000D02*
D03*
X-309252Y1122999D02*
D03*
X-339252D02*
D03*
D89*
X-508000Y1040450D02*
D03*
Y1053150D02*
D03*
Y1065850D02*
D03*
Y1078550D02*
D03*
X-563000D02*
D03*
Y1065850D02*
D03*
Y1053150D02*
D03*
Y1040450D02*
D03*
X-667000D02*
D03*
Y1053150D02*
D03*
Y1065850D02*
D03*
Y1078550D02*
D03*
X-722000D02*
D03*
Y1065850D02*
D03*
Y1053150D02*
D03*
Y1040450D02*
D03*
X-827000D02*
D03*
Y1053150D02*
D03*
Y1065850D02*
D03*
Y1078550D02*
D03*
X-882000D02*
D03*
Y1065850D02*
D03*
Y1053150D02*
D03*
Y1040450D02*
D03*
X-508000Y1102898D02*
D03*
Y1115598D02*
D03*
Y1128298D02*
D03*
Y1140998D02*
D03*
X-563000D02*
D03*
Y1128298D02*
D03*
Y1115598D02*
D03*
Y1102898D02*
D03*
X-667000D02*
D03*
Y1115598D02*
D03*
Y1128298D02*
D03*
Y1140998D02*
D03*
X-722000D02*
D03*
Y1128298D02*
D03*
Y1115598D02*
D03*
Y1102898D02*
D03*
X-827000D02*
D03*
Y1115598D02*
D03*
Y1128298D02*
D03*
Y1140998D02*
D03*
X-882000D02*
D03*
Y1128298D02*
D03*
Y1115598D02*
D03*
Y1102898D02*
D03*
D90*
X-186000Y950000D02*
D03*
Y931000D02*
D03*
X-163000Y940500D02*
D03*
X-227000Y950000D02*
D03*
Y931000D02*
D03*
X-204000Y940500D02*
D03*
X-432000Y1144000D02*
D03*
Y1163000D02*
D03*
X-455000Y1153500D02*
D03*
X-591000Y1144000D02*
D03*
Y1163000D02*
D03*
X-614000Y1153500D02*
D03*
X-751000Y1144000D02*
D03*
Y1163000D02*
D03*
X-774000Y1153500D02*
D03*
D91*
X-557050Y1161998D02*
D03*
X-544350D02*
D03*
X-531650D02*
D03*
X-518950D02*
D03*
Y1216998D02*
D03*
X-531650D02*
D03*
X-544350D02*
D03*
X-557050D02*
D03*
X-716050Y1161998D02*
D03*
X-703350D02*
D03*
X-690650D02*
D03*
X-677950D02*
D03*
Y1216998D02*
D03*
X-690650D02*
D03*
X-703350D02*
D03*
X-716050D02*
D03*
X-876050Y1161998D02*
D03*
X-863350D02*
D03*
X-850650D02*
D03*
X-837950D02*
D03*
Y1216998D02*
D03*
X-850650D02*
D03*
X-863350D02*
D03*
X-876050D02*
D03*
D92*
X-547750Y962000D02*
D03*
X-448250D02*
D03*
X-706750D02*
D03*
X-607250D02*
D03*
X-866750D02*
D03*
X-767250D02*
D03*
D93*
X-813500Y1271250D02*
D03*
X-745500D02*
D03*
D94*
X-480000Y1254000D02*
D03*
X-440000D02*
D03*
X-344251Y1123000D02*
D03*
X-304251D02*
D03*
X-304251Y1123000D02*
D03*
X-344251D02*
D03*
D95*
X-268500Y1131500D02*
D03*
Y1110500D02*
D03*
D96*
X-221750Y1153250D02*
D03*
X-242750D02*
D03*
X-157000Y1170000D02*
D03*
X-178000D02*
D03*
Y1189000D02*
D03*
X-157000D02*
D03*
D97*
X-250500Y1262250D02*
D03*
X-266500D02*
D03*
X-29500Y1111750D02*
D03*
X-13500D02*
D03*
X-147499Y965001D02*
D03*
X-131499D02*
D03*
X-204500Y702500D02*
D03*
X-220500D02*
D03*
X-204000Y502500D02*
D03*
X-220000D02*
D03*
X-204500Y302500D02*
D03*
X-220500D02*
D03*
X-205000Y102500D02*
D03*
X-221000D02*
D03*
X-295000Y197500D02*
D03*
X-279000D02*
D03*
X-295000Y397500D02*
D03*
X-279000D02*
D03*
X-295000Y597500D02*
D03*
X-279000D02*
D03*
X-295000Y797500D02*
D03*
X-279000D02*
D03*
X-605000Y702500D02*
D03*
X-621000D02*
D03*
X-605000Y502500D02*
D03*
X-621000D02*
D03*
X-605000Y302500D02*
D03*
X-621000D02*
D03*
X-605000Y102500D02*
D03*
X-621000D02*
D03*
X-695000Y197500D02*
D03*
X-679000D02*
D03*
X-695000Y397500D02*
D03*
X-679000D02*
D03*
X-695000Y597500D02*
D03*
X-679000D02*
D03*
X-695000Y797500D02*
D03*
X-679000D02*
D03*
X-403500Y810000D02*
D03*
X-387500D02*
D03*
X-474000Y777500D02*
D03*
X-490000D02*
D03*
D98*
X-250500Y1287000D02*
D03*
Y1303000D02*
D03*
X-60000Y1100000D02*
D03*
Y1084000D02*
D03*
X-45000Y1100000D02*
D03*
Y1084000D02*
D03*
X-60009Y1127501D02*
D03*
Y1143501D02*
D03*
X-25000Y1052000D02*
D03*
Y1068000D02*
D03*
X-10000Y1052000D02*
D03*
Y1068000D02*
D03*
X-270000Y1090500D02*
D03*
Y1074500D02*
D03*
X-70000Y1052001D02*
D03*
Y1068001D02*
D03*
X-38999Y1051501D02*
D03*
Y1067501D02*
D03*
X-137500Y828000D02*
D03*
Y812000D02*
D03*
Y627500D02*
D03*
Y611500D02*
D03*
Y427500D02*
D03*
Y411500D02*
D03*
Y227500D02*
D03*
Y211500D02*
D03*
X-362500Y72500D02*
D03*
Y88500D02*
D03*
Y272500D02*
D03*
Y288500D02*
D03*
Y472500D02*
D03*
Y488500D02*
D03*
Y672500D02*
D03*
Y688500D02*
D03*
X-537500Y827500D02*
D03*
Y811500D02*
D03*
Y627500D02*
D03*
Y611500D02*
D03*
Y428000D02*
D03*
Y412000D02*
D03*
Y227500D02*
D03*
Y211500D02*
D03*
X-762500Y72500D02*
D03*
Y88500D02*
D03*
Y272500D02*
D03*
Y288500D02*
D03*
Y472500D02*
D03*
Y488500D02*
D03*
Y672500D02*
D03*
Y688500D02*
D03*
X-182500Y828000D02*
D03*
Y812000D02*
D03*
X-182500Y627500D02*
D03*
Y611500D02*
D03*
Y427500D02*
D03*
Y411500D02*
D03*
Y227500D02*
D03*
Y211500D02*
D03*
X-317500Y72500D02*
D03*
Y88500D02*
D03*
Y272500D02*
D03*
Y288500D02*
D03*
Y472500D02*
D03*
Y488500D02*
D03*
Y672500D02*
D03*
Y688500D02*
D03*
X-582500Y827500D02*
D03*
Y811500D02*
D03*
Y627500D02*
D03*
Y611500D02*
D03*
Y427500D02*
D03*
Y411500D02*
D03*
Y227500D02*
D03*
Y211500D02*
D03*
X-717500Y72500D02*
D03*
Y88500D02*
D03*
Y272500D02*
D03*
Y288500D02*
D03*
Y472500D02*
D03*
Y488500D02*
D03*
Y672500D02*
D03*
Y688500D02*
D03*
X-210500Y793500D02*
D03*
Y777500D02*
D03*
X-210000Y593500D02*
D03*
Y577500D02*
D03*
X-210500Y393500D02*
D03*
Y377500D02*
D03*
Y193500D02*
D03*
Y177500D02*
D03*
X-289500Y106500D02*
D03*
Y122500D02*
D03*
Y306500D02*
D03*
Y322500D02*
D03*
Y506500D02*
D03*
Y522500D02*
D03*
Y706500D02*
D03*
Y722500D02*
D03*
X-610500Y793500D02*
D03*
Y777500D02*
D03*
Y593500D02*
D03*
Y577500D02*
D03*
Y393500D02*
D03*
Y377500D02*
D03*
Y193500D02*
D03*
Y177500D02*
D03*
X-689500Y106500D02*
D03*
Y122500D02*
D03*
Y306500D02*
D03*
Y322500D02*
D03*
Y506500D02*
D03*
Y522500D02*
D03*
Y706500D02*
D03*
Y722500D02*
D03*
X-210000Y722000D02*
D03*
Y738000D02*
D03*
Y521500D02*
D03*
Y537500D02*
D03*
Y321500D02*
D03*
Y337500D02*
D03*
Y121500D02*
D03*
Y137500D02*
D03*
X-290000Y178500D02*
D03*
Y162500D02*
D03*
Y378500D02*
D03*
Y362500D02*
D03*
Y578500D02*
D03*
Y562500D02*
D03*
Y778500D02*
D03*
Y762500D02*
D03*
X-610000Y721500D02*
D03*
Y737500D02*
D03*
Y521500D02*
D03*
Y537500D02*
D03*
Y321500D02*
D03*
Y337500D02*
D03*
Y121500D02*
D03*
Y137500D02*
D03*
X-690000Y178500D02*
D03*
Y162500D02*
D03*
Y378500D02*
D03*
Y362500D02*
D03*
Y578500D02*
D03*
Y562500D02*
D03*
Y778500D02*
D03*
Y762500D02*
D03*
X-177570Y674000D02*
D03*
Y690000D02*
D03*
Y474000D02*
D03*
Y490000D02*
D03*
Y274000D02*
D03*
Y290000D02*
D03*
Y74000D02*
D03*
Y90000D02*
D03*
X-322430Y226000D02*
D03*
Y210000D02*
D03*
Y426000D02*
D03*
Y410000D02*
D03*
Y626000D02*
D03*
Y610000D02*
D03*
Y826000D02*
D03*
Y810000D02*
D03*
X-577570Y674000D02*
D03*
Y690000D02*
D03*
Y474000D02*
D03*
Y490000D02*
D03*
Y274000D02*
D03*
Y290000D02*
D03*
Y74000D02*
D03*
Y90000D02*
D03*
X-722430Y226000D02*
D03*
Y210000D02*
D03*
Y426000D02*
D03*
Y410000D02*
D03*
Y626000D02*
D03*
Y610000D02*
D03*
X-722500Y825500D02*
D03*
Y809500D02*
D03*
X-137500Y674500D02*
D03*
Y690500D02*
D03*
Y474000D02*
D03*
Y490000D02*
D03*
Y274500D02*
D03*
Y290500D02*
D03*
Y74000D02*
D03*
Y90000D02*
D03*
X-362500Y226000D02*
D03*
Y210000D02*
D03*
Y426000D02*
D03*
Y410000D02*
D03*
Y626000D02*
D03*
Y610000D02*
D03*
Y826000D02*
D03*
Y810000D02*
D03*
X-537500Y674000D02*
D03*
Y690000D02*
D03*
Y474000D02*
D03*
Y490000D02*
D03*
Y274000D02*
D03*
Y290000D02*
D03*
Y74000D02*
D03*
Y90000D02*
D03*
X-762500Y226000D02*
D03*
Y210000D02*
D03*
Y426000D02*
D03*
Y410000D02*
D03*
Y625000D02*
D03*
Y609000D02*
D03*
Y825500D02*
D03*
Y809500D02*
D03*
X-112500Y674500D02*
D03*
Y690500D02*
D03*
Y474500D02*
D03*
Y490500D02*
D03*
Y274500D02*
D03*
Y290500D02*
D03*
Y74000D02*
D03*
Y90000D02*
D03*
X-387500Y226000D02*
D03*
Y210000D02*
D03*
Y426000D02*
D03*
Y410000D02*
D03*
Y626000D02*
D03*
Y610000D02*
D03*
X-512500Y674000D02*
D03*
Y690000D02*
D03*
Y474000D02*
D03*
Y490000D02*
D03*
Y274000D02*
D03*
Y290000D02*
D03*
Y74000D02*
D03*
Y90000D02*
D03*
X-787500Y226000D02*
D03*
Y210000D02*
D03*
Y426000D02*
D03*
Y410000D02*
D03*
Y626000D02*
D03*
Y610000D02*
D03*
Y825500D02*
D03*
Y809500D02*
D03*
X-90000Y705000D02*
D03*
Y721000D02*
D03*
Y505000D02*
D03*
Y521000D02*
D03*
X-90000Y304500D02*
D03*
Y320500D02*
D03*
X-90000Y105000D02*
D03*
Y121000D02*
D03*
X-410000Y195000D02*
D03*
Y179000D02*
D03*
Y395000D02*
D03*
Y379000D02*
D03*
Y595000D02*
D03*
Y579000D02*
D03*
Y795000D02*
D03*
Y779000D02*
D03*
X-490000Y705000D02*
D03*
Y721000D02*
D03*
Y505000D02*
D03*
Y521000D02*
D03*
Y305000D02*
D03*
Y321000D02*
D03*
Y105000D02*
D03*
Y121000D02*
D03*
X-810000Y195000D02*
D03*
Y179000D02*
D03*
Y395000D02*
D03*
Y379000D02*
D03*
Y595000D02*
D03*
Y579000D02*
D03*
X-787500Y672002D02*
D03*
Y688002D02*
D03*
X-90000Y793500D02*
D03*
Y777500D02*
D03*
Y593500D02*
D03*
Y577500D02*
D03*
Y393500D02*
D03*
Y377500D02*
D03*
Y193500D02*
D03*
Y177500D02*
D03*
X-410000Y106500D02*
D03*
Y122500D02*
D03*
Y306500D02*
D03*
Y322500D02*
D03*
Y506500D02*
D03*
Y522500D02*
D03*
Y706500D02*
D03*
Y722500D02*
D03*
X-490000Y593500D02*
D03*
Y577500D02*
D03*
Y393500D02*
D03*
Y377500D02*
D03*
Y193500D02*
D03*
Y177500D02*
D03*
X-810000Y106500D02*
D03*
Y122500D02*
D03*
Y306500D02*
D03*
Y322500D02*
D03*
X-810000Y506500D02*
D03*
Y522500D02*
D03*
Y706500D02*
D03*
Y722500D02*
D03*
X-112500Y828000D02*
D03*
Y812000D02*
D03*
Y627998D02*
D03*
Y611998D02*
D03*
Y428000D02*
D03*
Y412000D02*
D03*
Y227998D02*
D03*
Y211998D02*
D03*
X-387500Y72002D02*
D03*
Y88002D02*
D03*
Y272002D02*
D03*
Y288002D02*
D03*
Y472002D02*
D03*
Y488002D02*
D03*
Y672002D02*
D03*
Y688002D02*
D03*
X-496500Y811998D02*
D03*
Y795998D02*
D03*
X-512500Y627998D02*
D03*
Y611998D02*
D03*
Y427998D02*
D03*
Y411998D02*
D03*
Y227998D02*
D03*
Y211998D02*
D03*
X-787500Y72002D02*
D03*
Y88002D02*
D03*
Y272002D02*
D03*
Y288002D02*
D03*
Y472002D02*
D03*
Y488002D02*
D03*
X-810000Y795000D02*
D03*
Y779000D02*
D03*
D99*
X-460000Y1217750D02*
D03*
Y1187750D02*
D03*
X-619000Y1217750D02*
D03*
Y1187750D02*
D03*
X-779000Y1217500D02*
D03*
Y1187500D02*
D03*
X-492000Y1217500D02*
D03*
Y1187500D02*
D03*
X-651000Y1217500D02*
D03*
Y1187500D02*
D03*
X-811000Y1217500D02*
D03*
Y1187500D02*
D03*
D100*
X-440999Y1104999D02*
D03*
Y1122999D02*
D03*
X-599999Y1104999D02*
D03*
Y1122999D02*
D03*
X-759999Y1104999D02*
D03*
Y1122999D02*
D03*
X-252499Y1081001D02*
D03*
Y1099001D02*
D03*
X-433999Y1179499D02*
D03*
Y1197499D02*
D03*
X-592999Y1179499D02*
D03*
Y1197499D02*
D03*
X-752999Y1179499D02*
D03*
Y1197499D02*
D03*
D101*
X-132998Y1209600D02*
D03*
Y1190600D02*
D03*
X-106998D02*
D03*
Y1209600D02*
D03*
D102*
X-117000Y1238999D02*
D03*
X-125000D02*
D03*
X-133000D02*
D03*
X-141000D02*
D03*
X-149000D02*
D03*
D103*
X-177500Y1239999D02*
D03*
Y1295000D02*
D03*
X-88500D02*
D03*
Y1239999D02*
D03*
D104*
X-122500Y784500D02*
D03*
X-127500D02*
D03*
X-132500D02*
D03*
X-137500D02*
D03*
X-142500D02*
D03*
X-147500D02*
D03*
X-152500D02*
D03*
X-157500D02*
D03*
X-162500D02*
D03*
X-167500D02*
D03*
X-172500D02*
D03*
X-177500D02*
D03*
Y715500D02*
D03*
X-172500D02*
D03*
X-167500D02*
D03*
X-162500D02*
D03*
X-157500D02*
D03*
X-152500D02*
D03*
X-147500D02*
D03*
X-142500D02*
D03*
X-137500D02*
D03*
X-132500D02*
D03*
X-127500D02*
D03*
X-122500D02*
D03*
Y584500D02*
D03*
X-127500D02*
D03*
X-132500D02*
D03*
X-137500D02*
D03*
X-142500D02*
D03*
X-147500D02*
D03*
X-152500D02*
D03*
X-157500D02*
D03*
X-162500D02*
D03*
X-167500D02*
D03*
X-172500D02*
D03*
X-177500D02*
D03*
Y515500D02*
D03*
X-172500D02*
D03*
X-167500D02*
D03*
X-162500D02*
D03*
X-157500D02*
D03*
X-152500D02*
D03*
X-147500D02*
D03*
X-142500D02*
D03*
X-137500D02*
D03*
X-132500D02*
D03*
X-127500D02*
D03*
X-122500D02*
D03*
Y384500D02*
D03*
X-127500D02*
D03*
X-132500D02*
D03*
X-137500D02*
D03*
X-142500D02*
D03*
X-147500D02*
D03*
X-152500D02*
D03*
X-157500D02*
D03*
X-162500D02*
D03*
X-167500D02*
D03*
X-172500D02*
D03*
X-177500D02*
D03*
Y315500D02*
D03*
X-172500D02*
D03*
X-167500D02*
D03*
X-162500D02*
D03*
X-157500D02*
D03*
X-152500D02*
D03*
X-147500D02*
D03*
X-142500D02*
D03*
X-137500D02*
D03*
X-132500D02*
D03*
X-127500D02*
D03*
X-122500D02*
D03*
Y184500D02*
D03*
X-127500D02*
D03*
X-132500D02*
D03*
X-137500D02*
D03*
X-142500D02*
D03*
X-147500D02*
D03*
X-152500D02*
D03*
X-157500D02*
D03*
X-162500D02*
D03*
X-167500D02*
D03*
X-172500D02*
D03*
X-177500D02*
D03*
Y115500D02*
D03*
X-172500D02*
D03*
X-167500D02*
D03*
X-162500D02*
D03*
X-157500D02*
D03*
X-152500D02*
D03*
X-147500D02*
D03*
X-142500D02*
D03*
X-137500D02*
D03*
X-132500D02*
D03*
X-127500D02*
D03*
X-122500D02*
D03*
X-377500D02*
D03*
X-372500D02*
D03*
X-367500D02*
D03*
X-362500D02*
D03*
X-357500D02*
D03*
X-352500D02*
D03*
X-347500D02*
D03*
X-342500D02*
D03*
X-337500D02*
D03*
X-332500D02*
D03*
X-327500D02*
D03*
X-322500D02*
D03*
Y184500D02*
D03*
X-327500D02*
D03*
X-332500D02*
D03*
X-337500D02*
D03*
X-342500D02*
D03*
X-347500D02*
D03*
X-352500D02*
D03*
X-357500D02*
D03*
X-362500D02*
D03*
X-367500D02*
D03*
X-372500D02*
D03*
X-377500D02*
D03*
Y315500D02*
D03*
X-372500D02*
D03*
X-367500D02*
D03*
X-362500D02*
D03*
X-357500D02*
D03*
X-352500D02*
D03*
X-347500D02*
D03*
X-342500D02*
D03*
X-337500D02*
D03*
X-332500D02*
D03*
X-327500D02*
D03*
X-322500D02*
D03*
Y384500D02*
D03*
X-327500D02*
D03*
X-332500D02*
D03*
X-337500D02*
D03*
X-342500D02*
D03*
X-347500D02*
D03*
X-352500D02*
D03*
X-357500D02*
D03*
X-362500D02*
D03*
X-367500D02*
D03*
X-372500D02*
D03*
X-377500D02*
D03*
Y515500D02*
D03*
X-372500D02*
D03*
X-367500D02*
D03*
X-362500D02*
D03*
X-357500D02*
D03*
X-352500D02*
D03*
X-347500D02*
D03*
X-342500D02*
D03*
X-337500D02*
D03*
X-332500D02*
D03*
X-327500D02*
D03*
X-322500D02*
D03*
Y584500D02*
D03*
X-327500D02*
D03*
X-332500D02*
D03*
X-337500D02*
D03*
X-342500D02*
D03*
X-347500D02*
D03*
X-352500D02*
D03*
X-357500D02*
D03*
X-362500D02*
D03*
X-367500D02*
D03*
X-372500D02*
D03*
X-377500D02*
D03*
Y715500D02*
D03*
X-372500D02*
D03*
X-367500D02*
D03*
X-362500D02*
D03*
X-357500D02*
D03*
X-352500D02*
D03*
X-347500D02*
D03*
X-342500D02*
D03*
X-337500D02*
D03*
X-332500D02*
D03*
X-327500D02*
D03*
X-322500D02*
D03*
Y784500D02*
D03*
X-327500D02*
D03*
X-332500D02*
D03*
X-337500D02*
D03*
X-342500D02*
D03*
X-347500D02*
D03*
X-352500D02*
D03*
X-357500D02*
D03*
X-362500D02*
D03*
X-367500D02*
D03*
X-372500D02*
D03*
X-377500D02*
D03*
X-522500D02*
D03*
X-527500D02*
D03*
X-532500D02*
D03*
X-537500D02*
D03*
X-542500D02*
D03*
X-547500D02*
D03*
X-552500D02*
D03*
X-557500D02*
D03*
X-562500D02*
D03*
X-567500D02*
D03*
X-572500D02*
D03*
X-577500D02*
D03*
Y715500D02*
D03*
X-572500D02*
D03*
X-567500D02*
D03*
X-562500D02*
D03*
X-557500D02*
D03*
X-552500D02*
D03*
X-547500D02*
D03*
X-542500D02*
D03*
X-537500D02*
D03*
X-532500D02*
D03*
X-527500D02*
D03*
X-522500D02*
D03*
Y584500D02*
D03*
X-527500D02*
D03*
X-532500D02*
D03*
X-537500D02*
D03*
X-542500D02*
D03*
X-547500D02*
D03*
X-552500D02*
D03*
X-557500D02*
D03*
X-562500D02*
D03*
X-567500D02*
D03*
X-572500D02*
D03*
X-577500D02*
D03*
Y515500D02*
D03*
X-572500D02*
D03*
X-567500D02*
D03*
X-562500D02*
D03*
X-557500D02*
D03*
X-552500D02*
D03*
X-547500D02*
D03*
X-542500D02*
D03*
X-537500D02*
D03*
X-532500D02*
D03*
X-527500D02*
D03*
X-522500D02*
D03*
Y384500D02*
D03*
X-527500D02*
D03*
X-532500D02*
D03*
X-537500D02*
D03*
X-542500D02*
D03*
X-547500D02*
D03*
X-552500D02*
D03*
X-557500D02*
D03*
X-562500D02*
D03*
X-567500D02*
D03*
X-572500D02*
D03*
X-577500D02*
D03*
Y315500D02*
D03*
X-572500D02*
D03*
X-567500D02*
D03*
X-562500D02*
D03*
X-557500D02*
D03*
X-552500D02*
D03*
X-547500D02*
D03*
X-542500D02*
D03*
X-537500D02*
D03*
X-532500D02*
D03*
X-527500D02*
D03*
X-522500D02*
D03*
Y184500D02*
D03*
X-527500D02*
D03*
X-532500D02*
D03*
X-537500D02*
D03*
X-542500D02*
D03*
X-547500D02*
D03*
X-552500D02*
D03*
X-557500D02*
D03*
X-562500D02*
D03*
X-567500D02*
D03*
X-572500D02*
D03*
X-577500D02*
D03*
Y115500D02*
D03*
X-572500D02*
D03*
X-567500D02*
D03*
X-562500D02*
D03*
X-557500D02*
D03*
X-552500D02*
D03*
X-547500D02*
D03*
X-542500D02*
D03*
X-537500D02*
D03*
X-532500D02*
D03*
X-527500D02*
D03*
X-522500D02*
D03*
X-777500D02*
D03*
X-772500D02*
D03*
X-767500D02*
D03*
X-762500D02*
D03*
X-757500D02*
D03*
X-752500D02*
D03*
X-747500D02*
D03*
X-742500D02*
D03*
X-737500D02*
D03*
X-732500D02*
D03*
X-727500D02*
D03*
X-722500D02*
D03*
Y184500D02*
D03*
X-727500D02*
D03*
X-732500D02*
D03*
X-737500D02*
D03*
X-742500D02*
D03*
X-747500D02*
D03*
X-752500D02*
D03*
X-757500D02*
D03*
X-762500D02*
D03*
X-767500D02*
D03*
X-772500D02*
D03*
X-777500D02*
D03*
Y315500D02*
D03*
X-772500D02*
D03*
X-767500D02*
D03*
X-762500D02*
D03*
X-757500D02*
D03*
X-752500D02*
D03*
X-747500D02*
D03*
X-742500D02*
D03*
X-737500D02*
D03*
X-732500D02*
D03*
X-727500D02*
D03*
X-722500D02*
D03*
Y384500D02*
D03*
X-727500D02*
D03*
X-732500D02*
D03*
X-737500D02*
D03*
X-742500D02*
D03*
X-747500D02*
D03*
X-752500D02*
D03*
X-757500D02*
D03*
X-762500D02*
D03*
X-767500D02*
D03*
X-772500D02*
D03*
X-777500D02*
D03*
Y515500D02*
D03*
X-772500D02*
D03*
X-767500D02*
D03*
X-762500D02*
D03*
X-757500D02*
D03*
X-752500D02*
D03*
X-747500D02*
D03*
X-742500D02*
D03*
X-737500D02*
D03*
X-732500D02*
D03*
X-727500D02*
D03*
X-722500D02*
D03*
Y584500D02*
D03*
X-727500D02*
D03*
X-732500D02*
D03*
X-737500D02*
D03*
X-742500D02*
D03*
X-747500D02*
D03*
X-752500D02*
D03*
X-757500D02*
D03*
X-762500D02*
D03*
X-767500D02*
D03*
X-772500D02*
D03*
X-777500D02*
D03*
Y715500D02*
D03*
X-772500D02*
D03*
X-767500D02*
D03*
X-762500D02*
D03*
X-757500D02*
D03*
X-752500D02*
D03*
X-747500D02*
D03*
X-742500D02*
D03*
X-737500D02*
D03*
X-732500D02*
D03*
X-727500D02*
D03*
X-722500D02*
D03*
Y784500D02*
D03*
X-727500D02*
D03*
X-732500D02*
D03*
X-737500D02*
D03*
X-742500D02*
D03*
X-747500D02*
D03*
X-752500D02*
D03*
X-757500D02*
D03*
X-762500D02*
D03*
X-767500D02*
D03*
X-772500D02*
D03*
X-777500D02*
D03*
D105*
X-184500Y777500D02*
D03*
Y772500D02*
D03*
Y767500D02*
D03*
Y762500D02*
D03*
Y757500D02*
D03*
Y752500D02*
D03*
Y747500D02*
D03*
Y742500D02*
D03*
Y737500D02*
D03*
Y732500D02*
D03*
Y727500D02*
D03*
Y722500D02*
D03*
X-115500D02*
D03*
Y727500D02*
D03*
Y732500D02*
D03*
Y737500D02*
D03*
Y742500D02*
D03*
Y747500D02*
D03*
Y752500D02*
D03*
Y757500D02*
D03*
Y762500D02*
D03*
Y767500D02*
D03*
Y772500D02*
D03*
Y777500D02*
D03*
X-184500Y577500D02*
D03*
Y572500D02*
D03*
Y567500D02*
D03*
Y562500D02*
D03*
Y557500D02*
D03*
Y552500D02*
D03*
Y547500D02*
D03*
Y542500D02*
D03*
Y537500D02*
D03*
Y532500D02*
D03*
Y527500D02*
D03*
Y522500D02*
D03*
X-115500D02*
D03*
Y527500D02*
D03*
Y532500D02*
D03*
Y537500D02*
D03*
Y542500D02*
D03*
Y547500D02*
D03*
Y552500D02*
D03*
Y557500D02*
D03*
Y562500D02*
D03*
Y567500D02*
D03*
Y572500D02*
D03*
Y577500D02*
D03*
X-184500Y377500D02*
D03*
Y372500D02*
D03*
Y367500D02*
D03*
Y362500D02*
D03*
Y357500D02*
D03*
Y352500D02*
D03*
Y347500D02*
D03*
Y342500D02*
D03*
Y337500D02*
D03*
Y332500D02*
D03*
Y327500D02*
D03*
Y322500D02*
D03*
X-115500D02*
D03*
Y327500D02*
D03*
Y332500D02*
D03*
Y337500D02*
D03*
Y342500D02*
D03*
Y347500D02*
D03*
Y352500D02*
D03*
Y357500D02*
D03*
Y362500D02*
D03*
Y367500D02*
D03*
Y372500D02*
D03*
Y377500D02*
D03*
X-184500Y177500D02*
D03*
Y172500D02*
D03*
Y167500D02*
D03*
Y162500D02*
D03*
Y157500D02*
D03*
Y152500D02*
D03*
Y147500D02*
D03*
Y142500D02*
D03*
Y137500D02*
D03*
Y132500D02*
D03*
Y127500D02*
D03*
Y122500D02*
D03*
X-115500D02*
D03*
Y127500D02*
D03*
Y132500D02*
D03*
Y137500D02*
D03*
Y142500D02*
D03*
Y147500D02*
D03*
Y152500D02*
D03*
Y157500D02*
D03*
Y162500D02*
D03*
Y167500D02*
D03*
Y172500D02*
D03*
Y177500D02*
D03*
X-315500Y122500D02*
D03*
Y127500D02*
D03*
Y132500D02*
D03*
Y137500D02*
D03*
Y142500D02*
D03*
Y147500D02*
D03*
Y152500D02*
D03*
Y157500D02*
D03*
Y162500D02*
D03*
Y167500D02*
D03*
Y172500D02*
D03*
Y177500D02*
D03*
X-384500D02*
D03*
Y172500D02*
D03*
Y167500D02*
D03*
Y162500D02*
D03*
Y157500D02*
D03*
Y152500D02*
D03*
Y147500D02*
D03*
Y142500D02*
D03*
Y137500D02*
D03*
Y132500D02*
D03*
Y127500D02*
D03*
Y122500D02*
D03*
X-315500Y322500D02*
D03*
Y327500D02*
D03*
Y332500D02*
D03*
Y337500D02*
D03*
Y342500D02*
D03*
Y347500D02*
D03*
Y352500D02*
D03*
Y357500D02*
D03*
Y362500D02*
D03*
Y367500D02*
D03*
Y372500D02*
D03*
Y377500D02*
D03*
X-384500D02*
D03*
Y372500D02*
D03*
Y367500D02*
D03*
Y362500D02*
D03*
Y357500D02*
D03*
Y352500D02*
D03*
Y347500D02*
D03*
Y342500D02*
D03*
Y337500D02*
D03*
Y332500D02*
D03*
Y327500D02*
D03*
Y322500D02*
D03*
X-315500Y522500D02*
D03*
Y527500D02*
D03*
Y532500D02*
D03*
Y537500D02*
D03*
Y542500D02*
D03*
Y547500D02*
D03*
Y552500D02*
D03*
Y557500D02*
D03*
Y562500D02*
D03*
Y567500D02*
D03*
Y572500D02*
D03*
Y577500D02*
D03*
X-384500D02*
D03*
Y572500D02*
D03*
Y567500D02*
D03*
Y562500D02*
D03*
Y557500D02*
D03*
Y552500D02*
D03*
Y547500D02*
D03*
Y542500D02*
D03*
Y537500D02*
D03*
Y532500D02*
D03*
Y527500D02*
D03*
Y522500D02*
D03*
X-315500Y722500D02*
D03*
Y727500D02*
D03*
Y732500D02*
D03*
Y737500D02*
D03*
Y742500D02*
D03*
Y747500D02*
D03*
Y752500D02*
D03*
Y757500D02*
D03*
Y762500D02*
D03*
Y767500D02*
D03*
Y772500D02*
D03*
Y777500D02*
D03*
X-384500D02*
D03*
Y772500D02*
D03*
Y767500D02*
D03*
Y762500D02*
D03*
Y757500D02*
D03*
Y752500D02*
D03*
Y747500D02*
D03*
Y742500D02*
D03*
Y737500D02*
D03*
Y732500D02*
D03*
Y727500D02*
D03*
Y722500D02*
D03*
X-584500Y777500D02*
D03*
Y772500D02*
D03*
Y767500D02*
D03*
Y762500D02*
D03*
Y757500D02*
D03*
Y752500D02*
D03*
Y747500D02*
D03*
Y742500D02*
D03*
Y737500D02*
D03*
Y732500D02*
D03*
Y727500D02*
D03*
Y722500D02*
D03*
X-515500D02*
D03*
Y727500D02*
D03*
Y732500D02*
D03*
Y737500D02*
D03*
Y742500D02*
D03*
Y747500D02*
D03*
Y752500D02*
D03*
Y757500D02*
D03*
Y762500D02*
D03*
Y767500D02*
D03*
Y772500D02*
D03*
Y777500D02*
D03*
X-584500Y577500D02*
D03*
Y572500D02*
D03*
Y567500D02*
D03*
Y562500D02*
D03*
Y557500D02*
D03*
Y552500D02*
D03*
Y547500D02*
D03*
Y542500D02*
D03*
Y537500D02*
D03*
Y532500D02*
D03*
Y527500D02*
D03*
Y522500D02*
D03*
X-515500D02*
D03*
Y527500D02*
D03*
Y532500D02*
D03*
Y537500D02*
D03*
Y542500D02*
D03*
Y547500D02*
D03*
Y552500D02*
D03*
Y557500D02*
D03*
Y562500D02*
D03*
Y567500D02*
D03*
Y572500D02*
D03*
Y577500D02*
D03*
X-584500Y377500D02*
D03*
Y372500D02*
D03*
Y367500D02*
D03*
Y362500D02*
D03*
Y357500D02*
D03*
Y352500D02*
D03*
Y347500D02*
D03*
Y342500D02*
D03*
Y337500D02*
D03*
Y332500D02*
D03*
Y327500D02*
D03*
Y322500D02*
D03*
X-515500D02*
D03*
Y327500D02*
D03*
Y332500D02*
D03*
Y337500D02*
D03*
Y342500D02*
D03*
Y347500D02*
D03*
Y352500D02*
D03*
Y357500D02*
D03*
Y362500D02*
D03*
Y367500D02*
D03*
Y372500D02*
D03*
Y377500D02*
D03*
X-584500Y177500D02*
D03*
Y172500D02*
D03*
Y167500D02*
D03*
Y162500D02*
D03*
Y157500D02*
D03*
Y152500D02*
D03*
Y147500D02*
D03*
Y142500D02*
D03*
Y137500D02*
D03*
Y132500D02*
D03*
Y127500D02*
D03*
Y122500D02*
D03*
X-515500D02*
D03*
Y127500D02*
D03*
Y132500D02*
D03*
Y137500D02*
D03*
Y142500D02*
D03*
Y147500D02*
D03*
Y152500D02*
D03*
Y157500D02*
D03*
Y162500D02*
D03*
Y167500D02*
D03*
Y172500D02*
D03*
Y177500D02*
D03*
X-715500Y122500D02*
D03*
Y127500D02*
D03*
Y132500D02*
D03*
Y137500D02*
D03*
Y142500D02*
D03*
Y147500D02*
D03*
Y152500D02*
D03*
Y157500D02*
D03*
Y162500D02*
D03*
Y167500D02*
D03*
Y172500D02*
D03*
Y177500D02*
D03*
X-784500D02*
D03*
Y172500D02*
D03*
Y167500D02*
D03*
Y162500D02*
D03*
Y157500D02*
D03*
Y152500D02*
D03*
Y147500D02*
D03*
Y142500D02*
D03*
Y137500D02*
D03*
Y132500D02*
D03*
Y127500D02*
D03*
Y122500D02*
D03*
X-715500Y322500D02*
D03*
Y327500D02*
D03*
Y332500D02*
D03*
Y337500D02*
D03*
Y342500D02*
D03*
Y347500D02*
D03*
Y352500D02*
D03*
Y357500D02*
D03*
Y362500D02*
D03*
Y367500D02*
D03*
Y372500D02*
D03*
Y377500D02*
D03*
X-784500D02*
D03*
Y372500D02*
D03*
Y367500D02*
D03*
Y362500D02*
D03*
Y357500D02*
D03*
Y352500D02*
D03*
Y347500D02*
D03*
Y342500D02*
D03*
Y337500D02*
D03*
Y332500D02*
D03*
Y327500D02*
D03*
Y322500D02*
D03*
X-715500Y522500D02*
D03*
Y527500D02*
D03*
Y532500D02*
D03*
Y537500D02*
D03*
Y542500D02*
D03*
Y547500D02*
D03*
Y552500D02*
D03*
Y557500D02*
D03*
Y562500D02*
D03*
Y567500D02*
D03*
Y572500D02*
D03*
Y577500D02*
D03*
X-784500D02*
D03*
Y572500D02*
D03*
Y567500D02*
D03*
Y562500D02*
D03*
Y557500D02*
D03*
Y552500D02*
D03*
Y547500D02*
D03*
Y542500D02*
D03*
Y537500D02*
D03*
Y532500D02*
D03*
Y527500D02*
D03*
Y522500D02*
D03*
X-715500Y722500D02*
D03*
Y727500D02*
D03*
Y732500D02*
D03*
Y737500D02*
D03*
Y742500D02*
D03*
Y747500D02*
D03*
Y752500D02*
D03*
Y757500D02*
D03*
Y762500D02*
D03*
Y767500D02*
D03*
Y772500D02*
D03*
Y777500D02*
D03*
X-784500D02*
D03*
Y772500D02*
D03*
Y767500D02*
D03*
Y762500D02*
D03*
Y757500D02*
D03*
Y752500D02*
D03*
Y747500D02*
D03*
Y742500D02*
D03*
Y737500D02*
D03*
Y732500D02*
D03*
Y727500D02*
D03*
Y722500D02*
D03*
D106*
X-650000Y250000D02*
D03*
Y650000D02*
D03*
X-37500Y1275000D02*
D03*
X-37500Y37500D02*
D03*
X-862500D02*
D03*
X-37500Y862500D02*
D03*
X-862500D02*
D03*
X-250000Y250000D02*
D03*
Y650000D02*
D03*
X-544000Y1275000D02*
D03*
X-862500Y1275000D02*
D03*
D107*
X-280000Y1295000D02*
D03*
X-315000D02*
D03*
X-350000D02*
D03*
D108*
X-699000Y1297000D02*
D03*
X-657000D02*
D03*
X-615000D02*
D03*
Y1242000D02*
D03*
X-657000D02*
D03*
X-699000D02*
D03*
D109*
X-111000Y1264999D02*
D03*
X-155000D02*
D03*
M02*
