%FSLAX44Y44*%
%MOMM*%
G71*
G01*
G75*
G04 Layer_Color=8421504*
G04:AMPARAMS|DCode=10|XSize=1mm|YSize=0.9mm|CornerRadius=0.198mm|HoleSize=0mm|Usage=FLASHONLY|Rotation=270.000|XOffset=0mm|YOffset=0mm|HoleType=Round|Shape=RoundedRectangle|*
%AMROUNDEDRECTD10*
21,1,1.0000,0.5040,0,0,270.0*
21,1,0.6040,0.9000,0,0,270.0*
1,1,0.3960,-0.2520,-0.3020*
1,1,0.3960,-0.2520,0.3020*
1,1,0.3960,0.2520,0.3020*
1,1,0.3960,0.2520,-0.3020*
%
%ADD10ROUNDEDRECTD10*%
%ADD11C,0.6000*%
%ADD12C,1.3000*%
%ADD13R,1.3000X1.3000*%
G04:AMPARAMS|DCode=14|XSize=1.45mm|YSize=1.15mm|CornerRadius=0.2013mm|HoleSize=0mm|Usage=FLASHONLY|Rotation=90.000|XOffset=0mm|YOffset=0mm|HoleType=Round|Shape=RoundedRectangle|*
%AMROUNDEDRECTD14*
21,1,1.4500,0.7475,0,0,90.0*
21,1,1.0475,1.1500,0,0,90.0*
1,1,0.4025,0.3738,0.5238*
1,1,0.4025,0.3738,-0.5238*
1,1,0.4025,-0.3738,-0.5238*
1,1,0.4025,-0.3738,0.5238*
%
%ADD14ROUNDEDRECTD14*%
G04:AMPARAMS|DCode=15|XSize=1mm|YSize=0.9mm|CornerRadius=0.198mm|HoleSize=0mm|Usage=FLASHONLY|Rotation=180.000|XOffset=0mm|YOffset=0mm|HoleType=Round|Shape=RoundedRectangle|*
%AMROUNDEDRECTD15*
21,1,1.0000,0.5040,0,0,180.0*
21,1,0.6040,0.9000,0,0,180.0*
1,1,0.3960,-0.3020,0.2520*
1,1,0.3960,0.3020,0.2520*
1,1,0.3960,0.3020,-0.2520*
1,1,0.3960,-0.3020,-0.2520*
%
%ADD15ROUNDEDRECTD15*%
%ADD16O,0.3000X1.5000*%
%ADD17O,1.5000X0.3000*%
%ADD18C,1.0000*%
G04:AMPARAMS|DCode=19|XSize=2.7mm|YSize=1.15mm|CornerRadius=0.2013mm|HoleSize=0mm|Usage=FLASHONLY|Rotation=90.000|XOffset=0mm|YOffset=0mm|HoleType=Round|Shape=RoundedRectangle|*
%AMROUNDEDRECTD19*
21,1,2.7000,0.7475,0,0,90.0*
21,1,2.2975,1.1500,0,0,90.0*
1,1,0.4025,0.3738,1.1487*
1,1,0.4025,0.3738,-1.1487*
1,1,0.4025,-0.3738,-1.1487*
1,1,0.4025,-0.3738,1.1487*
%
%ADD19ROUNDEDRECTD19*%
G04:AMPARAMS|DCode=20|XSize=4.9mm|YSize=1.6mm|CornerRadius=0.2mm|HoleSize=0mm|Usage=FLASHONLY|Rotation=270.000|XOffset=0mm|YOffset=0mm|HoleType=Round|Shape=RoundedRectangle|*
%AMROUNDEDRECTD20*
21,1,4.9000,1.2000,0,0,270.0*
21,1,4.5000,1.6000,0,0,270.0*
1,1,0.4000,-0.6000,-2.2500*
1,1,0.4000,-0.6000,2.2500*
1,1,0.4000,0.6000,2.2500*
1,1,0.4000,0.6000,-2.2500*
%
%ADD20ROUNDEDRECTD20*%
%ADD21O,1.5500X0.6000*%
%ADD22O,0.6000X1.5500*%
G04:AMPARAMS|DCode=23|XSize=6.45mm|YSize=6mm|CornerRadius=0.21mm|HoleSize=0mm|Usage=FLASHONLY|Rotation=0.000|XOffset=0mm|YOffset=0mm|HoleType=Round|Shape=RoundedRectangle|*
%AMROUNDEDRECTD23*
21,1,6.4500,5.5800,0,0,0.0*
21,1,6.0300,6.0000,0,0,0.0*
1,1,0.4200,3.0150,-2.7900*
1,1,0.4200,-3.0150,-2.7900*
1,1,0.4200,-3.0150,2.7900*
1,1,0.4200,3.0150,2.7900*
%
%ADD23ROUNDEDRECTD23*%
G04:AMPARAMS|DCode=24|XSize=2.85mm|YSize=1mm|CornerRadius=0.2mm|HoleSize=0mm|Usage=FLASHONLY|Rotation=0.000|XOffset=0mm|YOffset=0mm|HoleType=Round|Shape=RoundedRectangle|*
%AMROUNDEDRECTD24*
21,1,2.8500,0.6000,0,0,0.0*
21,1,2.4500,1.0000,0,0,0.0*
1,1,0.4000,1.2250,-0.3000*
1,1,0.4000,-1.2250,-0.3000*
1,1,0.4000,-1.2250,0.3000*
1,1,0.4000,1.2250,0.3000*
%
%ADD24ROUNDEDRECTD24*%
G04:AMPARAMS|DCode=25|XSize=11.3mm|YSize=10.75mm|CornerRadius=0.215mm|HoleSize=0mm|Usage=FLASHONLY|Rotation=0.000|XOffset=0mm|YOffset=0mm|HoleType=Round|Shape=RoundedRectangle|*
%AMROUNDEDRECTD25*
21,1,11.3000,10.3200,0,0,0.0*
21,1,10.8700,10.7500,0,0,0.0*
1,1,0.4300,5.4350,-5.1600*
1,1,0.4300,-5.4350,-5.1600*
1,1,0.4300,-5.4350,5.1600*
1,1,0.4300,5.4350,5.1600*
%
%ADD25ROUNDEDRECTD25*%
G04:AMPARAMS|DCode=26|XSize=3.95mm|YSize=1.2mm|CornerRadius=0.198mm|HoleSize=0mm|Usage=FLASHONLY|Rotation=0.000|XOffset=0mm|YOffset=0mm|HoleType=Round|Shape=RoundedRectangle|*
%AMROUNDEDRECTD26*
21,1,3.9500,0.8040,0,0,0.0*
21,1,3.5540,1.2000,0,0,0.0*
1,1,0.3960,1.7770,-0.4020*
1,1,0.3960,-1.7770,-0.4020*
1,1,0.3960,-1.7770,0.4020*
1,1,0.3960,1.7770,0.4020*
%
%ADD26ROUNDEDRECTD26*%
G04:AMPARAMS|DCode=27|XSize=1.1mm|YSize=0.6mm|CornerRadius=0.201mm|HoleSize=0mm|Usage=FLASHONLY|Rotation=0.000|XOffset=0mm|YOffset=0mm|HoleType=Round|Shape=RoundedRectangle|*
%AMROUNDEDRECTD27*
21,1,1.1000,0.1980,0,0,0.0*
21,1,0.6980,0.6000,0,0,0.0*
1,1,0.4020,0.3490,-0.0990*
1,1,0.4020,-0.3490,-0.0990*
1,1,0.4020,-0.3490,0.0990*
1,1,0.4020,0.3490,0.0990*
%
%ADD27ROUNDEDRECTD27*%
G04:AMPARAMS|DCode=28|XSize=1.35mm|YSize=1.65mm|CornerRadius=0.27mm|HoleSize=0mm|Usage=FLASHONLY|Rotation=90.000|XOffset=0mm|YOffset=0mm|HoleType=Round|Shape=RoundedRectangle|*
%AMROUNDEDRECTD28*
21,1,1.3500,1.1100,0,0,90.0*
21,1,0.8100,1.6500,0,0,90.0*
1,1,0.5400,0.5550,0.4050*
1,1,0.5400,0.5550,-0.4050*
1,1,0.5400,-0.5550,-0.4050*
1,1,0.5400,-0.5550,0.4050*
%
%ADD28ROUNDEDRECTD28*%
G04:AMPARAMS|DCode=29|XSize=0.7mm|YSize=0.25mm|CornerRadius=0.0838mm|HoleSize=0mm|Usage=FLASHONLY|Rotation=0.000|XOffset=0mm|YOffset=0mm|HoleType=Round|Shape=RoundedRectangle|*
%AMROUNDEDRECTD29*
21,1,0.7000,0.0825,0,0,0.0*
21,1,0.5325,0.2500,0,0,0.0*
1,1,0.1675,0.2662,-0.0413*
1,1,0.1675,-0.2662,-0.0413*
1,1,0.1675,-0.2662,0.0413*
1,1,0.1675,0.2662,0.0413*
%
%ADD29ROUNDEDRECTD29*%
G04:AMPARAMS|DCode=30|XSize=1.75mm|YSize=1.05mm|CornerRadius=0.1995mm|HoleSize=0mm|Usage=FLASHONLY|Rotation=270.000|XOffset=0mm|YOffset=0mm|HoleType=Round|Shape=RoundedRectangle|*
%AMROUNDEDRECTD30*
21,1,1.7500,0.6510,0,0,270.0*
21,1,1.3510,1.0500,0,0,270.0*
1,1,0.3990,-0.3255,-0.6755*
1,1,0.3990,-0.3255,0.6755*
1,1,0.3990,0.3255,0.6755*
1,1,0.3990,0.3255,-0.6755*
%
%ADD30ROUNDEDRECTD30*%
%ADD31O,1.3500X0.5000*%
G04:AMPARAMS|DCode=32|XSize=1.05mm|YSize=0.65mm|CornerRadius=0.2015mm|HoleSize=0mm|Usage=FLASHONLY|Rotation=0.000|XOffset=0mm|YOffset=0mm|HoleType=Round|Shape=RoundedRectangle|*
%AMROUNDEDRECTD32*
21,1,1.0500,0.2470,0,0,0.0*
21,1,0.6470,0.6500,0,0,0.0*
1,1,0.4030,0.3235,-0.1235*
1,1,0.4030,-0.3235,-0.1235*
1,1,0.4030,-0.3235,0.1235*
1,1,0.4030,0.3235,0.1235*
%
%ADD32ROUNDEDRECTD32*%
%ADD33O,0.5000X1.3500*%
G04:AMPARAMS|DCode=34|XSize=6.5mm|YSize=5mm|CornerRadius=0.25mm|HoleSize=0mm|Usage=FLASHONLY|Rotation=90.000|XOffset=0mm|YOffset=0mm|HoleType=Round|Shape=RoundedRectangle|*
%AMROUNDEDRECTD34*
21,1,6.5000,4.5000,0,0,90.0*
21,1,6.0000,5.0000,0,0,90.0*
1,1,0.5000,2.2500,3.0000*
1,1,0.5000,2.2500,-3.0000*
1,1,0.5000,-2.2500,-3.0000*
1,1,0.5000,-2.2500,3.0000*
%
%ADD34ROUNDEDRECTD34*%
G04:AMPARAMS|DCode=35|XSize=3.3mm|YSize=2.5mm|CornerRadius=0.2mm|HoleSize=0mm|Usage=FLASHONLY|Rotation=270.000|XOffset=0mm|YOffset=0mm|HoleType=Round|Shape=RoundedRectangle|*
%AMROUNDEDRECTD35*
21,1,3.3000,2.1000,0,0,270.0*
21,1,2.9000,2.5000,0,0,270.0*
1,1,0.4000,-1.0500,-1.4500*
1,1,0.4000,-1.0500,1.4500*
1,1,0.4000,1.0500,1.4500*
1,1,0.4000,1.0500,-1.4500*
%
%ADD35ROUNDEDRECTD35*%
G04:AMPARAMS|DCode=36|XSize=2.5mm|YSize=1.7mm|CornerRadius=0.204mm|HoleSize=0mm|Usage=FLASHONLY|Rotation=180.000|XOffset=0mm|YOffset=0mm|HoleType=Round|Shape=RoundedRectangle|*
%AMROUNDEDRECTD36*
21,1,2.5000,1.2920,0,0,180.0*
21,1,2.0920,1.7000,0,0,180.0*
1,1,0.4080,-1.0460,0.6460*
1,1,0.4080,1.0460,0.6460*
1,1,0.4080,1.0460,-0.6460*
1,1,0.4080,-1.0460,-0.6460*
%
%ADD36ROUNDEDRECTD36*%
G04:AMPARAMS|DCode=37|XSize=1.2mm|YSize=1.2mm|CornerRadius=0.198mm|HoleSize=0mm|Usage=FLASHONLY|Rotation=90.000|XOffset=0mm|YOffset=0mm|HoleType=Round|Shape=RoundedRectangle|*
%AMROUNDEDRECTD37*
21,1,1.2000,0.8040,0,0,90.0*
21,1,0.8040,1.2000,0,0,90.0*
1,1,0.3960,0.4020,0.4020*
1,1,0.3960,0.4020,-0.4020*
1,1,0.3960,-0.4020,-0.4020*
1,1,0.3960,-0.4020,0.4020*
%
%ADD37ROUNDEDRECTD37*%
G04:AMPARAMS|DCode=38|XSize=1.2mm|YSize=1.2mm|CornerRadius=0.198mm|HoleSize=0mm|Usage=FLASHONLY|Rotation=0.000|XOffset=0mm|YOffset=0mm|HoleType=Round|Shape=RoundedRectangle|*
%AMROUNDEDRECTD38*
21,1,1.2000,0.8040,0,0,0.0*
21,1,0.8040,1.2000,0,0,0.0*
1,1,0.3960,0.4020,-0.4020*
1,1,0.3960,-0.4020,-0.4020*
1,1,0.3960,-0.4020,0.4020*
1,1,0.3960,0.4020,0.4020*
%
%ADD38ROUNDEDRECTD38*%
G04:AMPARAMS|DCode=39|XSize=1mm|YSize=0.95mm|CornerRadius=0.1995mm|HoleSize=0mm|Usage=FLASHONLY|Rotation=270.000|XOffset=0mm|YOffset=0mm|HoleType=Round|Shape=RoundedRectangle|*
%AMROUNDEDRECTD39*
21,1,1.0000,0.5510,0,0,270.0*
21,1,0.6010,0.9500,0,0,270.0*
1,1,0.3990,-0.2755,-0.3005*
1,1,0.3990,-0.2755,0.3005*
1,1,0.3990,0.2755,0.3005*
1,1,0.3990,0.2755,-0.3005*
%
%ADD39ROUNDEDRECTD39*%
G04:AMPARAMS|DCode=40|XSize=1mm|YSize=0.95mm|CornerRadius=0.1995mm|HoleSize=0mm|Usage=FLASHONLY|Rotation=180.000|XOffset=0mm|YOffset=0mm|HoleType=Round|Shape=RoundedRectangle|*
%AMROUNDEDRECTD40*
21,1,1.0000,0.5510,0,0,180.0*
21,1,0.6010,0.9500,0,0,180.0*
1,1,0.3990,-0.3005,0.2755*
1,1,0.3990,0.3005,0.2755*
1,1,0.3990,0.3005,-0.2755*
1,1,0.3990,-0.3005,-0.2755*
%
%ADD40ROUNDEDRECTD40*%
G04:AMPARAMS|DCode=41|XSize=2.7mm|YSize=1.15mm|CornerRadius=0.2013mm|HoleSize=0mm|Usage=FLASHONLY|Rotation=180.000|XOffset=0mm|YOffset=0mm|HoleType=Round|Shape=RoundedRectangle|*
%AMROUNDEDRECTD41*
21,1,2.7000,0.7475,0,0,180.0*
21,1,2.2975,1.1500,0,0,180.0*
1,1,0.4025,-1.1487,0.3738*
1,1,0.4025,1.1487,0.3738*
1,1,0.4025,1.1487,-0.3738*
1,1,0.4025,-1.1487,-0.3738*
%
%ADD41ROUNDEDRECTD41*%
G04:AMPARAMS|DCode=42|XSize=1.45mm|YSize=1.15mm|CornerRadius=0.2013mm|HoleSize=0mm|Usage=FLASHONLY|Rotation=0.000|XOffset=0mm|YOffset=0mm|HoleType=Round|Shape=RoundedRectangle|*
%AMROUNDEDRECTD42*
21,1,1.4500,0.7475,0,0,0.0*
21,1,1.0475,1.1500,0,0,0.0*
1,1,0.4025,0.5238,-0.3738*
1,1,0.4025,-0.5238,-0.3738*
1,1,0.4025,-0.5238,0.3738*
1,1,0.4025,0.5238,0.3738*
%
%ADD42ROUNDEDRECTD42*%
G04:AMPARAMS|DCode=43|XSize=1.1mm|YSize=0.8mm|CornerRadius=0.268mm|HoleSize=0mm|Usage=FLASHONLY|Rotation=0.000|XOffset=0mm|YOffset=0mm|HoleType=Round|Shape=RoundedRectangle|*
%AMROUNDEDRECTD43*
21,1,1.1000,0.2640,0,0,0.0*
21,1,0.5640,0.8000,0,0,0.0*
1,1,0.5360,0.2820,-0.1320*
1,1,0.5360,-0.2820,-0.1320*
1,1,0.5360,-0.2820,0.1320*
1,1,0.5360,0.2820,0.1320*
%
%ADD43ROUNDEDRECTD43*%
G04:AMPARAMS|DCode=44|XSize=2.3mm|YSize=0.5mm|CornerRadius=0.2mm|HoleSize=0mm|Usage=FLASHONLY|Rotation=270.000|XOffset=0mm|YOffset=0mm|HoleType=Round|Shape=RoundedRectangle|*
%AMROUNDEDRECTD44*
21,1,2.3000,0.1000,0,0,270.0*
21,1,1.9000,0.5000,0,0,270.0*
1,1,0.4000,-0.0500,-0.9500*
1,1,0.4000,-0.0500,0.9500*
1,1,0.4000,0.0500,0.9500*
1,1,0.4000,0.0500,-0.9500*
%
%ADD44ROUNDEDRECTD44*%
G04:AMPARAMS|DCode=45|XSize=2.5mm|YSize=2mm|CornerRadius=0.2mm|HoleSize=0mm|Usage=FLASHONLY|Rotation=270.000|XOffset=0mm|YOffset=0mm|HoleType=Round|Shape=RoundedRectangle|*
%AMROUNDEDRECTD45*
21,1,2.5000,1.6000,0,0,270.0*
21,1,2.1000,2.0000,0,0,270.0*
1,1,0.4000,-0.8000,-1.0500*
1,1,0.4000,-0.8000,1.0500*
1,1,0.4000,0.8000,1.0500*
1,1,0.4000,0.8000,-1.0500*
%
%ADD45ROUNDEDRECTD45*%
%ADD46O,0.2500X0.8500*%
%ADD47O,0.8500X0.2500*%
%ADD48C,0.4000*%
%ADD49C,0.6000*%
%ADD50C,0.2500*%
%ADD51C,0.5000*%
%ADD52C,0.2000*%
%ADD53C,0.3500*%
%ADD54C,0.4500*%
%ADD55C,0.3000*%
%ADD56C,0.2540*%
%ADD57C,2.0000*%
%ADD58C,0.4000*%
%ADD59C,7.0000*%
%ADD60C,2.0000*%
%ADD61C,2.5000*%
%ADD62C,0.5000*%
%ADD63C,4.5000*%
%ADD64C,0.1500*%
%ADD65C,0.1000*%
%ADD66C,0.1524*%
%ADD67C,0.0000*%
G36*
X-747500Y362500D02*
X-752500D01*
Y367500D01*
X-747500D01*
Y362500D01*
D02*
G37*
G36*
X-740000D02*
X-745000D01*
Y367500D01*
X-740000D01*
Y362500D01*
D02*
G37*
G36*
X-732500D02*
X-737500D01*
Y367500D01*
X-732500D01*
Y362500D01*
D02*
G37*
G36*
X-755000D02*
X-760000D01*
Y367500D01*
X-755000D01*
Y362500D01*
D02*
G37*
G36*
X-325000Y355000D02*
X-330000D01*
Y360000D01*
X-325000D01*
Y355000D01*
D02*
G37*
G36*
X-770000Y362500D02*
X-775000D01*
Y367500D01*
X-770000D01*
Y362500D01*
D02*
G37*
G36*
X-762500D02*
X-767500D01*
Y367500D01*
X-762500D01*
Y362500D01*
D02*
G37*
G36*
X-725000D02*
X-730000D01*
Y367500D01*
X-725000D01*
Y362500D01*
D02*
G37*
G36*
X-540000D02*
X-545000D01*
Y367500D01*
X-540000D01*
Y362500D01*
D02*
G37*
G36*
X-532500D02*
X-537500D01*
Y367500D01*
X-532500D01*
Y362500D01*
D02*
G37*
G36*
X-525000D02*
X-530000D01*
Y367500D01*
X-525000D01*
Y362500D01*
D02*
G37*
G36*
X-547500D02*
X-552500D01*
Y367500D01*
X-547500D01*
Y362500D01*
D02*
G37*
G36*
X-570000D02*
X-575000D01*
Y367500D01*
X-570000D01*
Y362500D01*
D02*
G37*
G36*
X-562500D02*
X-567500D01*
Y367500D01*
X-562500D01*
Y362500D01*
D02*
G37*
G36*
X-555000D02*
X-560000D01*
Y367500D01*
X-555000D01*
Y362500D01*
D02*
G37*
G36*
X-332500Y355000D02*
X-337500D01*
Y360000D01*
X-332500D01*
Y355000D01*
D02*
G37*
G36*
X-762500D02*
X-767500D01*
Y360000D01*
X-762500D01*
Y355000D01*
D02*
G37*
G36*
X-755000D02*
X-760000D01*
Y360000D01*
X-755000D01*
Y355000D01*
D02*
G37*
G36*
X-747500D02*
X-752500D01*
Y360000D01*
X-747500D01*
Y355000D01*
D02*
G37*
G36*
X-770000D02*
X-775000D01*
Y360000D01*
X-770000D01*
Y355000D01*
D02*
G37*
G36*
X-140000Y355000D02*
X-145000D01*
Y360000D01*
X-140000D01*
Y355000D01*
D02*
G37*
G36*
X-132500D02*
X-137500D01*
Y360000D01*
X-132500D01*
Y355000D01*
D02*
G37*
G36*
X-125000D02*
X-130000D01*
Y360000D01*
X-125000D01*
Y355000D01*
D02*
G37*
G36*
X-740000Y355000D02*
X-745000D01*
Y360000D01*
X-740000D01*
Y355000D01*
D02*
G37*
G36*
X-355000D02*
X-360000D01*
Y360000D01*
X-355000D01*
Y355000D01*
D02*
G37*
G36*
X-347500D02*
X-352500D01*
Y360000D01*
X-347500D01*
Y355000D01*
D02*
G37*
G36*
X-340000D02*
X-345000D01*
Y360000D01*
X-340000D01*
Y355000D01*
D02*
G37*
G36*
X-362500D02*
X-367500D01*
Y360000D01*
X-362500D01*
Y355000D01*
D02*
G37*
G36*
X-732500D02*
X-737500D01*
Y360000D01*
X-732500D01*
Y355000D01*
D02*
G37*
G36*
X-725000D02*
X-730000D01*
Y360000D01*
X-725000D01*
Y355000D01*
D02*
G37*
G36*
X-370000D02*
X-375000D01*
Y360000D01*
X-370000D01*
Y355000D01*
D02*
G37*
G36*
Y362500D02*
X-375000D01*
Y367500D01*
X-370000D01*
Y362500D01*
D02*
G37*
G36*
X-570000Y370000D02*
X-575000D01*
Y375000D01*
X-570000D01*
Y370000D01*
D02*
G37*
G36*
X-562500D02*
X-567500D01*
Y375000D01*
X-562500D01*
Y370000D01*
D02*
G37*
G36*
X-555000D02*
X-560000D01*
Y375000D01*
X-555000D01*
Y370000D01*
D02*
G37*
G36*
X-725000D02*
X-730000D01*
Y375000D01*
X-725000D01*
Y370000D01*
D02*
G37*
G36*
X-747500D02*
X-752500D01*
Y375000D01*
X-747500D01*
Y370000D01*
D02*
G37*
G36*
X-740000D02*
X-745000D01*
Y375000D01*
X-740000D01*
Y370000D01*
D02*
G37*
G36*
X-732500D02*
X-737500D01*
Y375000D01*
X-732500D01*
Y370000D01*
D02*
G37*
G36*
X-547500D02*
X-552500D01*
Y375000D01*
X-547500D01*
Y370000D01*
D02*
G37*
G36*
X-362500D02*
X-367500D01*
Y375000D01*
X-362500D01*
Y370000D01*
D02*
G37*
G36*
X-355000D02*
X-360000D01*
Y375000D01*
X-355000D01*
Y370000D01*
D02*
G37*
G36*
X-347500D02*
X-352500D01*
Y375000D01*
X-347500D01*
Y370000D01*
D02*
G37*
G36*
X-370000D02*
X-375000D01*
Y375000D01*
X-370000D01*
Y370000D01*
D02*
G37*
G36*
X-540000D02*
X-545000D01*
Y375000D01*
X-540000D01*
Y370000D01*
D02*
G37*
G36*
X-532500D02*
X-537500D01*
Y375000D01*
X-532500D01*
Y370000D01*
D02*
G37*
G36*
X-525000D02*
X-530000D01*
Y375000D01*
X-525000D01*
Y370000D01*
D02*
G37*
G36*
X-755000D02*
X-760000D01*
Y375000D01*
X-755000D01*
Y370000D01*
D02*
G37*
G36*
X-332500Y362500D02*
X-337500D01*
Y367500D01*
X-332500D01*
Y362500D01*
D02*
G37*
G36*
X-325000D02*
X-330000D01*
Y367500D01*
X-325000D01*
Y362500D01*
D02*
G37*
G36*
X-170000D02*
X-175000D01*
Y367500D01*
X-170000D01*
Y362500D01*
D02*
G37*
G36*
X-340000D02*
X-345000D01*
Y367500D01*
X-340000D01*
Y362500D01*
D02*
G37*
G36*
X-362500D02*
X-367500D01*
Y367500D01*
X-362500D01*
Y362500D01*
D02*
G37*
G36*
X-355000D02*
X-360000D01*
Y367500D01*
X-355000D01*
Y362500D01*
D02*
G37*
G36*
X-347500D02*
X-352500D01*
Y367500D01*
X-347500D01*
Y362500D01*
D02*
G37*
G36*
X-162500D02*
X-167500D01*
Y367500D01*
X-162500D01*
Y362500D01*
D02*
G37*
G36*
X-125000D02*
X-130000D01*
Y367500D01*
X-125000D01*
Y362500D01*
D02*
G37*
G36*
X-770000Y370000D02*
X-775000D01*
Y375000D01*
X-770000D01*
Y370000D01*
D02*
G37*
G36*
X-762500D02*
X-767500D01*
Y375000D01*
X-762500D01*
Y370000D01*
D02*
G37*
G36*
X-132500Y362500D02*
X-137500D01*
Y367500D01*
X-132500D01*
Y362500D01*
D02*
G37*
G36*
X-155000D02*
X-160000D01*
Y367500D01*
X-155000D01*
Y362500D01*
D02*
G37*
G36*
X-147500D02*
X-152500D01*
Y367500D01*
X-147500D01*
Y362500D01*
D02*
G37*
G36*
X-140000D02*
X-145000D01*
Y367500D01*
X-140000D01*
Y362500D01*
D02*
G37*
G36*
X-147500Y355000D02*
X-152500D01*
Y360000D01*
X-147500D01*
Y355000D01*
D02*
G37*
G36*
X-355000Y340000D02*
X-360000D01*
Y345000D01*
X-355000D01*
Y340000D01*
D02*
G37*
G36*
X-347500D02*
X-352500D01*
Y345000D01*
X-347500D01*
Y340000D01*
D02*
G37*
G36*
X-340000D02*
X-345000D01*
Y345000D01*
X-340000D01*
Y340000D01*
D02*
G37*
G36*
X-362500D02*
X-367500D01*
Y345000D01*
X-362500D01*
Y340000D01*
D02*
G37*
G36*
X-732500D02*
X-737500D01*
Y345000D01*
X-732500D01*
Y340000D01*
D02*
G37*
G36*
X-725000D02*
X-730000D01*
Y345000D01*
X-725000D01*
Y340000D01*
D02*
G37*
G36*
X-370000D02*
X-375000D01*
Y345000D01*
X-370000D01*
Y340000D01*
D02*
G37*
G36*
X-332500D02*
X-337500D01*
Y345000D01*
X-332500D01*
Y340000D01*
D02*
G37*
G36*
X-747500Y347500D02*
X-752500D01*
Y352500D01*
X-747500D01*
Y347500D01*
D02*
G37*
G36*
X-740000D02*
X-745000D01*
Y352500D01*
X-740000D01*
Y347500D01*
D02*
G37*
G36*
X-732500D02*
X-737500D01*
Y352500D01*
X-732500D01*
Y347500D01*
D02*
G37*
G36*
X-755000D02*
X-760000D01*
Y352500D01*
X-755000D01*
Y347500D01*
D02*
G37*
G36*
X-325000Y340000D02*
X-330000D01*
Y345000D01*
X-325000D01*
Y340000D01*
D02*
G37*
G36*
X-770000Y347500D02*
X-775000D01*
Y352500D01*
X-770000D01*
Y347500D01*
D02*
G37*
G36*
X-762500D02*
X-767500D01*
Y352500D01*
X-762500D01*
Y347500D01*
D02*
G37*
G36*
X-740000Y340000D02*
X-745000D01*
Y345000D01*
X-740000D01*
Y340000D01*
D02*
G37*
G36*
X-170000Y340000D02*
X-175000D01*
Y345000D01*
X-170000D01*
Y340000D01*
D02*
G37*
G36*
X-162500D02*
X-167500D01*
Y345000D01*
X-162500D01*
Y340000D01*
D02*
G37*
G36*
X-155000D02*
X-160000D01*
Y345000D01*
X-155000D01*
Y340000D01*
D02*
G37*
G36*
X-525000D02*
X-530000D01*
Y345000D01*
X-525000D01*
Y340000D01*
D02*
G37*
G36*
X-547500D02*
X-552500D01*
Y345000D01*
X-547500D01*
Y340000D01*
D02*
G37*
G36*
X-540000D02*
X-545000D01*
Y345000D01*
X-540000D01*
Y340000D01*
D02*
G37*
G36*
X-532500D02*
X-537500D01*
Y345000D01*
X-532500D01*
Y340000D01*
D02*
G37*
G36*
X-147500D02*
X-152500D01*
Y345000D01*
X-147500D01*
Y340000D01*
D02*
G37*
G36*
X-762500Y340000D02*
X-767500D01*
Y345000D01*
X-762500D01*
Y340000D01*
D02*
G37*
G36*
X-755000D02*
X-760000D01*
Y345000D01*
X-755000D01*
Y340000D01*
D02*
G37*
G36*
X-747500D02*
X-752500D01*
Y345000D01*
X-747500D01*
Y340000D01*
D02*
G37*
G36*
X-770000D02*
X-775000D01*
Y345000D01*
X-770000D01*
Y340000D01*
D02*
G37*
G36*
X-140000Y340000D02*
X-145000D01*
Y345000D01*
X-140000D01*
Y340000D01*
D02*
G37*
G36*
X-132500D02*
X-137500D01*
Y345000D01*
X-132500D01*
Y340000D01*
D02*
G37*
G36*
X-125000D02*
X-130000D01*
Y345000D01*
X-125000D01*
Y340000D01*
D02*
G37*
G36*
X-725000Y347500D02*
X-730000D01*
Y352500D01*
X-725000D01*
Y347500D01*
D02*
G37*
G36*
X-125000D02*
X-130000D01*
Y352500D01*
X-125000D01*
Y347500D01*
D02*
G37*
G36*
X-570000Y355000D02*
X-575000D01*
Y360000D01*
X-570000D01*
Y355000D01*
D02*
G37*
G36*
X-562500D02*
X-567500D01*
Y360000D01*
X-562500D01*
Y355000D01*
D02*
G37*
G36*
X-132500Y347500D02*
X-137500D01*
Y352500D01*
X-132500D01*
Y347500D01*
D02*
G37*
G36*
X-155000D02*
X-160000D01*
Y352500D01*
X-155000D01*
Y347500D01*
D02*
G37*
G36*
X-147500D02*
X-152500D01*
Y352500D01*
X-147500D01*
Y347500D01*
D02*
G37*
G36*
X-140000D02*
X-145000D01*
Y352500D01*
X-140000D01*
Y347500D01*
D02*
G37*
G36*
X-555000Y355000D02*
X-560000D01*
Y360000D01*
X-555000D01*
Y355000D01*
D02*
G37*
G36*
X-170000D02*
X-175000D01*
Y360000D01*
X-170000D01*
Y355000D01*
D02*
G37*
G36*
X-162500D02*
X-167500D01*
Y360000D01*
X-162500D01*
Y355000D01*
D02*
G37*
G36*
X-155000D02*
X-160000D01*
Y360000D01*
X-155000D01*
Y355000D01*
D02*
G37*
G36*
X-525000D02*
X-530000D01*
Y360000D01*
X-525000D01*
Y355000D01*
D02*
G37*
G36*
X-547500D02*
X-552500D01*
Y360000D01*
X-547500D01*
Y355000D01*
D02*
G37*
G36*
X-540000D02*
X-545000D01*
Y360000D01*
X-540000D01*
Y355000D01*
D02*
G37*
G36*
X-532500D02*
X-537500D01*
Y360000D01*
X-532500D01*
Y355000D01*
D02*
G37*
G36*
X-162500Y347500D02*
X-167500D01*
Y352500D01*
X-162500D01*
Y347500D01*
D02*
G37*
G36*
X-540000D02*
X-545000D01*
Y352500D01*
X-540000D01*
Y347500D01*
D02*
G37*
G36*
X-532500D02*
X-537500D01*
Y352500D01*
X-532500D01*
Y347500D01*
D02*
G37*
G36*
X-525000D02*
X-530000D01*
Y352500D01*
X-525000D01*
Y347500D01*
D02*
G37*
G36*
X-547500D02*
X-552500D01*
Y352500D01*
X-547500D01*
Y347500D01*
D02*
G37*
G36*
X-570000D02*
X-575000D01*
Y352500D01*
X-570000D01*
Y347500D01*
D02*
G37*
G36*
X-562500D02*
X-567500D01*
Y352500D01*
X-562500D01*
Y347500D01*
D02*
G37*
G36*
X-555000D02*
X-560000D01*
Y352500D01*
X-555000D01*
Y347500D01*
D02*
G37*
G36*
X-370000D02*
X-375000D01*
Y352500D01*
X-370000D01*
Y347500D01*
D02*
G37*
G36*
X-332500D02*
X-337500D01*
Y352500D01*
X-332500D01*
Y347500D01*
D02*
G37*
G36*
X-325000D02*
X-330000D01*
Y352500D01*
X-325000D01*
Y347500D01*
D02*
G37*
G36*
X-170000D02*
X-175000D01*
Y352500D01*
X-170000D01*
Y347500D01*
D02*
G37*
G36*
X-340000D02*
X-345000D01*
Y352500D01*
X-340000D01*
Y347500D01*
D02*
G37*
G36*
X-362500D02*
X-367500D01*
Y352500D01*
X-362500D01*
Y347500D01*
D02*
G37*
G36*
X-355000D02*
X-360000D01*
Y352500D01*
X-355000D01*
Y347500D01*
D02*
G37*
G36*
X-347500D02*
X-352500D01*
Y352500D01*
X-347500D01*
Y347500D01*
D02*
G37*
G36*
X-340000Y370000D02*
X-345000D01*
Y375000D01*
X-340000D01*
Y370000D01*
D02*
G37*
G36*
X-732500Y540000D02*
X-737500D01*
Y545000D01*
X-732500D01*
Y540000D01*
D02*
G37*
G36*
X-725000D02*
X-730000D01*
Y545000D01*
X-725000D01*
Y540000D01*
D02*
G37*
G36*
X-370000D02*
X-375000D01*
Y545000D01*
X-370000D01*
Y540000D01*
D02*
G37*
G36*
X-740000D02*
X-745000D01*
Y545000D01*
X-740000D01*
Y540000D01*
D02*
G37*
G36*
X-762500D02*
X-767500D01*
Y545000D01*
X-762500D01*
Y540000D01*
D02*
G37*
G36*
X-755000D02*
X-760000D01*
Y545000D01*
X-755000D01*
Y540000D01*
D02*
G37*
G36*
X-747500D02*
X-752500D01*
Y545000D01*
X-747500D01*
Y540000D01*
D02*
G37*
G36*
X-362500D02*
X-367500D01*
Y545000D01*
X-362500D01*
Y540000D01*
D02*
G37*
G36*
X-325000D02*
X-330000D01*
Y545000D01*
X-325000D01*
Y540000D01*
D02*
G37*
G36*
X-770000Y547500D02*
X-775000D01*
Y552500D01*
X-770000D01*
Y547500D01*
D02*
G37*
G36*
X-762500D02*
X-767500D01*
Y552500D01*
X-762500D01*
Y547500D01*
D02*
G37*
G36*
X-332500Y540000D02*
X-337500D01*
Y545000D01*
X-332500D01*
Y540000D01*
D02*
G37*
G36*
X-355000D02*
X-360000D01*
Y545000D01*
X-355000D01*
Y540000D01*
D02*
G37*
G36*
X-347500D02*
X-352500D01*
Y545000D01*
X-347500D01*
Y540000D01*
D02*
G37*
G36*
X-340000D02*
X-345000D01*
Y545000D01*
X-340000D01*
Y540000D01*
D02*
G37*
G36*
X-770000D02*
X-775000D01*
Y545000D01*
X-770000D01*
Y540000D01*
D02*
G37*
G36*
X-547500Y540000D02*
X-552500D01*
Y545000D01*
X-547500D01*
Y540000D01*
D02*
G37*
G36*
X-540000D02*
X-545000D01*
Y545000D01*
X-540000D01*
Y540000D01*
D02*
G37*
G36*
X-532500D02*
X-537500D01*
Y545000D01*
X-532500D01*
Y540000D01*
D02*
G37*
G36*
X-555000D02*
X-560000D01*
Y545000D01*
X-555000D01*
Y540000D01*
D02*
G37*
G36*
X-125000Y532500D02*
X-130000D01*
Y537500D01*
X-125000D01*
Y532500D01*
D02*
G37*
G36*
X-570000Y540000D02*
X-575000D01*
Y545000D01*
X-570000D01*
Y540000D01*
D02*
G37*
G36*
X-562500D02*
X-567500D01*
Y545000D01*
X-562500D01*
Y540000D01*
D02*
G37*
G36*
X-525000D02*
X-530000D01*
Y545000D01*
X-525000D01*
Y540000D01*
D02*
G37*
G36*
X-140000D02*
X-145000D01*
Y545000D01*
X-140000D01*
Y540000D01*
D02*
G37*
G36*
X-132500D02*
X-137500D01*
Y545000D01*
X-132500D01*
Y540000D01*
D02*
G37*
G36*
X-125000D02*
X-130000D01*
Y545000D01*
X-125000D01*
Y540000D01*
D02*
G37*
G36*
X-147500D02*
X-152500D01*
Y545000D01*
X-147500D01*
Y540000D01*
D02*
G37*
G36*
X-170000D02*
X-175000D01*
Y545000D01*
X-170000D01*
Y540000D01*
D02*
G37*
G36*
X-162500D02*
X-167500D01*
Y545000D01*
X-162500D01*
Y540000D01*
D02*
G37*
G36*
X-155000D02*
X-160000D01*
Y545000D01*
X-155000D01*
Y540000D01*
D02*
G37*
G36*
X-755000Y547500D02*
X-760000D01*
Y552500D01*
X-755000D01*
Y547500D01*
D02*
G37*
G36*
X-155000D02*
X-160000D01*
Y552500D01*
X-155000D01*
Y547500D01*
D02*
G37*
G36*
X-147500D02*
X-152500D01*
Y552500D01*
X-147500D01*
Y547500D01*
D02*
G37*
G36*
X-140000D02*
X-145000D01*
Y552500D01*
X-140000D01*
Y547500D01*
D02*
G37*
G36*
X-162500D02*
X-167500D01*
Y552500D01*
X-162500D01*
Y547500D01*
D02*
G37*
G36*
X-332500D02*
X-337500D01*
Y552500D01*
X-332500D01*
Y547500D01*
D02*
G37*
G36*
X-325000D02*
X-330000D01*
Y552500D01*
X-325000D01*
Y547500D01*
D02*
G37*
G36*
X-170000D02*
X-175000D01*
Y552500D01*
X-170000D01*
Y547500D01*
D02*
G37*
G36*
X-132500D02*
X-137500D01*
Y552500D01*
X-132500D01*
Y547500D01*
D02*
G37*
G36*
X-547500Y555000D02*
X-552500D01*
Y560000D01*
X-547500D01*
Y555000D01*
D02*
G37*
G36*
X-540000D02*
X-545000D01*
Y560000D01*
X-540000D01*
Y555000D01*
D02*
G37*
G36*
X-532500D02*
X-537500D01*
Y560000D01*
X-532500D01*
Y555000D01*
D02*
G37*
G36*
X-555000D02*
X-560000D01*
Y560000D01*
X-555000D01*
Y555000D01*
D02*
G37*
G36*
X-125000Y547500D02*
X-130000D01*
Y552500D01*
X-125000D01*
Y547500D01*
D02*
G37*
G36*
X-570000Y555000D02*
X-575000D01*
Y560000D01*
X-570000D01*
Y555000D01*
D02*
G37*
G36*
X-562500D02*
X-567500D01*
Y560000D01*
X-562500D01*
Y555000D01*
D02*
G37*
G36*
X-340000Y547500D02*
X-345000D01*
Y552500D01*
X-340000D01*
Y547500D01*
D02*
G37*
G36*
X-570000D02*
X-575000D01*
Y552500D01*
X-570000D01*
Y547500D01*
D02*
G37*
G36*
X-562500D02*
X-567500D01*
Y552500D01*
X-562500D01*
Y547500D01*
D02*
G37*
G36*
X-555000D02*
X-560000D01*
Y552500D01*
X-555000D01*
Y547500D01*
D02*
G37*
G36*
X-725000D02*
X-730000D01*
Y552500D01*
X-725000D01*
Y547500D01*
D02*
G37*
G36*
X-747500D02*
X-752500D01*
Y552500D01*
X-747500D01*
Y547500D01*
D02*
G37*
G36*
X-740000D02*
X-745000D01*
Y552500D01*
X-740000D01*
Y547500D01*
D02*
G37*
G36*
X-732500D02*
X-737500D01*
Y552500D01*
X-732500D01*
Y547500D01*
D02*
G37*
G36*
X-547500D02*
X-552500D01*
Y552500D01*
X-547500D01*
Y547500D01*
D02*
G37*
G36*
X-362500D02*
X-367500D01*
Y552500D01*
X-362500D01*
Y547500D01*
D02*
G37*
G36*
X-355000D02*
X-360000D01*
Y552500D01*
X-355000D01*
Y547500D01*
D02*
G37*
G36*
X-347500D02*
X-352500D01*
Y552500D01*
X-347500D01*
Y547500D01*
D02*
G37*
G36*
X-370000D02*
X-375000D01*
Y552500D01*
X-370000D01*
Y547500D01*
D02*
G37*
G36*
X-540000D02*
X-545000D01*
Y552500D01*
X-540000D01*
Y547500D01*
D02*
G37*
G36*
X-532500D02*
X-537500D01*
Y552500D01*
X-532500D01*
Y547500D01*
D02*
G37*
G36*
X-525000D02*
X-530000D01*
Y552500D01*
X-525000D01*
Y547500D01*
D02*
G37*
G36*
X-132500Y532500D02*
X-137500D01*
Y537500D01*
X-132500D01*
Y532500D01*
D02*
G37*
G36*
X-540000Y525000D02*
X-545000D01*
Y530000D01*
X-540000D01*
Y525000D01*
D02*
G37*
G36*
X-532500D02*
X-537500D01*
Y530000D01*
X-532500D01*
Y525000D01*
D02*
G37*
G36*
X-525000D02*
X-530000D01*
Y530000D01*
X-525000D01*
Y525000D01*
D02*
G37*
G36*
X-547500D02*
X-552500D01*
Y530000D01*
X-547500D01*
Y525000D01*
D02*
G37*
G36*
X-570000D02*
X-575000D01*
Y530000D01*
X-570000D01*
Y525000D01*
D02*
G37*
G36*
X-562500D02*
X-567500D01*
Y530000D01*
X-562500D01*
Y525000D01*
D02*
G37*
G36*
X-555000D02*
X-560000D01*
Y530000D01*
X-555000D01*
Y525000D01*
D02*
G37*
G36*
X-370000D02*
X-375000D01*
Y530000D01*
X-370000D01*
Y525000D01*
D02*
G37*
G36*
X-332500D02*
X-337500D01*
Y530000D01*
X-332500D01*
Y525000D01*
D02*
G37*
G36*
X-325000D02*
X-330000D01*
Y530000D01*
X-325000D01*
Y525000D01*
D02*
G37*
G36*
X-170000D02*
X-175000D01*
Y530000D01*
X-170000D01*
Y525000D01*
D02*
G37*
G36*
X-340000D02*
X-345000D01*
Y530000D01*
X-340000D01*
Y525000D01*
D02*
G37*
G36*
X-362500D02*
X-367500D01*
Y530000D01*
X-362500D01*
Y525000D01*
D02*
G37*
G36*
X-355000D02*
X-360000D01*
Y530000D01*
X-355000D01*
Y525000D01*
D02*
G37*
G36*
X-347500D02*
X-352500D01*
Y530000D01*
X-347500D01*
Y525000D01*
D02*
G37*
G36*
X-725000D02*
X-730000D01*
Y530000D01*
X-725000D01*
Y525000D01*
D02*
G37*
G36*
X-155000Y370000D02*
X-160000D01*
Y375000D01*
X-155000D01*
Y370000D01*
D02*
G37*
G36*
X-147500D02*
X-152500D01*
Y375000D01*
X-147500D01*
Y370000D01*
D02*
G37*
G36*
X-140000D02*
X-145000D01*
Y375000D01*
X-140000D01*
Y370000D01*
D02*
G37*
G36*
X-162500D02*
X-167500D01*
Y375000D01*
X-162500D01*
Y370000D01*
D02*
G37*
G36*
X-332500D02*
X-337500D01*
Y375000D01*
X-332500D01*
Y370000D01*
D02*
G37*
G36*
X-325000D02*
X-330000D01*
Y375000D01*
X-325000D01*
Y370000D01*
D02*
G37*
G36*
X-170000D02*
X-175000D01*
Y375000D01*
X-170000D01*
Y370000D01*
D02*
G37*
G36*
X-132500D02*
X-137500D01*
Y375000D01*
X-132500D01*
Y370000D01*
D02*
G37*
G36*
X-747500Y525000D02*
X-752500D01*
Y530000D01*
X-747500D01*
Y525000D01*
D02*
G37*
G36*
X-740000D02*
X-745000D01*
Y530000D01*
X-740000D01*
Y525000D01*
D02*
G37*
G36*
X-732500D02*
X-737500D01*
Y530000D01*
X-732500D01*
Y525000D01*
D02*
G37*
G36*
X-755000D02*
X-760000D01*
Y530000D01*
X-755000D01*
Y525000D01*
D02*
G37*
G36*
X-125000Y370000D02*
X-130000D01*
Y375000D01*
X-125000D01*
Y370000D01*
D02*
G37*
G36*
X-770000Y525000D02*
X-775000D01*
Y530000D01*
X-770000D01*
Y525000D01*
D02*
G37*
G36*
X-762500D02*
X-767500D01*
Y530000D01*
X-762500D01*
Y525000D01*
D02*
G37*
G36*
X-162500D02*
X-167500D01*
Y530000D01*
X-162500D01*
Y525000D01*
D02*
G37*
G36*
X-362500Y532500D02*
X-367500D01*
Y537500D01*
X-362500D01*
Y532500D01*
D02*
G37*
G36*
X-355000D02*
X-360000D01*
Y537500D01*
X-355000D01*
Y532500D01*
D02*
G37*
G36*
X-347500D02*
X-352500D01*
Y537500D01*
X-347500D01*
Y532500D01*
D02*
G37*
G36*
X-370000D02*
X-375000D01*
Y537500D01*
X-370000D01*
Y532500D01*
D02*
G37*
G36*
X-540000D02*
X-545000D01*
Y537500D01*
X-540000D01*
Y532500D01*
D02*
G37*
G36*
X-532500D02*
X-537500D01*
Y537500D01*
X-532500D01*
Y532500D01*
D02*
G37*
G36*
X-525000D02*
X-530000D01*
Y537500D01*
X-525000D01*
Y532500D01*
D02*
G37*
G36*
X-340000D02*
X-345000D01*
Y537500D01*
X-340000D01*
Y532500D01*
D02*
G37*
G36*
X-155000D02*
X-160000D01*
Y537500D01*
X-155000D01*
Y532500D01*
D02*
G37*
G36*
X-147500D02*
X-152500D01*
Y537500D01*
X-147500D01*
Y532500D01*
D02*
G37*
G36*
X-140000D02*
X-145000D01*
Y537500D01*
X-140000D01*
Y532500D01*
D02*
G37*
G36*
X-162500D02*
X-167500D01*
Y537500D01*
X-162500D01*
Y532500D01*
D02*
G37*
G36*
X-332500D02*
X-337500D01*
Y537500D01*
X-332500D01*
Y532500D01*
D02*
G37*
G36*
X-325000D02*
X-330000D01*
Y537500D01*
X-325000D01*
Y532500D01*
D02*
G37*
G36*
X-170000D02*
X-175000D01*
Y537500D01*
X-170000D01*
Y532500D01*
D02*
G37*
G36*
X-547500D02*
X-552500D01*
Y537500D01*
X-547500D01*
Y532500D01*
D02*
G37*
G36*
X-125000Y525000D02*
X-130000D01*
Y530000D01*
X-125000D01*
Y525000D01*
D02*
G37*
G36*
X-770000Y532500D02*
X-775000D01*
Y537500D01*
X-770000D01*
Y532500D01*
D02*
G37*
G36*
X-762500D02*
X-767500D01*
Y537500D01*
X-762500D01*
Y532500D01*
D02*
G37*
G36*
X-132500Y525000D02*
X-137500D01*
Y530000D01*
X-132500D01*
Y525000D01*
D02*
G37*
G36*
X-155000D02*
X-160000D01*
Y530000D01*
X-155000D01*
Y525000D01*
D02*
G37*
G36*
X-147500D02*
X-152500D01*
Y530000D01*
X-147500D01*
Y525000D01*
D02*
G37*
G36*
X-140000D02*
X-145000D01*
Y530000D01*
X-140000D01*
Y525000D01*
D02*
G37*
G36*
X-755000Y532500D02*
X-760000D01*
Y537500D01*
X-755000D01*
Y532500D01*
D02*
G37*
G36*
X-570000D02*
X-575000D01*
Y537500D01*
X-570000D01*
Y532500D01*
D02*
G37*
G36*
X-562500D02*
X-567500D01*
Y537500D01*
X-562500D01*
Y532500D01*
D02*
G37*
G36*
X-555000D02*
X-560000D01*
Y537500D01*
X-555000D01*
Y532500D01*
D02*
G37*
G36*
X-725000D02*
X-730000D01*
Y537500D01*
X-725000D01*
Y532500D01*
D02*
G37*
G36*
X-747500D02*
X-752500D01*
Y537500D01*
X-747500D01*
Y532500D01*
D02*
G37*
G36*
X-740000D02*
X-745000D01*
Y537500D01*
X-740000D01*
Y532500D01*
D02*
G37*
G36*
X-732500D02*
X-737500D01*
Y537500D01*
X-732500D01*
Y532500D01*
D02*
G37*
G36*
X-770000Y147500D02*
X-775000D01*
Y152500D01*
X-770000D01*
Y147500D01*
D02*
G37*
G36*
X-762500D02*
X-767500D01*
Y152500D01*
X-762500D01*
Y147500D01*
D02*
G37*
G36*
X-755000D02*
X-760000D01*
Y152500D01*
X-755000D01*
Y147500D01*
D02*
G37*
G36*
X-325000Y140000D02*
X-330000D01*
Y145000D01*
X-325000D01*
Y140000D01*
D02*
G37*
G36*
X-347500D02*
X-352500D01*
Y145000D01*
X-347500D01*
Y140000D01*
D02*
G37*
G36*
X-340000D02*
X-345000D01*
Y145000D01*
X-340000D01*
Y140000D01*
D02*
G37*
G36*
X-332500D02*
X-337500D01*
Y145000D01*
X-332500D01*
Y140000D01*
D02*
G37*
G36*
X-747500Y147500D02*
X-752500D01*
Y152500D01*
X-747500D01*
Y147500D01*
D02*
G37*
G36*
X-562500D02*
X-567500D01*
Y152500D01*
X-562500D01*
Y147500D01*
D02*
G37*
G36*
X-555000D02*
X-560000D01*
Y152500D01*
X-555000D01*
Y147500D01*
D02*
G37*
G36*
X-547500D02*
X-552500D01*
Y152500D01*
X-547500D01*
Y147500D01*
D02*
G37*
G36*
X-570000D02*
X-575000D01*
Y152500D01*
X-570000D01*
Y147500D01*
D02*
G37*
G36*
X-740000D02*
X-745000D01*
Y152500D01*
X-740000D01*
Y147500D01*
D02*
G37*
G36*
X-732500D02*
X-737500D01*
Y152500D01*
X-732500D01*
Y147500D01*
D02*
G37*
G36*
X-725000D02*
X-730000D01*
Y152500D01*
X-725000D01*
Y147500D01*
D02*
G37*
G36*
X-355000Y140000D02*
X-360000D01*
Y145000D01*
X-355000D01*
Y140000D01*
D02*
G37*
G36*
X-132500Y140000D02*
X-137500D01*
Y145000D01*
X-132500D01*
Y140000D01*
D02*
G37*
G36*
X-125000D02*
X-130000D01*
Y145000D01*
X-125000D01*
Y140000D01*
D02*
G37*
G36*
X-770000Y140000D02*
X-775000D01*
Y145000D01*
X-770000D01*
Y140000D01*
D02*
G37*
G36*
X-140000Y140000D02*
X-145000D01*
Y145000D01*
X-140000D01*
Y140000D01*
D02*
G37*
G36*
X-162500D02*
X-167500D01*
Y145000D01*
X-162500D01*
Y140000D01*
D02*
G37*
G36*
X-155000D02*
X-160000D01*
Y145000D01*
X-155000D01*
Y140000D01*
D02*
G37*
G36*
X-147500D02*
X-152500D01*
Y145000D01*
X-147500D01*
Y140000D01*
D02*
G37*
G36*
X-762500Y140000D02*
X-767500D01*
Y145000D01*
X-762500D01*
Y140000D01*
D02*
G37*
G36*
X-725000D02*
X-730000D01*
Y145000D01*
X-725000D01*
Y140000D01*
D02*
G37*
G36*
X-370000D02*
X-375000D01*
Y145000D01*
X-370000D01*
Y140000D01*
D02*
G37*
G36*
X-362500D02*
X-367500D01*
Y145000D01*
X-362500D01*
Y140000D01*
D02*
G37*
G36*
X-732500D02*
X-737500D01*
Y145000D01*
X-732500D01*
Y140000D01*
D02*
G37*
G36*
X-755000D02*
X-760000D01*
Y145000D01*
X-755000D01*
Y140000D01*
D02*
G37*
G36*
X-747500D02*
X-752500D01*
Y145000D01*
X-747500D01*
Y140000D01*
D02*
G37*
G36*
X-740000D02*
X-745000D01*
Y145000D01*
X-740000D01*
Y140000D01*
D02*
G37*
G36*
X-540000Y147500D02*
X-545000D01*
Y152500D01*
X-540000D01*
Y147500D01*
D02*
G37*
G36*
Y155000D02*
X-545000D01*
Y160000D01*
X-540000D01*
Y155000D01*
D02*
G37*
G36*
X-532500D02*
X-537500D01*
Y160000D01*
X-532500D01*
Y155000D01*
D02*
G37*
G36*
X-525000D02*
X-530000D01*
Y160000D01*
X-525000D01*
Y155000D01*
D02*
G37*
G36*
X-547500D02*
X-552500D01*
Y160000D01*
X-547500D01*
Y155000D01*
D02*
G37*
G36*
X-570000D02*
X-575000D01*
Y160000D01*
X-570000D01*
Y155000D01*
D02*
G37*
G36*
X-562500D02*
X-567500D01*
Y160000D01*
X-562500D01*
Y155000D01*
D02*
G37*
G36*
X-555000D02*
X-560000D01*
Y160000D01*
X-555000D01*
Y155000D01*
D02*
G37*
G36*
X-170000D02*
X-175000D01*
Y160000D01*
X-170000D01*
Y155000D01*
D02*
G37*
G36*
X-132500D02*
X-137500D01*
Y160000D01*
X-132500D01*
Y155000D01*
D02*
G37*
G36*
X-125000D02*
X-130000D01*
Y160000D01*
X-125000D01*
Y155000D01*
D02*
G37*
G36*
X-770000Y155000D02*
X-775000D01*
Y160000D01*
X-770000D01*
Y155000D01*
D02*
G37*
G36*
X-140000Y155000D02*
X-145000D01*
Y160000D01*
X-140000D01*
Y155000D01*
D02*
G37*
G36*
X-162500D02*
X-167500D01*
Y160000D01*
X-162500D01*
Y155000D01*
D02*
G37*
G36*
X-155000D02*
X-160000D01*
Y160000D01*
X-155000D01*
Y155000D01*
D02*
G37*
G36*
X-147500D02*
X-152500D01*
Y160000D01*
X-147500D01*
Y155000D01*
D02*
G37*
G36*
X-125000Y147500D02*
X-130000D01*
Y152500D01*
X-125000D01*
Y147500D01*
D02*
G37*
G36*
X-355000D02*
X-360000D01*
Y152500D01*
X-355000D01*
Y147500D01*
D02*
G37*
G36*
X-347500D02*
X-352500D01*
Y152500D01*
X-347500D01*
Y147500D01*
D02*
G37*
G36*
X-340000D02*
X-345000D01*
Y152500D01*
X-340000D01*
Y147500D01*
D02*
G37*
G36*
X-362500D02*
X-367500D01*
Y152500D01*
X-362500D01*
Y147500D01*
D02*
G37*
G36*
X-532500D02*
X-537500D01*
Y152500D01*
X-532500D01*
Y147500D01*
D02*
G37*
G36*
X-525000D02*
X-530000D01*
Y152500D01*
X-525000D01*
Y147500D01*
D02*
G37*
G36*
X-370000D02*
X-375000D01*
Y152500D01*
X-370000D01*
Y147500D01*
D02*
G37*
G36*
X-332500D02*
X-337500D01*
Y152500D01*
X-332500D01*
Y147500D01*
D02*
G37*
G36*
X-147500D02*
X-152500D01*
Y152500D01*
X-147500D01*
Y147500D01*
D02*
G37*
G36*
X-140000D02*
X-145000D01*
Y152500D01*
X-140000D01*
Y147500D01*
D02*
G37*
G36*
X-132500D02*
X-137500D01*
Y152500D01*
X-132500D01*
Y147500D01*
D02*
G37*
G36*
X-155000D02*
X-160000D01*
Y152500D01*
X-155000D01*
Y147500D01*
D02*
G37*
G36*
X-325000D02*
X-330000D01*
Y152500D01*
X-325000D01*
Y147500D01*
D02*
G37*
G36*
X-170000D02*
X-175000D01*
Y152500D01*
X-170000D01*
Y147500D01*
D02*
G37*
G36*
X-162500D02*
X-167500D01*
Y152500D01*
X-162500D01*
Y147500D01*
D02*
G37*
G36*
X-170000Y140000D02*
X-175000D01*
Y145000D01*
X-170000D01*
Y140000D01*
D02*
G37*
G36*
X-325000Y125000D02*
X-330000D01*
Y130000D01*
X-325000D01*
Y125000D01*
D02*
G37*
G36*
X-170000D02*
X-175000D01*
Y130000D01*
X-170000D01*
Y125000D01*
D02*
G37*
G36*
X-162500D02*
X-167500D01*
Y130000D01*
X-162500D01*
Y125000D01*
D02*
G37*
G36*
X-332500D02*
X-337500D01*
Y130000D01*
X-332500D01*
Y125000D01*
D02*
G37*
G36*
X-355000D02*
X-360000D01*
Y130000D01*
X-355000D01*
Y125000D01*
D02*
G37*
G36*
X-347500D02*
X-352500D01*
Y130000D01*
X-347500D01*
Y125000D01*
D02*
G37*
G36*
X-340000D02*
X-345000D01*
Y130000D01*
X-340000D01*
Y125000D01*
D02*
G37*
G36*
X-155000D02*
X-160000D01*
Y130000D01*
X-155000D01*
Y125000D01*
D02*
G37*
G36*
X-770000Y132500D02*
X-775000D01*
Y137500D01*
X-770000D01*
Y132500D01*
D02*
G37*
G36*
X-762500D02*
X-767500D01*
Y137500D01*
X-762500D01*
Y132500D01*
D02*
G37*
G36*
X-755000D02*
X-760000D01*
Y137500D01*
X-755000D01*
Y132500D01*
D02*
G37*
G36*
X-125000Y125000D02*
X-130000D01*
Y130000D01*
X-125000D01*
Y125000D01*
D02*
G37*
G36*
X-147500D02*
X-152500D01*
Y130000D01*
X-147500D01*
Y125000D01*
D02*
G37*
G36*
X-140000D02*
X-145000D01*
Y130000D01*
X-140000D01*
Y125000D01*
D02*
G37*
G36*
X-132500D02*
X-137500D01*
Y130000D01*
X-132500D01*
Y125000D01*
D02*
G37*
G36*
X-362500D02*
X-367500D01*
Y130000D01*
X-362500D01*
Y125000D01*
D02*
G37*
G36*
X-740000D02*
X-745000D01*
Y130000D01*
X-740000D01*
Y125000D01*
D02*
G37*
G36*
X-732500D02*
X-737500D01*
Y130000D01*
X-732500D01*
Y125000D01*
D02*
G37*
G36*
X-725000D02*
X-730000D01*
Y130000D01*
X-725000D01*
Y125000D01*
D02*
G37*
G36*
X-747500D02*
X-752500D01*
Y130000D01*
X-747500D01*
Y125000D01*
D02*
G37*
G36*
X-770000D02*
X-775000D01*
Y130000D01*
X-770000D01*
Y125000D01*
D02*
G37*
G36*
X-762500D02*
X-767500D01*
Y130000D01*
X-762500D01*
Y125000D01*
D02*
G37*
G36*
X-755000D02*
X-760000D01*
Y130000D01*
X-755000D01*
Y125000D01*
D02*
G37*
G36*
X-570000D02*
X-575000D01*
Y130000D01*
X-570000D01*
Y125000D01*
D02*
G37*
G36*
X-532500D02*
X-537500D01*
Y130000D01*
X-532500D01*
Y125000D01*
D02*
G37*
G36*
X-525000D02*
X-530000D01*
Y130000D01*
X-525000D01*
Y125000D01*
D02*
G37*
G36*
X-370000D02*
X-375000D01*
Y130000D01*
X-370000D01*
Y125000D01*
D02*
G37*
G36*
X-540000D02*
X-545000D01*
Y130000D01*
X-540000D01*
Y125000D01*
D02*
G37*
G36*
X-562500D02*
X-567500D01*
Y130000D01*
X-562500D01*
Y125000D01*
D02*
G37*
G36*
X-555000D02*
X-560000D01*
Y130000D01*
X-555000D01*
Y125000D01*
D02*
G37*
G36*
X-547500D02*
X-552500D01*
Y130000D01*
X-547500D01*
Y125000D01*
D02*
G37*
G36*
X-747500Y132500D02*
X-752500D01*
Y137500D01*
X-747500D01*
Y132500D01*
D02*
G37*
G36*
X-147500D02*
X-152500D01*
Y137500D01*
X-147500D01*
Y132500D01*
D02*
G37*
G36*
X-140000D02*
X-145000D01*
Y137500D01*
X-140000D01*
Y132500D01*
D02*
G37*
G36*
X-132500D02*
X-137500D01*
Y137500D01*
X-132500D01*
Y132500D01*
D02*
G37*
G36*
X-155000D02*
X-160000D01*
Y137500D01*
X-155000D01*
Y132500D01*
D02*
G37*
G36*
X-325000D02*
X-330000D01*
Y137500D01*
X-325000D01*
Y132500D01*
D02*
G37*
G36*
X-170000D02*
X-175000D01*
Y137500D01*
X-170000D01*
Y132500D01*
D02*
G37*
G36*
X-162500D02*
X-167500D01*
Y137500D01*
X-162500D01*
Y132500D01*
D02*
G37*
G36*
X-125000D02*
X-130000D01*
Y137500D01*
X-125000D01*
Y132500D01*
D02*
G37*
G36*
X-540000Y140000D02*
X-545000D01*
Y145000D01*
X-540000D01*
Y140000D01*
D02*
G37*
G36*
X-532500D02*
X-537500D01*
Y145000D01*
X-532500D01*
Y140000D01*
D02*
G37*
G36*
X-525000D02*
X-530000D01*
Y145000D01*
X-525000D01*
Y140000D01*
D02*
G37*
G36*
X-547500D02*
X-552500D01*
Y145000D01*
X-547500D01*
Y140000D01*
D02*
G37*
G36*
X-570000D02*
X-575000D01*
Y145000D01*
X-570000D01*
Y140000D01*
D02*
G37*
G36*
X-562500D02*
X-567500D01*
Y145000D01*
X-562500D01*
Y140000D01*
D02*
G37*
G36*
X-555000D02*
X-560000D01*
Y145000D01*
X-555000D01*
Y140000D01*
D02*
G37*
G36*
X-332500Y132500D02*
X-337500D01*
Y137500D01*
X-332500D01*
Y132500D01*
D02*
G37*
G36*
X-562500D02*
X-567500D01*
Y137500D01*
X-562500D01*
Y132500D01*
D02*
G37*
G36*
X-555000D02*
X-560000D01*
Y137500D01*
X-555000D01*
Y132500D01*
D02*
G37*
G36*
X-547500D02*
X-552500D01*
Y137500D01*
X-547500D01*
Y132500D01*
D02*
G37*
G36*
X-570000D02*
X-575000D01*
Y137500D01*
X-570000D01*
Y132500D01*
D02*
G37*
G36*
X-740000D02*
X-745000D01*
Y137500D01*
X-740000D01*
Y132500D01*
D02*
G37*
G36*
X-732500D02*
X-737500D01*
Y137500D01*
X-732500D01*
Y132500D01*
D02*
G37*
G36*
X-725000D02*
X-730000D01*
Y137500D01*
X-725000D01*
Y132500D01*
D02*
G37*
G36*
X-540000D02*
X-545000D01*
Y137500D01*
X-540000D01*
Y132500D01*
D02*
G37*
G36*
X-355000D02*
X-360000D01*
Y137500D01*
X-355000D01*
Y132500D01*
D02*
G37*
G36*
X-347500D02*
X-352500D01*
Y137500D01*
X-347500D01*
Y132500D01*
D02*
G37*
G36*
X-340000D02*
X-345000D01*
Y137500D01*
X-340000D01*
Y132500D01*
D02*
G37*
G36*
X-362500D02*
X-367500D01*
Y137500D01*
X-362500D01*
Y132500D01*
D02*
G37*
G36*
X-532500D02*
X-537500D01*
Y137500D01*
X-532500D01*
Y132500D01*
D02*
G37*
G36*
X-525000D02*
X-530000D01*
Y137500D01*
X-525000D01*
Y132500D01*
D02*
G37*
G36*
X-370000D02*
X-375000D01*
Y137500D01*
X-370000D01*
Y132500D01*
D02*
G37*
G36*
X-762500Y155000D02*
X-767500D01*
Y160000D01*
X-762500D01*
Y155000D01*
D02*
G37*
G36*
X-355000Y325000D02*
X-360000D01*
Y330000D01*
X-355000D01*
Y325000D01*
D02*
G37*
G36*
X-347500D02*
X-352500D01*
Y330000D01*
X-347500D01*
Y325000D01*
D02*
G37*
G36*
X-340000D02*
X-345000D01*
Y330000D01*
X-340000D01*
Y325000D01*
D02*
G37*
G36*
X-362500D02*
X-367500D01*
Y330000D01*
X-362500D01*
Y325000D01*
D02*
G37*
G36*
X-532500D02*
X-537500D01*
Y330000D01*
X-532500D01*
Y325000D01*
D02*
G37*
G36*
X-525000D02*
X-530000D01*
Y330000D01*
X-525000D01*
Y325000D01*
D02*
G37*
G36*
X-370000D02*
X-375000D01*
Y330000D01*
X-370000D01*
Y325000D01*
D02*
G37*
G36*
X-332500D02*
X-337500D01*
Y330000D01*
X-332500D01*
Y325000D01*
D02*
G37*
G36*
X-147500D02*
X-152500D01*
Y330000D01*
X-147500D01*
Y325000D01*
D02*
G37*
G36*
X-140000D02*
X-145000D01*
Y330000D01*
X-140000D01*
Y325000D01*
D02*
G37*
G36*
X-132500D02*
X-137500D01*
Y330000D01*
X-132500D01*
Y325000D01*
D02*
G37*
G36*
X-155000D02*
X-160000D01*
Y330000D01*
X-155000D01*
Y325000D01*
D02*
G37*
G36*
X-325000D02*
X-330000D01*
Y330000D01*
X-325000D01*
Y325000D01*
D02*
G37*
G36*
X-170000D02*
X-175000D01*
Y330000D01*
X-170000D01*
Y325000D01*
D02*
G37*
G36*
X-162500D02*
X-167500D01*
Y330000D01*
X-162500D01*
Y325000D01*
D02*
G37*
G36*
X-540000D02*
X-545000D01*
Y330000D01*
X-540000D01*
Y325000D01*
D02*
G37*
G36*
X-770000D02*
X-775000D01*
Y330000D01*
X-770000D01*
Y325000D01*
D02*
G37*
G36*
X-762500D02*
X-767500D01*
Y330000D01*
X-762500D01*
Y325000D01*
D02*
G37*
G36*
X-755000D02*
X-760000D01*
Y330000D01*
X-755000D01*
Y325000D01*
D02*
G37*
G36*
X-125000Y170000D02*
X-130000D01*
Y175000D01*
X-125000D01*
Y170000D01*
D02*
G37*
G36*
X-147500D02*
X-152500D01*
Y175000D01*
X-147500D01*
Y170000D01*
D02*
G37*
G36*
X-140000D02*
X-145000D01*
Y175000D01*
X-140000D01*
Y170000D01*
D02*
G37*
G36*
X-132500D02*
X-137500D01*
Y175000D01*
X-132500D01*
Y170000D01*
D02*
G37*
G36*
X-747500Y325000D02*
X-752500D01*
Y330000D01*
X-747500D01*
Y325000D01*
D02*
G37*
G36*
X-562500D02*
X-567500D01*
Y330000D01*
X-562500D01*
Y325000D01*
D02*
G37*
G36*
X-555000D02*
X-560000D01*
Y330000D01*
X-555000D01*
Y325000D01*
D02*
G37*
G36*
X-547500D02*
X-552500D01*
Y330000D01*
X-547500D01*
Y325000D01*
D02*
G37*
G36*
X-570000D02*
X-575000D01*
Y330000D01*
X-570000D01*
Y325000D01*
D02*
G37*
G36*
X-740000D02*
X-745000D01*
Y330000D01*
X-740000D01*
Y325000D01*
D02*
G37*
G36*
X-732500D02*
X-737500D01*
Y330000D01*
X-732500D01*
Y325000D01*
D02*
G37*
G36*
X-725000D02*
X-730000D01*
Y330000D01*
X-725000D01*
Y325000D01*
D02*
G37*
G36*
X-125000D02*
X-130000D01*
Y330000D01*
X-125000D01*
Y325000D01*
D02*
G37*
G36*
X-325000Y332500D02*
X-330000D01*
Y337500D01*
X-325000D01*
Y332500D01*
D02*
G37*
G36*
X-170000D02*
X-175000D01*
Y337500D01*
X-170000D01*
Y332500D01*
D02*
G37*
G36*
X-162500D02*
X-167500D01*
Y337500D01*
X-162500D01*
Y332500D01*
D02*
G37*
G36*
X-332500D02*
X-337500D01*
Y337500D01*
X-332500D01*
Y332500D01*
D02*
G37*
G36*
X-355000D02*
X-360000D01*
Y337500D01*
X-355000D01*
Y332500D01*
D02*
G37*
G36*
X-347500D02*
X-352500D01*
Y337500D01*
X-347500D01*
Y332500D01*
D02*
G37*
G36*
X-340000D02*
X-345000D01*
Y337500D01*
X-340000D01*
Y332500D01*
D02*
G37*
G36*
X-155000D02*
X-160000D01*
Y337500D01*
X-155000D01*
Y332500D01*
D02*
G37*
G36*
X-570000Y340000D02*
X-575000D01*
Y345000D01*
X-570000D01*
Y340000D01*
D02*
G37*
G36*
X-562500D02*
X-567500D01*
Y345000D01*
X-562500D01*
Y340000D01*
D02*
G37*
G36*
X-555000D02*
X-560000D01*
Y345000D01*
X-555000D01*
Y340000D01*
D02*
G37*
G36*
X-125000Y332500D02*
X-130000D01*
Y337500D01*
X-125000D01*
Y332500D01*
D02*
G37*
G36*
X-147500D02*
X-152500D01*
Y337500D01*
X-147500D01*
Y332500D01*
D02*
G37*
G36*
X-140000D02*
X-145000D01*
Y337500D01*
X-140000D01*
Y332500D01*
D02*
G37*
G36*
X-132500D02*
X-137500D01*
Y337500D01*
X-132500D01*
Y332500D01*
D02*
G37*
G36*
X-362500D02*
X-367500D01*
Y337500D01*
X-362500D01*
Y332500D01*
D02*
G37*
G36*
X-740000D02*
X-745000D01*
Y337500D01*
X-740000D01*
Y332500D01*
D02*
G37*
G36*
X-732500D02*
X-737500D01*
Y337500D01*
X-732500D01*
Y332500D01*
D02*
G37*
G36*
X-725000D02*
X-730000D01*
Y337500D01*
X-725000D01*
Y332500D01*
D02*
G37*
G36*
X-747500D02*
X-752500D01*
Y337500D01*
X-747500D01*
Y332500D01*
D02*
G37*
G36*
X-770000D02*
X-775000D01*
Y337500D01*
X-770000D01*
Y332500D01*
D02*
G37*
G36*
X-762500D02*
X-767500D01*
Y337500D01*
X-762500D01*
Y332500D01*
D02*
G37*
G36*
X-755000D02*
X-760000D01*
Y337500D01*
X-755000D01*
Y332500D01*
D02*
G37*
G36*
X-570000D02*
X-575000D01*
Y337500D01*
X-570000D01*
Y332500D01*
D02*
G37*
G36*
X-532500D02*
X-537500D01*
Y337500D01*
X-532500D01*
Y332500D01*
D02*
G37*
G36*
X-525000D02*
X-530000D01*
Y337500D01*
X-525000D01*
Y332500D01*
D02*
G37*
G36*
X-370000D02*
X-375000D01*
Y337500D01*
X-370000D01*
Y332500D01*
D02*
G37*
G36*
X-540000D02*
X-545000D01*
Y337500D01*
X-540000D01*
Y332500D01*
D02*
G37*
G36*
X-562500D02*
X-567500D01*
Y337500D01*
X-562500D01*
Y332500D01*
D02*
G37*
G36*
X-555000D02*
X-560000D01*
Y337500D01*
X-555000D01*
Y332500D01*
D02*
G37*
G36*
X-547500D02*
X-552500D01*
Y337500D01*
X-547500D01*
Y332500D01*
D02*
G37*
G36*
X-155000Y170000D02*
X-160000D01*
Y175000D01*
X-155000D01*
Y170000D01*
D02*
G37*
G36*
X-562500Y162500D02*
X-567500D01*
Y167500D01*
X-562500D01*
Y162500D01*
D02*
G37*
G36*
X-555000D02*
X-560000D01*
Y167500D01*
X-555000D01*
Y162500D01*
D02*
G37*
G36*
X-547500D02*
X-552500D01*
Y167500D01*
X-547500D01*
Y162500D01*
D02*
G37*
G36*
X-570000D02*
X-575000D01*
Y167500D01*
X-570000D01*
Y162500D01*
D02*
G37*
G36*
X-740000D02*
X-745000D01*
Y167500D01*
X-740000D01*
Y162500D01*
D02*
G37*
G36*
X-732500D02*
X-737500D01*
Y167500D01*
X-732500D01*
Y162500D01*
D02*
G37*
G36*
X-725000D02*
X-730000D01*
Y167500D01*
X-725000D01*
Y162500D01*
D02*
G37*
G36*
X-540000D02*
X-545000D01*
Y167500D01*
X-540000D01*
Y162500D01*
D02*
G37*
G36*
X-355000D02*
X-360000D01*
Y167500D01*
X-355000D01*
Y162500D01*
D02*
G37*
G36*
X-347500D02*
X-352500D01*
Y167500D01*
X-347500D01*
Y162500D01*
D02*
G37*
G36*
X-340000D02*
X-345000D01*
Y167500D01*
X-340000D01*
Y162500D01*
D02*
G37*
G36*
X-362500D02*
X-367500D01*
Y167500D01*
X-362500D01*
Y162500D01*
D02*
G37*
G36*
X-532500D02*
X-537500D01*
Y167500D01*
X-532500D01*
Y162500D01*
D02*
G37*
G36*
X-525000D02*
X-530000D01*
Y167500D01*
X-525000D01*
Y162500D01*
D02*
G37*
G36*
X-370000D02*
X-375000D01*
Y167500D01*
X-370000D01*
Y162500D01*
D02*
G37*
G36*
X-747500D02*
X-752500D01*
Y167500D01*
X-747500D01*
Y162500D01*
D02*
G37*
G36*
X-725000Y155000D02*
X-730000D01*
Y160000D01*
X-725000D01*
Y155000D01*
D02*
G37*
G36*
X-370000D02*
X-375000D01*
Y160000D01*
X-370000D01*
Y155000D01*
D02*
G37*
G36*
X-362500D02*
X-367500D01*
Y160000D01*
X-362500D01*
Y155000D01*
D02*
G37*
G36*
X-732500D02*
X-737500D01*
Y160000D01*
X-732500D01*
Y155000D01*
D02*
G37*
G36*
X-755000D02*
X-760000D01*
Y160000D01*
X-755000D01*
Y155000D01*
D02*
G37*
G36*
X-747500D02*
X-752500D01*
Y160000D01*
X-747500D01*
Y155000D01*
D02*
G37*
G36*
X-740000D02*
X-745000D01*
Y160000D01*
X-740000D01*
Y155000D01*
D02*
G37*
G36*
X-355000D02*
X-360000D01*
Y160000D01*
X-355000D01*
Y155000D01*
D02*
G37*
G36*
X-770000Y162500D02*
X-775000D01*
Y167500D01*
X-770000D01*
Y162500D01*
D02*
G37*
G36*
X-762500D02*
X-767500D01*
Y167500D01*
X-762500D01*
Y162500D01*
D02*
G37*
G36*
X-755000D02*
X-760000D01*
Y167500D01*
X-755000D01*
Y162500D01*
D02*
G37*
G36*
X-325000Y155000D02*
X-330000D01*
Y160000D01*
X-325000D01*
Y155000D01*
D02*
G37*
G36*
X-347500D02*
X-352500D01*
Y160000D01*
X-347500D01*
Y155000D01*
D02*
G37*
G36*
X-340000D02*
X-345000D01*
Y160000D01*
X-340000D01*
Y155000D01*
D02*
G37*
G36*
X-332500D02*
X-337500D01*
Y160000D01*
X-332500D01*
Y155000D01*
D02*
G37*
G36*
Y162500D02*
X-337500D01*
Y167500D01*
X-332500D01*
Y162500D01*
D02*
G37*
G36*
X-532500Y170000D02*
X-537500D01*
Y175000D01*
X-532500D01*
Y170000D01*
D02*
G37*
G36*
X-525000D02*
X-530000D01*
Y175000D01*
X-525000D01*
Y170000D01*
D02*
G37*
G36*
X-370000D02*
X-375000D01*
Y175000D01*
X-370000D01*
Y170000D01*
D02*
G37*
G36*
X-540000D02*
X-545000D01*
Y175000D01*
X-540000D01*
Y170000D01*
D02*
G37*
G36*
X-562500D02*
X-567500D01*
Y175000D01*
X-562500D01*
Y170000D01*
D02*
G37*
G36*
X-555000D02*
X-560000D01*
Y175000D01*
X-555000D01*
Y170000D01*
D02*
G37*
G36*
X-547500D02*
X-552500D01*
Y175000D01*
X-547500D01*
Y170000D01*
D02*
G37*
G36*
X-362500D02*
X-367500D01*
Y175000D01*
X-362500D01*
Y170000D01*
D02*
G37*
G36*
X-325000D02*
X-330000D01*
Y175000D01*
X-325000D01*
Y170000D01*
D02*
G37*
G36*
X-170000D02*
X-175000D01*
Y175000D01*
X-170000D01*
Y170000D01*
D02*
G37*
G36*
X-162500D02*
X-167500D01*
Y175000D01*
X-162500D01*
Y170000D01*
D02*
G37*
G36*
X-332500D02*
X-337500D01*
Y175000D01*
X-332500D01*
Y170000D01*
D02*
G37*
G36*
X-355000D02*
X-360000D01*
Y175000D01*
X-355000D01*
Y170000D01*
D02*
G37*
G36*
X-347500D02*
X-352500D01*
Y175000D01*
X-347500D01*
Y170000D01*
D02*
G37*
G36*
X-340000D02*
X-345000D01*
Y175000D01*
X-340000D01*
Y170000D01*
D02*
G37*
G36*
X-570000D02*
X-575000D01*
Y175000D01*
X-570000D01*
Y170000D01*
D02*
G37*
G36*
X-147500Y162500D02*
X-152500D01*
Y167500D01*
X-147500D01*
Y162500D01*
D02*
G37*
G36*
X-140000D02*
X-145000D01*
Y167500D01*
X-140000D01*
Y162500D01*
D02*
G37*
G36*
X-132500D02*
X-137500D01*
Y167500D01*
X-132500D01*
Y162500D01*
D02*
G37*
G36*
X-155000D02*
X-160000D01*
Y167500D01*
X-155000D01*
Y162500D01*
D02*
G37*
G36*
X-325000D02*
X-330000D01*
Y167500D01*
X-325000D01*
Y162500D01*
D02*
G37*
G36*
X-170000D02*
X-175000D01*
Y167500D01*
X-170000D01*
Y162500D01*
D02*
G37*
G36*
X-162500D02*
X-167500D01*
Y167500D01*
X-162500D01*
Y162500D01*
D02*
G37*
G36*
X-125000D02*
X-130000D01*
Y167500D01*
X-125000D01*
Y162500D01*
D02*
G37*
G36*
X-740000Y170000D02*
X-745000D01*
Y175000D01*
X-740000D01*
Y170000D01*
D02*
G37*
G36*
X-732500D02*
X-737500D01*
Y175000D01*
X-732500D01*
Y170000D01*
D02*
G37*
G36*
X-725000D02*
X-730000D01*
Y175000D01*
X-725000D01*
Y170000D01*
D02*
G37*
G36*
X-747500D02*
X-752500D01*
Y175000D01*
X-747500D01*
Y170000D01*
D02*
G37*
G36*
X-770000D02*
X-775000D01*
Y175000D01*
X-770000D01*
Y170000D01*
D02*
G37*
G36*
X-762500D02*
X-767500D01*
Y175000D01*
X-762500D01*
Y170000D01*
D02*
G37*
G36*
X-755000D02*
X-760000D01*
Y175000D01*
X-755000D01*
Y170000D01*
D02*
G37*
G36*
X-525000Y555000D02*
X-530000D01*
Y560000D01*
X-525000D01*
Y555000D01*
D02*
G37*
G36*
X-862000Y1079500D02*
X-867000D01*
Y1084500D01*
X-862000D01*
Y1079500D01*
D02*
G37*
G36*
X-854500D02*
X-859500D01*
Y1084500D01*
X-854500D01*
Y1079500D01*
D02*
G37*
G36*
X-847000D02*
X-852000D01*
Y1084500D01*
X-847000D01*
Y1079500D01*
D02*
G37*
G36*
X-528000Y1072000D02*
X-533000D01*
Y1077000D01*
X-528000D01*
Y1072000D01*
D02*
G37*
G36*
X-687000D02*
X-692000D01*
Y1077000D01*
X-687000D01*
Y1072000D01*
D02*
G37*
G36*
X-543000D02*
X-548000D01*
Y1077000D01*
X-543000D01*
Y1072000D01*
D02*
G37*
G36*
X-535500D02*
X-540500D01*
Y1077000D01*
X-535500D01*
Y1072000D01*
D02*
G37*
G36*
X-702000Y1079500D02*
X-707000D01*
Y1084500D01*
X-702000D01*
Y1079500D01*
D02*
G37*
G36*
X-528000D02*
X-533000D01*
Y1084500D01*
X-528000D01*
Y1079500D01*
D02*
G37*
G36*
X-862000Y1096948D02*
X-867000D01*
Y1101948D01*
X-862000D01*
Y1096948D01*
D02*
G37*
G36*
X-854500D02*
X-859500D01*
Y1101948D01*
X-854500D01*
Y1096948D01*
D02*
G37*
G36*
X-535500Y1079500D02*
X-540500D01*
Y1084500D01*
X-535500D01*
Y1079500D01*
D02*
G37*
G36*
X-694500D02*
X-699500D01*
Y1084500D01*
X-694500D01*
Y1079500D01*
D02*
G37*
G36*
X-687000D02*
X-692000D01*
Y1084500D01*
X-687000D01*
Y1079500D01*
D02*
G37*
G36*
X-543000D02*
X-548000D01*
Y1084500D01*
X-543000D01*
Y1079500D01*
D02*
G37*
G36*
X-694500Y1072000D02*
X-699500D01*
Y1077000D01*
X-694500D01*
Y1072000D01*
D02*
G37*
G36*
X-687000Y1064500D02*
X-692000D01*
Y1069500D01*
X-687000D01*
Y1064500D01*
D02*
G37*
G36*
X-543000D02*
X-548000D01*
Y1069500D01*
X-543000D01*
Y1064500D01*
D02*
G37*
G36*
X-535500D02*
X-540500D01*
Y1069500D01*
X-535500D01*
Y1064500D01*
D02*
G37*
G36*
X-694500D02*
X-699500D01*
Y1069500D01*
X-694500D01*
Y1064500D01*
D02*
G37*
G36*
X-854500D02*
X-859500D01*
Y1069500D01*
X-854500D01*
Y1064500D01*
D02*
G37*
G36*
X-847000D02*
X-852000D01*
Y1069500D01*
X-847000D01*
Y1064500D01*
D02*
G37*
G36*
X-702000D02*
X-707000D01*
Y1069500D01*
X-702000D01*
Y1064500D01*
D02*
G37*
G36*
X-528000D02*
X-533000D01*
Y1069500D01*
X-528000D01*
Y1064500D01*
D02*
G37*
G36*
X-854500Y1072000D02*
X-859500D01*
Y1077000D01*
X-854500D01*
Y1072000D01*
D02*
G37*
G36*
X-847000D02*
X-852000D01*
Y1077000D01*
X-847000D01*
Y1072000D01*
D02*
G37*
G36*
X-702000D02*
X-707000D01*
Y1077000D01*
X-702000D01*
Y1072000D01*
D02*
G37*
G36*
X-862000D02*
X-867000D01*
Y1077000D01*
X-862000D01*
Y1072000D01*
D02*
G37*
G36*
X-869500Y1069500D02*
X-874500D01*
Y1074500D01*
X-869500D01*
Y1069500D01*
D02*
G37*
G36*
X-709500D02*
X-714500D01*
Y1074500D01*
X-709500D01*
Y1069500D01*
D02*
G37*
G36*
X-550500D02*
X-555500D01*
Y1074500D01*
X-550500D01*
Y1069500D01*
D02*
G37*
G36*
X-847000Y1096948D02*
X-852000D01*
Y1101948D01*
X-847000D01*
Y1096948D01*
D02*
G37*
G36*
Y1111948D02*
X-852000D01*
Y1116948D01*
X-847000D01*
Y1111948D01*
D02*
G37*
G36*
X-702000D02*
X-707000D01*
Y1116948D01*
X-702000D01*
Y1111948D01*
D02*
G37*
G36*
X-694500D02*
X-699500D01*
Y1116948D01*
X-694500D01*
Y1111948D01*
D02*
G37*
G36*
X-854500D02*
X-859500D01*
Y1116948D01*
X-854500D01*
Y1111948D01*
D02*
G37*
G36*
X-709500Y1106948D02*
X-714500D01*
Y1111948D01*
X-709500D01*
Y1106948D01*
D02*
G37*
G36*
X-550500D02*
X-555500D01*
Y1111948D01*
X-550500D01*
Y1106948D01*
D02*
G37*
G36*
X-862000Y1111948D02*
X-867000D01*
Y1116948D01*
X-862000D01*
Y1111948D01*
D02*
G37*
G36*
X-687000D02*
X-692000D01*
Y1116948D01*
X-687000D01*
Y1111948D01*
D02*
G37*
G36*
X-862000Y1119448D02*
X-867000D01*
Y1124448D01*
X-862000D01*
Y1119448D01*
D02*
G37*
G36*
X-854500D02*
X-859500D01*
Y1124448D01*
X-854500D01*
Y1119448D01*
D02*
G37*
G36*
X-847000D02*
X-852000D01*
Y1124448D01*
X-847000D01*
Y1119448D01*
D02*
G37*
G36*
X-869500D02*
X-874500D01*
Y1124448D01*
X-869500D01*
Y1119448D01*
D02*
G37*
G36*
X-543000Y1111948D02*
X-548000D01*
Y1116948D01*
X-543000D01*
Y1111948D01*
D02*
G37*
G36*
X-535500D02*
X-540500D01*
Y1116948D01*
X-535500D01*
Y1111948D01*
D02*
G37*
G36*
X-528000D02*
X-533000D01*
Y1116948D01*
X-528000D01*
Y1111948D01*
D02*
G37*
G36*
X-869500Y1106948D02*
X-874500D01*
Y1111948D01*
X-869500D01*
Y1106948D01*
D02*
G37*
G36*
X-535500Y1096948D02*
X-540500D01*
Y1101948D01*
X-535500D01*
Y1096948D01*
D02*
G37*
G36*
X-528000D02*
X-533000D01*
Y1101948D01*
X-528000D01*
Y1096948D01*
D02*
G37*
G36*
X-862000Y1104448D02*
X-867000D01*
Y1109448D01*
X-862000D01*
Y1104448D01*
D02*
G37*
G36*
X-543000Y1096948D02*
X-548000D01*
Y1101948D01*
X-543000D01*
Y1096948D01*
D02*
G37*
G36*
X-702000D02*
X-707000D01*
Y1101948D01*
X-702000D01*
Y1096948D01*
D02*
G37*
G36*
X-694500D02*
X-699500D01*
Y1101948D01*
X-694500D01*
Y1096948D01*
D02*
G37*
G36*
X-687000D02*
X-692000D01*
Y1101948D01*
X-687000D01*
Y1096948D01*
D02*
G37*
G36*
X-854500Y1104448D02*
X-859500D01*
Y1109448D01*
X-854500D01*
Y1104448D01*
D02*
G37*
G36*
X-543000D02*
X-548000D01*
Y1109448D01*
X-543000D01*
Y1104448D01*
D02*
G37*
G36*
X-535500D02*
X-540500D01*
Y1109448D01*
X-535500D01*
Y1104448D01*
D02*
G37*
G36*
X-528000D02*
X-533000D01*
Y1109448D01*
X-528000D01*
Y1104448D01*
D02*
G37*
G36*
X-687000D02*
X-692000D01*
Y1109448D01*
X-687000D01*
Y1104448D01*
D02*
G37*
G36*
X-847000D02*
X-852000D01*
Y1109448D01*
X-847000D01*
Y1104448D01*
D02*
G37*
G36*
X-702000D02*
X-707000D01*
Y1109448D01*
X-702000D01*
Y1104448D01*
D02*
G37*
G36*
X-694500D02*
X-699500D01*
Y1109448D01*
X-694500D01*
Y1104448D01*
D02*
G37*
G36*
X-862000Y1034500D02*
X-867000D01*
Y1039500D01*
X-862000D01*
Y1034500D01*
D02*
G37*
G36*
X-854500D02*
X-859500D01*
Y1039500D01*
X-854500D01*
Y1034500D01*
D02*
G37*
G36*
X-847000D02*
X-852000D01*
Y1039500D01*
X-847000D01*
Y1034500D01*
D02*
G37*
G36*
X-125000Y770000D02*
X-130000D01*
Y775000D01*
X-125000D01*
Y770000D01*
D02*
G37*
G36*
X-147500D02*
X-152500D01*
Y775000D01*
X-147500D01*
Y770000D01*
D02*
G37*
G36*
X-140000D02*
X-145000D01*
Y775000D01*
X-140000D01*
Y770000D01*
D02*
G37*
G36*
X-132500D02*
X-137500D01*
Y775000D01*
X-132500D01*
Y770000D01*
D02*
G37*
G36*
X-702000Y1034500D02*
X-707000D01*
Y1039500D01*
X-702000D01*
Y1034500D01*
D02*
G37*
G36*
X-528000D02*
X-533000D01*
Y1039500D01*
X-528000D01*
Y1034500D01*
D02*
G37*
G36*
X-862000Y1042000D02*
X-867000D01*
Y1047000D01*
X-862000D01*
Y1042000D01*
D02*
G37*
G36*
X-854500D02*
X-859500D01*
Y1047000D01*
X-854500D01*
Y1042000D01*
D02*
G37*
G36*
X-535500Y1034500D02*
X-540500D01*
Y1039500D01*
X-535500D01*
Y1034500D01*
D02*
G37*
G36*
X-694500D02*
X-699500D01*
Y1039500D01*
X-694500D01*
Y1034500D01*
D02*
G37*
G36*
X-687000D02*
X-692000D01*
Y1039500D01*
X-687000D01*
Y1034500D01*
D02*
G37*
G36*
X-543000D02*
X-548000D01*
Y1039500D01*
X-543000D01*
Y1034500D01*
D02*
G37*
G36*
X-155000Y770000D02*
X-160000D01*
Y775000D01*
X-155000D01*
Y770000D01*
D02*
G37*
G36*
X-532500D02*
X-537500D01*
Y775000D01*
X-532500D01*
Y770000D01*
D02*
G37*
G36*
X-525000D02*
X-530000D01*
Y775000D01*
X-525000D01*
Y770000D01*
D02*
G37*
G36*
X-370000D02*
X-375000D01*
Y775000D01*
X-370000D01*
Y770000D01*
D02*
G37*
G36*
X-540000D02*
X-545000D01*
Y775000D01*
X-540000D01*
Y770000D01*
D02*
G37*
G36*
X-562500D02*
X-567500D01*
Y775000D01*
X-562500D01*
Y770000D01*
D02*
G37*
G36*
X-555000D02*
X-560000D01*
Y775000D01*
X-555000D01*
Y770000D01*
D02*
G37*
G36*
X-547500D02*
X-552500D01*
Y775000D01*
X-547500D01*
Y770000D01*
D02*
G37*
G36*
X-362500D02*
X-367500D01*
Y775000D01*
X-362500D01*
Y770000D01*
D02*
G37*
G36*
X-325000D02*
X-330000D01*
Y775000D01*
X-325000D01*
Y770000D01*
D02*
G37*
G36*
X-170000D02*
X-175000D01*
Y775000D01*
X-170000D01*
Y770000D01*
D02*
G37*
G36*
X-162500D02*
X-167500D01*
Y775000D01*
X-162500D01*
Y770000D01*
D02*
G37*
G36*
X-332500D02*
X-337500D01*
Y775000D01*
X-332500D01*
Y770000D01*
D02*
G37*
G36*
X-355000D02*
X-360000D01*
Y775000D01*
X-355000D01*
Y770000D01*
D02*
G37*
G36*
X-347500D02*
X-352500D01*
Y775000D01*
X-347500D01*
Y770000D01*
D02*
G37*
G36*
X-340000D02*
X-345000D01*
Y775000D01*
X-340000D01*
Y770000D01*
D02*
G37*
G36*
X-847000Y1042000D02*
X-852000D01*
Y1047000D01*
X-847000D01*
Y1042000D01*
D02*
G37*
G36*
X-854500Y1057000D02*
X-859500D01*
Y1062000D01*
X-854500D01*
Y1057000D01*
D02*
G37*
G36*
X-847000D02*
X-852000D01*
Y1062000D01*
X-847000D01*
Y1057000D01*
D02*
G37*
G36*
X-709500D02*
X-714500D01*
Y1062000D01*
X-709500D01*
Y1057000D01*
D02*
G37*
G36*
X-862000D02*
X-867000D01*
Y1062000D01*
X-862000D01*
Y1057000D01*
D02*
G37*
G36*
X-535500Y1049500D02*
X-540500D01*
Y1054500D01*
X-535500D01*
Y1049500D01*
D02*
G37*
G36*
X-528000D02*
X-533000D01*
Y1054500D01*
X-528000D01*
Y1049500D01*
D02*
G37*
G36*
X-869500Y1057000D02*
X-874500D01*
Y1062000D01*
X-869500D01*
Y1057000D01*
D02*
G37*
G36*
X-702000D02*
X-707000D01*
Y1062000D01*
X-702000D01*
Y1057000D01*
D02*
G37*
G36*
X-535500D02*
X-540500D01*
Y1062000D01*
X-535500D01*
Y1057000D01*
D02*
G37*
G36*
X-528000D02*
X-533000D01*
Y1062000D01*
X-528000D01*
Y1057000D01*
D02*
G37*
G36*
X-862000Y1064500D02*
X-867000D01*
Y1069500D01*
X-862000D01*
Y1064500D01*
D02*
G37*
G36*
X-543000Y1057000D02*
X-548000D01*
Y1062000D01*
X-543000D01*
Y1057000D01*
D02*
G37*
G36*
X-694500D02*
X-699500D01*
Y1062000D01*
X-694500D01*
Y1057000D01*
D02*
G37*
G36*
X-687000D02*
X-692000D01*
Y1062000D01*
X-687000D01*
Y1057000D01*
D02*
G37*
G36*
X-550500D02*
X-555500D01*
Y1062000D01*
X-550500D01*
Y1057000D01*
D02*
G37*
G36*
X-543000Y1049500D02*
X-548000D01*
Y1054500D01*
X-543000D01*
Y1049500D01*
D02*
G37*
G36*
X-535500Y1042000D02*
X-540500D01*
Y1047000D01*
X-535500D01*
Y1042000D01*
D02*
G37*
G36*
X-528000D02*
X-533000D01*
Y1047000D01*
X-528000D01*
Y1042000D01*
D02*
G37*
G36*
X-869500Y1044500D02*
X-874500D01*
Y1049500D01*
X-869500D01*
Y1044500D01*
D02*
G37*
G36*
X-543000Y1042000D02*
X-548000D01*
Y1047000D01*
X-543000D01*
Y1042000D01*
D02*
G37*
G36*
X-702000D02*
X-707000D01*
Y1047000D01*
X-702000D01*
Y1042000D01*
D02*
G37*
G36*
X-694500D02*
X-699500D01*
Y1047000D01*
X-694500D01*
Y1042000D01*
D02*
G37*
G36*
X-687000D02*
X-692000D01*
Y1047000D01*
X-687000D01*
Y1042000D01*
D02*
G37*
G36*
X-709500Y1044500D02*
X-714500D01*
Y1049500D01*
X-709500D01*
Y1044500D01*
D02*
G37*
G36*
X-702000Y1049500D02*
X-707000D01*
Y1054500D01*
X-702000D01*
Y1049500D01*
D02*
G37*
G36*
X-694500D02*
X-699500D01*
Y1054500D01*
X-694500D01*
Y1049500D01*
D02*
G37*
G36*
X-687000D02*
X-692000D01*
Y1054500D01*
X-687000D01*
Y1049500D01*
D02*
G37*
G36*
X-847000D02*
X-852000D01*
Y1054500D01*
X-847000D01*
Y1049500D01*
D02*
G37*
G36*
X-550500Y1044500D02*
X-555500D01*
Y1049500D01*
X-550500D01*
Y1044500D01*
D02*
G37*
G36*
X-862000Y1049500D02*
X-867000D01*
Y1054500D01*
X-862000D01*
Y1049500D01*
D02*
G37*
G36*
X-854500D02*
X-859500D01*
Y1054500D01*
X-854500D01*
Y1049500D01*
D02*
G37*
G36*
X-709500Y1119448D02*
X-714500D01*
Y1124448D01*
X-709500D01*
Y1119448D01*
D02*
G37*
G36*
X-550500Y1189498D02*
X-555500D01*
Y1194498D01*
X-550500D01*
Y1189498D01*
D02*
G37*
G36*
X-543000D02*
X-548000D01*
Y1194498D01*
X-543000D01*
Y1189498D01*
D02*
G37*
G36*
X-535500D02*
X-540500D01*
Y1194498D01*
X-535500D01*
Y1189498D01*
D02*
G37*
G36*
X-558000D02*
X-563000D01*
Y1194498D01*
X-558000D01*
Y1189498D01*
D02*
G37*
G36*
X-694500D02*
X-699500D01*
Y1194498D01*
X-694500D01*
Y1189498D01*
D02*
G37*
G36*
X-679500D02*
X-684500D01*
Y1194498D01*
X-679500D01*
Y1189498D01*
D02*
G37*
G36*
X-672000D02*
X-677000D01*
Y1194498D01*
X-672000D01*
Y1189498D01*
D02*
G37*
G36*
X-520500D02*
X-525500D01*
Y1194498D01*
X-520500D01*
Y1189498D01*
D02*
G37*
G36*
X-854500Y1196998D02*
X-859500D01*
Y1201998D01*
X-854500D01*
Y1196998D01*
D02*
G37*
G36*
X-847000D02*
X-852000D01*
Y1201998D01*
X-847000D01*
Y1196998D01*
D02*
G37*
G36*
X-717000D02*
X-722000D01*
Y1201998D01*
X-717000D01*
Y1196998D01*
D02*
G37*
G36*
X-862000D02*
X-867000D01*
Y1201998D01*
X-862000D01*
Y1196998D01*
D02*
G37*
G36*
X-513000Y1189498D02*
X-518000D01*
Y1194498D01*
X-513000D01*
Y1189498D01*
D02*
G37*
G36*
X-877000Y1196998D02*
X-882000D01*
Y1201998D01*
X-877000D01*
Y1196998D01*
D02*
G37*
G36*
X-869500D02*
X-874500D01*
Y1201998D01*
X-869500D01*
Y1196998D01*
D02*
G37*
G36*
X-702000Y1189498D02*
X-707000D01*
Y1194498D01*
X-702000D01*
Y1189498D01*
D02*
G37*
G36*
X-847000Y1189498D02*
X-852000D01*
Y1194498D01*
X-847000D01*
Y1189498D01*
D02*
G37*
G36*
X-687000D02*
X-692000D01*
Y1194498D01*
X-687000D01*
Y1189498D01*
D02*
G37*
G36*
X-528000D02*
X-533000D01*
Y1194498D01*
X-528000D01*
Y1189498D01*
D02*
G37*
G36*
X-262000Y1188650D02*
X-280000D01*
Y1206650D01*
X-262000D01*
Y1188650D01*
D02*
G37*
G36*
X-543000Y1181998D02*
X-548000D01*
Y1186998D01*
X-543000D01*
Y1181998D01*
D02*
G37*
G36*
X-535500D02*
X-540500D01*
Y1186998D01*
X-535500D01*
Y1181998D01*
D02*
G37*
G36*
X-283000Y1188650D02*
X-301000D01*
Y1206650D01*
X-283000D01*
Y1188650D01*
D02*
G37*
G36*
X-877000Y1189498D02*
X-882000D01*
Y1194498D01*
X-877000D01*
Y1189498D01*
D02*
G37*
G36*
X-832000D02*
X-837000D01*
Y1194498D01*
X-832000D01*
Y1189498D01*
D02*
G37*
G36*
X-717000D02*
X-722000D01*
Y1194498D01*
X-717000D01*
Y1189498D01*
D02*
G37*
G36*
X-709500D02*
X-714500D01*
Y1194498D01*
X-709500D01*
Y1189498D01*
D02*
G37*
G36*
X-839500D02*
X-844500D01*
Y1194498D01*
X-839500D01*
Y1189498D01*
D02*
G37*
G36*
X-869500D02*
X-874500D01*
Y1194498D01*
X-869500D01*
Y1189498D01*
D02*
G37*
G36*
X-862000D02*
X-867000D01*
Y1194498D01*
X-862000D01*
Y1189498D01*
D02*
G37*
G36*
X-854500D02*
X-859500D01*
Y1194498D01*
X-854500D01*
Y1189498D01*
D02*
G37*
G36*
X-709500Y1196998D02*
X-714500D01*
Y1201998D01*
X-709500D01*
Y1196998D01*
D02*
G37*
G36*
X-682000Y1204498D02*
X-687000D01*
Y1209498D01*
X-682000D01*
Y1204498D01*
D02*
G37*
G36*
X-548000D02*
X-553000D01*
Y1209498D01*
X-548000D01*
Y1204498D01*
D02*
G37*
G36*
X-523000D02*
X-528000D01*
Y1209498D01*
X-523000D01*
Y1204498D01*
D02*
G37*
G36*
X-707000D02*
X-712000D01*
Y1209498D01*
X-707000D01*
Y1204498D01*
D02*
G37*
G36*
X-535500Y1204498D02*
X-540500D01*
Y1209498D01*
X-535500D01*
Y1204498D01*
D02*
G37*
G36*
X-867000Y1204498D02*
X-872000D01*
Y1209498D01*
X-867000D01*
Y1204498D01*
D02*
G37*
G36*
X-842000D02*
X-847000D01*
Y1209498D01*
X-842000D01*
Y1204498D01*
D02*
G37*
G36*
X-283000Y1209650D02*
X-301000D01*
Y1227650D01*
X-283000D01*
Y1209650D01*
D02*
G37*
G36*
X-304000Y1230650D02*
X-322000D01*
Y1248650D01*
X-304000D01*
Y1230650D01*
D02*
G37*
G36*
X-283000D02*
X-301000D01*
Y1248650D01*
X-283000D01*
Y1230650D01*
D02*
G37*
G36*
X-262000D02*
X-280000D01*
Y1248650D01*
X-262000D01*
Y1230650D01*
D02*
G37*
G36*
X-325000D02*
X-343000D01*
Y1248650D01*
X-325000D01*
Y1230650D01*
D02*
G37*
G36*
X-262000Y1209650D02*
X-280000D01*
Y1227650D01*
X-262000D01*
Y1209650D01*
D02*
G37*
G36*
X-304000Y1222645D02*
X-303999D01*
Y1200645D01*
X-304000D01*
Y1194645D01*
X-303999D01*
Y1172645D01*
X-304000D01*
Y1167650D01*
X-322000D01*
Y1172645D01*
X-325000D01*
Y1167650D01*
X-343000D01*
Y1172645D01*
X-346000D01*
Y1167650D01*
X-364000D01*
Y1185650D01*
X-358999D01*
Y1188650D01*
X-364000D01*
Y1206650D01*
X-358999D01*
Y1209650D01*
X-364000D01*
Y1227650D01*
X-346000D01*
Y1222645D01*
X-343000D01*
Y1227650D01*
X-325000D01*
Y1222645D01*
X-322000D01*
Y1227650D01*
X-304000D01*
Y1222645D01*
D02*
G37*
G36*
X-346000Y1230650D02*
X-364000D01*
Y1248650D01*
X-346000D01*
Y1230650D01*
D02*
G37*
G36*
X-694500Y1204498D02*
X-699500D01*
Y1209498D01*
X-694500D01*
Y1204498D01*
D02*
G37*
G36*
X-550500Y1196998D02*
X-555500D01*
Y1201998D01*
X-550500D01*
Y1196998D01*
D02*
G37*
G36*
X-543000D02*
X-548000D01*
Y1201998D01*
X-543000D01*
Y1196998D01*
D02*
G37*
G36*
X-535500D02*
X-540500D01*
Y1201998D01*
X-535500D01*
Y1196998D01*
D02*
G37*
G36*
X-558000D02*
X-563000D01*
Y1201998D01*
X-558000D01*
Y1196998D01*
D02*
G37*
G36*
X-702000D02*
X-707000D01*
Y1201998D01*
X-702000D01*
Y1196998D01*
D02*
G37*
G36*
X-694500D02*
X-699500D01*
Y1201998D01*
X-694500D01*
Y1196998D01*
D02*
G37*
G36*
X-687000D02*
X-692000D01*
Y1201998D01*
X-687000D01*
Y1196998D01*
D02*
G37*
G36*
X-528000D02*
X-533000D01*
Y1201998D01*
X-528000D01*
Y1196998D01*
D02*
G37*
G36*
X-520500Y1196998D02*
X-525500D01*
Y1201998D01*
X-520500D01*
Y1196998D01*
D02*
G37*
G36*
X-513000D02*
X-518000D01*
Y1201998D01*
X-513000D01*
Y1196998D01*
D02*
G37*
G36*
X-854500Y1204498D02*
X-859500D01*
Y1209498D01*
X-854500D01*
Y1204498D01*
D02*
G37*
G36*
X-672000Y1196998D02*
X-677000D01*
Y1201998D01*
X-672000D01*
Y1196998D01*
D02*
G37*
G36*
X-839500D02*
X-844500D01*
Y1201998D01*
X-839500D01*
Y1196998D01*
D02*
G37*
G36*
X-832000D02*
X-837000D01*
Y1201998D01*
X-832000D01*
Y1196998D01*
D02*
G37*
G36*
X-679500D02*
X-684500D01*
Y1201998D01*
X-679500D01*
Y1196998D01*
D02*
G37*
G36*
X-854500Y1134448D02*
X-859500D01*
Y1139448D01*
X-854500D01*
Y1134448D01*
D02*
G37*
G36*
X-847000D02*
X-852000D01*
Y1139448D01*
X-847000D01*
Y1134448D01*
D02*
G37*
G36*
X-702000D02*
X-707000D01*
Y1139448D01*
X-702000D01*
Y1134448D01*
D02*
G37*
G36*
X-862000D02*
X-867000D01*
Y1139448D01*
X-862000D01*
Y1134448D01*
D02*
G37*
G36*
X-869500Y1131948D02*
X-874500D01*
Y1136948D01*
X-869500D01*
Y1131948D01*
D02*
G37*
G36*
X-709500D02*
X-714500D01*
Y1136948D01*
X-709500D01*
Y1131948D01*
D02*
G37*
G36*
X-550500D02*
X-555500D01*
Y1136948D01*
X-550500D01*
Y1131948D01*
D02*
G37*
G36*
X-694500Y1134448D02*
X-699500D01*
Y1139448D01*
X-694500D01*
Y1134448D01*
D02*
G37*
G36*
X-862000Y1141948D02*
X-867000D01*
Y1146948D01*
X-862000D01*
Y1141948D01*
D02*
G37*
G36*
X-854500D02*
X-859500D01*
Y1146948D01*
X-854500D01*
Y1141948D01*
D02*
G37*
G36*
X-847000D02*
X-852000D01*
Y1146948D01*
X-847000D01*
Y1141948D01*
D02*
G37*
G36*
X-528000Y1134448D02*
X-533000D01*
Y1139448D01*
X-528000D01*
Y1134448D01*
D02*
G37*
G36*
X-687000D02*
X-692000D01*
Y1139448D01*
X-687000D01*
Y1134448D01*
D02*
G37*
G36*
X-543000D02*
X-548000D01*
Y1139448D01*
X-543000D01*
Y1134448D01*
D02*
G37*
G36*
X-535500D02*
X-540500D01*
Y1139448D01*
X-535500D01*
Y1134448D01*
D02*
G37*
G36*
X-528000Y1126948D02*
X-533000D01*
Y1131948D01*
X-528000D01*
Y1126948D01*
D02*
G37*
G36*
X-543000Y1119448D02*
X-548000D01*
Y1124448D01*
X-543000D01*
Y1119448D01*
D02*
G37*
G36*
X-535500D02*
X-540500D01*
Y1124448D01*
X-535500D01*
Y1119448D01*
D02*
G37*
G36*
X-528000D02*
X-533000D01*
Y1124448D01*
X-528000D01*
Y1119448D01*
D02*
G37*
G36*
X-550500D02*
X-555500D01*
Y1124448D01*
X-550500D01*
Y1119448D01*
D02*
G37*
G36*
X-702000D02*
X-707000D01*
Y1124448D01*
X-702000D01*
Y1119448D01*
D02*
G37*
G36*
X-694500D02*
X-699500D01*
Y1124448D01*
X-694500D01*
Y1119448D01*
D02*
G37*
G36*
X-687000D02*
X-692000D01*
Y1124448D01*
X-687000D01*
Y1119448D01*
D02*
G37*
G36*
X-862000Y1126948D02*
X-867000D01*
Y1131948D01*
X-862000D01*
Y1126948D01*
D02*
G37*
G36*
X-687000D02*
X-692000D01*
Y1131948D01*
X-687000D01*
Y1126948D01*
D02*
G37*
G36*
X-543000D02*
X-548000D01*
Y1131948D01*
X-543000D01*
Y1126948D01*
D02*
G37*
G36*
X-535500D02*
X-540500D01*
Y1131948D01*
X-535500D01*
Y1126948D01*
D02*
G37*
G36*
X-694500D02*
X-699500D01*
Y1131948D01*
X-694500D01*
Y1126948D01*
D02*
G37*
G36*
X-854500D02*
X-859500D01*
Y1131948D01*
X-854500D01*
Y1126948D01*
D02*
G37*
G36*
X-847000D02*
X-852000D01*
Y1131948D01*
X-847000D01*
Y1126948D01*
D02*
G37*
G36*
X-702000D02*
X-707000D01*
Y1131948D01*
X-702000D01*
Y1126948D01*
D02*
G37*
G36*
X-702000Y1141948D02*
X-707000D01*
Y1146948D01*
X-702000D01*
Y1141948D01*
D02*
G37*
G36*
X-513000Y1181998D02*
X-518000D01*
Y1186998D01*
X-513000D01*
Y1181998D01*
D02*
G37*
G36*
X-877000Y1181998D02*
X-882000D01*
Y1186998D01*
X-877000D01*
Y1181998D01*
D02*
G37*
G36*
X-869500D02*
X-874500D01*
Y1186998D01*
X-869500D01*
Y1181998D01*
D02*
G37*
G36*
X-520500Y1181998D02*
X-525500D01*
Y1186998D01*
X-520500D01*
Y1181998D01*
D02*
G37*
G36*
X-679500D02*
X-684500D01*
Y1186998D01*
X-679500D01*
Y1181998D01*
D02*
G37*
G36*
X-672000D02*
X-677000D01*
Y1186998D01*
X-672000D01*
Y1181998D01*
D02*
G37*
G36*
X-528000D02*
X-533000D01*
Y1186998D01*
X-528000D01*
Y1181998D01*
D02*
G37*
G36*
X-862000Y1181998D02*
X-867000D01*
Y1186998D01*
X-862000D01*
Y1181998D01*
D02*
G37*
G36*
X-694500D02*
X-699500D01*
Y1186998D01*
X-694500D01*
Y1181998D01*
D02*
G37*
G36*
X-558000D02*
X-563000D01*
Y1186998D01*
X-558000D01*
Y1181998D01*
D02*
G37*
G36*
X-550500D02*
X-555500D01*
Y1186998D01*
X-550500D01*
Y1181998D01*
D02*
G37*
G36*
X-702000D02*
X-707000D01*
Y1186998D01*
X-702000D01*
Y1181998D01*
D02*
G37*
G36*
X-854500D02*
X-859500D01*
Y1186998D01*
X-854500D01*
Y1181998D01*
D02*
G37*
G36*
X-717000D02*
X-722000D01*
Y1186998D01*
X-717000D01*
Y1181998D01*
D02*
G37*
G36*
X-709500D02*
X-714500D01*
Y1186998D01*
X-709500D01*
Y1181998D01*
D02*
G37*
G36*
X-687000Y1181998D02*
X-692000D01*
Y1186998D01*
X-687000D01*
Y1181998D01*
D02*
G37*
G36*
X-528000Y1141948D02*
X-533000D01*
Y1146948D01*
X-528000D01*
Y1141948D01*
D02*
G37*
G36*
X-346000Y1146650D02*
X-364000D01*
Y1164650D01*
X-346000D01*
Y1146650D01*
D02*
G37*
G36*
X-325000D02*
X-343000D01*
Y1164650D01*
X-325000D01*
Y1146650D01*
D02*
G37*
G36*
X-535500Y1141948D02*
X-540500D01*
Y1146948D01*
X-535500D01*
Y1141948D01*
D02*
G37*
G36*
X-694500D02*
X-699500D01*
Y1146948D01*
X-694500D01*
Y1141948D01*
D02*
G37*
G36*
X-687000D02*
X-692000D01*
Y1146948D01*
X-687000D01*
Y1141948D01*
D02*
G37*
G36*
X-543000D02*
X-548000D01*
Y1146948D01*
X-543000D01*
Y1141948D01*
D02*
G37*
G36*
X-304000Y1146650D02*
X-322000D01*
Y1164650D01*
X-304000D01*
Y1146650D01*
D02*
G37*
G36*
X-847000Y1181998D02*
X-852000D01*
Y1186998D01*
X-847000D01*
Y1181998D01*
D02*
G37*
G36*
X-839500D02*
X-844500D01*
Y1186998D01*
X-839500D01*
Y1181998D01*
D02*
G37*
G36*
X-832000D02*
X-837000D01*
Y1186998D01*
X-832000D01*
Y1181998D01*
D02*
G37*
G36*
X-262000Y1167650D02*
X-280000D01*
Y1185650D01*
X-262000D01*
Y1167650D01*
D02*
G37*
G36*
X-283000Y1146650D02*
X-301000D01*
Y1164650D01*
X-283000D01*
Y1146650D01*
D02*
G37*
G36*
X-262000D02*
X-280000D01*
Y1164650D01*
X-262000D01*
Y1146650D01*
D02*
G37*
G36*
X-283000Y1167650D02*
X-301000D01*
Y1185650D01*
X-283000D01*
Y1167650D01*
D02*
G37*
G36*
X-725000Y725000D02*
X-730000D01*
Y730000D01*
X-725000D01*
Y725000D01*
D02*
G37*
G36*
X-570000D02*
X-575000D01*
Y730000D01*
X-570000D01*
Y725000D01*
D02*
G37*
G36*
X-562500D02*
X-567500D01*
Y730000D01*
X-562500D01*
Y725000D01*
D02*
G37*
G36*
X-732500D02*
X-737500D01*
Y730000D01*
X-732500D01*
Y725000D01*
D02*
G37*
G36*
X-755000D02*
X-760000D01*
Y730000D01*
X-755000D01*
Y725000D01*
D02*
G37*
G36*
X-747500D02*
X-752500D01*
Y730000D01*
X-747500D01*
Y725000D01*
D02*
G37*
G36*
X-740000D02*
X-745000D01*
Y730000D01*
X-740000D01*
Y725000D01*
D02*
G37*
G36*
X-555000D02*
X-560000D01*
Y730000D01*
X-555000D01*
Y725000D01*
D02*
G37*
G36*
X-370000D02*
X-375000D01*
Y730000D01*
X-370000D01*
Y725000D01*
D02*
G37*
G36*
X-362500D02*
X-367500D01*
Y730000D01*
X-362500D01*
Y725000D01*
D02*
G37*
G36*
X-355000D02*
X-360000D01*
Y730000D01*
X-355000D01*
Y725000D01*
D02*
G37*
G36*
X-525000D02*
X-530000D01*
Y730000D01*
X-525000D01*
Y725000D01*
D02*
G37*
G36*
X-547500D02*
X-552500D01*
Y730000D01*
X-547500D01*
Y725000D01*
D02*
G37*
G36*
X-540000D02*
X-545000D01*
Y730000D01*
X-540000D01*
Y725000D01*
D02*
G37*
G36*
X-532500D02*
X-537500D01*
Y730000D01*
X-532500D01*
Y725000D01*
D02*
G37*
G36*
X-762500D02*
X-767500D01*
Y730000D01*
X-762500D01*
Y725000D01*
D02*
G37*
G36*
X-340000Y570000D02*
X-345000D01*
Y575000D01*
X-340000D01*
Y570000D01*
D02*
G37*
G36*
X-332500D02*
X-337500D01*
Y575000D01*
X-332500D01*
Y570000D01*
D02*
G37*
G36*
X-325000D02*
X-330000D01*
Y575000D01*
X-325000D01*
Y570000D01*
D02*
G37*
G36*
X-347500D02*
X-352500D01*
Y575000D01*
X-347500D01*
Y570000D01*
D02*
G37*
G36*
X-370000D02*
X-375000D01*
Y575000D01*
X-370000D01*
Y570000D01*
D02*
G37*
G36*
X-362500D02*
X-367500D01*
Y575000D01*
X-362500D01*
Y570000D01*
D02*
G37*
G36*
X-355000D02*
X-360000D01*
Y575000D01*
X-355000D01*
Y570000D01*
D02*
G37*
G36*
X-170000D02*
X-175000D01*
Y575000D01*
X-170000D01*
Y570000D01*
D02*
G37*
G36*
X-132500D02*
X-137500D01*
Y575000D01*
X-132500D01*
Y570000D01*
D02*
G37*
G36*
X-125000D02*
X-130000D01*
Y575000D01*
X-125000D01*
Y570000D01*
D02*
G37*
G36*
X-770000Y725000D02*
X-775000D01*
Y730000D01*
X-770000D01*
Y725000D01*
D02*
G37*
G36*
X-140000Y570000D02*
X-145000D01*
Y575000D01*
X-140000D01*
Y570000D01*
D02*
G37*
G36*
X-162500D02*
X-167500D01*
Y575000D01*
X-162500D01*
Y570000D01*
D02*
G37*
G36*
X-155000D02*
X-160000D01*
Y575000D01*
X-155000D01*
Y570000D01*
D02*
G37*
G36*
X-147500D02*
X-152500D01*
Y575000D01*
X-147500D01*
Y570000D01*
D02*
G37*
G36*
X-347500Y725000D02*
X-352500D01*
Y730000D01*
X-347500D01*
Y725000D01*
D02*
G37*
G36*
X-547500Y732500D02*
X-552500D01*
Y737500D01*
X-547500D01*
Y732500D01*
D02*
G37*
G36*
X-540000D02*
X-545000D01*
Y737500D01*
X-540000D01*
Y732500D01*
D02*
G37*
G36*
X-532500D02*
X-537500D01*
Y737500D01*
X-532500D01*
Y732500D01*
D02*
G37*
G36*
X-555000D02*
X-560000D01*
Y737500D01*
X-555000D01*
Y732500D01*
D02*
G37*
G36*
X-725000D02*
X-730000D01*
Y737500D01*
X-725000D01*
Y732500D01*
D02*
G37*
G36*
X-570000D02*
X-575000D01*
Y737500D01*
X-570000D01*
Y732500D01*
D02*
G37*
G36*
X-562500D02*
X-567500D01*
Y737500D01*
X-562500D01*
Y732500D01*
D02*
G37*
G36*
X-525000D02*
X-530000D01*
Y737500D01*
X-525000D01*
Y732500D01*
D02*
G37*
G36*
X-340000D02*
X-345000D01*
Y737500D01*
X-340000D01*
Y732500D01*
D02*
G37*
G36*
X-332500D02*
X-337500D01*
Y737500D01*
X-332500D01*
Y732500D01*
D02*
G37*
G36*
X-325000D02*
X-330000D01*
Y737500D01*
X-325000D01*
Y732500D01*
D02*
G37*
G36*
X-347500D02*
X-352500D01*
Y737500D01*
X-347500D01*
Y732500D01*
D02*
G37*
G36*
X-370000D02*
X-375000D01*
Y737500D01*
X-370000D01*
Y732500D01*
D02*
G37*
G36*
X-362500D02*
X-367500D01*
Y737500D01*
X-362500D01*
Y732500D01*
D02*
G37*
G36*
X-355000D02*
X-360000D01*
Y737500D01*
X-355000D01*
Y732500D01*
D02*
G37*
G36*
X-732500D02*
X-737500D01*
Y737500D01*
X-732500D01*
Y732500D01*
D02*
G37*
G36*
X-162500Y725000D02*
X-167500D01*
Y730000D01*
X-162500D01*
Y725000D01*
D02*
G37*
G36*
X-155000D02*
X-160000D01*
Y730000D01*
X-155000D01*
Y725000D01*
D02*
G37*
G36*
X-147500D02*
X-152500D01*
Y730000D01*
X-147500D01*
Y725000D01*
D02*
G37*
G36*
X-170000D02*
X-175000D01*
Y730000D01*
X-170000D01*
Y725000D01*
D02*
G37*
G36*
X-340000D02*
X-345000D01*
Y730000D01*
X-340000D01*
Y725000D01*
D02*
G37*
G36*
X-332500D02*
X-337500D01*
Y730000D01*
X-332500D01*
Y725000D01*
D02*
G37*
G36*
X-325000D02*
X-330000D01*
Y730000D01*
X-325000D01*
Y725000D01*
D02*
G37*
G36*
X-140000D02*
X-145000D01*
Y730000D01*
X-140000D01*
Y725000D01*
D02*
G37*
G36*
X-755000Y732500D02*
X-760000D01*
Y737500D01*
X-755000D01*
Y732500D01*
D02*
G37*
G36*
X-747500D02*
X-752500D01*
Y737500D01*
X-747500D01*
Y732500D01*
D02*
G37*
G36*
X-740000D02*
X-745000D01*
Y737500D01*
X-740000D01*
Y732500D01*
D02*
G37*
G36*
X-762500D02*
X-767500D01*
Y737500D01*
X-762500D01*
Y732500D01*
D02*
G37*
G36*
X-132500Y725000D02*
X-137500D01*
Y730000D01*
X-132500D01*
Y725000D01*
D02*
G37*
G36*
X-125000D02*
X-130000D01*
Y730000D01*
X-125000D01*
Y725000D01*
D02*
G37*
G36*
X-770000Y732500D02*
X-775000D01*
Y737500D01*
X-770000D01*
Y732500D01*
D02*
G37*
G36*
X-325000Y555000D02*
X-330000D01*
Y560000D01*
X-325000D01*
Y555000D01*
D02*
G37*
G36*
X-770000Y562500D02*
X-775000D01*
Y567500D01*
X-770000D01*
Y562500D01*
D02*
G37*
G36*
X-762500D02*
X-767500D01*
Y567500D01*
X-762500D01*
Y562500D01*
D02*
G37*
G36*
X-332500Y555000D02*
X-337500D01*
Y560000D01*
X-332500D01*
Y555000D01*
D02*
G37*
G36*
X-355000D02*
X-360000D01*
Y560000D01*
X-355000D01*
Y555000D01*
D02*
G37*
G36*
X-347500D02*
X-352500D01*
Y560000D01*
X-347500D01*
Y555000D01*
D02*
G37*
G36*
X-340000D02*
X-345000D01*
Y560000D01*
X-340000D01*
Y555000D01*
D02*
G37*
G36*
X-755000Y562500D02*
X-760000D01*
Y567500D01*
X-755000D01*
Y562500D01*
D02*
G37*
G36*
X-570000D02*
X-575000D01*
Y567500D01*
X-570000D01*
Y562500D01*
D02*
G37*
G36*
X-562500D02*
X-567500D01*
Y567500D01*
X-562500D01*
Y562500D01*
D02*
G37*
G36*
X-555000D02*
X-560000D01*
Y567500D01*
X-555000D01*
Y562500D01*
D02*
G37*
G36*
X-725000D02*
X-730000D01*
Y567500D01*
X-725000D01*
Y562500D01*
D02*
G37*
G36*
X-747500D02*
X-752500D01*
Y567500D01*
X-747500D01*
Y562500D01*
D02*
G37*
G36*
X-740000D02*
X-745000D01*
Y567500D01*
X-740000D01*
Y562500D01*
D02*
G37*
G36*
X-732500D02*
X-737500D01*
Y567500D01*
X-732500D01*
Y562500D01*
D02*
G37*
G36*
X-362500Y555000D02*
X-367500D01*
Y560000D01*
X-362500D01*
Y555000D01*
D02*
G37*
G36*
X-140000Y555000D02*
X-145000D01*
Y560000D01*
X-140000D01*
Y555000D01*
D02*
G37*
G36*
X-132500D02*
X-137500D01*
Y560000D01*
X-132500D01*
Y555000D01*
D02*
G37*
G36*
X-125000D02*
X-130000D01*
Y560000D01*
X-125000D01*
Y555000D01*
D02*
G37*
G36*
X-147500D02*
X-152500D01*
Y560000D01*
X-147500D01*
Y555000D01*
D02*
G37*
G36*
X-170000D02*
X-175000D01*
Y560000D01*
X-170000D01*
Y555000D01*
D02*
G37*
G36*
X-162500D02*
X-167500D01*
Y560000D01*
X-162500D01*
Y555000D01*
D02*
G37*
G36*
X-155000D02*
X-160000D01*
Y560000D01*
X-155000D01*
Y555000D01*
D02*
G37*
G36*
X-770000Y555000D02*
X-775000D01*
Y560000D01*
X-770000D01*
Y555000D01*
D02*
G37*
G36*
X-732500D02*
X-737500D01*
Y560000D01*
X-732500D01*
Y555000D01*
D02*
G37*
G36*
X-725000D02*
X-730000D01*
Y560000D01*
X-725000D01*
Y555000D01*
D02*
G37*
G36*
X-370000D02*
X-375000D01*
Y560000D01*
X-370000D01*
Y555000D01*
D02*
G37*
G36*
X-740000D02*
X-745000D01*
Y560000D01*
X-740000D01*
Y555000D01*
D02*
G37*
G36*
X-762500D02*
X-767500D01*
Y560000D01*
X-762500D01*
Y555000D01*
D02*
G37*
G36*
X-755000D02*
X-760000D01*
Y560000D01*
X-755000D01*
Y555000D01*
D02*
G37*
G36*
X-747500D02*
X-752500D01*
Y560000D01*
X-747500D01*
Y555000D01*
D02*
G37*
G36*
X-547500Y562500D02*
X-552500D01*
Y567500D01*
X-547500D01*
Y562500D01*
D02*
G37*
G36*
X-747500Y570000D02*
X-752500D01*
Y575000D01*
X-747500D01*
Y570000D01*
D02*
G37*
G36*
X-740000D02*
X-745000D01*
Y575000D01*
X-740000D01*
Y570000D01*
D02*
G37*
G36*
X-732500D02*
X-737500D01*
Y575000D01*
X-732500D01*
Y570000D01*
D02*
G37*
G36*
X-755000D02*
X-760000D01*
Y575000D01*
X-755000D01*
Y570000D01*
D02*
G37*
G36*
X-125000Y562500D02*
X-130000D01*
Y567500D01*
X-125000D01*
Y562500D01*
D02*
G37*
G36*
X-770000Y570000D02*
X-775000D01*
Y575000D01*
X-770000D01*
Y570000D01*
D02*
G37*
G36*
X-762500D02*
X-767500D01*
Y575000D01*
X-762500D01*
Y570000D01*
D02*
G37*
G36*
X-725000D02*
X-730000D01*
Y575000D01*
X-725000D01*
Y570000D01*
D02*
G37*
G36*
X-540000D02*
X-545000D01*
Y575000D01*
X-540000D01*
Y570000D01*
D02*
G37*
G36*
X-532500D02*
X-537500D01*
Y575000D01*
X-532500D01*
Y570000D01*
D02*
G37*
G36*
X-525000D02*
X-530000D01*
Y575000D01*
X-525000D01*
Y570000D01*
D02*
G37*
G36*
X-547500D02*
X-552500D01*
Y575000D01*
X-547500D01*
Y570000D01*
D02*
G37*
G36*
X-570000D02*
X-575000D01*
Y575000D01*
X-570000D01*
Y570000D01*
D02*
G37*
G36*
X-562500D02*
X-567500D01*
Y575000D01*
X-562500D01*
Y570000D01*
D02*
G37*
G36*
X-555000D02*
X-560000D01*
Y575000D01*
X-555000D01*
Y570000D01*
D02*
G37*
G36*
X-132500Y562500D02*
X-137500D01*
Y567500D01*
X-132500D01*
Y562500D01*
D02*
G37*
G36*
X-362500D02*
X-367500D01*
Y567500D01*
X-362500D01*
Y562500D01*
D02*
G37*
G36*
X-355000D02*
X-360000D01*
Y567500D01*
X-355000D01*
Y562500D01*
D02*
G37*
G36*
X-347500D02*
X-352500D01*
Y567500D01*
X-347500D01*
Y562500D01*
D02*
G37*
G36*
X-370000D02*
X-375000D01*
Y567500D01*
X-370000D01*
Y562500D01*
D02*
G37*
G36*
X-540000D02*
X-545000D01*
Y567500D01*
X-540000D01*
Y562500D01*
D02*
G37*
G36*
X-532500D02*
X-537500D01*
Y567500D01*
X-532500D01*
Y562500D01*
D02*
G37*
G36*
X-525000D02*
X-530000D01*
Y567500D01*
X-525000D01*
Y562500D01*
D02*
G37*
G36*
X-340000D02*
X-345000D01*
Y567500D01*
X-340000D01*
Y562500D01*
D02*
G37*
G36*
X-155000D02*
X-160000D01*
Y567500D01*
X-155000D01*
Y562500D01*
D02*
G37*
G36*
X-147500D02*
X-152500D01*
Y567500D01*
X-147500D01*
Y562500D01*
D02*
G37*
G36*
X-140000D02*
X-145000D01*
Y567500D01*
X-140000D01*
Y562500D01*
D02*
G37*
G36*
X-162500D02*
X-167500D01*
Y567500D01*
X-162500D01*
Y562500D01*
D02*
G37*
G36*
X-332500D02*
X-337500D01*
Y567500D01*
X-332500D01*
Y562500D01*
D02*
G37*
G36*
X-325000D02*
X-330000D01*
Y567500D01*
X-325000D01*
Y562500D01*
D02*
G37*
G36*
X-170000D02*
X-175000D01*
Y567500D01*
X-170000D01*
Y562500D01*
D02*
G37*
G36*
Y732500D02*
X-175000D01*
Y737500D01*
X-170000D01*
Y732500D01*
D02*
G37*
G36*
X-370000Y755000D02*
X-375000D01*
Y760000D01*
X-370000D01*
Y755000D01*
D02*
G37*
G36*
X-362500D02*
X-367500D01*
Y760000D01*
X-362500D01*
Y755000D01*
D02*
G37*
G36*
X-355000D02*
X-360000D01*
Y760000D01*
X-355000D01*
Y755000D01*
D02*
G37*
G36*
X-725000D02*
X-730000D01*
Y760000D01*
X-725000D01*
Y755000D01*
D02*
G37*
G36*
X-747500D02*
X-752500D01*
Y760000D01*
X-747500D01*
Y755000D01*
D02*
G37*
G36*
X-740000D02*
X-745000D01*
Y760000D01*
X-740000D01*
Y755000D01*
D02*
G37*
G36*
X-732500D02*
X-737500D01*
Y760000D01*
X-732500D01*
Y755000D01*
D02*
G37*
G36*
X-347500D02*
X-352500D01*
Y760000D01*
X-347500D01*
Y755000D01*
D02*
G37*
G36*
X-762500Y762500D02*
X-767500D01*
Y767500D01*
X-762500D01*
Y762500D01*
D02*
G37*
G36*
X-755000D02*
X-760000D01*
Y767500D01*
X-755000D01*
Y762500D01*
D02*
G37*
G36*
X-747500D02*
X-752500D01*
Y767500D01*
X-747500D01*
Y762500D01*
D02*
G37*
G36*
X-770000D02*
X-775000D01*
Y767500D01*
X-770000D01*
Y762500D01*
D02*
G37*
G36*
X-340000Y755000D02*
X-345000D01*
Y760000D01*
X-340000D01*
Y755000D01*
D02*
G37*
G36*
X-332500D02*
X-337500D01*
Y760000D01*
X-332500D01*
Y755000D01*
D02*
G37*
G36*
X-325000D02*
X-330000D01*
Y760000D01*
X-325000D01*
Y755000D01*
D02*
G37*
G36*
X-755000D02*
X-760000D01*
Y760000D01*
X-755000D01*
Y755000D01*
D02*
G37*
G36*
X-532500Y755000D02*
X-537500D01*
Y760000D01*
X-532500D01*
Y755000D01*
D02*
G37*
G36*
X-525000D02*
X-530000D01*
Y760000D01*
X-525000D01*
Y755000D01*
D02*
G37*
G36*
X-170000D02*
X-175000D01*
Y760000D01*
X-170000D01*
Y755000D01*
D02*
G37*
G36*
X-540000D02*
X-545000D01*
Y760000D01*
X-540000D01*
Y755000D01*
D02*
G37*
G36*
X-562500D02*
X-567500D01*
Y760000D01*
X-562500D01*
Y755000D01*
D02*
G37*
G36*
X-555000D02*
X-560000D01*
Y760000D01*
X-555000D01*
Y755000D01*
D02*
G37*
G36*
X-547500D02*
X-552500D01*
Y760000D01*
X-547500D01*
Y755000D01*
D02*
G37*
G36*
X-162500D02*
X-167500D01*
Y760000D01*
X-162500D01*
Y755000D01*
D02*
G37*
G36*
X-125000D02*
X-130000D01*
Y760000D01*
X-125000D01*
Y755000D01*
D02*
G37*
G36*
X-770000Y755000D02*
X-775000D01*
Y760000D01*
X-770000D01*
Y755000D01*
D02*
G37*
G36*
X-762500D02*
X-767500D01*
Y760000D01*
X-762500D01*
Y755000D01*
D02*
G37*
G36*
X-132500Y755000D02*
X-137500D01*
Y760000D01*
X-132500D01*
Y755000D01*
D02*
G37*
G36*
X-155000D02*
X-160000D01*
Y760000D01*
X-155000D01*
Y755000D01*
D02*
G37*
G36*
X-147500D02*
X-152500D01*
Y760000D01*
X-147500D01*
Y755000D01*
D02*
G37*
G36*
X-140000D02*
X-145000D01*
Y760000D01*
X-140000D01*
Y755000D01*
D02*
G37*
G36*
X-740000Y762500D02*
X-745000D01*
Y767500D01*
X-740000D01*
Y762500D01*
D02*
G37*
G36*
X-140000D02*
X-145000D01*
Y767500D01*
X-140000D01*
Y762500D01*
D02*
G37*
G36*
X-132500D02*
X-137500D01*
Y767500D01*
X-132500D01*
Y762500D01*
D02*
G37*
G36*
X-125000D02*
X-130000D01*
Y767500D01*
X-125000D01*
Y762500D01*
D02*
G37*
G36*
X-147500D02*
X-152500D01*
Y767500D01*
X-147500D01*
Y762500D01*
D02*
G37*
G36*
X-170000D02*
X-175000D01*
Y767500D01*
X-170000D01*
Y762500D01*
D02*
G37*
G36*
X-162500D02*
X-167500D01*
Y767500D01*
X-162500D01*
Y762500D01*
D02*
G37*
G36*
X-155000D02*
X-160000D01*
Y767500D01*
X-155000D01*
Y762500D01*
D02*
G37*
G36*
X-770000Y770000D02*
X-775000D01*
Y775000D01*
X-770000D01*
Y770000D01*
D02*
G37*
G36*
X-732500D02*
X-737500D01*
Y775000D01*
X-732500D01*
Y770000D01*
D02*
G37*
G36*
X-725000D02*
X-730000D01*
Y775000D01*
X-725000D01*
Y770000D01*
D02*
G37*
G36*
X-570000D02*
X-575000D01*
Y775000D01*
X-570000D01*
Y770000D01*
D02*
G37*
G36*
X-740000D02*
X-745000D01*
Y775000D01*
X-740000D01*
Y770000D01*
D02*
G37*
G36*
X-762500D02*
X-767500D01*
Y775000D01*
X-762500D01*
Y770000D01*
D02*
G37*
G36*
X-755000D02*
X-760000D01*
Y775000D01*
X-755000D01*
Y770000D01*
D02*
G37*
G36*
X-747500D02*
X-752500D01*
Y775000D01*
X-747500D01*
Y770000D01*
D02*
G37*
G36*
X-325000Y762500D02*
X-330000D01*
Y767500D01*
X-325000D01*
Y762500D01*
D02*
G37*
G36*
X-555000D02*
X-560000D01*
Y767500D01*
X-555000D01*
Y762500D01*
D02*
G37*
G36*
X-547500D02*
X-552500D01*
Y767500D01*
X-547500D01*
Y762500D01*
D02*
G37*
G36*
X-540000D02*
X-545000D01*
Y767500D01*
X-540000D01*
Y762500D01*
D02*
G37*
G36*
X-562500D02*
X-567500D01*
Y767500D01*
X-562500D01*
Y762500D01*
D02*
G37*
G36*
X-732500D02*
X-737500D01*
Y767500D01*
X-732500D01*
Y762500D01*
D02*
G37*
G36*
X-725000D02*
X-730000D01*
Y767500D01*
X-725000D01*
Y762500D01*
D02*
G37*
G36*
X-570000D02*
X-575000D01*
Y767500D01*
X-570000D01*
Y762500D01*
D02*
G37*
G36*
X-532500D02*
X-537500D01*
Y767500D01*
X-532500D01*
Y762500D01*
D02*
G37*
G36*
X-347500D02*
X-352500D01*
Y767500D01*
X-347500D01*
Y762500D01*
D02*
G37*
G36*
X-340000D02*
X-345000D01*
Y767500D01*
X-340000D01*
Y762500D01*
D02*
G37*
G36*
X-332500D02*
X-337500D01*
Y767500D01*
X-332500D01*
Y762500D01*
D02*
G37*
G36*
X-355000D02*
X-360000D01*
Y767500D01*
X-355000D01*
Y762500D01*
D02*
G37*
G36*
X-525000D02*
X-530000D01*
Y767500D01*
X-525000D01*
Y762500D01*
D02*
G37*
G36*
X-370000D02*
X-375000D01*
Y767500D01*
X-370000D01*
Y762500D01*
D02*
G37*
G36*
X-362500D02*
X-367500D01*
Y767500D01*
X-362500D01*
Y762500D01*
D02*
G37*
G36*
X-755000Y740000D02*
X-760000D01*
Y745000D01*
X-755000D01*
Y740000D01*
D02*
G37*
G36*
X-762500D02*
X-767500D01*
Y745000D01*
X-762500D01*
Y740000D01*
D02*
G37*
G36*
X-740000D02*
X-745000D01*
Y745000D01*
X-740000D01*
Y740000D01*
D02*
G37*
G36*
X-747500D02*
X-752500D01*
Y745000D01*
X-747500D01*
Y740000D01*
D02*
G37*
G36*
X-132500Y740000D02*
X-137500D01*
Y745000D01*
X-132500D01*
Y740000D01*
D02*
G37*
G36*
X-140000D02*
X-145000D01*
Y745000D01*
X-140000D01*
Y740000D01*
D02*
G37*
G36*
X-770000Y740000D02*
X-775000D01*
Y745000D01*
X-770000D01*
Y740000D01*
D02*
G37*
G36*
X-125000Y740000D02*
X-130000D01*
Y745000D01*
X-125000D01*
Y740000D01*
D02*
G37*
G36*
X-347500Y740000D02*
X-352500D01*
Y745000D01*
X-347500D01*
Y740000D01*
D02*
G37*
G36*
X-355000D02*
X-360000D01*
Y745000D01*
X-355000D01*
Y740000D01*
D02*
G37*
G36*
X-332500D02*
X-337500D01*
Y745000D01*
X-332500D01*
Y740000D01*
D02*
G37*
G36*
X-340000D02*
X-345000D01*
Y745000D01*
X-340000D01*
Y740000D01*
D02*
G37*
G36*
X-725000D02*
X-730000D01*
Y745000D01*
X-725000D01*
Y740000D01*
D02*
G37*
G36*
X-732500D02*
X-737500D01*
Y745000D01*
X-732500D01*
Y740000D01*
D02*
G37*
G36*
X-362500D02*
X-367500D01*
Y745000D01*
X-362500D01*
Y740000D01*
D02*
G37*
G36*
X-370000D02*
X-375000D01*
Y745000D01*
X-370000D01*
Y740000D01*
D02*
G37*
G36*
X-147500Y740000D02*
X-152500D01*
Y745000D01*
X-147500D01*
Y740000D01*
D02*
G37*
G36*
X-125000Y732500D02*
X-130000D01*
Y737500D01*
X-125000D01*
Y732500D01*
D02*
G37*
G36*
X-132500D02*
X-137500D01*
Y737500D01*
X-132500D01*
Y732500D01*
D02*
G37*
G36*
X-562500Y740000D02*
X-567500D01*
Y745000D01*
X-562500D01*
Y740000D01*
D02*
G37*
G36*
X-570000D02*
X-575000D01*
Y745000D01*
X-570000D01*
Y740000D01*
D02*
G37*
G36*
X-155000Y732500D02*
X-160000D01*
Y737500D01*
X-155000D01*
Y732500D01*
D02*
G37*
G36*
X-162500D02*
X-167500D01*
Y737500D01*
X-162500D01*
Y732500D01*
D02*
G37*
G36*
X-140000D02*
X-145000D01*
Y737500D01*
X-140000D01*
Y732500D01*
D02*
G37*
G36*
X-147500D02*
X-152500D01*
Y737500D01*
X-147500D01*
Y732500D01*
D02*
G37*
G36*
X-170000Y740000D02*
X-175000D01*
Y745000D01*
X-170000D01*
Y740000D01*
D02*
G37*
G36*
X-525000D02*
X-530000D01*
Y745000D01*
X-525000D01*
Y740000D01*
D02*
G37*
G36*
X-155000D02*
X-160000D01*
Y745000D01*
X-155000D01*
Y740000D01*
D02*
G37*
G36*
X-162500D02*
X-167500D01*
Y745000D01*
X-162500D01*
Y740000D01*
D02*
G37*
G36*
X-547500D02*
X-552500D01*
Y745000D01*
X-547500D01*
Y740000D01*
D02*
G37*
G36*
X-555000D02*
X-560000D01*
Y745000D01*
X-555000D01*
Y740000D01*
D02*
G37*
G36*
X-532500D02*
X-537500D01*
Y745000D01*
X-532500D01*
Y740000D01*
D02*
G37*
G36*
X-540000D02*
X-545000D01*
Y745000D01*
X-540000D01*
Y740000D01*
D02*
G37*
G36*
X-340000Y747500D02*
X-345000D01*
Y752500D01*
X-340000D01*
Y747500D01*
D02*
G37*
G36*
X-347500D02*
X-352500D01*
Y752500D01*
X-347500D01*
Y747500D01*
D02*
G37*
G36*
X-325000D02*
X-330000D01*
Y752500D01*
X-325000D01*
Y747500D01*
D02*
G37*
G36*
X-332500D02*
X-337500D01*
Y752500D01*
X-332500D01*
Y747500D01*
D02*
G37*
G36*
X-370000D02*
X-375000D01*
Y752500D01*
X-370000D01*
Y747500D01*
D02*
G37*
G36*
X-525000D02*
X-530000D01*
Y752500D01*
X-525000D01*
Y747500D01*
D02*
G37*
G36*
X-355000D02*
X-360000D01*
Y752500D01*
X-355000D01*
Y747500D01*
D02*
G37*
G36*
X-362500D02*
X-367500D01*
Y752500D01*
X-362500D01*
Y747500D01*
D02*
G37*
G36*
X-132500D02*
X-137500D01*
Y752500D01*
X-132500D01*
Y747500D01*
D02*
G37*
G36*
X-140000D02*
X-145000D01*
Y752500D01*
X-140000D01*
Y747500D01*
D02*
G37*
G36*
X-570000Y755000D02*
X-575000D01*
Y760000D01*
X-570000D01*
Y755000D01*
D02*
G37*
G36*
X-125000Y747500D02*
X-130000D01*
Y752500D01*
X-125000D01*
Y747500D01*
D02*
G37*
G36*
X-162500D02*
X-167500D01*
Y752500D01*
X-162500D01*
Y747500D01*
D02*
G37*
G36*
X-170000D02*
X-175000D01*
Y752500D01*
X-170000D01*
Y747500D01*
D02*
G37*
G36*
X-147500D02*
X-152500D01*
Y752500D01*
X-147500D01*
Y747500D01*
D02*
G37*
G36*
X-155000D02*
X-160000D01*
Y752500D01*
X-155000D01*
Y747500D01*
D02*
G37*
G36*
X-747500D02*
X-752500D01*
Y752500D01*
X-747500D01*
Y747500D01*
D02*
G37*
G36*
X-740000D02*
X-745000D01*
Y752500D01*
X-740000D01*
Y747500D01*
D02*
G37*
G36*
X-732500D02*
X-737500D01*
Y752500D01*
X-732500D01*
Y747500D01*
D02*
G37*
G36*
X-755000D02*
X-760000D01*
Y752500D01*
X-755000D01*
Y747500D01*
D02*
G37*
G36*
X-325000Y740000D02*
X-330000D01*
Y745000D01*
X-325000D01*
Y740000D01*
D02*
G37*
G36*
X-770000Y747500D02*
X-775000D01*
Y752500D01*
X-770000D01*
Y747500D01*
D02*
G37*
G36*
X-762500D02*
X-767500D01*
Y752500D01*
X-762500D01*
Y747500D01*
D02*
G37*
G36*
X-555000D02*
X-560000D01*
Y752500D01*
X-555000D01*
Y747500D01*
D02*
G37*
G36*
X-562500D02*
X-567500D01*
Y752500D01*
X-562500D01*
Y747500D01*
D02*
G37*
G36*
X-547500D02*
X-552500D01*
Y752500D01*
X-547500D01*
Y747500D01*
D02*
G37*
G36*
X-532500D02*
X-537500D01*
Y752500D01*
X-532500D01*
Y747500D01*
D02*
G37*
G36*
X-540000D02*
X-545000D01*
Y752500D01*
X-540000D01*
Y747500D01*
D02*
G37*
G36*
X-570000D02*
X-575000D01*
Y752500D01*
X-570000D01*
Y747500D01*
D02*
G37*
G36*
X-725000D02*
X-730000D01*
Y752500D01*
X-725000D01*
Y747500D01*
D02*
G37*
%LPC*%
G36*
X-328999Y1188650D02*
X-333999D01*
Y1185650D01*
X-328999D01*
Y1188650D01*
D02*
G37*
G36*
X-322000Y1200645D02*
X-325000D01*
Y1194645D01*
X-322000D01*
Y1200645D01*
D02*
G37*
G36*
X-343000D02*
X-346000D01*
Y1194645D01*
X-343000D01*
Y1200645D01*
D02*
G37*
G36*
X-328999Y1209650D02*
X-333999D01*
Y1206650D01*
X-328999D01*
Y1209650D01*
D02*
G37*
%LPD*%
D10*
X-237000Y987500D02*
D03*
X-253000D02*
D03*
X-188000Y965750D02*
D03*
X-204000D02*
D03*
X-253000Y1035000D02*
D03*
X-237000D02*
D03*
X-12000Y995000D02*
D03*
X-28000D02*
D03*
X-87000Y977000D02*
D03*
X-71000D02*
D03*
X-96500Y1168500D02*
D03*
X-112500D02*
D03*
X-147750Y935000D02*
D03*
X-131750D02*
D03*
X-131500Y920250D02*
D03*
X-147500D02*
D03*
X-131500Y950000D02*
D03*
X-147500D02*
D03*
X-253000Y970750D02*
D03*
X-237000D02*
D03*
X-253000Y1050000D02*
D03*
X-237000D02*
D03*
X-253000Y1065000D02*
D03*
X-237000D02*
D03*
X-253000Y1017500D02*
D03*
X-237000D02*
D03*
X-39000Y1037000D02*
D03*
X-55000D02*
D03*
X-147500Y982500D02*
D03*
X-131500D02*
D03*
X-86500Y921500D02*
D03*
X-102500D02*
D03*
X-192000Y905000D02*
D03*
X-208000D02*
D03*
X-152000Y892500D02*
D03*
X-168000D02*
D03*
X-237000Y1002468D02*
D03*
X-253000D02*
D03*
D11*
X-759999Y1123002D02*
D03*
X-599999D02*
D03*
X-460499Y1047001D02*
D03*
Y1079501D02*
D03*
Y1112001D02*
D03*
X-619498Y1047001D02*
D03*
Y1079501D02*
D03*
Y1112001D02*
D03*
X-775000Y807500D02*
D03*
X-770000Y797500D02*
D03*
X-533000Y650000D02*
D03*
X-517000D02*
D03*
X-783000Y650000D02*
D03*
X-767000D02*
D03*
X-533000Y450000D02*
D03*
X-517000D02*
D03*
X-783000Y450000D02*
D03*
X-767000D02*
D03*
X-533000Y250000D02*
D03*
X-517000D02*
D03*
X-767000Y250000D02*
D03*
X-783000D02*
D03*
X-800000Y747500D02*
D03*
Y147500D02*
D03*
Y347500D02*
D03*
X-797500Y547500D02*
D03*
X-500000Y152500D02*
D03*
Y352500D02*
D03*
Y552500D02*
D03*
Y752500D02*
D03*
X-133000Y650000D02*
D03*
X-117000D02*
D03*
X-383000Y650000D02*
D03*
X-367000D02*
D03*
X-133000Y450000D02*
D03*
X-117000D02*
D03*
X-383000Y450000D02*
D03*
X-367000D02*
D03*
X-133000Y250000D02*
D03*
X-117000D02*
D03*
X-367000Y250000D02*
D03*
X-383000D02*
D03*
X-37500Y1275000D02*
D03*
X-400000Y747500D02*
D03*
Y147500D02*
D03*
Y347500D02*
D03*
X-397500Y547500D02*
D03*
X-100000Y152500D02*
D03*
Y352500D02*
D03*
Y552500D02*
D03*
Y752500D02*
D03*
X-863349Y1161999D02*
D03*
X-779499Y1112001D02*
D03*
Y1079501D02*
D03*
Y1047001D02*
D03*
X-759999Y1123001D02*
D03*
X-773999Y1153501D02*
D03*
X-798999Y1144501D02*
D03*
X-791999Y1166501D02*
D03*
X-778999Y1187501D02*
D03*
X-810999D02*
D03*
X-752999Y1179501D02*
D03*
X-826999Y1115599D02*
D03*
Y1053151D02*
D03*
X-666999D02*
D03*
Y1115599D02*
D03*
X-592999Y1179501D02*
D03*
X-650999Y1187501D02*
D03*
X-618999D02*
D03*
X-631999Y1166501D02*
D03*
X-638999Y1144501D02*
D03*
X-613999Y1153501D02*
D03*
X-599999Y1123001D02*
D03*
X-619499Y1047001D02*
D03*
Y1079501D02*
D03*
Y1112001D02*
D03*
X-703349Y1161999D02*
D03*
X-507999Y1053151D02*
D03*
Y1115599D02*
D03*
X-433999Y1179501D02*
D03*
X-491999Y1187501D02*
D03*
X-459999D02*
D03*
X-472999Y1166501D02*
D03*
X-479999Y1144501D02*
D03*
X-454999Y1153501D02*
D03*
X-440999Y1123001D02*
D03*
X-460499Y1047001D02*
D03*
Y1079501D02*
D03*
Y1112001D02*
D03*
X-544349Y1161999D02*
D03*
D12*
X-43499Y1002501D02*
D03*
X-68999D02*
D03*
X-94499D02*
D03*
X-119499D02*
D03*
D13*
X-144999D02*
D03*
D14*
X-32000Y1094000D02*
D03*
X-14000D02*
D03*
X-90500Y939250D02*
D03*
X-72500D02*
D03*
Y959500D02*
D03*
X-90500D02*
D03*
X-48499Y1230001D02*
D03*
X-66499D02*
D03*
X-391750Y1197250D02*
D03*
X-409750D02*
D03*
X-491001Y1166499D02*
D03*
X-473001D02*
D03*
X-650001D02*
D03*
X-632001D02*
D03*
X-810001D02*
D03*
X-792001D02*
D03*
D15*
X-90750Y1184500D02*
D03*
Y1200500D02*
D03*
X-71500Y905750D02*
D03*
Y921750D02*
D03*
X-117000Y935500D02*
D03*
Y919500D02*
D03*
X-117250Y949500D02*
D03*
Y965500D02*
D03*
X-54750Y1052000D02*
D03*
Y1068000D02*
D03*
X-235000Y1103000D02*
D03*
Y1087000D02*
D03*
X-70000Y1019500D02*
D03*
Y1035500D02*
D03*
X-10000D02*
D03*
Y1019500D02*
D03*
X-25000Y1035500D02*
D03*
Y1019500D02*
D03*
X-90000Y763500D02*
D03*
Y747500D02*
D03*
Y563500D02*
D03*
Y547500D02*
D03*
Y363500D02*
D03*
Y347500D02*
D03*
Y163500D02*
D03*
Y147500D02*
D03*
X-410000Y136500D02*
D03*
Y152500D02*
D03*
Y336500D02*
D03*
Y352500D02*
D03*
Y536500D02*
D03*
Y552500D02*
D03*
Y736500D02*
D03*
Y752500D02*
D03*
X-490000Y763500D02*
D03*
Y747500D02*
D03*
Y563500D02*
D03*
Y547500D02*
D03*
Y365500D02*
D03*
Y349500D02*
D03*
Y163500D02*
D03*
Y147500D02*
D03*
X-810000Y136500D02*
D03*
Y152500D02*
D03*
Y336500D02*
D03*
Y352500D02*
D03*
Y536500D02*
D03*
Y552500D02*
D03*
Y736500D02*
D03*
Y752500D02*
D03*
X-251000Y1130500D02*
D03*
Y1114500D02*
D03*
X-218500Y970750D02*
D03*
Y986750D02*
D03*
D16*
X-182500Y1035001D02*
D03*
X-177500D02*
D03*
X-172500D02*
D03*
X-167500D02*
D03*
X-162500D02*
D03*
X-157500D02*
D03*
X-152500D02*
D03*
X-147500D02*
D03*
X-142500D02*
D03*
X-137500D02*
D03*
X-132500D02*
D03*
X-127500D02*
D03*
X-122500D02*
D03*
X-117500D02*
D03*
X-112500D02*
D03*
X-107500D02*
D03*
Y1150001D02*
D03*
X-112500D02*
D03*
X-117500D02*
D03*
X-122500D02*
D03*
X-127500D02*
D03*
X-132500D02*
D03*
X-137500D02*
D03*
X-142500D02*
D03*
X-147500D02*
D03*
X-152500D02*
D03*
X-157500D02*
D03*
X-162500D02*
D03*
X-167500D02*
D03*
X-172500D02*
D03*
X-177500D02*
D03*
X-182500D02*
D03*
D17*
X-87500Y1055001D02*
D03*
Y1060001D02*
D03*
Y1065001D02*
D03*
Y1070001D02*
D03*
Y1075001D02*
D03*
Y1080001D02*
D03*
Y1085001D02*
D03*
Y1090001D02*
D03*
Y1095001D02*
D03*
Y1100001D02*
D03*
Y1105001D02*
D03*
Y1110001D02*
D03*
Y1115001D02*
D03*
Y1120001D02*
D03*
Y1125001D02*
D03*
Y1130001D02*
D03*
X-202500D02*
D03*
Y1125001D02*
D03*
Y1120001D02*
D03*
Y1115001D02*
D03*
Y1110001D02*
D03*
Y1105001D02*
D03*
Y1100001D02*
D03*
Y1095001D02*
D03*
Y1090001D02*
D03*
Y1085001D02*
D03*
Y1080001D02*
D03*
Y1075001D02*
D03*
Y1070001D02*
D03*
Y1065001D02*
D03*
Y1060001D02*
D03*
Y1055001D02*
D03*
D19*
X-12500Y1135500D02*
D03*
X-42500D02*
D03*
X-490500Y1112000D02*
D03*
X-460500D02*
D03*
X-649500D02*
D03*
X-619500D02*
D03*
X-809500D02*
D03*
X-779500D02*
D03*
X-490500Y1047000D02*
D03*
X-460500D02*
D03*
X-649500D02*
D03*
X-619500D02*
D03*
X-809500D02*
D03*
X-779500D02*
D03*
X-490500Y1079500D02*
D03*
X-460500D02*
D03*
X-649500D02*
D03*
X-619500D02*
D03*
X-809500D02*
D03*
X-779500D02*
D03*
X-845000Y150000D02*
D03*
X-875000D02*
D03*
X-845000Y230000D02*
D03*
X-875000D02*
D03*
X-845000Y310000D02*
D03*
X-875000D02*
D03*
X-845000Y350000D02*
D03*
X-875000D02*
D03*
X-845000Y430000D02*
D03*
X-875000D02*
D03*
X-845000Y510000D02*
D03*
X-875000D02*
D03*
X-845000Y590000D02*
D03*
X-875000D02*
D03*
X-845000Y670000D02*
D03*
X-875000D02*
D03*
X-845000Y750000D02*
D03*
X-875000D02*
D03*
X-845000Y790000D02*
D03*
X-875000D02*
D03*
X-205000Y470000D02*
D03*
X-235000D02*
D03*
X-57500Y670000D02*
D03*
X-27500D02*
D03*
X-57500Y590000D02*
D03*
X-27500D02*
D03*
X-57500Y510000D02*
D03*
X-27500D02*
D03*
X-57500Y470000D02*
D03*
X-27500D02*
D03*
X-57500Y310000D02*
D03*
X-27500D02*
D03*
X-57500Y270000D02*
D03*
X-27500D02*
D03*
X-57500Y190000D02*
D03*
X-27500D02*
D03*
X-57500Y150000D02*
D03*
X-27500D02*
D03*
X-295000Y430000D02*
D03*
X-265000D02*
D03*
X-495000Y230000D02*
D03*
X-465000D02*
D03*
X-295000Y830000D02*
D03*
X-265000D02*
D03*
X-604999Y430000D02*
D03*
X-634999D02*
D03*
X-604999Y470000D02*
D03*
X-634999D02*
D03*
X-204999Y430000D02*
D03*
X-234999D02*
D03*
X-845000Y110000D02*
D03*
X-875000D02*
D03*
X-845000Y190000D02*
D03*
X-875000D02*
D03*
X-845000Y270000D02*
D03*
X-875000D02*
D03*
X-845000Y390000D02*
D03*
X-875000D02*
D03*
X-845000Y470000D02*
D03*
X-875000D02*
D03*
X-845000Y550000D02*
D03*
X-875000D02*
D03*
X-845000Y630000D02*
D03*
X-875000D02*
D03*
X-845000Y710000D02*
D03*
X-875000D02*
D03*
X-57500Y750000D02*
D03*
X-27500D02*
D03*
X-57500Y790000D02*
D03*
X-27500D02*
D03*
X-57500Y710000D02*
D03*
X-27500D02*
D03*
X-57500Y630000D02*
D03*
X-27500D02*
D03*
X-57500Y550000D02*
D03*
X-27500D02*
D03*
X-57500Y430000D02*
D03*
X-27500D02*
D03*
X-57500Y390000D02*
D03*
X-27500D02*
D03*
X-57500Y350000D02*
D03*
X-27500D02*
D03*
X-57500Y230000D02*
D03*
X-27500D02*
D03*
X-57500Y110000D02*
D03*
X-27500D02*
D03*
X-295000Y470000D02*
D03*
X-265000D02*
D03*
X-495000Y270000D02*
D03*
X-465000D02*
D03*
X-695000Y470000D02*
D03*
X-665000D02*
D03*
X-695000Y430000D02*
D03*
X-665000D02*
D03*
X-204999Y830000D02*
D03*
X-234999D02*
D03*
X-404999Y230000D02*
D03*
X-434999D02*
D03*
X-404999Y270000D02*
D03*
X-434999D02*
D03*
X-405000Y70000D02*
D03*
X-435000D02*
D03*
X-205000Y870000D02*
D03*
X-235000D02*
D03*
X-605000Y830000D02*
D03*
X-635000D02*
D03*
X-605000Y870000D02*
D03*
X-635000D02*
D03*
X-405000Y430000D02*
D03*
X-435000D02*
D03*
X-405000Y470000D02*
D03*
X-435000D02*
D03*
X-405000Y630000D02*
D03*
X-435000D02*
D03*
X-405000Y670000D02*
D03*
X-435000D02*
D03*
X-495000D02*
D03*
X-465000D02*
D03*
X-495000Y630000D02*
D03*
X-465000D02*
D03*
X-495000Y470000D02*
D03*
X-465000D02*
D03*
X-495000Y430000D02*
D03*
X-465000D02*
D03*
X-695000Y870000D02*
D03*
X-665000D02*
D03*
X-695000Y830000D02*
D03*
X-665000D02*
D03*
X-295000Y870000D02*
D03*
X-265000D02*
D03*
X-495000Y70000D02*
D03*
X-465000D02*
D03*
X-605000D02*
D03*
X-635000D02*
D03*
X-205000D02*
D03*
X-235000D02*
D03*
X-695000D02*
D03*
X-665000D02*
D03*
X-295000D02*
D03*
X-265000D02*
D03*
X-405000Y870000D02*
D03*
X-435000D02*
D03*
X-495000D02*
D03*
X-465000D02*
D03*
D20*
X-216499Y1283500D02*
D03*
Y1190500D02*
D03*
D21*
X-72999Y1170451D02*
D03*
Y1183151D02*
D03*
Y1195851D02*
D03*
Y1208551D02*
D03*
X-16999D02*
D03*
Y1195851D02*
D03*
Y1183151D02*
D03*
Y1170451D02*
D03*
D22*
X-53668Y975500D02*
D03*
X-40968D02*
D03*
X-28268D02*
D03*
X-15568D02*
D03*
Y919501D02*
D03*
X-28268D02*
D03*
X-40968D02*
D03*
X-53668D02*
D03*
X-380549Y1225645D02*
D03*
X-367849D02*
D03*
X-355149D02*
D03*
X-342449D02*
D03*
Y1169645D02*
D03*
X-355149D02*
D03*
X-367849D02*
D03*
X-380549D02*
D03*
D24*
X-395499Y1174745D02*
D03*
Y1220545D02*
D03*
D26*
X-401000Y1172250D02*
D03*
Y1223050D02*
D03*
D27*
X-32000Y1199000D02*
D03*
Y1180000D02*
D03*
X-58000D02*
D03*
Y1189500D02*
D03*
Y1199000D02*
D03*
X-132998Y1200100D02*
D03*
X-106998D02*
D03*
D28*
X-480000Y1144500D02*
D03*
X-639000D02*
D03*
X-799000Y1144502D02*
D03*
D29*
X-466000Y1151250D02*
D03*
Y1146750D02*
D03*
Y1142250D02*
D03*
X-494000D02*
D03*
Y1146750D02*
D03*
Y1151250D02*
D03*
Y1137750D02*
D03*
X-466000D02*
D03*
X-625000D02*
D03*
X-653000D02*
D03*
Y1151250D02*
D03*
Y1146750D02*
D03*
Y1142250D02*
D03*
X-625000D02*
D03*
Y1146750D02*
D03*
Y1151250D02*
D03*
X-785000Y1151252D02*
D03*
Y1146752D02*
D03*
Y1142252D02*
D03*
X-813000D02*
D03*
Y1146752D02*
D03*
Y1151252D02*
D03*
Y1137752D02*
D03*
X-785000D02*
D03*
D30*
X-475000Y1285000D02*
D03*
X-445000D02*
D03*
X-309252Y1122999D02*
D03*
X-339252D02*
D03*
D31*
X-508000Y1040450D02*
D03*
Y1053150D02*
D03*
Y1065850D02*
D03*
Y1078550D02*
D03*
X-563000D02*
D03*
Y1065850D02*
D03*
Y1053150D02*
D03*
Y1040450D02*
D03*
X-667000D02*
D03*
Y1053150D02*
D03*
Y1065850D02*
D03*
Y1078550D02*
D03*
X-722000D02*
D03*
Y1065850D02*
D03*
Y1053150D02*
D03*
Y1040450D02*
D03*
X-827000D02*
D03*
Y1053150D02*
D03*
Y1065850D02*
D03*
Y1078550D02*
D03*
X-882000D02*
D03*
Y1065850D02*
D03*
Y1053150D02*
D03*
Y1040450D02*
D03*
X-508000Y1102898D02*
D03*
Y1115598D02*
D03*
Y1128298D02*
D03*
Y1140998D02*
D03*
X-563000D02*
D03*
Y1128298D02*
D03*
Y1115598D02*
D03*
Y1102898D02*
D03*
X-667000D02*
D03*
Y1115598D02*
D03*
Y1128298D02*
D03*
Y1140998D02*
D03*
X-722000D02*
D03*
Y1128298D02*
D03*
Y1115598D02*
D03*
Y1102898D02*
D03*
X-827000D02*
D03*
Y1115598D02*
D03*
Y1128298D02*
D03*
Y1140998D02*
D03*
X-882000D02*
D03*
Y1128298D02*
D03*
Y1115598D02*
D03*
Y1102898D02*
D03*
D32*
X-186000Y950000D02*
D03*
Y931000D02*
D03*
X-163000Y940500D02*
D03*
X-227000Y950000D02*
D03*
Y931000D02*
D03*
X-204000Y940500D02*
D03*
X-432000Y1144000D02*
D03*
Y1163000D02*
D03*
X-455000Y1153500D02*
D03*
X-591000Y1144000D02*
D03*
Y1163000D02*
D03*
X-614000Y1153500D02*
D03*
X-751000Y1144000D02*
D03*
Y1163000D02*
D03*
X-774000Y1153500D02*
D03*
D33*
X-557050Y1161998D02*
D03*
X-544350D02*
D03*
X-531650D02*
D03*
X-518950D02*
D03*
Y1216998D02*
D03*
X-531650D02*
D03*
X-544350D02*
D03*
X-557050D02*
D03*
X-716050Y1161998D02*
D03*
X-703350D02*
D03*
X-690650D02*
D03*
X-677950D02*
D03*
Y1216998D02*
D03*
X-690650D02*
D03*
X-703350D02*
D03*
X-716050D02*
D03*
X-876050Y1161998D02*
D03*
X-863350D02*
D03*
X-850650D02*
D03*
X-837950D02*
D03*
Y1216998D02*
D03*
X-850650D02*
D03*
X-863350D02*
D03*
X-876050D02*
D03*
D34*
X-547750Y962000D02*
D03*
X-448250D02*
D03*
X-706750D02*
D03*
X-607250D02*
D03*
X-866750D02*
D03*
X-767250D02*
D03*
D35*
X-813500Y1271250D02*
D03*
X-745500D02*
D03*
D36*
X-480000Y1254000D02*
D03*
X-440000D02*
D03*
X-344251Y1123000D02*
D03*
X-304251D02*
D03*
X-304251Y1123000D02*
D03*
X-344251D02*
D03*
D37*
X-268500Y1131500D02*
D03*
Y1110500D02*
D03*
D38*
X-221750Y1153250D02*
D03*
X-242750D02*
D03*
X-157000Y1170000D02*
D03*
X-178000D02*
D03*
Y1189000D02*
D03*
X-157000D02*
D03*
D39*
X-250500Y1262250D02*
D03*
X-266500D02*
D03*
X-29500Y1111750D02*
D03*
X-13500D02*
D03*
X-147499Y965001D02*
D03*
X-131499D02*
D03*
X-204500Y702500D02*
D03*
X-220500D02*
D03*
X-204000Y502500D02*
D03*
X-220000D02*
D03*
X-204500Y302500D02*
D03*
X-220500D02*
D03*
X-205000Y102500D02*
D03*
X-221000D02*
D03*
X-295000Y197500D02*
D03*
X-279000D02*
D03*
X-295000Y397500D02*
D03*
X-279000D02*
D03*
X-295000Y597500D02*
D03*
X-279000D02*
D03*
X-295000Y797500D02*
D03*
X-279000D02*
D03*
X-605000Y702500D02*
D03*
X-621000D02*
D03*
X-605000Y502500D02*
D03*
X-621000D02*
D03*
X-605000Y302500D02*
D03*
X-621000D02*
D03*
X-605000Y102500D02*
D03*
X-621000D02*
D03*
X-695000Y197500D02*
D03*
X-679000D02*
D03*
X-695000Y397500D02*
D03*
X-679000D02*
D03*
X-695000Y597500D02*
D03*
X-679000D02*
D03*
X-695000Y797500D02*
D03*
X-679000D02*
D03*
X-403500Y810000D02*
D03*
X-387500D02*
D03*
X-474000Y777500D02*
D03*
X-490000D02*
D03*
D40*
X-250500Y1287000D02*
D03*
Y1303000D02*
D03*
X-60000Y1100000D02*
D03*
Y1084000D02*
D03*
X-45000Y1100000D02*
D03*
Y1084000D02*
D03*
X-60009Y1127501D02*
D03*
Y1143501D02*
D03*
X-25000Y1052000D02*
D03*
Y1068000D02*
D03*
X-10000Y1052000D02*
D03*
Y1068000D02*
D03*
X-270000Y1090500D02*
D03*
Y1074500D02*
D03*
X-70000Y1052001D02*
D03*
Y1068001D02*
D03*
X-38999Y1051501D02*
D03*
Y1067501D02*
D03*
X-137500Y828000D02*
D03*
Y812000D02*
D03*
Y627500D02*
D03*
Y611500D02*
D03*
Y427500D02*
D03*
Y411500D02*
D03*
Y227500D02*
D03*
Y211500D02*
D03*
X-362500Y72500D02*
D03*
Y88500D02*
D03*
Y272500D02*
D03*
Y288500D02*
D03*
Y472500D02*
D03*
Y488500D02*
D03*
Y672500D02*
D03*
Y688500D02*
D03*
X-537500Y827500D02*
D03*
Y811500D02*
D03*
Y627500D02*
D03*
Y611500D02*
D03*
Y428000D02*
D03*
Y412000D02*
D03*
Y227500D02*
D03*
Y211500D02*
D03*
X-762500Y72500D02*
D03*
Y88500D02*
D03*
Y272500D02*
D03*
Y288500D02*
D03*
Y472500D02*
D03*
Y488500D02*
D03*
Y672500D02*
D03*
Y688500D02*
D03*
X-182500Y828000D02*
D03*
Y812000D02*
D03*
X-182500Y627500D02*
D03*
Y611500D02*
D03*
Y427500D02*
D03*
Y411500D02*
D03*
Y227500D02*
D03*
Y211500D02*
D03*
X-317500Y72500D02*
D03*
Y88500D02*
D03*
Y272500D02*
D03*
Y288500D02*
D03*
Y472500D02*
D03*
Y488500D02*
D03*
Y672500D02*
D03*
Y688500D02*
D03*
X-582500Y827500D02*
D03*
Y811500D02*
D03*
Y627500D02*
D03*
Y611500D02*
D03*
Y427500D02*
D03*
Y411500D02*
D03*
Y227500D02*
D03*
Y211500D02*
D03*
X-717500Y72500D02*
D03*
Y88500D02*
D03*
Y272500D02*
D03*
Y288500D02*
D03*
Y472500D02*
D03*
Y488500D02*
D03*
Y672500D02*
D03*
Y688500D02*
D03*
X-210500Y793500D02*
D03*
Y777500D02*
D03*
X-210000Y593500D02*
D03*
Y577500D02*
D03*
X-210500Y393500D02*
D03*
Y377500D02*
D03*
Y193500D02*
D03*
Y177500D02*
D03*
X-289500Y106500D02*
D03*
Y122500D02*
D03*
Y306500D02*
D03*
Y322500D02*
D03*
Y506500D02*
D03*
Y522500D02*
D03*
Y706500D02*
D03*
Y722500D02*
D03*
X-610500Y793500D02*
D03*
Y777500D02*
D03*
Y593500D02*
D03*
Y577500D02*
D03*
Y393500D02*
D03*
Y377500D02*
D03*
Y193500D02*
D03*
Y177500D02*
D03*
X-689500Y106500D02*
D03*
Y122500D02*
D03*
Y306500D02*
D03*
Y322500D02*
D03*
Y506500D02*
D03*
Y522500D02*
D03*
Y706500D02*
D03*
Y722500D02*
D03*
X-210000Y722000D02*
D03*
Y738000D02*
D03*
Y521500D02*
D03*
Y537500D02*
D03*
Y321500D02*
D03*
Y337500D02*
D03*
Y121500D02*
D03*
Y137500D02*
D03*
X-290000Y178500D02*
D03*
Y162500D02*
D03*
Y378500D02*
D03*
Y362500D02*
D03*
Y578500D02*
D03*
Y562500D02*
D03*
Y778500D02*
D03*
Y762500D02*
D03*
X-610000Y721500D02*
D03*
Y737500D02*
D03*
Y521500D02*
D03*
Y537500D02*
D03*
Y321500D02*
D03*
Y337500D02*
D03*
Y121500D02*
D03*
Y137500D02*
D03*
X-690000Y178500D02*
D03*
Y162500D02*
D03*
Y378500D02*
D03*
Y362500D02*
D03*
Y578500D02*
D03*
Y562500D02*
D03*
Y778500D02*
D03*
Y762500D02*
D03*
X-177570Y674000D02*
D03*
Y690000D02*
D03*
Y474000D02*
D03*
Y490000D02*
D03*
Y274000D02*
D03*
Y290000D02*
D03*
Y74000D02*
D03*
Y90000D02*
D03*
X-322430Y226000D02*
D03*
Y210000D02*
D03*
Y426000D02*
D03*
Y410000D02*
D03*
Y626000D02*
D03*
Y610000D02*
D03*
Y826000D02*
D03*
Y810000D02*
D03*
X-577570Y674000D02*
D03*
Y690000D02*
D03*
Y474000D02*
D03*
Y490000D02*
D03*
Y274000D02*
D03*
Y290000D02*
D03*
Y74000D02*
D03*
Y90000D02*
D03*
X-722430Y226000D02*
D03*
Y210000D02*
D03*
Y426000D02*
D03*
Y410000D02*
D03*
Y626000D02*
D03*
Y610000D02*
D03*
X-722500Y825500D02*
D03*
Y809500D02*
D03*
X-137500Y674500D02*
D03*
Y690500D02*
D03*
Y474000D02*
D03*
Y490000D02*
D03*
Y274500D02*
D03*
Y290500D02*
D03*
Y74000D02*
D03*
Y90000D02*
D03*
X-362500Y226000D02*
D03*
Y210000D02*
D03*
Y426000D02*
D03*
Y410000D02*
D03*
Y626000D02*
D03*
Y610000D02*
D03*
Y826000D02*
D03*
Y810000D02*
D03*
X-537500Y674000D02*
D03*
Y690000D02*
D03*
Y474000D02*
D03*
Y490000D02*
D03*
Y274000D02*
D03*
Y290000D02*
D03*
Y74000D02*
D03*
Y90000D02*
D03*
X-762500Y226000D02*
D03*
Y210000D02*
D03*
Y426000D02*
D03*
Y410000D02*
D03*
Y625000D02*
D03*
Y609000D02*
D03*
Y825500D02*
D03*
Y809500D02*
D03*
X-112500Y674500D02*
D03*
Y690500D02*
D03*
Y474500D02*
D03*
Y490500D02*
D03*
Y274500D02*
D03*
Y290500D02*
D03*
Y74000D02*
D03*
Y90000D02*
D03*
X-387500Y226000D02*
D03*
Y210000D02*
D03*
Y426000D02*
D03*
Y410000D02*
D03*
Y626000D02*
D03*
Y610000D02*
D03*
X-512500Y674000D02*
D03*
Y690000D02*
D03*
Y474000D02*
D03*
Y490000D02*
D03*
Y274000D02*
D03*
Y290000D02*
D03*
Y74000D02*
D03*
Y90000D02*
D03*
X-787500Y226000D02*
D03*
Y210000D02*
D03*
Y426000D02*
D03*
Y410000D02*
D03*
Y626000D02*
D03*
Y610000D02*
D03*
Y825500D02*
D03*
Y809500D02*
D03*
X-90000Y705000D02*
D03*
Y721000D02*
D03*
Y505000D02*
D03*
Y521000D02*
D03*
X-90000Y304500D02*
D03*
Y320500D02*
D03*
X-90000Y105000D02*
D03*
Y121000D02*
D03*
X-410000Y195000D02*
D03*
Y179000D02*
D03*
Y395000D02*
D03*
Y379000D02*
D03*
Y595000D02*
D03*
Y579000D02*
D03*
Y795000D02*
D03*
Y779000D02*
D03*
X-490000Y705000D02*
D03*
Y721000D02*
D03*
Y505000D02*
D03*
Y521000D02*
D03*
Y305000D02*
D03*
Y321000D02*
D03*
Y105000D02*
D03*
Y121000D02*
D03*
X-810000Y195000D02*
D03*
Y179000D02*
D03*
Y395000D02*
D03*
Y379000D02*
D03*
Y595000D02*
D03*
Y579000D02*
D03*
X-787500Y672002D02*
D03*
Y688002D02*
D03*
X-90000Y793500D02*
D03*
Y777500D02*
D03*
Y593500D02*
D03*
Y577500D02*
D03*
Y393500D02*
D03*
Y377500D02*
D03*
Y193500D02*
D03*
Y177500D02*
D03*
X-410000Y106500D02*
D03*
Y122500D02*
D03*
Y306500D02*
D03*
Y322500D02*
D03*
Y506500D02*
D03*
Y522500D02*
D03*
Y706500D02*
D03*
Y722500D02*
D03*
X-490000Y593500D02*
D03*
Y577500D02*
D03*
Y393500D02*
D03*
Y377500D02*
D03*
Y193500D02*
D03*
Y177500D02*
D03*
X-810000Y106500D02*
D03*
Y122500D02*
D03*
Y306500D02*
D03*
Y322500D02*
D03*
X-810000Y506500D02*
D03*
Y522500D02*
D03*
Y706500D02*
D03*
Y722500D02*
D03*
X-112500Y828000D02*
D03*
Y812000D02*
D03*
Y627998D02*
D03*
Y611998D02*
D03*
Y428000D02*
D03*
Y412000D02*
D03*
Y227998D02*
D03*
Y211998D02*
D03*
X-387500Y72002D02*
D03*
Y88002D02*
D03*
Y272002D02*
D03*
Y288002D02*
D03*
Y472002D02*
D03*
Y488002D02*
D03*
Y672002D02*
D03*
Y688002D02*
D03*
X-496500Y811998D02*
D03*
Y795998D02*
D03*
X-512500Y627998D02*
D03*
Y611998D02*
D03*
Y427998D02*
D03*
Y411998D02*
D03*
Y227998D02*
D03*
Y211998D02*
D03*
X-787500Y72002D02*
D03*
Y88002D02*
D03*
Y272002D02*
D03*
Y288002D02*
D03*
Y472002D02*
D03*
Y488002D02*
D03*
X-810000Y795000D02*
D03*
Y779000D02*
D03*
D41*
X-460000Y1217750D02*
D03*
Y1187750D02*
D03*
X-619000Y1217750D02*
D03*
Y1187750D02*
D03*
X-779000Y1217500D02*
D03*
Y1187500D02*
D03*
X-492000Y1217500D02*
D03*
Y1187500D02*
D03*
X-651000Y1217500D02*
D03*
Y1187500D02*
D03*
X-811000Y1217500D02*
D03*
Y1187500D02*
D03*
D42*
X-440999Y1104999D02*
D03*
Y1122999D02*
D03*
X-599999Y1104999D02*
D03*
Y1122999D02*
D03*
X-759999Y1104999D02*
D03*
Y1122999D02*
D03*
X-252499Y1081001D02*
D03*
Y1099001D02*
D03*
X-433999Y1179499D02*
D03*
Y1197499D02*
D03*
X-592999Y1179499D02*
D03*
Y1197499D02*
D03*
X-752999Y1179499D02*
D03*
Y1197499D02*
D03*
D43*
X-132998Y1209600D02*
D03*
Y1190600D02*
D03*
X-106998D02*
D03*
Y1209600D02*
D03*
D44*
X-117000Y1238999D02*
D03*
X-125000D02*
D03*
X-133000D02*
D03*
X-141000D02*
D03*
X-149000D02*
D03*
D45*
X-177500Y1239999D02*
D03*
Y1295000D02*
D03*
X-88500D02*
D03*
Y1239999D02*
D03*
D46*
X-122500Y784500D02*
D03*
X-127500D02*
D03*
X-132500D02*
D03*
X-137500D02*
D03*
X-142500D02*
D03*
X-147500D02*
D03*
X-152500D02*
D03*
X-157500D02*
D03*
X-162500D02*
D03*
X-167500D02*
D03*
X-172500D02*
D03*
X-177500D02*
D03*
Y715500D02*
D03*
X-172500D02*
D03*
X-167500D02*
D03*
X-162500D02*
D03*
X-157500D02*
D03*
X-152500D02*
D03*
X-147500D02*
D03*
X-142500D02*
D03*
X-137500D02*
D03*
X-132500D02*
D03*
X-127500D02*
D03*
X-122500D02*
D03*
Y584500D02*
D03*
X-127500D02*
D03*
X-132500D02*
D03*
X-137500D02*
D03*
X-142500D02*
D03*
X-147500D02*
D03*
X-152500D02*
D03*
X-157500D02*
D03*
X-162500D02*
D03*
X-167500D02*
D03*
X-172500D02*
D03*
X-177500D02*
D03*
Y515500D02*
D03*
X-172500D02*
D03*
X-167500D02*
D03*
X-162500D02*
D03*
X-157500D02*
D03*
X-152500D02*
D03*
X-147500D02*
D03*
X-142500D02*
D03*
X-137500D02*
D03*
X-132500D02*
D03*
X-127500D02*
D03*
X-122500D02*
D03*
Y384500D02*
D03*
X-127500D02*
D03*
X-132500D02*
D03*
X-137500D02*
D03*
X-142500D02*
D03*
X-147500D02*
D03*
X-152500D02*
D03*
X-157500D02*
D03*
X-162500D02*
D03*
X-167500D02*
D03*
X-172500D02*
D03*
X-177500D02*
D03*
Y315500D02*
D03*
X-172500D02*
D03*
X-167500D02*
D03*
X-162500D02*
D03*
X-157500D02*
D03*
X-152500D02*
D03*
X-147500D02*
D03*
X-142500D02*
D03*
X-137500D02*
D03*
X-132500D02*
D03*
X-127500D02*
D03*
X-122500D02*
D03*
Y184500D02*
D03*
X-127500D02*
D03*
X-132500D02*
D03*
X-137500D02*
D03*
X-142500D02*
D03*
X-147500D02*
D03*
X-152500D02*
D03*
X-157500D02*
D03*
X-162500D02*
D03*
X-167500D02*
D03*
X-172500D02*
D03*
X-177500D02*
D03*
Y115500D02*
D03*
X-172500D02*
D03*
X-167500D02*
D03*
X-162500D02*
D03*
X-157500D02*
D03*
X-152500D02*
D03*
X-147500D02*
D03*
X-142500D02*
D03*
X-137500D02*
D03*
X-132500D02*
D03*
X-127500D02*
D03*
X-122500D02*
D03*
X-377500D02*
D03*
X-372500D02*
D03*
X-367500D02*
D03*
X-362500D02*
D03*
X-357500D02*
D03*
X-352500D02*
D03*
X-347500D02*
D03*
X-342500D02*
D03*
X-337500D02*
D03*
X-332500D02*
D03*
X-327500D02*
D03*
X-322500D02*
D03*
Y184500D02*
D03*
X-327500D02*
D03*
X-332500D02*
D03*
X-337500D02*
D03*
X-342500D02*
D03*
X-347500D02*
D03*
X-352500D02*
D03*
X-357500D02*
D03*
X-362500D02*
D03*
X-367500D02*
D03*
X-372500D02*
D03*
X-377500D02*
D03*
Y315500D02*
D03*
X-372500D02*
D03*
X-367500D02*
D03*
X-362500D02*
D03*
X-357500D02*
D03*
X-352500D02*
D03*
X-347500D02*
D03*
X-342500D02*
D03*
X-337500D02*
D03*
X-332500D02*
D03*
X-327500D02*
D03*
X-322500D02*
D03*
Y384500D02*
D03*
X-327500D02*
D03*
X-332500D02*
D03*
X-337500D02*
D03*
X-342500D02*
D03*
X-347500D02*
D03*
X-352500D02*
D03*
X-357500D02*
D03*
X-362500D02*
D03*
X-367500D02*
D03*
X-372500D02*
D03*
X-377500D02*
D03*
Y515500D02*
D03*
X-372500D02*
D03*
X-367500D02*
D03*
X-362500D02*
D03*
X-357500D02*
D03*
X-352500D02*
D03*
X-347500D02*
D03*
X-342500D02*
D03*
X-337500D02*
D03*
X-332500D02*
D03*
X-327500D02*
D03*
X-322500D02*
D03*
Y584500D02*
D03*
X-327500D02*
D03*
X-332500D02*
D03*
X-337500D02*
D03*
X-342500D02*
D03*
X-347500D02*
D03*
X-352500D02*
D03*
X-357500D02*
D03*
X-362500D02*
D03*
X-367500D02*
D03*
X-372500D02*
D03*
X-377500D02*
D03*
Y715500D02*
D03*
X-372500D02*
D03*
X-367500D02*
D03*
X-362500D02*
D03*
X-357500D02*
D03*
X-352500D02*
D03*
X-347500D02*
D03*
X-342500D02*
D03*
X-337500D02*
D03*
X-332500D02*
D03*
X-327500D02*
D03*
X-322500D02*
D03*
Y784500D02*
D03*
X-327500D02*
D03*
X-332500D02*
D03*
X-337500D02*
D03*
X-342500D02*
D03*
X-347500D02*
D03*
X-352500D02*
D03*
X-357500D02*
D03*
X-362500D02*
D03*
X-367500D02*
D03*
X-372500D02*
D03*
X-377500D02*
D03*
X-522500D02*
D03*
X-527500D02*
D03*
X-532500D02*
D03*
X-537500D02*
D03*
X-542500D02*
D03*
X-547500D02*
D03*
X-552500D02*
D03*
X-557500D02*
D03*
X-562500D02*
D03*
X-567500D02*
D03*
X-572500D02*
D03*
X-577500D02*
D03*
Y715500D02*
D03*
X-572500D02*
D03*
X-567500D02*
D03*
X-562500D02*
D03*
X-557500D02*
D03*
X-552500D02*
D03*
X-547500D02*
D03*
X-542500D02*
D03*
X-537500D02*
D03*
X-532500D02*
D03*
X-527500D02*
D03*
X-522500D02*
D03*
Y584500D02*
D03*
X-527500D02*
D03*
X-532500D02*
D03*
X-537500D02*
D03*
X-542500D02*
D03*
X-547500D02*
D03*
X-552500D02*
D03*
X-557500D02*
D03*
X-562500D02*
D03*
X-567500D02*
D03*
X-572500D02*
D03*
X-577500D02*
D03*
Y515500D02*
D03*
X-572500D02*
D03*
X-567500D02*
D03*
X-562500D02*
D03*
X-557500D02*
D03*
X-552500D02*
D03*
X-547500D02*
D03*
X-542500D02*
D03*
X-537500D02*
D03*
X-532500D02*
D03*
X-527500D02*
D03*
X-522500D02*
D03*
Y384500D02*
D03*
X-527500D02*
D03*
X-532500D02*
D03*
X-537500D02*
D03*
X-542500D02*
D03*
X-547500D02*
D03*
X-552500D02*
D03*
X-557500D02*
D03*
X-562500D02*
D03*
X-567500D02*
D03*
X-572500D02*
D03*
X-577500D02*
D03*
Y315500D02*
D03*
X-572500D02*
D03*
X-567500D02*
D03*
X-562500D02*
D03*
X-557500D02*
D03*
X-552500D02*
D03*
X-547500D02*
D03*
X-542500D02*
D03*
X-537500D02*
D03*
X-532500D02*
D03*
X-527500D02*
D03*
X-522500D02*
D03*
Y184500D02*
D03*
X-527500D02*
D03*
X-532500D02*
D03*
X-537500D02*
D03*
X-542500D02*
D03*
X-547500D02*
D03*
X-552500D02*
D03*
X-557500D02*
D03*
X-562500D02*
D03*
X-567500D02*
D03*
X-572500D02*
D03*
X-577500D02*
D03*
Y115500D02*
D03*
X-572500D02*
D03*
X-567500D02*
D03*
X-562500D02*
D03*
X-557500D02*
D03*
X-552500D02*
D03*
X-547500D02*
D03*
X-542500D02*
D03*
X-537500D02*
D03*
X-532500D02*
D03*
X-527500D02*
D03*
X-522500D02*
D03*
X-777500D02*
D03*
X-772500D02*
D03*
X-767500D02*
D03*
X-762500D02*
D03*
X-757500D02*
D03*
X-752500D02*
D03*
X-747500D02*
D03*
X-742500D02*
D03*
X-737500D02*
D03*
X-732500D02*
D03*
X-727500D02*
D03*
X-722500D02*
D03*
Y184500D02*
D03*
X-727500D02*
D03*
X-732500D02*
D03*
X-737500D02*
D03*
X-742500D02*
D03*
X-747500D02*
D03*
X-752500D02*
D03*
X-757500D02*
D03*
X-762500D02*
D03*
X-767500D02*
D03*
X-772500D02*
D03*
X-777500D02*
D03*
Y315500D02*
D03*
X-772500D02*
D03*
X-767500D02*
D03*
X-762500D02*
D03*
X-757500D02*
D03*
X-752500D02*
D03*
X-747500D02*
D03*
X-742500D02*
D03*
X-737500D02*
D03*
X-732500D02*
D03*
X-727500D02*
D03*
X-722500D02*
D03*
Y384500D02*
D03*
X-727500D02*
D03*
X-732500D02*
D03*
X-737500D02*
D03*
X-742500D02*
D03*
X-747500D02*
D03*
X-752500D02*
D03*
X-757500D02*
D03*
X-762500D02*
D03*
X-767500D02*
D03*
X-772500D02*
D03*
X-777500D02*
D03*
Y515500D02*
D03*
X-772500D02*
D03*
X-767500D02*
D03*
X-762500D02*
D03*
X-757500D02*
D03*
X-752500D02*
D03*
X-747500D02*
D03*
X-742500D02*
D03*
X-737500D02*
D03*
X-732500D02*
D03*
X-727500D02*
D03*
X-722500D02*
D03*
Y584500D02*
D03*
X-727500D02*
D03*
X-732500D02*
D03*
X-737500D02*
D03*
X-742500D02*
D03*
X-747500D02*
D03*
X-752500D02*
D03*
X-757500D02*
D03*
X-762500D02*
D03*
X-767500D02*
D03*
X-772500D02*
D03*
X-777500D02*
D03*
Y715500D02*
D03*
X-772500D02*
D03*
X-767500D02*
D03*
X-762500D02*
D03*
X-757500D02*
D03*
X-752500D02*
D03*
X-747500D02*
D03*
X-742500D02*
D03*
X-737500D02*
D03*
X-732500D02*
D03*
X-727500D02*
D03*
X-722500D02*
D03*
Y784500D02*
D03*
X-727500D02*
D03*
X-732500D02*
D03*
X-737500D02*
D03*
X-742500D02*
D03*
X-747500D02*
D03*
X-752500D02*
D03*
X-757500D02*
D03*
X-762500D02*
D03*
X-767500D02*
D03*
X-772500D02*
D03*
X-777500D02*
D03*
D47*
X-184500Y777500D02*
D03*
Y772500D02*
D03*
Y767500D02*
D03*
Y762500D02*
D03*
Y757500D02*
D03*
Y752500D02*
D03*
Y747500D02*
D03*
Y742500D02*
D03*
Y737500D02*
D03*
Y732500D02*
D03*
Y727500D02*
D03*
Y722500D02*
D03*
X-115500D02*
D03*
Y727500D02*
D03*
Y732500D02*
D03*
Y737500D02*
D03*
Y742500D02*
D03*
Y747500D02*
D03*
Y752500D02*
D03*
Y757500D02*
D03*
Y762500D02*
D03*
Y767500D02*
D03*
Y772500D02*
D03*
Y777500D02*
D03*
X-184500Y577500D02*
D03*
Y572500D02*
D03*
Y567500D02*
D03*
Y562500D02*
D03*
Y557500D02*
D03*
Y552500D02*
D03*
Y547500D02*
D03*
Y542500D02*
D03*
Y537500D02*
D03*
Y532500D02*
D03*
Y527500D02*
D03*
Y522500D02*
D03*
X-115500D02*
D03*
Y527500D02*
D03*
Y532500D02*
D03*
Y537500D02*
D03*
Y542500D02*
D03*
Y547500D02*
D03*
Y552500D02*
D03*
Y557500D02*
D03*
Y562500D02*
D03*
Y567500D02*
D03*
Y572500D02*
D03*
Y577500D02*
D03*
X-184500Y377500D02*
D03*
Y372500D02*
D03*
Y367500D02*
D03*
Y362500D02*
D03*
Y357500D02*
D03*
Y352500D02*
D03*
Y347500D02*
D03*
Y342500D02*
D03*
Y337500D02*
D03*
Y332500D02*
D03*
Y327500D02*
D03*
Y322500D02*
D03*
X-115500D02*
D03*
Y327500D02*
D03*
Y332500D02*
D03*
Y337500D02*
D03*
Y342500D02*
D03*
Y347500D02*
D03*
Y352500D02*
D03*
Y357500D02*
D03*
Y362500D02*
D03*
Y367500D02*
D03*
Y372500D02*
D03*
Y377500D02*
D03*
X-184500Y177500D02*
D03*
Y172500D02*
D03*
Y167500D02*
D03*
Y162500D02*
D03*
Y157500D02*
D03*
Y152500D02*
D03*
Y147500D02*
D03*
Y142500D02*
D03*
Y137500D02*
D03*
Y132500D02*
D03*
Y127500D02*
D03*
Y122500D02*
D03*
X-115500D02*
D03*
Y127500D02*
D03*
Y132500D02*
D03*
Y137500D02*
D03*
Y142500D02*
D03*
Y147500D02*
D03*
Y152500D02*
D03*
Y157500D02*
D03*
Y162500D02*
D03*
Y167500D02*
D03*
Y172500D02*
D03*
Y177500D02*
D03*
X-315500Y122500D02*
D03*
Y127500D02*
D03*
Y132500D02*
D03*
Y137500D02*
D03*
Y142500D02*
D03*
Y147500D02*
D03*
Y152500D02*
D03*
Y157500D02*
D03*
Y162500D02*
D03*
Y167500D02*
D03*
Y172500D02*
D03*
Y177500D02*
D03*
X-384500D02*
D03*
Y172500D02*
D03*
Y167500D02*
D03*
Y162500D02*
D03*
Y157500D02*
D03*
Y152500D02*
D03*
Y147500D02*
D03*
Y142500D02*
D03*
Y137500D02*
D03*
Y132500D02*
D03*
Y127500D02*
D03*
Y122500D02*
D03*
X-315500Y322500D02*
D03*
Y327500D02*
D03*
Y332500D02*
D03*
Y337500D02*
D03*
Y342500D02*
D03*
Y347500D02*
D03*
Y352500D02*
D03*
Y357500D02*
D03*
Y362500D02*
D03*
Y367500D02*
D03*
Y372500D02*
D03*
Y377500D02*
D03*
X-384500D02*
D03*
Y372500D02*
D03*
Y367500D02*
D03*
Y362500D02*
D03*
Y357500D02*
D03*
Y352500D02*
D03*
Y347500D02*
D03*
Y342500D02*
D03*
Y337500D02*
D03*
Y332500D02*
D03*
Y327500D02*
D03*
Y322500D02*
D03*
X-315500Y522500D02*
D03*
Y527500D02*
D03*
Y532500D02*
D03*
Y537500D02*
D03*
Y542500D02*
D03*
Y547500D02*
D03*
Y552500D02*
D03*
Y557500D02*
D03*
Y562500D02*
D03*
Y567500D02*
D03*
Y572500D02*
D03*
Y577500D02*
D03*
X-384500D02*
D03*
Y572500D02*
D03*
Y567500D02*
D03*
Y562500D02*
D03*
Y557500D02*
D03*
Y552500D02*
D03*
Y547500D02*
D03*
Y542500D02*
D03*
Y537500D02*
D03*
Y532500D02*
D03*
Y527500D02*
D03*
Y522500D02*
D03*
X-315500Y722500D02*
D03*
Y727500D02*
D03*
Y732500D02*
D03*
Y737500D02*
D03*
Y742500D02*
D03*
Y747500D02*
D03*
Y752500D02*
D03*
Y757500D02*
D03*
Y762500D02*
D03*
Y767500D02*
D03*
Y772500D02*
D03*
Y777500D02*
D03*
X-384500D02*
D03*
Y772500D02*
D03*
Y767500D02*
D03*
Y762500D02*
D03*
Y757500D02*
D03*
Y752500D02*
D03*
Y747500D02*
D03*
Y742500D02*
D03*
Y737500D02*
D03*
Y732500D02*
D03*
Y727500D02*
D03*
Y722500D02*
D03*
X-584500Y777500D02*
D03*
Y772500D02*
D03*
Y767500D02*
D03*
Y762500D02*
D03*
Y757500D02*
D03*
Y752500D02*
D03*
Y747500D02*
D03*
Y742500D02*
D03*
Y737500D02*
D03*
Y732500D02*
D03*
Y727500D02*
D03*
Y722500D02*
D03*
X-515500D02*
D03*
Y727500D02*
D03*
Y732500D02*
D03*
Y737500D02*
D03*
Y742500D02*
D03*
Y747500D02*
D03*
Y752500D02*
D03*
Y757500D02*
D03*
Y762500D02*
D03*
Y767500D02*
D03*
Y772500D02*
D03*
Y777500D02*
D03*
X-584500Y577500D02*
D03*
Y572500D02*
D03*
Y567500D02*
D03*
Y562500D02*
D03*
Y557500D02*
D03*
Y552500D02*
D03*
Y547500D02*
D03*
Y542500D02*
D03*
Y537500D02*
D03*
Y532500D02*
D03*
Y527500D02*
D03*
Y522500D02*
D03*
X-515500D02*
D03*
Y527500D02*
D03*
Y532500D02*
D03*
Y537500D02*
D03*
Y542500D02*
D03*
Y547500D02*
D03*
Y552500D02*
D03*
Y557500D02*
D03*
Y562500D02*
D03*
Y567500D02*
D03*
Y572500D02*
D03*
Y577500D02*
D03*
X-584500Y377500D02*
D03*
Y372500D02*
D03*
Y367500D02*
D03*
Y362500D02*
D03*
Y357500D02*
D03*
Y352500D02*
D03*
Y347500D02*
D03*
Y342500D02*
D03*
Y337500D02*
D03*
Y332500D02*
D03*
Y327500D02*
D03*
Y322500D02*
D03*
X-515500D02*
D03*
Y327500D02*
D03*
Y332500D02*
D03*
Y337500D02*
D03*
Y342500D02*
D03*
Y347500D02*
D03*
Y352500D02*
D03*
Y357500D02*
D03*
Y362500D02*
D03*
Y367500D02*
D03*
Y372500D02*
D03*
Y377500D02*
D03*
X-584500Y177500D02*
D03*
Y172500D02*
D03*
Y167500D02*
D03*
Y162500D02*
D03*
Y157500D02*
D03*
Y152500D02*
D03*
Y147500D02*
D03*
Y142500D02*
D03*
Y137500D02*
D03*
Y132500D02*
D03*
Y127500D02*
D03*
Y122500D02*
D03*
X-515500D02*
D03*
Y127500D02*
D03*
Y132500D02*
D03*
Y137500D02*
D03*
Y142500D02*
D03*
Y147500D02*
D03*
Y152500D02*
D03*
Y157500D02*
D03*
Y162500D02*
D03*
Y167500D02*
D03*
Y172500D02*
D03*
Y177500D02*
D03*
X-715500Y122500D02*
D03*
Y127500D02*
D03*
Y132500D02*
D03*
Y137500D02*
D03*
Y142500D02*
D03*
Y147500D02*
D03*
Y152500D02*
D03*
Y157500D02*
D03*
Y162500D02*
D03*
Y167500D02*
D03*
Y172500D02*
D03*
Y177500D02*
D03*
X-784500D02*
D03*
Y172500D02*
D03*
Y167500D02*
D03*
Y162500D02*
D03*
Y157500D02*
D03*
Y152500D02*
D03*
Y147500D02*
D03*
Y142500D02*
D03*
Y137500D02*
D03*
Y132500D02*
D03*
Y127500D02*
D03*
Y122500D02*
D03*
X-715500Y322500D02*
D03*
Y327500D02*
D03*
Y332500D02*
D03*
Y337500D02*
D03*
Y342500D02*
D03*
Y347500D02*
D03*
Y352500D02*
D03*
Y357500D02*
D03*
Y362500D02*
D03*
Y367500D02*
D03*
Y372500D02*
D03*
Y377500D02*
D03*
X-784500D02*
D03*
Y372500D02*
D03*
Y367500D02*
D03*
Y362500D02*
D03*
Y357500D02*
D03*
Y352500D02*
D03*
Y347500D02*
D03*
Y342500D02*
D03*
Y337500D02*
D03*
Y332500D02*
D03*
Y327500D02*
D03*
Y322500D02*
D03*
X-715500Y522500D02*
D03*
Y527500D02*
D03*
Y532500D02*
D03*
Y537500D02*
D03*
Y542500D02*
D03*
Y547500D02*
D03*
Y552500D02*
D03*
Y557500D02*
D03*
Y562500D02*
D03*
Y567500D02*
D03*
Y572500D02*
D03*
Y577500D02*
D03*
X-784500D02*
D03*
Y572500D02*
D03*
Y567500D02*
D03*
Y562500D02*
D03*
Y557500D02*
D03*
Y552500D02*
D03*
Y547500D02*
D03*
Y542500D02*
D03*
Y537500D02*
D03*
Y532500D02*
D03*
Y527500D02*
D03*
Y522500D02*
D03*
X-715500Y722500D02*
D03*
Y727500D02*
D03*
Y732500D02*
D03*
Y737500D02*
D03*
Y742500D02*
D03*
Y747500D02*
D03*
Y752500D02*
D03*
Y757500D02*
D03*
Y762500D02*
D03*
Y767500D02*
D03*
Y772500D02*
D03*
Y777500D02*
D03*
X-784500D02*
D03*
Y772500D02*
D03*
Y767500D02*
D03*
Y762500D02*
D03*
Y757500D02*
D03*
Y752500D02*
D03*
Y747500D02*
D03*
Y742500D02*
D03*
Y737500D02*
D03*
Y732500D02*
D03*
Y727500D02*
D03*
Y722500D02*
D03*
D67*
X-87500Y1035001D02*
D03*
X-202500Y1150001D02*
D03*
M02*
