%FSLAX44Y44*%
%MOMM*%
G71*
G01*
G75*
G04 Layer_Color=16711935*
G04:AMPARAMS|DCode=10|XSize=1mm|YSize=0.9mm|CornerRadius=0.198mm|HoleSize=0mm|Usage=FLASHONLY|Rotation=270.000|XOffset=0mm|YOffset=0mm|HoleType=Round|Shape=RoundedRectangle|*
%AMROUNDEDRECTD10*
21,1,1.0000,0.5040,0,0,270.0*
21,1,0.6040,0.9000,0,0,270.0*
1,1,0.3960,-0.2520,-0.3020*
1,1,0.3960,-0.2520,0.3020*
1,1,0.3960,0.2520,0.3020*
1,1,0.3960,0.2520,-0.3020*
%
%ADD10ROUNDEDRECTD10*%
%ADD11C,0.6000*%
%ADD12C,1.3000*%
%ADD13R,1.3000X1.3000*%
G04:AMPARAMS|DCode=14|XSize=1.45mm|YSize=1.15mm|CornerRadius=0.2013mm|HoleSize=0mm|Usage=FLASHONLY|Rotation=90.000|XOffset=0mm|YOffset=0mm|HoleType=Round|Shape=RoundedRectangle|*
%AMROUNDEDRECTD14*
21,1,1.4500,0.7475,0,0,90.0*
21,1,1.0475,1.1500,0,0,90.0*
1,1,0.4025,0.3738,0.5238*
1,1,0.4025,0.3738,-0.5238*
1,1,0.4025,-0.3738,-0.5238*
1,1,0.4025,-0.3738,0.5238*
%
%ADD14ROUNDEDRECTD14*%
G04:AMPARAMS|DCode=15|XSize=1mm|YSize=0.9mm|CornerRadius=0.198mm|HoleSize=0mm|Usage=FLASHONLY|Rotation=180.000|XOffset=0mm|YOffset=0mm|HoleType=Round|Shape=RoundedRectangle|*
%AMROUNDEDRECTD15*
21,1,1.0000,0.5040,0,0,180.0*
21,1,0.6040,0.9000,0,0,180.0*
1,1,0.3960,-0.3020,0.2520*
1,1,0.3960,0.3020,0.2520*
1,1,0.3960,0.3020,-0.2520*
1,1,0.3960,-0.3020,-0.2520*
%
%ADD15ROUNDEDRECTD15*%
%ADD16O,0.3000X1.5000*%
%ADD17O,1.5000X0.3000*%
%ADD18C,1.0000*%
G04:AMPARAMS|DCode=19|XSize=2.7mm|YSize=1.15mm|CornerRadius=0.2013mm|HoleSize=0mm|Usage=FLASHONLY|Rotation=90.000|XOffset=0mm|YOffset=0mm|HoleType=Round|Shape=RoundedRectangle|*
%AMROUNDEDRECTD19*
21,1,2.7000,0.7475,0,0,90.0*
21,1,2.2975,1.1500,0,0,90.0*
1,1,0.4025,0.3738,1.1487*
1,1,0.4025,0.3738,-1.1487*
1,1,0.4025,-0.3738,-1.1487*
1,1,0.4025,-0.3738,1.1487*
%
%ADD19ROUNDEDRECTD19*%
G04:AMPARAMS|DCode=20|XSize=4.9mm|YSize=1.6mm|CornerRadius=0.2mm|HoleSize=0mm|Usage=FLASHONLY|Rotation=270.000|XOffset=0mm|YOffset=0mm|HoleType=Round|Shape=RoundedRectangle|*
%AMROUNDEDRECTD20*
21,1,4.9000,1.2000,0,0,270.0*
21,1,4.5000,1.6000,0,0,270.0*
1,1,0.4000,-0.6000,-2.2500*
1,1,0.4000,-0.6000,2.2500*
1,1,0.4000,0.6000,2.2500*
1,1,0.4000,0.6000,-2.2500*
%
%ADD20ROUNDEDRECTD20*%
%ADD21O,1.5500X0.6000*%
%ADD22O,0.6000X1.5500*%
G04:AMPARAMS|DCode=23|XSize=6.45mm|YSize=6mm|CornerRadius=0.21mm|HoleSize=0mm|Usage=FLASHONLY|Rotation=0.000|XOffset=0mm|YOffset=0mm|HoleType=Round|Shape=RoundedRectangle|*
%AMROUNDEDRECTD23*
21,1,6.4500,5.5800,0,0,0.0*
21,1,6.0300,6.0000,0,0,0.0*
1,1,0.4200,3.0150,-2.7900*
1,1,0.4200,-3.0150,-2.7900*
1,1,0.4200,-3.0150,2.7900*
1,1,0.4200,3.0150,2.7900*
%
%ADD23ROUNDEDRECTD23*%
G04:AMPARAMS|DCode=24|XSize=2.85mm|YSize=1mm|CornerRadius=0.2mm|HoleSize=0mm|Usage=FLASHONLY|Rotation=0.000|XOffset=0mm|YOffset=0mm|HoleType=Round|Shape=RoundedRectangle|*
%AMROUNDEDRECTD24*
21,1,2.8500,0.6000,0,0,0.0*
21,1,2.4500,1.0000,0,0,0.0*
1,1,0.4000,1.2250,-0.3000*
1,1,0.4000,-1.2250,-0.3000*
1,1,0.4000,-1.2250,0.3000*
1,1,0.4000,1.2250,0.3000*
%
%ADD24ROUNDEDRECTD24*%
G04:AMPARAMS|DCode=25|XSize=11.3mm|YSize=10.75mm|CornerRadius=0.215mm|HoleSize=0mm|Usage=FLASHONLY|Rotation=0.000|XOffset=0mm|YOffset=0mm|HoleType=Round|Shape=RoundedRectangle|*
%AMROUNDEDRECTD25*
21,1,11.3000,10.3200,0,0,0.0*
21,1,10.8700,10.7500,0,0,0.0*
1,1,0.4300,5.4350,-5.1600*
1,1,0.4300,-5.4350,-5.1600*
1,1,0.4300,-5.4350,5.1600*
1,1,0.4300,5.4350,5.1600*
%
%ADD25ROUNDEDRECTD25*%
G04:AMPARAMS|DCode=26|XSize=3.95mm|YSize=1.2mm|CornerRadius=0.198mm|HoleSize=0mm|Usage=FLASHONLY|Rotation=0.000|XOffset=0mm|YOffset=0mm|HoleType=Round|Shape=RoundedRectangle|*
%AMROUNDEDRECTD26*
21,1,3.9500,0.8040,0,0,0.0*
21,1,3.5540,1.2000,0,0,0.0*
1,1,0.3960,1.7770,-0.4020*
1,1,0.3960,-1.7770,-0.4020*
1,1,0.3960,-1.7770,0.4020*
1,1,0.3960,1.7770,0.4020*
%
%ADD26ROUNDEDRECTD26*%
G04:AMPARAMS|DCode=27|XSize=1.1mm|YSize=0.6mm|CornerRadius=0.201mm|HoleSize=0mm|Usage=FLASHONLY|Rotation=0.000|XOffset=0mm|YOffset=0mm|HoleType=Round|Shape=RoundedRectangle|*
%AMROUNDEDRECTD27*
21,1,1.1000,0.1980,0,0,0.0*
21,1,0.6980,0.6000,0,0,0.0*
1,1,0.4020,0.3490,-0.0990*
1,1,0.4020,-0.3490,-0.0990*
1,1,0.4020,-0.3490,0.0990*
1,1,0.4020,0.3490,0.0990*
%
%ADD27ROUNDEDRECTD27*%
G04:AMPARAMS|DCode=28|XSize=1.35mm|YSize=1.65mm|CornerRadius=0.27mm|HoleSize=0mm|Usage=FLASHONLY|Rotation=90.000|XOffset=0mm|YOffset=0mm|HoleType=Round|Shape=RoundedRectangle|*
%AMROUNDEDRECTD28*
21,1,1.3500,1.1100,0,0,90.0*
21,1,0.8100,1.6500,0,0,90.0*
1,1,0.5400,0.5550,0.4050*
1,1,0.5400,0.5550,-0.4050*
1,1,0.5400,-0.5550,-0.4050*
1,1,0.5400,-0.5550,0.4050*
%
%ADD28ROUNDEDRECTD28*%
G04:AMPARAMS|DCode=29|XSize=0.7mm|YSize=0.25mm|CornerRadius=0.0838mm|HoleSize=0mm|Usage=FLASHONLY|Rotation=0.000|XOffset=0mm|YOffset=0mm|HoleType=Round|Shape=RoundedRectangle|*
%AMROUNDEDRECTD29*
21,1,0.7000,0.0825,0,0,0.0*
21,1,0.5325,0.2500,0,0,0.0*
1,1,0.1675,0.2662,-0.0413*
1,1,0.1675,-0.2662,-0.0413*
1,1,0.1675,-0.2662,0.0413*
1,1,0.1675,0.2662,0.0413*
%
%ADD29ROUNDEDRECTD29*%
G04:AMPARAMS|DCode=30|XSize=1.75mm|YSize=1.05mm|CornerRadius=0.1995mm|HoleSize=0mm|Usage=FLASHONLY|Rotation=270.000|XOffset=0mm|YOffset=0mm|HoleType=Round|Shape=RoundedRectangle|*
%AMROUNDEDRECTD30*
21,1,1.7500,0.6510,0,0,270.0*
21,1,1.3510,1.0500,0,0,270.0*
1,1,0.3990,-0.3255,-0.6755*
1,1,0.3990,-0.3255,0.6755*
1,1,0.3990,0.3255,0.6755*
1,1,0.3990,0.3255,-0.6755*
%
%ADD30ROUNDEDRECTD30*%
%ADD31O,1.3500X0.5000*%
G04:AMPARAMS|DCode=32|XSize=1.05mm|YSize=0.65mm|CornerRadius=0.2015mm|HoleSize=0mm|Usage=FLASHONLY|Rotation=0.000|XOffset=0mm|YOffset=0mm|HoleType=Round|Shape=RoundedRectangle|*
%AMROUNDEDRECTD32*
21,1,1.0500,0.2470,0,0,0.0*
21,1,0.6470,0.6500,0,0,0.0*
1,1,0.4030,0.3235,-0.1235*
1,1,0.4030,-0.3235,-0.1235*
1,1,0.4030,-0.3235,0.1235*
1,1,0.4030,0.3235,0.1235*
%
%ADD32ROUNDEDRECTD32*%
%ADD33O,0.5000X1.3500*%
G04:AMPARAMS|DCode=34|XSize=6.5mm|YSize=5mm|CornerRadius=0.25mm|HoleSize=0mm|Usage=FLASHONLY|Rotation=90.000|XOffset=0mm|YOffset=0mm|HoleType=Round|Shape=RoundedRectangle|*
%AMROUNDEDRECTD34*
21,1,6.5000,4.5000,0,0,90.0*
21,1,6.0000,5.0000,0,0,90.0*
1,1,0.5000,2.2500,3.0000*
1,1,0.5000,2.2500,-3.0000*
1,1,0.5000,-2.2500,-3.0000*
1,1,0.5000,-2.2500,3.0000*
%
%ADD34ROUNDEDRECTD34*%
G04:AMPARAMS|DCode=35|XSize=3.3mm|YSize=2.5mm|CornerRadius=0.2mm|HoleSize=0mm|Usage=FLASHONLY|Rotation=270.000|XOffset=0mm|YOffset=0mm|HoleType=Round|Shape=RoundedRectangle|*
%AMROUNDEDRECTD35*
21,1,3.3000,2.1000,0,0,270.0*
21,1,2.9000,2.5000,0,0,270.0*
1,1,0.4000,-1.0500,-1.4500*
1,1,0.4000,-1.0500,1.4500*
1,1,0.4000,1.0500,1.4500*
1,1,0.4000,1.0500,-1.4500*
%
%ADD35ROUNDEDRECTD35*%
G04:AMPARAMS|DCode=36|XSize=2.5mm|YSize=1.7mm|CornerRadius=0.204mm|HoleSize=0mm|Usage=FLASHONLY|Rotation=180.000|XOffset=0mm|YOffset=0mm|HoleType=Round|Shape=RoundedRectangle|*
%AMROUNDEDRECTD36*
21,1,2.5000,1.2920,0,0,180.0*
21,1,2.0920,1.7000,0,0,180.0*
1,1,0.4080,-1.0460,0.6460*
1,1,0.4080,1.0460,0.6460*
1,1,0.4080,1.0460,-0.6460*
1,1,0.4080,-1.0460,-0.6460*
%
%ADD36ROUNDEDRECTD36*%
G04:AMPARAMS|DCode=37|XSize=1.2mm|YSize=1.2mm|CornerRadius=0.198mm|HoleSize=0mm|Usage=FLASHONLY|Rotation=90.000|XOffset=0mm|YOffset=0mm|HoleType=Round|Shape=RoundedRectangle|*
%AMROUNDEDRECTD37*
21,1,1.2000,0.8040,0,0,90.0*
21,1,0.8040,1.2000,0,0,90.0*
1,1,0.3960,0.4020,0.4020*
1,1,0.3960,0.4020,-0.4020*
1,1,0.3960,-0.4020,-0.4020*
1,1,0.3960,-0.4020,0.4020*
%
%ADD37ROUNDEDRECTD37*%
G04:AMPARAMS|DCode=38|XSize=1.2mm|YSize=1.2mm|CornerRadius=0.198mm|HoleSize=0mm|Usage=FLASHONLY|Rotation=0.000|XOffset=0mm|YOffset=0mm|HoleType=Round|Shape=RoundedRectangle|*
%AMROUNDEDRECTD38*
21,1,1.2000,0.8040,0,0,0.0*
21,1,0.8040,1.2000,0,0,0.0*
1,1,0.3960,0.4020,-0.4020*
1,1,0.3960,-0.4020,-0.4020*
1,1,0.3960,-0.4020,0.4020*
1,1,0.3960,0.4020,0.4020*
%
%ADD38ROUNDEDRECTD38*%
G04:AMPARAMS|DCode=39|XSize=1mm|YSize=0.95mm|CornerRadius=0.1995mm|HoleSize=0mm|Usage=FLASHONLY|Rotation=270.000|XOffset=0mm|YOffset=0mm|HoleType=Round|Shape=RoundedRectangle|*
%AMROUNDEDRECTD39*
21,1,1.0000,0.5510,0,0,270.0*
21,1,0.6010,0.9500,0,0,270.0*
1,1,0.3990,-0.2755,-0.3005*
1,1,0.3990,-0.2755,0.3005*
1,1,0.3990,0.2755,0.3005*
1,1,0.3990,0.2755,-0.3005*
%
%ADD39ROUNDEDRECTD39*%
G04:AMPARAMS|DCode=40|XSize=1mm|YSize=0.95mm|CornerRadius=0.1995mm|HoleSize=0mm|Usage=FLASHONLY|Rotation=180.000|XOffset=0mm|YOffset=0mm|HoleType=Round|Shape=RoundedRectangle|*
%AMROUNDEDRECTD40*
21,1,1.0000,0.5510,0,0,180.0*
21,1,0.6010,0.9500,0,0,180.0*
1,1,0.3990,-0.3005,0.2755*
1,1,0.3990,0.3005,0.2755*
1,1,0.3990,0.3005,-0.2755*
1,1,0.3990,-0.3005,-0.2755*
%
%ADD40ROUNDEDRECTD40*%
G04:AMPARAMS|DCode=41|XSize=2.7mm|YSize=1.15mm|CornerRadius=0.2013mm|HoleSize=0mm|Usage=FLASHONLY|Rotation=180.000|XOffset=0mm|YOffset=0mm|HoleType=Round|Shape=RoundedRectangle|*
%AMROUNDEDRECTD41*
21,1,2.7000,0.7475,0,0,180.0*
21,1,2.2975,1.1500,0,0,180.0*
1,1,0.4025,-1.1487,0.3738*
1,1,0.4025,1.1487,0.3738*
1,1,0.4025,1.1487,-0.3738*
1,1,0.4025,-1.1487,-0.3738*
%
%ADD41ROUNDEDRECTD41*%
G04:AMPARAMS|DCode=42|XSize=1.45mm|YSize=1.15mm|CornerRadius=0.2013mm|HoleSize=0mm|Usage=FLASHONLY|Rotation=0.000|XOffset=0mm|YOffset=0mm|HoleType=Round|Shape=RoundedRectangle|*
%AMROUNDEDRECTD42*
21,1,1.4500,0.7475,0,0,0.0*
21,1,1.0475,1.1500,0,0,0.0*
1,1,0.4025,0.5238,-0.3738*
1,1,0.4025,-0.5238,-0.3738*
1,1,0.4025,-0.5238,0.3738*
1,1,0.4025,0.5238,0.3738*
%
%ADD42ROUNDEDRECTD42*%
G04:AMPARAMS|DCode=43|XSize=1.1mm|YSize=0.8mm|CornerRadius=0.268mm|HoleSize=0mm|Usage=FLASHONLY|Rotation=0.000|XOffset=0mm|YOffset=0mm|HoleType=Round|Shape=RoundedRectangle|*
%AMROUNDEDRECTD43*
21,1,1.1000,0.2640,0,0,0.0*
21,1,0.5640,0.8000,0,0,0.0*
1,1,0.5360,0.2820,-0.1320*
1,1,0.5360,-0.2820,-0.1320*
1,1,0.5360,-0.2820,0.1320*
1,1,0.5360,0.2820,0.1320*
%
%ADD43ROUNDEDRECTD43*%
G04:AMPARAMS|DCode=44|XSize=2.3mm|YSize=0.5mm|CornerRadius=0.2mm|HoleSize=0mm|Usage=FLASHONLY|Rotation=270.000|XOffset=0mm|YOffset=0mm|HoleType=Round|Shape=RoundedRectangle|*
%AMROUNDEDRECTD44*
21,1,2.3000,0.1000,0,0,270.0*
21,1,1.9000,0.5000,0,0,270.0*
1,1,0.4000,-0.0500,-0.9500*
1,1,0.4000,-0.0500,0.9500*
1,1,0.4000,0.0500,0.9500*
1,1,0.4000,0.0500,-0.9500*
%
%ADD44ROUNDEDRECTD44*%
G04:AMPARAMS|DCode=45|XSize=2.5mm|YSize=2mm|CornerRadius=0.2mm|HoleSize=0mm|Usage=FLASHONLY|Rotation=270.000|XOffset=0mm|YOffset=0mm|HoleType=Round|Shape=RoundedRectangle|*
%AMROUNDEDRECTD45*
21,1,2.5000,1.6000,0,0,270.0*
21,1,2.1000,2.0000,0,0,270.0*
1,1,0.4000,-0.8000,-1.0500*
1,1,0.4000,-0.8000,1.0500*
1,1,0.4000,0.8000,1.0500*
1,1,0.4000,0.8000,-1.0500*
%
%ADD45ROUNDEDRECTD45*%
%ADD46O,0.2500X0.8500*%
%ADD47O,0.8500X0.2500*%
%ADD48C,0.4000*%
%ADD49C,0.6000*%
%ADD50C,0.2500*%
%ADD51C,0.5000*%
%ADD52C,0.2000*%
%ADD53C,0.3500*%
%ADD54C,0.4500*%
%ADD55C,0.3000*%
%ADD56C,0.2540*%
%ADD57C,2.0000*%
%ADD58C,0.4000*%
%ADD59C,7.0000*%
%ADD60C,2.0000*%
%ADD61C,2.5000*%
%ADD62C,0.5000*%
%ADD63C,4.5000*%
%ADD64C,0.1500*%
%ADD65C,0.1000*%
%ADD66C,0.1524*%
%ADD67C,0.0000*%
G04:AMPARAMS|DCode=68|XSize=1.15mm|YSize=1.05mm|CornerRadius=0.273mm|HoleSize=0mm|Usage=FLASHONLY|Rotation=270.000|XOffset=0mm|YOffset=0mm|HoleType=Round|Shape=RoundedRectangle|*
%AMROUNDEDRECTD68*
21,1,1.1500,0.5040,0,0,270.0*
21,1,0.6040,1.0500,0,0,270.0*
1,1,0.5460,-0.2520,-0.3020*
1,1,0.5460,-0.2520,0.3020*
1,1,0.5460,0.2520,0.3020*
1,1,0.5460,0.2520,-0.3020*
%
%ADD68ROUNDEDRECTD68*%
%ADD69C,0.8000*%
%ADD70C,1.5000*%
%ADD71R,1.5000X1.5000*%
G04:AMPARAMS|DCode=72|XSize=1.6mm|YSize=1.3mm|CornerRadius=0.2763mm|HoleSize=0mm|Usage=FLASHONLY|Rotation=90.000|XOffset=0mm|YOffset=0mm|HoleType=Round|Shape=RoundedRectangle|*
%AMROUNDEDRECTD72*
21,1,1.6000,0.7475,0,0,90.0*
21,1,1.0475,1.3000,0,0,90.0*
1,1,0.5525,0.3738,0.5238*
1,1,0.5525,0.3738,-0.5238*
1,1,0.5525,-0.3738,-0.5238*
1,1,0.5525,-0.3738,0.5238*
%
%ADD72ROUNDEDRECTD72*%
G04:AMPARAMS|DCode=73|XSize=1.15mm|YSize=1.05mm|CornerRadius=0.273mm|HoleSize=0mm|Usage=FLASHONLY|Rotation=180.000|XOffset=0mm|YOffset=0mm|HoleType=Round|Shape=RoundedRectangle|*
%AMROUNDEDRECTD73*
21,1,1.1500,0.5040,0,0,180.0*
21,1,0.6040,1.0500,0,0,180.0*
1,1,0.5460,-0.3020,0.2520*
1,1,0.5460,0.3020,0.2520*
1,1,0.5460,0.3020,-0.2520*
1,1,0.5460,-0.3020,-0.2520*
%
%ADD73ROUNDEDRECTD73*%
%ADD74O,0.4000X1.6000*%
%ADD75O,1.6000X0.4000*%
%ADD76C,2.0000*%
G04:AMPARAMS|DCode=77|XSize=2.85mm|YSize=1.3mm|CornerRadius=0.2763mm|HoleSize=0mm|Usage=FLASHONLY|Rotation=90.000|XOffset=0mm|YOffset=0mm|HoleType=Round|Shape=RoundedRectangle|*
%AMROUNDEDRECTD77*
21,1,2.8500,0.7475,0,0,90.0*
21,1,2.2975,1.3000,0,0,90.0*
1,1,0.5525,0.3738,1.1487*
1,1,0.5525,0.3738,-1.1487*
1,1,0.5525,-0.3738,-1.1487*
1,1,0.5525,-0.3738,1.1487*
%
%ADD77ROUNDEDRECTD77*%
G04:AMPARAMS|DCode=78|XSize=5.05mm|YSize=1.75mm|CornerRadius=0.275mm|HoleSize=0mm|Usage=FLASHONLY|Rotation=270.000|XOffset=0mm|YOffset=0mm|HoleType=Round|Shape=RoundedRectangle|*
%AMROUNDEDRECTD78*
21,1,5.0500,1.2000,0,0,270.0*
21,1,4.5000,1.7500,0,0,270.0*
1,1,0.5500,-0.6000,-2.2500*
1,1,0.5500,-0.6000,2.2500*
1,1,0.5500,0.6000,2.2500*
1,1,0.5500,0.6000,-2.2500*
%
%ADD78ROUNDEDRECTD78*%
%ADD79O,1.7000X0.7500*%
%ADD80O,0.7500X1.7000*%
G04:AMPARAMS|DCode=81|XSize=6.6mm|YSize=6.15mm|CornerRadius=0.285mm|HoleSize=0mm|Usage=FLASHONLY|Rotation=0.000|XOffset=0mm|YOffset=0mm|HoleType=Round|Shape=RoundedRectangle|*
%AMROUNDEDRECTD81*
21,1,6.6000,5.5800,0,0,0.0*
21,1,6.0300,6.1500,0,0,0.0*
1,1,0.5700,3.0150,-2.7900*
1,1,0.5700,-3.0150,-2.7900*
1,1,0.5700,-3.0150,2.7900*
1,1,0.5700,3.0150,2.7900*
%
%ADD81ROUNDEDRECTD81*%
G04:AMPARAMS|DCode=82|XSize=3mm|YSize=1.15mm|CornerRadius=0.275mm|HoleSize=0mm|Usage=FLASHONLY|Rotation=0.000|XOffset=0mm|YOffset=0mm|HoleType=Round|Shape=RoundedRectangle|*
%AMROUNDEDRECTD82*
21,1,3.0000,0.6000,0,0,0.0*
21,1,2.4500,1.1500,0,0,0.0*
1,1,0.5500,1.2250,-0.3000*
1,1,0.5500,-1.2250,-0.3000*
1,1,0.5500,-1.2250,0.3000*
1,1,0.5500,1.2250,0.3000*
%
%ADD82ROUNDEDRECTD82*%
G04:AMPARAMS|DCode=83|XSize=11.45mm|YSize=10.9mm|CornerRadius=0.29mm|HoleSize=0mm|Usage=FLASHONLY|Rotation=0.000|XOffset=0mm|YOffset=0mm|HoleType=Round|Shape=RoundedRectangle|*
%AMROUNDEDRECTD83*
21,1,11.4500,10.3200,0,0,0.0*
21,1,10.8700,10.9000,0,0,0.0*
1,1,0.5800,5.4350,-5.1600*
1,1,0.5800,-5.4350,-5.1600*
1,1,0.5800,-5.4350,5.1600*
1,1,0.5800,5.4350,5.1600*
%
%ADD83ROUNDEDRECTD83*%
G04:AMPARAMS|DCode=84|XSize=4.1mm|YSize=1.35mm|CornerRadius=0.273mm|HoleSize=0mm|Usage=FLASHONLY|Rotation=0.000|XOffset=0mm|YOffset=0mm|HoleType=Round|Shape=RoundedRectangle|*
%AMROUNDEDRECTD84*
21,1,4.1000,0.8040,0,0,0.0*
21,1,3.5540,1.3500,0,0,0.0*
1,1,0.5460,1.7770,-0.4020*
1,1,0.5460,-1.7770,-0.4020*
1,1,0.5460,-1.7770,0.4020*
1,1,0.5460,1.7770,0.4020*
%
%ADD84ROUNDEDRECTD84*%
G04:AMPARAMS|DCode=85|XSize=1.25mm|YSize=0.75mm|CornerRadius=0.276mm|HoleSize=0mm|Usage=FLASHONLY|Rotation=0.000|XOffset=0mm|YOffset=0mm|HoleType=Round|Shape=RoundedRectangle|*
%AMROUNDEDRECTD85*
21,1,1.2500,0.1980,0,0,0.0*
21,1,0.6980,0.7500,0,0,0.0*
1,1,0.5520,0.3490,-0.0990*
1,1,0.5520,-0.3490,-0.0990*
1,1,0.5520,-0.3490,0.0990*
1,1,0.5520,0.3490,0.0990*
%
%ADD85ROUNDEDRECTD85*%
G04:AMPARAMS|DCode=86|XSize=1.5mm|YSize=1.8mm|CornerRadius=0.345mm|HoleSize=0mm|Usage=FLASHONLY|Rotation=90.000|XOffset=0mm|YOffset=0mm|HoleType=Round|Shape=RoundedRectangle|*
%AMROUNDEDRECTD86*
21,1,1.5000,1.1100,0,0,90.0*
21,1,0.8100,1.8000,0,0,90.0*
1,1,0.6900,0.5550,0.4050*
1,1,0.6900,0.5550,-0.4050*
1,1,0.6900,-0.5550,-0.4050*
1,1,0.6900,-0.5550,0.4050*
%
%ADD86ROUNDEDRECTD86*%
G04:AMPARAMS|DCode=87|XSize=0.8mm|YSize=0.35mm|CornerRadius=0.1338mm|HoleSize=0mm|Usage=FLASHONLY|Rotation=0.000|XOffset=0mm|YOffset=0mm|HoleType=Round|Shape=RoundedRectangle|*
%AMROUNDEDRECTD87*
21,1,0.8000,0.0825,0,0,0.0*
21,1,0.5325,0.3500,0,0,0.0*
1,1,0.2675,0.2662,-0.0413*
1,1,0.2675,-0.2662,-0.0413*
1,1,0.2675,-0.2662,0.0413*
1,1,0.2675,0.2662,0.0413*
%
%ADD87ROUNDEDRECTD87*%
G04:AMPARAMS|DCode=88|XSize=1.9mm|YSize=1.2mm|CornerRadius=0.2745mm|HoleSize=0mm|Usage=FLASHONLY|Rotation=270.000|XOffset=0mm|YOffset=0mm|HoleType=Round|Shape=RoundedRectangle|*
%AMROUNDEDRECTD88*
21,1,1.9000,0.6510,0,0,270.0*
21,1,1.3510,1.2000,0,0,270.0*
1,1,0.5490,-0.3255,-0.6755*
1,1,0.5490,-0.3255,0.6755*
1,1,0.5490,0.3255,0.6755*
1,1,0.5490,0.3255,-0.6755*
%
%ADD88ROUNDEDRECTD88*%
%ADD89O,1.5000X0.6500*%
G04:AMPARAMS|DCode=90|XSize=1.2mm|YSize=0.8mm|CornerRadius=0.2765mm|HoleSize=0mm|Usage=FLASHONLY|Rotation=0.000|XOffset=0mm|YOffset=0mm|HoleType=Round|Shape=RoundedRectangle|*
%AMROUNDEDRECTD90*
21,1,1.2000,0.2470,0,0,0.0*
21,1,0.6470,0.8000,0,0,0.0*
1,1,0.5530,0.3235,-0.1235*
1,1,0.5530,-0.3235,-0.1235*
1,1,0.5530,-0.3235,0.1235*
1,1,0.5530,0.3235,0.1235*
%
%ADD90ROUNDEDRECTD90*%
%ADD91O,0.6500X1.5000*%
G04:AMPARAMS|DCode=92|XSize=6.65mm|YSize=5.15mm|CornerRadius=0.325mm|HoleSize=0mm|Usage=FLASHONLY|Rotation=90.000|XOffset=0mm|YOffset=0mm|HoleType=Round|Shape=RoundedRectangle|*
%AMROUNDEDRECTD92*
21,1,6.6500,4.5000,0,0,90.0*
21,1,6.0000,5.1500,0,0,90.0*
1,1,0.6500,2.2500,3.0000*
1,1,0.6500,2.2500,-3.0000*
1,1,0.6500,-2.2500,-3.0000*
1,1,0.6500,-2.2500,3.0000*
%
%ADD92ROUNDEDRECTD92*%
G04:AMPARAMS|DCode=93|XSize=3.45mm|YSize=2.65mm|CornerRadius=0.275mm|HoleSize=0mm|Usage=FLASHONLY|Rotation=270.000|XOffset=0mm|YOffset=0mm|HoleType=Round|Shape=RoundedRectangle|*
%AMROUNDEDRECTD93*
21,1,3.4500,2.1000,0,0,270.0*
21,1,2.9000,2.6500,0,0,270.0*
1,1,0.5500,-1.0500,-1.4500*
1,1,0.5500,-1.0500,1.4500*
1,1,0.5500,1.0500,1.4500*
1,1,0.5500,1.0500,-1.4500*
%
%ADD93ROUNDEDRECTD93*%
G04:AMPARAMS|DCode=94|XSize=2.65mm|YSize=1.85mm|CornerRadius=0.279mm|HoleSize=0mm|Usage=FLASHONLY|Rotation=180.000|XOffset=0mm|YOffset=0mm|HoleType=Round|Shape=RoundedRectangle|*
%AMROUNDEDRECTD94*
21,1,2.6500,1.2920,0,0,180.0*
21,1,2.0920,1.8500,0,0,180.0*
1,1,0.5580,-1.0460,0.6460*
1,1,0.5580,1.0460,0.6460*
1,1,0.5580,1.0460,-0.6460*
1,1,0.5580,-1.0460,-0.6460*
%
%ADD94ROUNDEDRECTD94*%
G04:AMPARAMS|DCode=95|XSize=1.35mm|YSize=1.35mm|CornerRadius=0.273mm|HoleSize=0mm|Usage=FLASHONLY|Rotation=90.000|XOffset=0mm|YOffset=0mm|HoleType=Round|Shape=RoundedRectangle|*
%AMROUNDEDRECTD95*
21,1,1.3500,0.8040,0,0,90.0*
21,1,0.8040,1.3500,0,0,90.0*
1,1,0.5460,0.4020,0.4020*
1,1,0.5460,0.4020,-0.4020*
1,1,0.5460,-0.4020,-0.4020*
1,1,0.5460,-0.4020,0.4020*
%
%ADD95ROUNDEDRECTD95*%
G04:AMPARAMS|DCode=96|XSize=1.35mm|YSize=1.35mm|CornerRadius=0.273mm|HoleSize=0mm|Usage=FLASHONLY|Rotation=0.000|XOffset=0mm|YOffset=0mm|HoleType=Round|Shape=RoundedRectangle|*
%AMROUNDEDRECTD96*
21,1,1.3500,0.8040,0,0,0.0*
21,1,0.8040,1.3500,0,0,0.0*
1,1,0.5460,0.4020,-0.4020*
1,1,0.5460,-0.4020,-0.4020*
1,1,0.5460,-0.4020,0.4020*
1,1,0.5460,0.4020,0.4020*
%
%ADD96ROUNDEDRECTD96*%
G04:AMPARAMS|DCode=97|XSize=1.15mm|YSize=1.1mm|CornerRadius=0.2745mm|HoleSize=0mm|Usage=FLASHONLY|Rotation=270.000|XOffset=0mm|YOffset=0mm|HoleType=Round|Shape=RoundedRectangle|*
%AMROUNDEDRECTD97*
21,1,1.1500,0.5510,0,0,270.0*
21,1,0.6010,1.1000,0,0,270.0*
1,1,0.5490,-0.2755,-0.3005*
1,1,0.5490,-0.2755,0.3005*
1,1,0.5490,0.2755,0.3005*
1,1,0.5490,0.2755,-0.3005*
%
%ADD97ROUNDEDRECTD97*%
G04:AMPARAMS|DCode=98|XSize=1.15mm|YSize=1.1mm|CornerRadius=0.2745mm|HoleSize=0mm|Usage=FLASHONLY|Rotation=180.000|XOffset=0mm|YOffset=0mm|HoleType=Round|Shape=RoundedRectangle|*
%AMROUNDEDRECTD98*
21,1,1.1500,0.5510,0,0,180.0*
21,1,0.6010,1.1000,0,0,180.0*
1,1,0.5490,-0.3005,0.2755*
1,1,0.5490,0.3005,0.2755*
1,1,0.5490,0.3005,-0.2755*
1,1,0.5490,-0.3005,-0.2755*
%
%ADD98ROUNDEDRECTD98*%
G04:AMPARAMS|DCode=99|XSize=2.85mm|YSize=1.3mm|CornerRadius=0.2763mm|HoleSize=0mm|Usage=FLASHONLY|Rotation=180.000|XOffset=0mm|YOffset=0mm|HoleType=Round|Shape=RoundedRectangle|*
%AMROUNDEDRECTD99*
21,1,2.8500,0.7475,0,0,180.0*
21,1,2.2975,1.3000,0,0,180.0*
1,1,0.5525,-1.1487,0.3738*
1,1,0.5525,1.1487,0.3738*
1,1,0.5525,1.1487,-0.3738*
1,1,0.5525,-1.1487,-0.3738*
%
%ADD99ROUNDEDRECTD99*%
G04:AMPARAMS|DCode=100|XSize=1.6mm|YSize=1.3mm|CornerRadius=0.2763mm|HoleSize=0mm|Usage=FLASHONLY|Rotation=0.000|XOffset=0mm|YOffset=0mm|HoleType=Round|Shape=RoundedRectangle|*
%AMROUNDEDRECTD100*
21,1,1.6000,0.7475,0,0,0.0*
21,1,1.0475,1.3000,0,0,0.0*
1,1,0.5525,0.5238,-0.3738*
1,1,0.5525,-0.5238,-0.3738*
1,1,0.5525,-0.5238,0.3738*
1,1,0.5525,0.5238,0.3738*
%
%ADD100ROUNDEDRECTD100*%
G04:AMPARAMS|DCode=101|XSize=1.25mm|YSize=0.95mm|CornerRadius=0.343mm|HoleSize=0mm|Usage=FLASHONLY|Rotation=0.000|XOffset=0mm|YOffset=0mm|HoleType=Round|Shape=RoundedRectangle|*
%AMROUNDEDRECTD101*
21,1,1.2500,0.2640,0,0,0.0*
21,1,0.5640,0.9500,0,0,0.0*
1,1,0.6860,0.2820,-0.1320*
1,1,0.6860,-0.2820,-0.1320*
1,1,0.6860,-0.2820,0.1320*
1,1,0.6860,0.2820,0.1320*
%
%ADD101ROUNDEDRECTD101*%
G04:AMPARAMS|DCode=102|XSize=2.45mm|YSize=0.65mm|CornerRadius=0.275mm|HoleSize=0mm|Usage=FLASHONLY|Rotation=270.000|XOffset=0mm|YOffset=0mm|HoleType=Round|Shape=RoundedRectangle|*
%AMROUNDEDRECTD102*
21,1,2.4500,0.1000,0,0,270.0*
21,1,1.9000,0.6500,0,0,270.0*
1,1,0.5500,-0.0500,-0.9500*
1,1,0.5500,-0.0500,0.9500*
1,1,0.5500,0.0500,0.9500*
1,1,0.5500,0.0500,-0.9500*
%
%ADD102ROUNDEDRECTD102*%
G04:AMPARAMS|DCode=103|XSize=2.65mm|YSize=2.15mm|CornerRadius=0.275mm|HoleSize=0mm|Usage=FLASHONLY|Rotation=270.000|XOffset=0mm|YOffset=0mm|HoleType=Round|Shape=RoundedRectangle|*
%AMROUNDEDRECTD103*
21,1,2.6500,1.6000,0,0,270.0*
21,1,2.1000,2.1500,0,0,270.0*
1,1,0.5500,-0.8000,-1.0500*
1,1,0.5500,-0.8000,1.0500*
1,1,0.5500,0.8000,1.0500*
1,1,0.5500,0.8000,-1.0500*
%
%ADD103ROUNDEDRECTD103*%
%ADD104O,0.4500X1.0500*%
%ADD105O,1.0500X0.4500*%
%ADD106C,7.2000*%
%ADD107C,2.2000*%
%ADD108C,2.6500*%
%ADD109C,1.0500*%
G36*
X-510000Y110000D02*
X-590000D01*
Y190000D01*
X-510000D01*
Y110000D01*
D02*
G37*
G36*
X-710000D02*
X-790000D01*
Y190000D01*
X-710000D01*
Y110000D01*
D02*
G37*
G36*
X-110000D02*
X-190000D01*
Y190000D01*
X-110000D01*
Y110000D01*
D02*
G37*
G36*
X-310000D02*
X-390000D01*
Y190000D01*
X-310000D01*
Y110000D01*
D02*
G37*
G36*
X-820000Y695000D02*
X-80000D01*
Y900000D01*
X0D01*
Y-0D01*
X-80000D01*
Y205000D01*
X-820000D01*
Y0D01*
X-900000D01*
Y205000D01*
X-900000D01*
Y295000D01*
X-900000D01*
Y405000D01*
X-900000D01*
Y495000D01*
X-900000D01*
Y605000D01*
X-900000D01*
Y695000D01*
X-900000D01*
Y900000D01*
X-820000D01*
Y695000D01*
D02*
G37*
G36*
X-310000Y710000D02*
X-390000D01*
Y790000D01*
X-310000D01*
Y710000D01*
D02*
G37*
G36*
X-110000D02*
X-190000D01*
Y790000D01*
X-110000D01*
Y710000D01*
D02*
G37*
G36*
X-710000D02*
X-790000D01*
Y790000D01*
X-710000D01*
Y710000D01*
D02*
G37*
G36*
X-510000D02*
X-590000D01*
Y790000D01*
X-510000D01*
Y710000D01*
D02*
G37*
%LPC*%
G36*
X-80000Y405000D02*
X-820000D01*
Y295000D01*
X-80000D01*
Y405000D01*
D02*
G37*
G36*
Y605000D02*
X-820000D01*
Y495000D01*
X-80000D01*
Y605000D01*
D02*
G37*
%LPD*%
G36*
X-710000Y310000D02*
X-790000D01*
Y390000D01*
X-710000D01*
Y310000D01*
D02*
G37*
G36*
X-510000Y510000D02*
X-590000D01*
Y590000D01*
X-510000D01*
Y510000D01*
D02*
G37*
G36*
X-310000D02*
X-390000D01*
Y590000D01*
X-310000D01*
Y510000D01*
D02*
G37*
G36*
X-110000D02*
X-190000D01*
Y590000D01*
X-110000D01*
Y510000D01*
D02*
G37*
G36*
X-710000D02*
X-790000D01*
Y590000D01*
X-710000D01*
Y510000D01*
D02*
G37*
G36*
X-510000Y310000D02*
X-590000D01*
Y390000D01*
X-510000D01*
Y310000D01*
D02*
G37*
G36*
X-310000D02*
X-390000D01*
Y390000D01*
X-310000D01*
Y310000D01*
D02*
G37*
G36*
X-110000D02*
X-190000D01*
Y390000D01*
X-110000D01*
Y310000D01*
D02*
G37*
D69*
X-168853Y768801D02*
D03*
X-168706Y761199D02*
D03*
Y753706D02*
D03*
X-168655Y746250D02*
D03*
X-168706Y738706D02*
D03*
X-168655Y731199D02*
D03*
X-161345Y768801D02*
D03*
X-161199Y761199D02*
D03*
Y753706D02*
D03*
X-161147Y746250D02*
D03*
X-161199Y738706D02*
D03*
X-161147Y731199D02*
D03*
X-153853Y768801D02*
D03*
X-153706Y761199D02*
D03*
Y753706D02*
D03*
X-153655Y746250D02*
D03*
X-153706Y738706D02*
D03*
X-153655Y731199D02*
D03*
X-146147Y768801D02*
D03*
X-146000Y761199D02*
D03*
Y753706D02*
D03*
X-145949Y746250D02*
D03*
X-146000Y738706D02*
D03*
X-145949Y731199D02*
D03*
X-138853Y768801D02*
D03*
X-138706Y761199D02*
D03*
Y753706D02*
D03*
X-138655Y746250D02*
D03*
X-138706Y738706D02*
D03*
X-138655Y731199D02*
D03*
X-131147Y731147D02*
D03*
X-131199Y738655D02*
D03*
X-131147Y746199D02*
D03*
X-131199Y753655D02*
D03*
Y761147D02*
D03*
X-131345Y768750D02*
D03*
X-168853Y568801D02*
D03*
X-168706Y561198D02*
D03*
Y553706D02*
D03*
X-168655Y546250D02*
D03*
X-168706Y538706D02*
D03*
X-168655Y531199D02*
D03*
X-161345Y568801D02*
D03*
X-161199Y561198D02*
D03*
Y553706D02*
D03*
X-161147Y546250D02*
D03*
X-161199Y538706D02*
D03*
X-161147Y531199D02*
D03*
X-153853Y568801D02*
D03*
X-153706Y561198D02*
D03*
Y553706D02*
D03*
X-153655Y546250D02*
D03*
X-153706Y538706D02*
D03*
X-153655Y531199D02*
D03*
X-146147Y568801D02*
D03*
X-146000Y561198D02*
D03*
Y553706D02*
D03*
X-145949Y546250D02*
D03*
X-146000Y538706D02*
D03*
X-145949Y531199D02*
D03*
X-138853Y568801D02*
D03*
X-138706Y561198D02*
D03*
Y553706D02*
D03*
X-138655Y546250D02*
D03*
X-138706Y538706D02*
D03*
X-138655Y531199D02*
D03*
X-131147Y531147D02*
D03*
X-131199Y538655D02*
D03*
X-131147Y546199D02*
D03*
X-131199Y553655D02*
D03*
Y561147D02*
D03*
X-131345Y568750D02*
D03*
X-168853Y368801D02*
D03*
X-168706Y361198D02*
D03*
Y353706D02*
D03*
X-168655Y346250D02*
D03*
X-168706Y338706D02*
D03*
X-168655Y331198D02*
D03*
X-161345Y368801D02*
D03*
X-161199Y361198D02*
D03*
Y353706D02*
D03*
X-161147Y346250D02*
D03*
X-161199Y338706D02*
D03*
X-161147Y331198D02*
D03*
X-153853Y368801D02*
D03*
X-153706Y361198D02*
D03*
Y353706D02*
D03*
X-153655Y346250D02*
D03*
X-153706Y338706D02*
D03*
X-153655Y331198D02*
D03*
X-146147Y368801D02*
D03*
X-146000Y361198D02*
D03*
Y353706D02*
D03*
X-145949Y346250D02*
D03*
X-146000Y338706D02*
D03*
X-145949Y331198D02*
D03*
X-138853Y368801D02*
D03*
X-138706Y361198D02*
D03*
Y353706D02*
D03*
X-138655Y346250D02*
D03*
X-138706Y338706D02*
D03*
X-138655Y331198D02*
D03*
X-131147Y331147D02*
D03*
X-131199Y338655D02*
D03*
X-131147Y346198D02*
D03*
X-131199Y353655D02*
D03*
Y361147D02*
D03*
X-131345Y368750D02*
D03*
X-168853Y168801D02*
D03*
X-168706Y161198D02*
D03*
Y153706D02*
D03*
X-168655Y146250D02*
D03*
X-168706Y138706D02*
D03*
X-168655Y131198D02*
D03*
X-161345Y168801D02*
D03*
X-161199Y161198D02*
D03*
Y153706D02*
D03*
X-161147Y146250D02*
D03*
X-161199Y138706D02*
D03*
X-161147Y131198D02*
D03*
X-153853Y168801D02*
D03*
X-153706Y161198D02*
D03*
Y153706D02*
D03*
X-153655Y146250D02*
D03*
X-153706Y138706D02*
D03*
X-153655Y131198D02*
D03*
X-146147Y168801D02*
D03*
X-146000Y161198D02*
D03*
Y153706D02*
D03*
X-145949Y146250D02*
D03*
X-146000Y138706D02*
D03*
X-145949Y131198D02*
D03*
X-138853Y168801D02*
D03*
X-138706Y161198D02*
D03*
Y153706D02*
D03*
X-138655Y146250D02*
D03*
X-138706Y138706D02*
D03*
X-138655Y131198D02*
D03*
X-131147Y131147D02*
D03*
X-131199Y138655D02*
D03*
X-131147Y146198D02*
D03*
X-131199Y153655D02*
D03*
Y161147D02*
D03*
X-131345Y168750D02*
D03*
X-331147Y131199D02*
D03*
X-331294Y138801D02*
D03*
Y146294D02*
D03*
X-331345Y153750D02*
D03*
X-331294Y161294D02*
D03*
X-331345Y168801D02*
D03*
X-338655Y131199D02*
D03*
X-338801Y138801D02*
D03*
Y146294D02*
D03*
X-338853Y153750D02*
D03*
X-338801Y161294D02*
D03*
X-338853Y168801D02*
D03*
X-346147Y131199D02*
D03*
X-346294Y138801D02*
D03*
Y146294D02*
D03*
X-346345Y153750D02*
D03*
X-346294Y161294D02*
D03*
X-346345Y168801D02*
D03*
X-353853Y131199D02*
D03*
X-354000Y138801D02*
D03*
Y146294D02*
D03*
X-354051Y153750D02*
D03*
X-354000Y161294D02*
D03*
X-354051Y168801D02*
D03*
X-361147Y131199D02*
D03*
X-361294Y138801D02*
D03*
Y146294D02*
D03*
X-361345Y153750D02*
D03*
X-361294Y161294D02*
D03*
X-361345Y168801D02*
D03*
X-368853Y168853D02*
D03*
X-368801Y161345D02*
D03*
X-368853Y153801D02*
D03*
X-368801Y146345D02*
D03*
Y138853D02*
D03*
X-368655Y131250D02*
D03*
X-331147Y331199D02*
D03*
X-331294Y338801D02*
D03*
Y346294D02*
D03*
X-331345Y353750D02*
D03*
X-331294Y361294D02*
D03*
X-331345Y368801D02*
D03*
X-338655Y331199D02*
D03*
X-338801Y338801D02*
D03*
Y346294D02*
D03*
X-338853Y353750D02*
D03*
X-338801Y361294D02*
D03*
X-338853Y368801D02*
D03*
X-346147Y331199D02*
D03*
X-346294Y338801D02*
D03*
Y346294D02*
D03*
X-346345Y353750D02*
D03*
X-346294Y361294D02*
D03*
X-346345Y368801D02*
D03*
X-353853Y331199D02*
D03*
X-354000Y338801D02*
D03*
Y346294D02*
D03*
X-354051Y353750D02*
D03*
X-354000Y361294D02*
D03*
X-354051Y368801D02*
D03*
X-361147Y331199D02*
D03*
X-361294Y338801D02*
D03*
Y346294D02*
D03*
X-361345Y353750D02*
D03*
X-361294Y361294D02*
D03*
X-361345Y368801D02*
D03*
X-368853Y368853D02*
D03*
X-368801Y361345D02*
D03*
X-368853Y353801D02*
D03*
X-368801Y346345D02*
D03*
Y338853D02*
D03*
X-368655Y331250D02*
D03*
X-331147Y531199D02*
D03*
X-331294Y538801D02*
D03*
Y546294D02*
D03*
X-331345Y553750D02*
D03*
X-331294Y561294D02*
D03*
X-331345Y568801D02*
D03*
X-338655Y531199D02*
D03*
X-338801Y538801D02*
D03*
Y546294D02*
D03*
X-338853Y553750D02*
D03*
X-338801Y561294D02*
D03*
X-338853Y568801D02*
D03*
X-346147Y531199D02*
D03*
X-346294Y538801D02*
D03*
Y546294D02*
D03*
X-346345Y553750D02*
D03*
X-346294Y561294D02*
D03*
X-346345Y568801D02*
D03*
X-353853Y531199D02*
D03*
X-354000Y538801D02*
D03*
Y546294D02*
D03*
X-354051Y553750D02*
D03*
X-354000Y561294D02*
D03*
X-354051Y568801D02*
D03*
X-361147Y531199D02*
D03*
X-361294Y538801D02*
D03*
Y546294D02*
D03*
X-361345Y553750D02*
D03*
X-361294Y561294D02*
D03*
X-361345Y568801D02*
D03*
X-368853Y568853D02*
D03*
X-368801Y561345D02*
D03*
X-368853Y553801D02*
D03*
X-368801Y546345D02*
D03*
Y538853D02*
D03*
X-368655Y531250D02*
D03*
X-331147Y731199D02*
D03*
X-331294Y738801D02*
D03*
Y746294D02*
D03*
X-331345Y753750D02*
D03*
X-331294Y761294D02*
D03*
X-331345Y768801D02*
D03*
X-338655Y731199D02*
D03*
X-338801Y738801D02*
D03*
Y746294D02*
D03*
X-338853Y753750D02*
D03*
X-338801Y761294D02*
D03*
X-338853Y768801D02*
D03*
X-346147Y731199D02*
D03*
X-346294Y738801D02*
D03*
Y746294D02*
D03*
X-346345Y753750D02*
D03*
X-346294Y761294D02*
D03*
X-346345Y768801D02*
D03*
X-353853Y731199D02*
D03*
X-354000Y738801D02*
D03*
Y746294D02*
D03*
X-354051Y753750D02*
D03*
X-354000Y761294D02*
D03*
X-354051Y768801D02*
D03*
X-361147Y731199D02*
D03*
X-361294Y738801D02*
D03*
Y746294D02*
D03*
X-361345Y753750D02*
D03*
X-361294Y761294D02*
D03*
X-361345Y768801D02*
D03*
X-368853Y768853D02*
D03*
X-368801Y761345D02*
D03*
X-368853Y753801D02*
D03*
X-368801Y746345D02*
D03*
Y738853D02*
D03*
X-368655Y731250D02*
D03*
X-568853Y768801D02*
D03*
X-568706Y761199D02*
D03*
Y753706D02*
D03*
X-568655Y746250D02*
D03*
X-568706Y738706D02*
D03*
X-568655Y731199D02*
D03*
X-561345Y768801D02*
D03*
X-561199Y761199D02*
D03*
Y753706D02*
D03*
X-561147Y746250D02*
D03*
X-561199Y738706D02*
D03*
X-561147Y731199D02*
D03*
X-553853Y768801D02*
D03*
X-553706Y761199D02*
D03*
Y753706D02*
D03*
X-553655Y746250D02*
D03*
X-553706Y738706D02*
D03*
X-553655Y731199D02*
D03*
X-546147Y768801D02*
D03*
X-546000Y761199D02*
D03*
Y753706D02*
D03*
X-545949Y746250D02*
D03*
X-546000Y738706D02*
D03*
X-545949Y731199D02*
D03*
X-538853Y768801D02*
D03*
X-538706Y761199D02*
D03*
Y753706D02*
D03*
X-538655Y746250D02*
D03*
X-538706Y738706D02*
D03*
X-538655Y731199D02*
D03*
X-531147Y731147D02*
D03*
X-531199Y738655D02*
D03*
X-531147Y746199D02*
D03*
X-531199Y753655D02*
D03*
Y761147D02*
D03*
X-531345Y768750D02*
D03*
X-568853Y568801D02*
D03*
X-568706Y561198D02*
D03*
Y553706D02*
D03*
X-568655Y546250D02*
D03*
X-568706Y538706D02*
D03*
X-568655Y531199D02*
D03*
X-561345Y568801D02*
D03*
X-561199Y561198D02*
D03*
Y553706D02*
D03*
X-561147Y546250D02*
D03*
X-561199Y538706D02*
D03*
X-561147Y531199D02*
D03*
X-553853Y568801D02*
D03*
X-553706Y561198D02*
D03*
Y553706D02*
D03*
X-553655Y546250D02*
D03*
X-553706Y538706D02*
D03*
X-553655Y531199D02*
D03*
X-546147Y568801D02*
D03*
X-546000Y561198D02*
D03*
Y553706D02*
D03*
X-545949Y546250D02*
D03*
X-546000Y538706D02*
D03*
X-545949Y531199D02*
D03*
X-538853Y568801D02*
D03*
X-538706Y561198D02*
D03*
Y553706D02*
D03*
X-538655Y546250D02*
D03*
X-538706Y538706D02*
D03*
X-538655Y531199D02*
D03*
X-531147Y531147D02*
D03*
X-531199Y538655D02*
D03*
X-531147Y546199D02*
D03*
X-531199Y553655D02*
D03*
Y561147D02*
D03*
X-531345Y568750D02*
D03*
X-568853Y368801D02*
D03*
X-568706Y361198D02*
D03*
Y353706D02*
D03*
X-568655Y346250D02*
D03*
X-568706Y338706D02*
D03*
X-568655Y331198D02*
D03*
X-561345Y368801D02*
D03*
X-561199Y361198D02*
D03*
Y353706D02*
D03*
X-561147Y346250D02*
D03*
X-561199Y338706D02*
D03*
X-561147Y331198D02*
D03*
X-553853Y368801D02*
D03*
X-553706Y361198D02*
D03*
Y353706D02*
D03*
X-553655Y346250D02*
D03*
X-553706Y338706D02*
D03*
X-553655Y331198D02*
D03*
X-546147Y368801D02*
D03*
X-546000Y361198D02*
D03*
Y353706D02*
D03*
X-545949Y346250D02*
D03*
X-546000Y338706D02*
D03*
X-545949Y331198D02*
D03*
X-538853Y368801D02*
D03*
X-538706Y361198D02*
D03*
Y353706D02*
D03*
X-538655Y346250D02*
D03*
X-538706Y338706D02*
D03*
X-538655Y331198D02*
D03*
X-531147Y331147D02*
D03*
X-531199Y338655D02*
D03*
X-531147Y346198D02*
D03*
X-531199Y353655D02*
D03*
Y361147D02*
D03*
X-531345Y368750D02*
D03*
X-568853Y168801D02*
D03*
X-568706Y161198D02*
D03*
Y153706D02*
D03*
X-568655Y146250D02*
D03*
X-568706Y138706D02*
D03*
X-568655Y131198D02*
D03*
X-561345Y168801D02*
D03*
X-561199Y161198D02*
D03*
Y153706D02*
D03*
X-561147Y146250D02*
D03*
X-561199Y138706D02*
D03*
X-561147Y131198D02*
D03*
X-553853Y168801D02*
D03*
X-553706Y161198D02*
D03*
Y153706D02*
D03*
X-553655Y146250D02*
D03*
X-553706Y138706D02*
D03*
X-553655Y131198D02*
D03*
X-546147Y168801D02*
D03*
X-546000Y161198D02*
D03*
Y153706D02*
D03*
X-545949Y146250D02*
D03*
X-546000Y138706D02*
D03*
X-545949Y131198D02*
D03*
X-538853Y168801D02*
D03*
X-538706Y161198D02*
D03*
Y153706D02*
D03*
X-538655Y146250D02*
D03*
X-538706Y138706D02*
D03*
X-538655Y131198D02*
D03*
X-531147Y131147D02*
D03*
X-531199Y138655D02*
D03*
X-531147Y146198D02*
D03*
X-531199Y153655D02*
D03*
Y161147D02*
D03*
X-531345Y168750D02*
D03*
X-731147Y131199D02*
D03*
X-731294Y138801D02*
D03*
Y146294D02*
D03*
X-731345Y153750D02*
D03*
X-731294Y161294D02*
D03*
X-731345Y168801D02*
D03*
X-738655Y131199D02*
D03*
X-738801Y138801D02*
D03*
Y146294D02*
D03*
X-738853Y153750D02*
D03*
X-738801Y161294D02*
D03*
X-738853Y168801D02*
D03*
X-746147Y131199D02*
D03*
X-746294Y138801D02*
D03*
Y146294D02*
D03*
X-746345Y153750D02*
D03*
X-746294Y161294D02*
D03*
X-746345Y168801D02*
D03*
X-753853Y131199D02*
D03*
X-754000Y138801D02*
D03*
Y146294D02*
D03*
X-754051Y153750D02*
D03*
X-754000Y161294D02*
D03*
X-754051Y168801D02*
D03*
X-761147Y131199D02*
D03*
X-761294Y138801D02*
D03*
Y146294D02*
D03*
X-761345Y153750D02*
D03*
X-761294Y161294D02*
D03*
X-761345Y168801D02*
D03*
X-768853Y168853D02*
D03*
X-768801Y161345D02*
D03*
X-768853Y153801D02*
D03*
X-768801Y146345D02*
D03*
Y138853D02*
D03*
X-768655Y131250D02*
D03*
X-731147Y331199D02*
D03*
X-731294Y338801D02*
D03*
Y346294D02*
D03*
X-731345Y353750D02*
D03*
X-731294Y361294D02*
D03*
X-731345Y368801D02*
D03*
X-738655Y331199D02*
D03*
X-738801Y338801D02*
D03*
Y346294D02*
D03*
X-738853Y353750D02*
D03*
X-738801Y361294D02*
D03*
X-738853Y368801D02*
D03*
X-746147Y331199D02*
D03*
X-746294Y338801D02*
D03*
Y346294D02*
D03*
X-746345Y353750D02*
D03*
X-746294Y361294D02*
D03*
X-746345Y368801D02*
D03*
X-753853Y331199D02*
D03*
X-754000Y338801D02*
D03*
Y346294D02*
D03*
X-754051Y353750D02*
D03*
X-754000Y361294D02*
D03*
X-754051Y368801D02*
D03*
X-761147Y331199D02*
D03*
X-761294Y338801D02*
D03*
Y346294D02*
D03*
X-761345Y353750D02*
D03*
X-761294Y361294D02*
D03*
X-761345Y368801D02*
D03*
X-768853Y368853D02*
D03*
X-768801Y361345D02*
D03*
X-768853Y353801D02*
D03*
X-768801Y346345D02*
D03*
Y338853D02*
D03*
X-768655Y331250D02*
D03*
X-731147Y531199D02*
D03*
X-731294Y538801D02*
D03*
Y546294D02*
D03*
X-731345Y553750D02*
D03*
X-731294Y561294D02*
D03*
X-731345Y568801D02*
D03*
X-738655Y531199D02*
D03*
X-738801Y538801D02*
D03*
Y546294D02*
D03*
X-738853Y553750D02*
D03*
X-738801Y561294D02*
D03*
X-738853Y568801D02*
D03*
X-746147Y531199D02*
D03*
X-746294Y538801D02*
D03*
Y546294D02*
D03*
X-746345Y553750D02*
D03*
X-746294Y561294D02*
D03*
X-746345Y568801D02*
D03*
X-753853Y531199D02*
D03*
X-754000Y538801D02*
D03*
Y546294D02*
D03*
X-754051Y553750D02*
D03*
X-754000Y561294D02*
D03*
X-754051Y568801D02*
D03*
X-761147Y531199D02*
D03*
X-761294Y538801D02*
D03*
Y546294D02*
D03*
X-761345Y553750D02*
D03*
X-761294Y561294D02*
D03*
X-761345Y568801D02*
D03*
X-768853Y568853D02*
D03*
X-768801Y561345D02*
D03*
X-768853Y553801D02*
D03*
X-768801Y546345D02*
D03*
Y538853D02*
D03*
X-768655Y531250D02*
D03*
X-731147Y731199D02*
D03*
X-731294Y738801D02*
D03*
Y746294D02*
D03*
X-731345Y753750D02*
D03*
X-731294Y761294D02*
D03*
X-731345Y768801D02*
D03*
X-738655Y731199D02*
D03*
X-738801Y738801D02*
D03*
Y746294D02*
D03*
X-738853Y753750D02*
D03*
X-738801Y761294D02*
D03*
X-738853Y768801D02*
D03*
X-746147Y731199D02*
D03*
X-746294Y738801D02*
D03*
Y746294D02*
D03*
X-746345Y753750D02*
D03*
X-746294Y761294D02*
D03*
X-746345Y768801D02*
D03*
X-753853Y731199D02*
D03*
X-754000Y738801D02*
D03*
Y746294D02*
D03*
X-754051Y753750D02*
D03*
X-754000Y761294D02*
D03*
X-754051Y768801D02*
D03*
X-761147Y731199D02*
D03*
X-761294Y738801D02*
D03*
Y746294D02*
D03*
X-761345Y753750D02*
D03*
X-761294Y761294D02*
D03*
X-761345Y768801D02*
D03*
X-768853Y768853D02*
D03*
X-768801Y761345D02*
D03*
X-768853Y753801D02*
D03*
X-768801Y746345D02*
D03*
Y738853D02*
D03*
X-768655Y731250D02*
D03*
D106*
X-650000Y250000D02*
D03*
Y650000D02*
D03*
X-37500Y1275000D02*
D03*
X-37500Y37500D02*
D03*
X-862500D02*
D03*
X-37500Y862500D02*
D03*
X-862500D02*
D03*
X-250000Y250000D02*
D03*
Y650000D02*
D03*
X-544000Y1275000D02*
D03*
X-862500Y1275000D02*
D03*
D107*
X-280000Y1295000D02*
D03*
X-315000D02*
D03*
X-350000D02*
D03*
D108*
X-699000Y1297000D02*
D03*
X-657000D02*
D03*
X-615000D02*
D03*
Y1242000D02*
D03*
X-657000D02*
D03*
X-699000D02*
D03*
D109*
X-111000Y1264999D02*
D03*
X-155000D02*
D03*
M02*
